ISO-10303-21;
HEADER;
/* Generated by software containing ST-Developer
 * from STEP Tools, Inc. (www.steptools.com) 
 */
/* OPTION: using custom schema-name function */

FILE_DESCRIPTION(
/* description */ (''),
/* implementation_level */ '2;1');

FILE_NAME(
/* name */ 'aircraft_radome',
/* time_stamp */ '2026-09-17T15:24:25+01:00',
/* author */ (''),
/* organization */ (''),
/* preprocessor_version */ 'ST-DEVELOPER v19.2',
/* originating_system */ 'Rhino 8.35',
/* authorisation */ '');

FILE_SCHEMA (('CONFIG_CONTROL_DESIGN'));
ENDSEC;

DATA;
#10=SHAPE_REPRESENTATION_RELATIONSHIP('','',#120,#12);
#11=SHELL_BASED_SURFACE_MODEL('shell_1',(#13));
#12=MANIFOLD_SURFACE_SHAPE_REPRESENTATION('shell_rep_0',(#11,#122),#119);
#13=OPEN_SHELL('',(#14));
#14=ADVANCED_FACE('',(#15),#33,.T.);
#15=FACE_OUTER_BOUND('',#16,.T.);
#16=EDGE_LOOP('',(#17,#18,#19,#20));
#17=ORIENTED_EDGE('',*,*,#21,.T.);
#18=ORIENTED_EDGE('',*,*,#22,.T.);
#19=ORIENTED_EDGE('',*,*,#23,.T.);
#20=ORIENTED_EDGE('',*,*,#24,.T.);
#21=EDGE_CURVE('',#29,#30,#25,.T.);
#22=EDGE_CURVE('',#30,#31,#26,.T.);
#23=EDGE_CURVE('',#31,#32,#27,.T.);
#24=EDGE_CURVE('',#32,#29,#28,.T.);
#25=B_SPLINE_CURVE_WITH_KNOTS('',3,(#707,#708,#709,#710,#711,#712,#713,
#714,#715,#716,#717,#718,#719,#720,#721,#722,#723,#724,#725,#726,#727,#728,
#729),.UNSPECIFIED.,.F.,.F.,(4,1,1,1,1,1,1,1,1,1,1,1,1,1,1,1,1,1,1,1,4),
(0.,1.84943846628754,2.77504454171848,3.70144881057908,4.62874588207213,
5.55710635468354,6.48683917321705,7.41837640723744,8.35218763354488,9.28868083109241,
10.2281593115274,11.1708703616883,12.1171245900866,13.0674253523079,14.022554401406,
14.9836144347951,15.9521110824852,16.9302629729707,17.9219965929281,18.9366198910247,
21.2419860931235),.UNSPECIFIED.);
#26=B_SPLINE_CURVE_WITH_KNOTS('',3,(#730,#731,#732,#733,#734,#735,#736,
#737,#738,#739,#740,#741,#742,#743,#744,#745,#746,#747,#748,#749,#750,#751,
#752,#753,#754),.UNSPECIFIED.,.F.,.F.,(4,1,1,1,1,1,1,1,1,1,1,1,1,1,1,1,
1,1,1,1,1,1,4),(0.,1.69674049948113,2.50116849559804,3.277679832581,4.05160169232014,
4.83996360049143,5.6592852219064,6.51114972024575,7.40492964225758,8.33985676322009,
9.30573071337848,10.2879896112134,11.2705830651705,12.2373053488566,13.1728144510241,
14.0666906396227,14.9182611496885,15.7372292490546,16.5254279333538,17.299370916961,
18.0758928184501,18.8802634372418,20.577160057835),.UNSPECIFIED.);
#27=B_SPLINE_CURVE_WITH_KNOTS('',3,(#755,#756,#757,#758,#759,#760,#761,
#762,#763,#764,#765,#766,#767,#768,#769,#770,#771,#772,#773,#774,#775,#776,
#777),.UNSPECIFIED.,.F.,.F.,(4,1,1,1,1,1,1,1,1,1,1,1,1,1,1,1,1,1,1,1,4),
(-21.2419860931235,-18.9366198910247,-17.9219965929281,-16.9302629729707,
-15.9521110824852,-14.9836144347951,-14.022554401406,-13.0674253523079,
-12.1171245900866,-11.1708703616883,-10.2281593115274,-9.28868083109241,
-8.35218763354488,-7.41837640723744,-6.48683917321705,-5.55710635468354,
-4.62874588207213,-3.70144881057908,-2.77504454171848,-1.84943846628754,
0.),.UNSPECIFIED.);
#28=B_SPLINE_CURVE_WITH_KNOTS('',3,(#778,#779,#780,#781,#782,#783,#784,
#785,#786,#787,#788,#789,#790,#791,#792,#793,#794,#795,#796,#797,#798,#799,
#800,#801,#802),.UNSPECIFIED.,.F.,.F.,(4,1,1,1,1,1,1,1,1,1,1,1,1,1,1,1,
1,1,1,1,1,1,4),(-20.577160057835,-18.8802634372418,-18.0758928184501,-17.299370916961,
-16.5254279333538,-15.7372292490546,-14.9182611496885,-14.0666906396227,
-13.1728144510241,-12.2373053488566,-11.2705830651705,-10.2879896112134,
-9.30573071337848,-8.33985676322009,-7.40492964225758,-6.51114972024575,
-5.6592852219064,-4.83996360049143,-4.05160169232014,-3.277679832581,-2.50116849559804,
-1.69674049948113,0.),.UNSPECIFIED.);
#29=VERTEX_POINT('',#703);
#30=VERTEX_POINT('',#704);
#31=VERTEX_POINT('',#705);
#32=VERTEX_POINT('',#706);
#33=B_SPLINE_SURFACE_WITH_KNOTS('',3,3,((#128,#129,#130,#131,#132,#133,
#134,#135,#136,#137,#138,#139,#140,#141,#142,#143,#144,#145,#146,#147,#148,
#149,#150,#151,#152),(#153,#154,#155,#156,#157,#158,#159,#160,#161,#162,
#163,#164,#165,#166,#167,#168,#169,#170,#171,#172,#173,#174,#175,#176,#177),
(#178,#179,#180,#181,#182,#183,#184,#185,#186,#187,#188,#189,#190,#191,
#192,#193,#194,#195,#196,#197,#198,#199,#200,#201,#202),(#203,#204,#205,
#206,#207,#208,#209,#210,#211,#212,#213,#214,#215,#216,#217,#218,#219,#220,
#221,#222,#223,#224,#225,#226,#227),(#228,#229,#230,#231,#232,#233,#234,
#235,#236,#237,#238,#239,#240,#241,#242,#243,#244,#245,#246,#247,#248,#249,
#250,#251,#252),(#253,#254,#255,#256,#257,#258,#259,#260,#261,#262,#263,
#264,#265,#266,#267,#268,#269,#270,#271,#272,#273,#274,#275,#276,#277),
(#278,#279,#280,#281,#282,#283,#284,#285,#286,#287,#288,#289,#290,#291,
#292,#293,#294,#295,#296,#297,#298,#299,#300,#301,#302),(#303,#304,#305,
#306,#307,#308,#309,#310,#311,#312,#313,#314,#315,#316,#317,#318,#319,#320,
#321,#322,#323,#324,#325,#326,#327),(#328,#329,#330,#331,#332,#333,#334,
#335,#336,#337,#338,#339,#340,#341,#342,#343,#344,#345,#346,#347,#348,#349,
#350,#351,#352),(#353,#354,#355,#356,#357,#358,#359,#360,#361,#362,#363,
#364,#365,#366,#367,#368,#369,#370,#371,#372,#373,#374,#375,#376,#377),
(#378,#379,#380,#381,#382,#383,#384,#385,#386,#387,#388,#389,#390,#391,
#392,#393,#394,#395,#396,#397,#398,#399,#400,#401,#402),(#403,#404,#405,
#406,#407,#408,#409,#410,#411,#412,#413,#414,#415,#416,#417,#418,#419,#420,
#421,#422,#423,#424,#425,#426,#427),(#428,#429,#430,#431,#432,#433,#434,
#435,#436,#437,#438,#439,#440,#441,#442,#443,#444,#445,#446,#447,#448,#449,
#450,#451,#452),(#453,#454,#455,#456,#457,#458,#459,#460,#461,#462,#463,
#464,#465,#466,#467,#468,#469,#470,#471,#472,#473,#474,#475,#476,#477),
(#478,#479,#480,#481,#482,#483,#484,#485,#486,#487,#488,#489,#490,#491,
#492,#493,#494,#495,#496,#497,#498,#499,#500,#501,#502),(#503,#504,#505,
#506,#507,#508,#509,#510,#511,#512,#513,#514,#515,#516,#517,#518,#519,#520,
#521,#522,#523,#524,#525,#526,#527),(#528,#529,#530,#531,#532,#533,#534,
#535,#536,#537,#538,#539,#540,#541,#542,#543,#544,#545,#546,#547,#548,#549,
#550,#551,#552),(#553,#554,#555,#556,#557,#558,#559,#560,#561,#562,#563,
#564,#565,#566,#567,#568,#569,#570,#571,#572,#573,#574,#575,#576,#577),
(#578,#579,#580,#581,#582,#583,#584,#585,#586,#587,#588,#589,#590,#591,
#592,#593,#594,#595,#596,#597,#598,#599,#600,#601,#602),(#603,#604,#605,
#606,#607,#608,#609,#610,#611,#612,#613,#614,#615,#616,#617,#618,#619,#620,
#621,#622,#623,#624,#625,#626,#627),(#628,#629,#630,#631,#632,#633,#634,
#635,#636,#637,#638,#639,#640,#641,#642,#643,#644,#645,#646,#647,#648,#649,
#650,#651,#652),(#653,#654,#655,#656,#657,#658,#659,#660,#661,#662,#663,
#664,#665,#666,#667,#668,#669,#670,#671,#672,#673,#674,#675,#676,#677),
(#678,#679,#680,#681,#682,#683,#684,#685,#686,#687,#688,#689,#690,#691,
#692,#693,#694,#695,#696,#697,#698,#699,#700,#701,#702)),.UNSPECIFIED.,
 .F.,.F.,.F.,(4,1,1,1,1,1,1,1,1,1,1,1,1,1,1,1,1,1,1,1,4),(4,1,1,1,1,1,1,
1,1,1,1,1,1,1,1,1,1,1,1,1,1,1,4),(0.,1.84943846628754,2.77504454171848,
3.70144881057908,4.62874588207213,5.55710635468354,6.48683917321705,7.41837640723744,
8.35218763354488,9.28868083109241,10.2281593115274,11.1708703616883,12.1171245900866,
13.0674253523079,14.022554401406,14.9836144347951,15.9521110824852,16.9302629729707,
17.9219965929281,18.9366198910247,21.2419860931235),(0.,1.69674049948113,
2.50116849559804,3.277679832581,4.05160169232014,4.83996360049143,5.6592852219064,
6.51114972024575,7.40492964225758,8.33985676322009,9.30573071337848,10.2879896112134,
11.2705830651705,12.2373053488566,13.1728144510241,14.0666906396227,14.9182611496885,
15.7372292490546,16.5254279333538,17.299370916961,18.0758928184501,18.8802634372418,
20.577160057835),.UNSPECIFIED.);
#34=SHAPE_DEFINITION_REPRESENTATION(#35,#120);
#35=PRODUCT_DEFINITION_SHAPE($,$,#37);
#36=PRODUCT_DEFINITION_CONTEXT('3D Mechanical Parts',#109,'design');
#37=PRODUCT_DEFINITION('A','First version',#79,#36);
#38=DATE_TIME_ROLE('classification_date');
#39=DATE_TIME_ROLE('creation_date');
#40=APPLIED_DATE_AND_TIME_ASSIGNMENT(#64,#38,(#43));
#41=APPLIED_DATE_AND_TIME_ASSIGNMENT(#66,#39,(#37));
#42=SECURITY_CLASSIFICATION_LEVEL('unclassified');
#43=SECURITY_CLASSIFICATION('A','Security for version',#42);
#44=APPLIED_SECURITY_CLASSIFICATION_ASSIGNMENT(#43,(#79));
#45=APPROVAL_ROLE('Version approval');
#46=APPROVAL_ROLE('Version Security approval');
#47=APPROVAL_ROLE('Definition approval');
#48=APPROVAL_PERSON_ORGANIZATION(#97,#73,#45);
#49=APPROVAL_PERSON_ORGANIZATION(#98,#74,#46);
#50=APPROVAL_PERSON_ORGANIZATION(#101,#75,#47);
#51=COORDINATED_UNIVERSAL_TIME_OFFSET(5,0,.BEHIND.);
#52=LOCAL_TIME(0,0,0.,#51);
#53=LOCAL_TIME(0,0,0.,#51);
#54=LOCAL_TIME(0,0,0.,#51);
#55=LOCAL_TIME(0,0,0.,#51);
#56=LOCAL_TIME(0,0,0.,#51);
#57=CALENDAR_DATE(1999,1,1);
#58=CALENDAR_DATE(1999,1,1);
#59=CALENDAR_DATE(1999,1,1);
#60=CALENDAR_DATE(1999,1,1);
#61=CALENDAR_DATE(1999,1,1);
#62=DATE_AND_TIME(#57,#52);
#63=DATE_AND_TIME(#58,#53);
#64=DATE_AND_TIME(#59,#54);
#65=DATE_AND_TIME(#60,#55);
#66=DATE_AND_TIME(#61,#56);
#67=APPROVAL_DATE_TIME(#62,#73);
#68=APPROVAL_DATE_TIME(#63,#74);
#69=APPROVAL_DATE_TIME(#65,#75);
#70=APPROVAL_STATUS('not_yet_approved');
#71=APPROVAL_STATUS('not_yet_approved');
#72=APPROVAL_STATUS('approved');
#73=APPROVAL(#70,'Version approval');
#74=APPROVAL(#71,'Version Security approval');
#75=APPROVAL(#72,'Definition approval');
#76=APPLIED_APPROVAL_ASSIGNMENT(#73,(#79));
#77=APPLIED_APPROVAL_ASSIGNMENT(#74,(#43));
#78=APPLIED_APPROVAL_ASSIGNMENT(#75,(#37));
#79=PRODUCT_DEFINITION_FORMATION_WITH_SPECIFIED_SOURCE('A',
'First version',#111,.MADE.);
#80=PERSON_AND_ORGANIZATION_ROLE('design_owner');
#81=PERSON_AND_ORGANIZATION_ROLE('creator');
#82=PERSON_AND_ORGANIZATION_ROLE('design_supplier');
#83=PERSON_AND_ORGANIZATION_ROLE('classification_officer');
#84=PERSON_AND_ORGANIZATION_ROLE('creator');
#85=ORGANIZATION('STI','lab','lab');
#86=ORGANIZATION('STI','unknown','unknown');
#87=ORGANIZATION('STI','unknown','unknown');
#88=ORGANIZATION('STI','unknown','unknown');
#89=ORGANIZATION('STI','unknown','unknown');
#90=ORGANIZATION('STI','unknown','unknown');
#91=ORGANIZATION('STI','unknown','unknown');
#92=PERSON('1','Box','vc60',$,$,$);
#93=PERSON('2','last','first',$,$,$);
#94=PERSON('3','President','Mr.',$,$,$);
#95=PERSON_AND_ORGANIZATION(#92,#85);
#96=PERSON_AND_ORGANIZATION(#93,#86);
#97=PERSON_AND_ORGANIZATION(#94,#87);
#98=PERSON_AND_ORGANIZATION(#94,#88);
#99=PERSON_AND_ORGANIZATION(#94,#89);
#100=PERSON_AND_ORGANIZATION(#93,#90);
#101=PERSON_AND_ORGANIZATION(#94,#91);
#102=APPLIED_PERSON_AND_ORGANIZATION_ASSIGNMENT(#95,#80,(#111));
#103=APPLIED_PERSON_AND_ORGANIZATION_ASSIGNMENT(#96,#81,(#79));
#104=APPLIED_PERSON_AND_ORGANIZATION_ASSIGNMENT(#96,#82,(#79));
#105=APPLIED_PERSON_AND_ORGANIZATION_ASSIGNMENT(#99,#83,(#43));
#106=APPLIED_PERSON_AND_ORGANIZATION_ASSIGNMENT(#100,#84,(#37));
#107=PRODUCT_RELATED_PRODUCT_CATEGORY('detail','detail',(#111));
#108=APPLICATION_PROTOCOL_DEFINITION('International Standard',
'config_control_design',1994,#109);
#109=APPLICATION_CONTEXT(
'configuration controlled 3d designs of mechanical parts and assemblie
s');
#110=PRODUCT_CONTEXT('3D Mechanical Parts',#109,'mechanical');
#111=PRODUCT('Document','Document','',(#110));
#112=(
LENGTH_UNIT()
NAMED_UNIT(*)
SI_UNIT(.MILLI.,.METRE.)
);
#113=(
NAMED_UNIT(*)
PLANE_ANGLE_UNIT()
SI_UNIT($,.RADIAN.)
);
#114=DIMENSIONAL_EXPONENTS(0.,0.,0.,0.,0.,0.,0.);
#115=PLANE_ANGLE_MEASURE_WITH_UNIT(PLANE_ANGLE_MEASURE(0.01745329252),#113);
#116=(
CONVERSION_BASED_UNIT('DEGREES',#115)
NAMED_UNIT(#114)
PLANE_ANGLE_UNIT()
);
#117=(
NAMED_UNIT(*)
SI_UNIT($,.STERADIAN.)
SOLID_ANGLE_UNIT()
);
#118=UNCERTAINTY_MEASURE_WITH_UNIT(LENGTH_MEASURE(0.001),#112,
'DISTANCE_ACCURACY_VALUE',
'Maximum model space distance between geometric entities at asserted c
onnectivities');
#119=(
GEOMETRIC_REPRESENTATION_CONTEXT(3)
GLOBAL_UNCERTAINTY_ASSIGNED_CONTEXT((#118))
GLOBAL_UNIT_ASSIGNED_CONTEXT((#117,#116,#112))
REPRESENTATION_CONTEXT('ID1','3D')
);
#120=SHAPE_REPRESENTATION('Document',(#121,#122),#119);
#121=AXIS2_PLACEMENT_3D($,#127,#123,#124);
#122=AXIS2_PLACEMENT_3D($,#803,#125,#126);
#123=DIRECTION('',(0.,0.,1.));
#124=DIRECTION('',(1.,0.,0.));
#125=DIRECTION('',(0.,0.,1.));
#126=DIRECTION('',(1.,0.,0.));
#127=CARTESIAN_POINT('',(0.,0.,0.));
#128=CARTESIAN_POINT('',(0.,-3.5,-4.50333209967908));
#129=CARTESIAN_POINT('',(0.,-4.34716169708887,-4.14004639631666));
#130=CARTESIAN_POINT('',(0.,-5.48217514946808,-3.39282709600574));
#131=CARTESIAN_POINT('',(0.,-6.49827830907374,-2.04211652163333));
#132=CARTESIAN_POINT('',(0.,-6.94982190670003,-0.92630128308242));
#133=CARTESIAN_POINT('',(0.,-7.04770982470087,0.273185451618941));
#134=CARTESIAN_POINT('',(0.,-6.80630267879755,1.37686824136208));
#135=CARTESIAN_POINT('',(0.,-6.23459671223646,2.45789289669138));
#136=CARTESIAN_POINT('',(0.,-5.36260209017596,3.40593254974983));
#137=CARTESIAN_POINT('',(0.,-4.24665040123511,4.18525783359255));
#138=CARTESIAN_POINT('',(0.,-2.94199127036704,4.76291354212028));
#139=CARTESIAN_POINT('',(0.,-1.50751980817414,5.11942588632795));
#140=CARTESIAN_POINT('',(0.,0.000976689382695628,5.24065034236121));
#141=CARTESIAN_POINT('',(0.,1.50775631778235,5.11930741384664));
#142=CARTESIAN_POINT('',(0.,2.94168919504166,4.76300659189852));
#143=CARTESIAN_POINT('',(0.,4.2460176467358,4.18559247871968));
#144=CARTESIAN_POINT('',(0.,5.36213931802196,3.40636058445111));
#145=CARTESIAN_POINT('',(0.,6.23458127927327,2.45799120339025));
#146=CARTESIAN_POINT('',(0.,6.80645358074517,1.37650970482204));
#147=CARTESIAN_POINT('',(0.,7.04770078004518,0.272909532266935));
#148=CARTESIAN_POINT('',(0.,6.94980947735318,-0.926242059692745));
#149=CARTESIAN_POINT('',(0.,6.49839424105147,-2.04192764123524));
#150=CARTESIAN_POINT('',(0.,5.48201830005126,-3.39308319054439));
#151=CARTESIAN_POINT('',(0.,4.34672830662165,-4.14025858759263));
#152=CARTESIAN_POINT('',(0.,3.5,-4.50333209967908));
#153=CARTESIAN_POINT('',(0.606422857246906,-3.43019127016064,-4.43296471840679));
#154=CARTESIAN_POINT('',(0.606422857272249,-4.25852426116977,-4.0754959420443));
#155=CARTESIAN_POINT('',(0.606422857199568,-5.37034077984168,-3.34015979434436));
#156=CARTESIAN_POINT('',(0.606422857311549,-6.37084504674143,-2.01076810178133));
#157=CARTESIAN_POINT('',(0.606422857023882,-6.81889027745004,-0.912543364065257));
#158=CARTESIAN_POINT('',(0.606422858067419,-6.92151127272117,0.268133709520401));
#159=CARTESIAN_POINT('',(0.606423003498415,-6.69083044654463,1.36571457042325));
#160=CARTESIAN_POINT('',(0.606423102348181,-6.13520590075777,2.43820406335537));
#161=CARTESIAN_POINT('',(0.606423200726904,-5.28283083084226,3.38100769989507));
#162=CARTESIAN_POINT('',(0.606423278268221,-4.18859722173448,4.15741208585403));
#163=CARTESIAN_POINT('',(0.606423336674678,-2.90678843776731,4.73521289656495));
#164=CARTESIAN_POINT('',(0.60642337247709,-1.49572195688713,5.09311133807973));
#165=CARTESIAN_POINT('',(0.606423384705177,-0.0109583468735316,5.22177387482052));
#166=CARTESIAN_POINT('',(0.606423372465142,1.47211505633639,5.09267823120976));
#167=CARTESIAN_POINT('',(0.606423336684165,2.88265186085608,4.73474002460481));
#168=CARTESIAN_POINT('',(0.606423278301645,4.16413650365927,4.15702697393861));
#169=CARTESIAN_POINT('',(0.606423200769889,5.25853844012242,3.38069432115255));
#170=CARTESIAN_POINT('',(0.606423102360935,6.11135193514948,2.43768128329977));
#171=CARTESIAN_POINT('',(0.606423003451992,6.66713715030218,1.3649787441326));
#172=CARTESIAN_POINT('',(0.606422858055024,6.89766137433724,0.267783489511557));
#173=CARTESIAN_POINT('',(0.606422857027251,6.79503902256357,-0.912224103079632));
#174=CARTESIAN_POINT('',(0.606422857310552,6.34711999568863,-2.01004512670417));
#175=CARTESIAN_POINT('',(0.606422857200288,5.34634652625588,-3.3396444604155));
#176=CARTESIAN_POINT('',(0.606422857271874,4.23426082861812,-4.07497337092698));
#177=CARTESIAN_POINT('',(0.606422857246906,3.40635181302935,-4.432336874989));
#178=CARTESIAN_POINT('',(1.5160794477051,-3.32021714523806,-4.31577922548253));
#179=CARTESIAN_POINT('',(1.51607944761939,-4.12008777385823,-3.96459804395877));
#180=CARTESIAN_POINT('',(1.51607944786518,-5.19681418263499,-3.24659635482108));
#181=CARTESIAN_POINT('',(1.51607944748649,-6.17365400925718,-1.95582297041213));
#182=CARTESIAN_POINT('',(1.5160794484593,-6.61633193110462,-0.891673607039504));
#183=CARTESIAN_POINT('',(1.51607944493037,-6.72602417115868,0.251467274822989));
#184=CARTESIAN_POINT('',(1.51607895312707,-6.51149296523814,1.33156823897752));
#185=CARTESIAN_POINT('',(1.51607861884728,-5.98013706647365,2.38448274040004));
#186=CARTESIAN_POINT('',(1.51607828616043,-5.15741695168035,3.31585850052965));
#187=CARTESIAN_POINT('',(1.51607802393933,-4.09605070011547,4.0879457941235));
#188=CARTESIAN_POINT('',(1.51607782642649,-2.84885786799334,4.66951882288101));
#189=CARTESIAN_POINT('',(1.51607770535365,-1.47327391733785,5.03579011634186));
#190=CARTESIAN_POINT('',(1.51607766400198,-0.024504437585085,5.18351084606246));
#191=CARTESIAN_POINT('',(1.51607770539405,1.42261527838088,5.05082381925669));
#192=CARTESIAN_POINT('',(1.51607782639441,2.79768305630136,4.69713216336984));
#193=CARTESIAN_POINT('',(1.5160780238263,4.04456164023284,4.12318963070705));
#194=CARTESIAN_POINT('',(1.51607828601507,5.10609369173372,3.35216595450859));
#195=CARTESIAN_POINT('',(1.51607861880416,5.92923874426666,2.41469933307472));
#196=CARTESIAN_POINT('',(1.51607895328406,6.46074677188437,1.34962579577604));
#197=CARTESIAN_POINT('',(1.51607944497229,6.67512643385362,0.254974876696757));
#198=CARTESIAN_POINT('',(1.51607944844791,6.5654358795993,-0.904273274021908));
#199=CARTESIAN_POINT('',(1.51607944748986,6.12288089181544,-1.98171899101868));
#200=CARTESIAN_POINT('',(1.51607944786274,5.14577730265673,-3.28409154653882));
#201=CARTESIAN_POINT('',(1.51607944762066,4.06879282909523,-4.00030912985098));
#202=CARTESIAN_POINT('',(1.5160794477051,3.26933194103875,-4.34625828668323));
#203=CARTESIAN_POINT('',(2.7279319849061,-3.16776345928064,-4.14426071432785));
#204=CARTESIAN_POINT('',(2.72793201056604,-3.92943336647645,-3.79895655452431));
#205=CARTESIAN_POINT('',(2.72793193697603,-4.95878816131693,-3.10397558673984));
#206=CARTESIAN_POINT('',(2.72793205035798,-5.90291872595247,-1.8729542788232));
#207=CARTESIAN_POINT('',(2.72793175909319,-6.33750555286937,-0.863528116335634));
#208=CARTESIAN_POINT('',(2.72793281567711,-6.45575069793614,0.218387344510783));
#209=CARTESIAN_POINT('',(2.72808006493707,-6.26216701886253,1.26380944315522));
#210=CARTESIAN_POINT('',(2.72818015058062,-5.76292515877663,2.28134311184779));
#211=CARTESIAN_POINT('',(2.72827975929097,-4.97997397237586,3.19171032085429));
#212=CARTESIAN_POINT('',(2.72835827007537,-3.96313929812237,3.95648196786284));
#213=CARTESIAN_POINT('',(2.72841740676256,-2.76324052247276,4.54556428439259));
#214=CARTESIAN_POINT('',(2.72845365679949,-1.43643004089641,4.92895148546424));
#215=CARTESIAN_POINT('',(2.72846603776888,-0.037299484494998,5.10969241374612));
#216=CARTESIAN_POINT('',(2.72845364470142,1.36023714909811,4.98245112795331));
#217=CARTESIAN_POINT('',(2.7284174163698,2.68654999741019,4.6430174699527));
#218=CARTESIAN_POINT('',(2.72835830391716,3.88614791286552,4.08032437583311));
#219=CARTESIAN_POINT('',(2.72827980281391,4.90314470671908,3.31908556227011));
#220=CARTESIAN_POINT('',(2.7281801634945,5.68650258922194,2.38800003568731));
#221=CARTESIAN_POINT('',(2.72808001793151,6.18588538273902,1.32859765481785));
#222=CARTESIAN_POINT('',(2.72793280312747,6.37932433527042,0.231482464440049));
#223=CARTESIAN_POINT('',(2.72793176250382,6.26108469413882,-0.908252069216949));
#224=CARTESIAN_POINT('',(2.72793204934762,5.82661631837452,-1.96503836614898));
#225=CARTESIAN_POINT('',(2.7279319377064,4.88222962963723,-3.23599827923191));
#226=CARTESIAN_POINT('',(2.72793201018547,3.85263152186999,-3.92477528263354));
#227=CARTESIAN_POINT('',(2.7279319849061,3.09135222044453,-4.25209310759365));
#228=CARTESIAN_POINT('',(3.63707625655994,-3.05048563848977,-4.01343677266333));
#229=CARTESIAN_POINT('',(3.63707632138624,-3.78338705472533,-3.67230998178805));
#230=CARTESIAN_POINT('',(3.63707613547126,-4.77687510391969,-2.99494146256995));
#231=CARTESIAN_POINT('',(3.63707642191506,-5.69571273071649,-1.81072917273076));
#232=CARTESIAN_POINT('',(3.63707568607487,-6.12358851111863,-0.844391733190877));
#233=CARTESIAN_POINT('',(3.63707835538789,-6.24762192246762,0.189206222377223));
#234=CARTESIAN_POINT('',(3.63745036026154,-6.06930700226233,1.20546428342062));
#235=CARTESIAN_POINT('',(3.63770321278653,-5.5939309252732,2.19384780724491));
#236=CARTESIAN_POINT('',(3.63795486040579,-4.84090665107917,3.08639177922672));
#237=CARTESIAN_POINT('',(3.63815320703543,-3.85789963401773,3.8443950042379));
#238=CARTESIAN_POINT('',(3.63830260769016,-2.69419822897599,4.43858524694027));
#239=CARTESIAN_POINT('',(3.63839418839089,-1.40491946285634,4.83510840615654));
#240=CARTESIAN_POINT('',(3.63842546719632,-0.0440968643519078,5.04113486250032));
#241=CARTESIAN_POINT('',(3.63839415782677,1.31517495079578,4.92035210922606));
#242=CARTESIAN_POINT('',(3.63830263196152,2.60397033481648,4.59367207977711));
#243=CARTESIAN_POINT('',(3.63815329253204,3.76738103868338,4.0413512695763));
#244=CARTESIAN_POINT('',(3.63795497036049,4.75054720312395,3.28891874960258));
#245=CARTESIAN_POINT('',(3.63770324541166,5.5039643387,2.36358565717832));
#246=CARTESIAN_POINT('',(3.63745024150849,5.97947310400882,1.30881628853792));
#247=CARTESIAN_POINT('',(3.63707832368297,6.15764845166465,0.210212963920224));
#248=CARTESIAN_POINT('',(3.63707569469137,6.033623235101,-0.915625601002451));
#249=CARTESIAN_POINT('',(3.63707641936252,5.60586246411452,-1.95743335889123));
#250=CARTESIAN_POINT('',(3.63707613731643,4.68677470033479,-3.20497169603459));
#251=CARTESIAN_POINT('',(3.63707632042478,3.69305433277291,-3.87248874502628));
#252=CARTESIAN_POINT('',(3.63707625655994,2.96052909159526,-4.18510355829931));
#253=CARTESIAN_POINT('',(4.54628976242067,-2.93039802624078,-3.88658307734735));
#254=CARTESIAN_POINT('',(4.54628989345411,-3.63444335698255,-3.55052232205037));
#255=CARTESIAN_POINT('',(4.54628951766403,-4.59171215320077,-2.89152612782719));
#256=CARTESIAN_POINT('',(4.54629009665309,-5.48434248232646,-1.75372277067046));
#257=CARTESIAN_POINT('',(4.5462886092988,-5.90470304306862,-0.829620985484166));
#258=CARTESIAN_POINT('',(4.5462940047831,-6.03371410190915,0.156816282083778));
#259=CARTESIAN_POINT('',(4.54704593849823,-5.87007174530841,1.14361563067096));
#260=CARTESIAN_POINT('',(4.54755702948643,-5.41822952219613,2.10252753652049));
#261=CARTESIAN_POINT('',(4.54806568499785,-4.69519463938123,2.97614219095531));
#262=CARTESIAN_POINT('',(4.5484666031811,-3.74648807918262,3.7255923541278));
#263=CARTESIAN_POINT('',(4.54876858683053,-2.61983112987553,4.32246458500989));
#264=CARTESIAN_POINT('',(4.54895369896592,-1.36921462024992,4.72949969011164));
#265=CARTESIAN_POINT('',(4.54901692283753,-0.0479908131395732,4.95773944747975));
#266=CARTESIAN_POINT('',(4.54895363718665,1.27172685962262,4.84272832501323));
#267=CARTESIAN_POINT('',(4.54876863589026,2.52187464876999,4.52835933017238));
#268=CARTESIAN_POINT('',(4.54846677599545,3.6482511841452,3.98700261305782));
#269=CARTESIAN_POINT('',(4.54806590724936,4.59711365594122,3.24491932415722));
#270=CARTESIAN_POINT('',(4.54755709543163,5.320527400015,2.32787538359321));
#271=CARTESIAN_POINT('',(4.5470456984626,5.77249427724005,1.28096558446363));
#272=CARTESIAN_POINT('',(4.54629394069791,5.93600225620693,0.184798695688413));
#273=CARTESIAN_POINT('',(4.54628862671534,5.80700185706602,-0.924225449026891));
#274=CARTESIAN_POINT('',(4.54629009149363,5.38675277015325,-1.9485791909768));
#275=CARTESIAN_POINT('',(4.54628952139367,4.4938786071705,-3.17032459366656));
#276=CARTESIAN_POINT('',(4.54628989151071,3.53638837486716,-3.81625395166345));
#277=CARTESIAN_POINT('',(4.54628976242067,2.83270471847754,-4.11452443164424));
#278=CARTESIAN_POINT('',(5.45563519986304,-2.80746468218881,-3.76952925725107));
#279=CARTESIAN_POINT('',(5.45563543169677,-3.48257948054444,-3.44048132413281));
#280=CARTESIAN_POINT('',(5.45563476682209,-4.40324449567124,-2.80101775306994));
#281=CARTESIAN_POINT('',(5.45563579121094,-5.26859810901424,-1.70699311394395));
#282=CARTESIAN_POINT('',(5.45563315967737,-5.68048639359544,-0.821565778346804));
#283=CARTESIAN_POINT('',(5.455642705754,-5.81349702995508,0.122191181173835));
#284=CARTESIAN_POINT('',(5.45697308065058,-5.66379618042837,1.08192094105352));
#285=CARTESIAN_POINT('',(5.45787733937297,-5.23506446742987,2.01318761398244));
#286=CARTESIAN_POINT('',(5.45877728907569,-4.54206207874647,2.86766550732791));
#287=CARTESIAN_POINT('',(5.45948662219356,-3.62818689924176,3.60630273609616));
#288=CARTESIAN_POINT('',(5.46002091325977,-2.53955157249502,4.2016435771637));
#289=CARTESIAN_POINT('',(5.46034842688634,-1.32891292661928,4.61382018264651));
#290=CARTESIAN_POINT('',(5.46046028708086,-0.048794880961801,4.85783137233634));
#291=CARTESIAN_POINT('',(5.46034831758202,1.22986344343656,4.74501824408337));
#292=CARTESIAN_POINT('',(5.46002100005974,2.44004850743633,4.4401623896786));
#293=CARTESIAN_POINT('',(5.45948692794907,3.52841385043413,3.90909752808991));
#294=CARTESIAN_POINT('',(5.45877768229895,4.4424413929088,3.17897951688717));
#295=CARTESIAN_POINT('',(5.45787745604794,5.13580845911727,2.27424251593457));
#296=CARTESIAN_POINT('',(5.45697265596237,5.56465705365603,1.24110398912561));
#297=CARTESIAN_POINT('',(5.45564259236991,5.71422876405221,0.154655340095395));
#298=CARTESIAN_POINT('',(5.45563319049196,5.58123097855323,-0.931177304735067));
#299=CARTESIAN_POINT('',(5.45563578208245,5.16945052334958,-1.93277060270054));
#300=CARTESIAN_POINT('',(5.45563477342084,4.30385975179876,-3.12397040910097));
#301=CARTESIAN_POINT('',(5.45563542825837,3.38298403656533,-3.74830299939844));
#302=CARTESIAN_POINT('',(5.45563519986304,2.70821634327348,-4.03360514591494));
#303=CARTESIAN_POINT('',(6.36509753837083,-2.68161500130987,-3.66650357705859));
#304=CARTESIAN_POINT('',(6.36509791355212,-3.32772917659625,-3.34720933364767));
#305=CARTESIAN_POINT('',(6.36509683757177,-4.21136761543916,-2.72875130060248));
#306=CARTESIAN_POINT('',(6.36509849536126,-5.04822853218397,-1.67424367588519));
#307=CARTESIAN_POINT('',(6.36509423669652,-5.45054773606188,-0.821937880310048));
#308=CARTESIAN_POINT('',(6.36510968530811,-5.58643024612286,0.0860665632202787));
#309=CARTESIAN_POINT('',(6.3672626582888,-5.4498221049175,1.02304971490425));
#310=CARTESIAN_POINT('',(6.36872603872529,-5.04370127659956,1.93004309897472));
#311=CARTESIAN_POINT('',(6.37018244578689,-4.38076480880989,2.76579160863723));
#312=CARTESIAN_POINT('',(6.37133037411972,-3.50231323000076,3.49095360075644));
#313=CARTESIAN_POINT('',(6.37219502831031,-2.45280355796486,4.0791757075952));
#314=CARTESIAN_POINT('',(6.37272505032937,-1.28363522703238,4.48904852892286));
#315=CARTESIAN_POINT('',(6.3729060759764,-0.0463350042637634,4.73984737445329));
#316=CARTESIAN_POINT('',(6.37272487343996,1.18955391541688,4.62354811250293));
#317=CARTESIAN_POINT('',(6.37219516878048,2.35828434382602,4.32368852382342));
#318=CARTESIAN_POINT('',(6.37133086893013,3.40753462117165,3.80134806282526));
#319=CARTESIAN_POINT('',(6.37018308214816,4.286134656216,3.08491477379545));
#320=CARTESIAN_POINT('',(6.3687262275428,4.94942141413945,2.1976573155184));
#321=CARTESIAN_POINT('',(6.36726197100717,5.35565165669673,1.1862501871208));
#322=CARTESIAN_POINT('',(6.36510950181632,5.49213594461367,0.119359994063143));
#323=CARTESIAN_POINT('',(6.36509428656438,5.35626816036273,-0.934308067310244));
#324=CARTESIAN_POINT('',(6.36509848058845,4.9540530180924,-1.90570717921776));
#325=CARTESIAN_POINT('',(6.36509684825067,4.11696204388837,-3.05981101781746));
#326=CARTESIAN_POINT('',(6.36509790798768,3.23312346677049,-3.6627598768053));
#327=CARTESIAN_POINT('',(6.36509753837083,2.58734175618245,-3.93721896934086));
#328=CARTESIAN_POINT('',(7.27459175551967,-2.55273590053177,-3.57925716715925));
#329=CARTESIAN_POINT('',(7.27459232500173,-3.16977251238384,-3.27284535265177));
#330=CARTESIAN_POINT('',(7.27459069178727,-4.0159148999151,-2.67704245208369));
#331=CARTESIAN_POINT('',(7.27459320812114,-4.82292985315417,-1.65707668432909));
#332=CARTESIAN_POINT('',(7.27458674395762,-5.21445871371632,-0.831447142012086));
#333=CARTESIAN_POINT('',(7.27461019317405,-5.35195693517338,0.0488352806807121));
#334=CARTESIAN_POINT('',(7.27787815865071,-5.22749559056574,0.968167261130149));
#335=CARTESIAN_POINT('',(7.28009940192156,-4.84342827876782,1.85487288038801));
#336=CARTESIAN_POINT('',(7.282310060411,-4.21059379408446,2.67247025143959));
#337=CARTESIAN_POINT('',(7.28405248365321,-3.36822406079732,3.3811963427406));
#338=CARTESIAN_POINT('',(7.28536492931298,-2.35906820715401,3.95596573215155));
#339=CARTESIAN_POINT('',(7.28616944180604,-1.23303088968774,4.35504037420638));
#340=CARTESIAN_POINT('',(7.28644421792733,-0.0404537405824207,4.60236432574842));
#341=CARTESIAN_POINT('',(7.28616917330824,1.15076275500921,4.4759858254633));
#342=CARTESIAN_POINT('',(7.28536514253055,2.27637845098971,4.17587063168259));
#343=CARTESIAN_POINT('',(7.28405323471853,3.28528567554751,3.66036664324454));
#344=CARTESIAN_POINT('',(7.28231102633425,4.12779955962261,2.95949526026523));
#345=CARTESIAN_POINT('',(7.28009968852484,4.76096972077163,2.09555129467463));
#346=CARTESIAN_POINT('',(7.2778771154362,5.14513931981361,1.11491223706128));
#347=CARTESIAN_POINT('',(7.27460991465459,5.2694821494959,0.0787607222428312));
#348=CARTESIAN_POINT('',(7.27458681965132,5.13200017652486,-0.932500732520126));
#349=CARTESIAN_POINT('',(7.2745931856977,4.74057147259354,-1.86522732789777));
#350=CARTESIAN_POINT('',(7.27459070799661,3.93333403584876,-2.97478568416177));
#351=CARTESIAN_POINT('',(7.27459231655555,3.08700187749663,-3.55663862630895));
#352=CARTESIAN_POINT('',(7.27459175551967,2.47028301138015,-3.8227178464593));
#353=CARTESIAN_POINT('',(8.18401935021329,-2.42067033473143,-3.50659198736882));
#354=CARTESIAN_POINT('',(8.18402017388001,-3.00853018639762,-3.21610150145616));
#355=CARTESIAN_POINT('',(8.18401781169076,-3.81664731561863,-2.64462171882979));
#356=CARTESIAN_POINT('',(8.1840214511741,-4.59233339351735,-1.65459430126335));
#357=CARTESIAN_POINT('',(8.18401210177268,-4.97174242621007,-0.849601471232768));
#358=CARTESIAN_POINT('',(8.1840460173964,-5.10949579432442,0.0105046605611365));
#359=CARTESIAN_POINT('',(8.18877261829684,-4.99616265989704,0.916681086976497));
#360=CARTESIAN_POINT('',(8.19198529925051,-4.63355677192043,1.78659640398848));
#361=CARTESIAN_POINT('',(8.19518267097348,-4.03087971980617,2.58626535658389));
#362=CARTESIAN_POINT('',(8.19770281365074,-3.2253248610851,3.27541630128558));
#363=CARTESIAN_POINT('',(8.1996010610103,-2.25787586191149,3.83038919126434));
#364=CARTESIAN_POINT('',(8.20076466249301,-1.17679289002137,4.21032917756401));
#365=CARTESIAN_POINT('',(8.20116208317312,-0.0310280607415068,4.44412404687544));
#366=CARTESIAN_POINT('',(8.20076427415295,1.11342921055469,4.30158113140721));
#367=CARTESIAN_POINT('',(8.19960136939617,2.19410750296079,3.99638443326425));
#368=CARTESIAN_POINT('',(8.19770389994924,3.16131883584899,3.48618804890716));
#369=CARTESIAN_POINT('',(8.19518406803037,3.96701310544091,2.80298036473171));
#370=CARTESIAN_POINT('',(8.19198571377731,4.5700109671666,1.96826704035955));
#371=CARTESIAN_POINT('',(8.18877110945022,4.93271238034461,1.02736764585201));
#372=CARTESIAN_POINT('',(8.18404561456158,5.04593239803474,0.0330432424209443));
#373=CARTESIAN_POINT('',(8.18401221125176,4.90819642011223,-0.92586126415496));
#374=CARTESIAN_POINT('',(8.18402141874211,4.52888348824434,-1.81166536413926));
#375=CARTESIAN_POINT('',(8.18401783513501,3.75298301777593,-2.86938493465372));
#376=CARTESIAN_POINT('',(8.18402016166396,2.94468628015574,-3.43032906825939));
#377=CARTESIAN_POINT('',(8.18401935021329,2.35712936207582,-3.69034386788114));
#378=CARTESIAN_POINT('',(9.09333724152268,-2.28520173074033,-3.44443379654465));
#379=CARTESIAN_POINT('',(9.09333838883189,-2.84374293600252,-3.17235436178512));
#380=CARTESIAN_POINT('',(9.09333509847013,-3.61322678129772,-2.62673548898926));
#381=CARTESIAN_POINT('',(9.09334016801178,-4.35597544778295,-1.66347047442716));
#382=CARTESIAN_POINT('',(9.09332714496003,-4.72184275722498,-0.874740886349818));
#383=CARTESIAN_POINT('',(9.09337438701362,-4.85841216216614,-0.0292903358482397));
#384=CARTESIAN_POINT('',(9.099958206166,-4.75514369580252,0.866299781395835));
#385=CARTESIAN_POINT('',(9.10443324242117,-4.41339998828444,1.72136788242372));
#386=CARTESIAN_POINT('',(9.10888695400595,-3.84097721334366,2.50246629861678));
#387=CARTESIAN_POINT('',(9.11239733365823,-3.07305935943253,3.16883994210827));
#388=CARTESIAN_POINT('',(9.11504145732872,-2.14880148557699,3.69837558552106));
#389=CARTESIAN_POINT('',(9.11666227150131,-1.11465879937993,4.0521695849469));
#390=CARTESIAN_POINT('',(9.11721585026549,-0.0179759106790945,4.26402979640877));
#391=CARTESIAN_POINT('',(9.1166617305712,1.07745517053077,4.10111003702883));
#392=CARTESIAN_POINT('',(9.11504188688831,2.11121083997341,3.7875519799732));
#393=CARTESIAN_POINT('',(9.11239884679483,3.03524223284935,3.28214866084947));
#394=CARTESIAN_POINT('',(9.10888890000693,3.8032942920584,2.61899569268485));
#395=CARTESIAN_POINT('',(9.10443381982755,4.37602272307156,1.81895577057751));
#396=CARTESIAN_POINT('',(9.09995610444989,4.71785557129515,0.925602047227988));
#397=CARTESIAN_POINT('',(9.09337382589335,4.82101638923693,-0.0172805587909253));
#398=CARTESIAN_POINT('',(9.09332729745662,4.68446511458495,-0.915670009178173));
#399=CARTESIAN_POINT('',(9.09334012283632,4.31868968545454,-1.7477531063187));
#400=CARTESIAN_POINT('',(9.09333513112633,3.57573527452968,-2.74750840120472));
#401=CARTESIAN_POINT('',(9.09333837181578,2.80608177920557,-3.28745631506857));
#402=CARTESIAN_POINT('',(9.09333724152268,2.24782857803903,-3.54310324185699));
#403=CARTESIAN_POINT('',(10.0025913516652,-2.14603876186397,-3.38641569370752));
#404=CARTESIAN_POINT('',(10.0025929024622,-2.67505173344452,-3.13433150421604));
#405=CARTESIAN_POINT('',(10.00258845494,-3.40519054441296,-2.6158717622777));
#406=CARTESIAN_POINT('',(10.0025953073474,-4.11326725136179,-1.6784603614444));
#407=CARTESIAN_POINT('',(10.0025777043248,-4.46409291579912,-0.904284137458345));
#408=CARTESIAN_POINT('',(10.0026415605507,-4.59798710223453,-0.0712109397975723));
#409=CARTESIAN_POINT('',(10.0115407893333,-4.50370466108517,0.813398205666363));
#410=CARTESIAN_POINT('',(10.0175896145704,-4.18224792699878,1.65317141718775));
#411=CARTESIAN_POINT('',(10.0236096156378,-3.64024442663982,2.41379473748632));
#412=CARTESIAN_POINT('',(10.0283545320634,-2.91089467884476,3.05421916579358));
#413=CARTESIAN_POINT('',(10.0319285460101,-2.03145589627379,3.55394250234565));
#414=CARTESIAN_POINT('',(10.0341193710923,-1.0464084564801,3.87682261547013));
#415=CARTESIAN_POINT('',(10.0348676334546,-0.00126051687184312,4.06112796309067));
#416=CARTESIAN_POINT('',(10.0341186399269,1.04269423165829,3.8765518132525));
#417=CARTESIAN_POINT('',(10.031929126638,2.0273731008392,3.55377168877437));
#418=CARTESIAN_POINT('',(10.0283565773427,2.90659684187483,3.05417005439663));
#419=CARTESIAN_POINT('',(10.023612246012,3.63607509653492,2.41380009288799));
#420=CARTESIAN_POINT('',(10.0175903950401,4.17836877039605,1.65296396813332));
#421=CARTESIAN_POINT('',(10.0115379484818,4.49990863757602,0.812935698923654));
#422=CARTESIAN_POINT('',(10.0026408020946,4.59408898287856,-0.0714479027870668));
#423=CARTESIAN_POINT('',(10.0025779104517,4.46021325296247,-0.904120483137721));
#424=CARTESIAN_POINT('',(10.0025952462845,4.10947506889683,-1.6780830217729));
#425=CARTESIAN_POINT('',(10.0025884990808,3.40120186056716,-2.61569600931688));
#426=CARTESIAN_POINT('',(10.0025928794619,2.67090316818864,-3.13414265278638));
#427=CARTESIAN_POINT('',(10.0025913516652,2.14216311784308,-3.38612693893972));
#428=CARTESIAN_POINT('',(10.9118932813427,-2.00280133166621,-3.32485155869784));
#429=CARTESIAN_POINT('',(10.91189532689,-2.50197983974876,-3.0932523686122));
#430=CARTESIAN_POINT('',(10.9118894604761,-3.19192802198074,-2.60296254584539));
#431=CARTESIAN_POINT('',(10.9118984990048,-3.86346728727824,-1.69324330474138));
#432=CARTESIAN_POINT('',(10.9118752800957,-4.19768581634608,-0.935136925142349));
#433=CARTESIAN_POINT('',(10.9119595083528,-4.32738750644399,-0.116089438512866));
#434=CARTESIAN_POINT('',(10.9236978552418,-4.24102845948902,0.75361772328852));
#435=CARTESIAN_POINT('',(10.9316764352557,-3.93934145393261,1.57480004256897));
#436=CARTESIAN_POINT('',(10.9396169953343,-3.42802118725184,2.3115679686698));
#437=CARTESIAN_POINT('',(10.9458756809264,-2.73830458532238,2.92295843913761));
#438=CARTESIAN_POINT('',(10.9505899113971,-1.90547490971013,3.39007660594126));
#439=CARTESIAN_POINT('',(10.9534796747032,-0.971859546759359,3.68002836637218));
#440=CARTESIAN_POINT('',(10.9544666549671,0.0191072882175889,3.83458168902075));
#441=CARTESIAN_POINT('',(10.9534787102743,1.00894263502638,3.63056504453476));
#442=CARTESIAN_POINT('',(10.9505906772626,1.94220872494258,3.30058999898724));
#443=CARTESIAN_POINT('',(10.9458783787105,2.77483509207048,2.80959070632453));
#444=CARTESIAN_POINT('',(10.9396204648759,3.46467398561589,2.19508952505472));
#445=CARTESIAN_POINT('',(10.9316774647184,3.97626856095468,1.47683201321849));
#446=CARTESIAN_POINT('',(10.9236941080744,4.27803305413468,0.693413177331776));
#447=CARTESIAN_POINT('',(10.9119585079268,4.36429566077643,-0.128568172081883));
#448=CARTESIAN_POINT('',(10.9118755519831,4.23461233574744,-0.893895372400955));
#449=CARTESIAN_POINT('',(10.9118984184611,3.90047669154607,-1.60823661143136));
#450=CARTESIAN_POINT('',(10.9118895186991,3.2287507993147,-2.48188118496788));
#451=CARTESIAN_POINT('',(10.9118952965518,2.53865234347296,-2.97781378218133));
#452=CARTESIAN_POINT('',(10.9118932813427,2.03973147048705,-3.22564010959792));
#453=CARTESIAN_POINT('',(11.8213598332036,-1.85500508418727,-3.25190997549225));
#454=CARTESIAN_POINT('',(11.8213624774699,-2.32391297998173,-3.04020400063238));
#455=CARTESIAN_POINT('',(11.8213548939931,-2.9726551491552,-2.57883357052303));
#456=CARTESIAN_POINT('',(11.8213665780431,-3.60565037069328,-1.70143877339169));
#457=CARTESIAN_POINT('',(11.8213365631033,-3.92164079212744,-0.964183285456512));
#458=CARTESIAN_POINT('',(11.8214454444488,-4.04563224374281,-0.164777086570677));
#459=CARTESIAN_POINT('',(11.8366195326411,-3.96618227004299,0.682591029542204));
#460=CARTESIAN_POINT('',(11.8469333935216,-3.68384253024295,1.47903730121052));
#461=CARTESIAN_POINT('',(11.8571981062677,-3.20360368672512,2.18710260827811));
#462=CARTESIAN_POINT('',(11.8652886703004,-2.55474991513883,2.76647463271453));
#463=CARTESIAN_POINT('',(11.8713827267802,-1.7705064993119,3.19979643743016));
#464=CARTESIAN_POINT('',(11.8751183058764,-0.890862181180796,3.45757628227731));
#465=CARTESIAN_POINT('',(11.8763941691397,0.0430666776864429,3.58363896194246));
#466=CARTESIAN_POINT('',(11.8751170591651,0.975929076880832,3.36585606382284));
#467=CARTESIAN_POINT('',(11.8713837168097,1.85524434714114,3.03358235671642));
#468=CARTESIAN_POINT('',(11.8652921577091,2.63929653014484,2.55575785541932));
#469=CARTESIAN_POINT('',(11.8572025913226,3.28826583968399,1.97055552220394));
#470=CARTESIAN_POINT('',(11.8469347243017,3.7687626783041,1.29708764570404));
#471=CARTESIAN_POINT('',(11.836614688701,4.05117459274552,0.57106846228365));
#472=CARTESIAN_POINT('',(11.8214441512041,4.13053390871018,-0.187770105533296));
#473=CARTESIAN_POINT('',(11.8213369145705,4.00656031766423,-0.887654376441415));
#474=CARTESIAN_POINT('',(11.8213664739248,3.69064797180516,-1.54373278328822));
#475=CARTESIAN_POINT('',(11.8213549692577,3.05747666577123,-2.35388717407667));
#476=CARTESIAN_POINT('',(11.821362438252,2.40859371493972,-2.82575929010635));
#477=CARTESIAN_POINT('',(11.8213598332036,1.93992789881959,-3.06771942172182));
#478=CARTESIAN_POINT('',(12.7310555850011,-1.70203096352645,-3.16076631938957));
#479=CARTESIAN_POINT('',(12.7310589462997,-2.14006095134555,-2.96749668817791));
#480=CARTESIAN_POINT('',(12.7310493064499,-2.74636533916706,-2.53563746769843));
#481=CARTESIAN_POINT('',(12.7310641588046,-3.33864908928407,-1.69761218493872));
#482=CARTESIAN_POINT('',(12.7310260048654,-3.63474081392022,-0.98877215316752));
#483=CARTESIAN_POINT('',(12.7311644110143,-3.75152847742926,-0.217992887802951));
#484=CARTESIAN_POINT('',(12.7504531799107,-3.67805614375615,0.596661004315147));
#485=CARTESIAN_POINT('',(12.763563798251,-3.41477818363527,1.35982780864629));
#486=CARTESIAN_POINT('',(12.776611941206,-2.96619663702762,2.03310287384039));
#487=CARTESIAN_POINT('',(12.7868963825437,-2.35964119785393,2.57753785287512));
#488=CARTESIAN_POINT('',(12.7946429334792,-1.62618564930591,2.97719356018894));
#489=CARTESIAN_POINT('',(12.7993914706542,-0.803287191930036,3.20585214158741));
#490=CARTESIAN_POINT('',(12.801013303302,0.0705044004029606,3.30757694143461));
#491=CARTESIAN_POINT('',(12.7993898858786,0.943298160828698,3.08452406921598));
#492=CARTESIAN_POINT('',(12.79464419197,1.76588881240419,2.75721247881607));
#493=CARTESIAN_POINT('',(12.7869008156154,2.49916560804049,2.29860027315472));
#494=CARTESIAN_POINT('',(12.7766176424505,3.10582927226047,1.74642816162521));
#495=CARTESIAN_POINT('',(12.763565489892,3.55465196787422,1.11902834453575));
#496=CARTESIAN_POINT('',(12.7504470224638,3.81799707600965,0.449184003110729));
#497=CARTESIAN_POINT('',(12.7311627670871,3.89138469254382,-0.248349871743161));
#498=CARTESIAN_POINT('',(12.7310264516382,3.77461398516838,-0.887517198653627));
#499=CARTESIAN_POINT('',(12.731064026453,3.47859529152352,-1.48896604492234));
#500=CARTESIAN_POINT('',(12.7310494021235,2.88614670664024,-2.23790673305957));
#501=CARTESIAN_POINT('',(12.7310588964472,2.27971097686911,-2.6836729356024));
#502=CARTESIAN_POINT('',(12.7310555850011,1.84190715784602,-2.91702848973155));
#503=CARTESIAN_POINT('',(13.6409998322682,-1.54307382456039,-3.04652417338371));
#504=CARTESIAN_POINT('',(13.6410040454031,-1.94939376412893,-2.86975695867461));
#505=CARTESIAN_POINT('',(13.6409919625767,-2.51174877121188,-2.46801697758843));
#506=CARTESIAN_POINT('',(13.6410105788858,-3.06095763122467,-1.67809470981972));
#507=CARTESIAN_POINT('',(13.6409627557938,-3.33542920033421,-1.00711572654836));
#508=CARTESIAN_POINT('',(13.6411362374878,-3.44356643667252,-0.27620296925705));
#509=CARTESIAN_POINT('',(13.6653132580219,-3.37526094214092,0.49346212834403));
#510=CARTESIAN_POINT('',(13.6817464316751,-3.13094661885017,1.21322377618793));
#511=CARTESIAN_POINT('',(13.6981012971333,-2.71483219911141,1.84477926122971));
#512=CARTESIAN_POINT('',(13.7109920705539,-2.15227423341144,2.35134388793515));
#513=CARTESIAN_POINT('',(13.7207017893048,-1.47208957870822,2.71825134946978));
#514=CARTESIAN_POINT('',(13.7266537233761,-0.709003082033203,2.92224395028496));
#515=CARTESIAN_POINT('',(13.7286865685742,0.101254921203148,3.00560673858016));
#516=CARTESIAN_POINT('',(13.7266517369791,0.910587653949825,2.78747099329481));
#517=CARTESIAN_POINT('',(13.7207033667283,1.67338871444291,2.47384295062201));
#518=CARTESIAN_POINT('',(13.7109976270757,2.35340757959939,2.0414067308736));
#519=CARTESIAN_POINT('',(13.6981084432144,2.91606587547935,1.52623674389907));
#520=CARTESIAN_POINT('',(13.6817485520197,3.33240395770902,0.945688688636952));
#521=CARTESIAN_POINT('',(13.6653055401256,3.57678062382559,0.329662368648759));
#522=CARTESIAN_POINT('',(13.6411341769487,3.64500754006355,-0.309898472650152));
#523=CARTESIAN_POINT('',(13.6409633157899,3.53688597698996,-0.894630220866778));
#524=CARTESIAN_POINT('',(13.6410104129931,3.26248213226427,-1.446312802589));
#525=CARTESIAN_POINT('',(13.6409920824964,2.71312044069868,-2.13721769177748));
#526=CARTESIAN_POINT('',(13.6410039829168,2.15064356535508,-2.55441247965417));
#527=CARTESIAN_POINT('',(13.6409998322682,1.7445334155153,-2.77573653343429));
#528=CARTESIAN_POINT('',(14.5511914279159,-1.37701052282739,-2.90662682316733));
#529=CARTESIAN_POINT('',(14.5511966473171,-1.75047803677139,-2.74445523491571));
#530=CARTESIAN_POINT('',(14.5511816786251,-2.26698601916941,-2.37369982107022));
#531=CARTESIAN_POINT('',(14.5512047412587,-2.77048635863065,-1.64141398588294));
#532=CARTESIAN_POINT('',(14.5511454960859,-3.02154632439524,-1.01850090060491));
#533=CARTESIAN_POINT('',(14.5513604121965,-3.119651432271,-0.339556242508028));
#534=CARTESIAN_POINT('',(14.5813118791085,-3.05586858660967,0.372227216869726));
#535=CARTESIAN_POINT('',(14.6016699565746,-2.8306783538228,1.03787705906795));
#536=CARTESIAN_POINT('',(14.6219310226945,-2.44816370739566,1.62041295424056));
#537=CARTESIAN_POINT('',(14.6379006320611,-1.93166602690461,2.08602391634177));
#538=CARTESIAN_POINT('',(14.6499294227668,-1.30762340231878,2.42118065263649));
#539=CARTESIAN_POINT('',(14.6573029184442,-0.607816616205995,2.6052143413719));
#540=CARTESIAN_POINT('',(14.6598212889606,0.135101934568957,2.67663646362553));
#541=CARTESIAN_POINT('',(14.6573004576156,0.877172170946933,2.4738689450179));
#542=CARTESIAN_POINT('',(14.6499313769426,1.57671717061195,2.1829726295626));
#543=CARTESIAN_POINT('',(14.6379075157041,2.20060756172781,1.78394238745111));
#544=CARTESIAN_POINT('',(14.6219398755476,2.71719706429425,1.30994199533478));
#545=CARTESIAN_POINT('',(14.601672583343,3.09991709746031,0.777130305186911));
#546=CARTESIAN_POINT('',(14.5813023178677,3.3251649996904,0.212598209457971));
#547=CARTESIAN_POINT('',(14.5513578595177,3.38887565965599,-0.372388043048795));
#548=CARTESIAN_POINT('',(14.5511461898316,3.29078459347258,-0.908872789389812));
#549=CARTESIAN_POINT('',(14.5512045357441,3.0397867465988,-1.41552133902006));
#550=CARTESIAN_POINT('',(14.5511818271864,2.53614639594157,-2.05129117463096));
#551=CARTESIAN_POINT('',(14.5511965699065,2.0195261719599,-2.43711022285969));
#552=CARTESIAN_POINT('',(14.5511914279159,1.64625144494806,-2.64271344512063));
#553=CARTESIAN_POINT('',(15.461904130318,-1.20229034396266,-2.74082271247229));
#554=CARTESIAN_POINT('',(15.4619105345248,-1.54134437911289,-2.59189944363203));
#555=CARTESIAN_POINT('',(15.4618921679354,-2.0095830815162,-2.25352285357944));
#556=CARTESIAN_POINT('',(15.4619204657934,-2.46436411407295,-1.58832798679806));
#557=CARTESIAN_POINT('',(15.4618477719495,-2.69011488025287,-1.02331781452775));
#558=CARTESIAN_POINT('',(15.4621114740782,-2.7768814343381,-0.407900906639102));
#559=CARTESIAN_POINT('',(15.498861932475,-2.71719230334995,0.23377230107673));
#560=CARTESIAN_POINT('',(15.5238412993005,-2.51162956201122,0.835018874312216));
#561=CARTESIAN_POINT('',(15.5487016331766,-2.16428256002217,1.36131503507974));
#562=CARTESIAN_POINT('',(15.5682963483992,-1.69640428126634,1.78256765260342));
#563=CARTESIAN_POINT('',(15.5830556780071,-1.1319095869581,2.08629325970056));
#564=CARTESIAN_POINT('',(15.5921029592947,-0.499407467510112,2.25411758953737));
#565=CARTESIAN_POINT('',(15.5951930006327,0.17179555540493,2.31902903776266));
#566=CARTESIAN_POINT('',(15.5920999398574,0.842232257424481,2.14088085003773));
#567=CARTESIAN_POINT('',(15.5830580757813,1.47449773164767,1.88093513970577));
#568=CARTESIAN_POINT('',(15.5683047946312,2.03885449017426,1.52214994228384));
#569=CARTESIAN_POINT('',(15.5487124956299,2.50681542365303,1.09366708778165));
#570=CARTESIAN_POINT('',(15.523844522346,2.85434854471772,0.610230068333042));
#571=CARTESIAN_POINT('',(15.4988502008297,3.05996429648358,0.0961460892404405));
#572=CARTESIAN_POINT('',(15.4621083419406,3.11958796340703,-0.436212344940791));
#573=CARTESIAN_POINT('',(15.4618486231757,3.03283350736551,-0.928805285276063));
#574=CARTESIAN_POINT('',(15.4619202136268,2.80713890470706,-1.39357987891569));
#575=CARTESIAN_POINT('',(15.4618923502202,2.35223158880888,-1.97557889777538));
#576=CARTESIAN_POINT('',(15.4619104395419,1.88389058291665,-2.32694083620067));
#577=CARTESIAN_POINT('',(15.461904130318,1.54501149787653,-2.51330144628991));
#578=CARTESIAN_POINT('',(16.373353455053,-1.01620705580779,-2.54959246538517));
#579=CARTESIAN_POINT('',(16.3733612555799,-1.31858041347258,-2.41367537283884));
#580=CARTESIAN_POINT('',(16.3733388844919,-1.73522482544667,-2.11002791118463));
#581=CARTESIAN_POINT('',(16.3733733521797,-2.13757791517113,-1.52091498357969));
#582=CARTESIAN_POINT('',(16.3732848087741,-2.33588507385534,-1.02262040296352));
#583=CARTESIAN_POINT('',(16.3736060063239,-2.41007254955613,-0.480880742492876));
#584=CARTESIAN_POINT('',(16.4183692293301,-2.35436387247347,0.0799161811256885));
#585=CARTESIAN_POINT('',(16.4487948897582,-2.169480615846,0.607443924525855));
#586=CARTESIAN_POINT('',(16.4790755642817,-1.85960107494594,1.0704960517048));
#587=CARTESIAN_POINT('',(16.5029425484096,-1.44376565333521,1.44331954003122));
#588=CARTESIAN_POINT('',(16.520919879618,-0.943181055784053,1.71446922370411));
#589=CARTESIAN_POINT('',(16.5319397549486,-0.383023274897905,1.86776538223272));
#590=CARTESIAN_POINT('',(16.5357035232265,0.211039850107603,1.92936560591966));
#591=CARTESIAN_POINT('',(16.5319360771782,0.804424870779273,1.78267743441256));
#592=CARTESIAN_POINT('',(16.520922800183,1.3643730227189,1.56018525153388));
#593=CARTESIAN_POINT('',(16.5029528361878,1.86483498209778,1.24768488102939));
#594=CARTESIAN_POINT('',(16.479088795094,2.28074313546721,0.869435235098983));
#595=CARTESIAN_POINT('',(16.4487988155298,2.59078818494564,0.43856072765146));
#596=CARTESIAN_POINT('',(16.4183549398144,2.77571962667463,-0.023511867605789));
#597=CARTESIAN_POINT('',(16.3736021912811,2.83137001918607,-0.502170639207927));
#598=CARTESIAN_POINT('',(16.3732858455947,2.75719243031934,-0.951606433013757));
#599=CARTESIAN_POINT('',(16.3733730450329,2.55893503776294,-1.374582788755));
#600=CARTESIAN_POINT('',(16.3733391065206,2.15647047439573,-1.90121769579154));
#601=CARTESIAN_POINT('',(16.3733611398878,1.73973426490986,-2.21461855335844));
#602=CARTESIAN_POINT('',(16.373353455053,1.43751682989804,-2.37864932758603));
#603=CARTESIAN_POINT('',(17.2889329898221,-0.815264061523634,-2.33420947504524));
#604=CARTESIAN_POINT('',(17.2889424432947,-1.07781970710028,-2.21251033761445));
#605=CARTESIAN_POINT('',(17.2889153317329,-1.43841804925053,-1.94716278438732));
#606=CARTESIAN_POINT('',(17.2889571031859,-1.78372418720634,-1.44238376344338));
#607=CARTESIAN_POINT('',(17.288849797273,-1.95211411727955,-1.01814484308263));
#608=CARTESIAN_POINT('',(17.2892390571627,-2.01251296284499,-0.558234408575549));
#609=CARTESIAN_POINT('',(17.3434876878284,-1.96102137143645,-0.0871282905133632));
#610=CARTESIAN_POINT('',(17.3803606005563,-1.79852082863061,0.358687300541226));
#611=CARTESIAN_POINT('',(17.417057804605,-1.52930844586113,0.751768455556804));
#612=CARTESIAN_POINT('',(17.4459822456999,-1.17002645222047,1.07117254165053));
#613=CARTESIAN_POINT('',(17.467769005803,-0.738936720379574,1.30659259846254));
#614=CARTESIAN_POINT('',(17.4811240125842,-0.257474486481079,1.44422364276993));
#615=CARTESIAN_POINT('',(17.4856853301459,0.252661898405464,1.5026331388374));
#616=CARTESIAN_POINT('',(17.4811195554876,0.76221616261559,1.3910880457417));
#617=CARTESIAN_POINT('',(17.467772545241,1.24349815363121,1.21028495851995));
#618=CARTESIAN_POINT('',(17.4459947134769,1.6744818689154,0.949076138042551));
#619=CARTESIAN_POINT('',(17.4170738390503,2.03382578160954,0.626293905508832));
#620=CARTESIAN_POINT('',(17.380365358206,2.30318127988407,0.253264748419041));
#621=CARTESIAN_POINT('',(17.3434703703385,2.46572480790375,-0.151737468934126));
#622=CARTESIAN_POINT('',(17.2892344337054,2.51716591231943,-0.571554353856592));
#623=CARTESIAN_POINT('',(17.2888510537977,2.45677451545985,-0.973804830510771));
#624=CARTESIAN_POINT('',(17.2889567309541,2.28842739353422,-1.35100992534441));
#625=CARTESIAN_POINT('',(17.2889156008098,1.94302590628972,-1.81682913709673));
#626=CARTESIAN_POINT('',(17.2889423030872,1.58234714756772,-2.08826131857164));
#627=CARTESIAN_POINT('',(17.2889329898221,1.31992676569771,-2.2274901977616));
#628=CARTESIAN_POINT('',(18.5816804419998,-0.495262313660388,-1.98174312883784));
#629=CARTESIAN_POINT('',(18.5816927135189,-0.693315464640417,-1.88525934953961));
#630=CARTESIAN_POINT('',(18.581657520097,-0.963426999574374,-1.68342287537827));
#631=CARTESIAN_POINT('',(18.5817117434716,-1.21736899541038,-1.31287959968456));
#632=CARTESIAN_POINT('',(18.5815724500478,-1.33827629264906,-1.00517006861144));
#633=CARTESIAN_POINT('',(18.5820777469259,-1.37737568454981,-0.673406682298774));
#634=CARTESIAN_POINT('',(18.6524977014085,-1.33352049618184,-0.342022537946307));
#635=CARTESIAN_POINT('',(18.7003622982487,-1.20778546585903,-0.0244226879481663));
#636=CARTESIAN_POINT('',(18.7479988082774,-1.00448750783517,0.257714796681645));
#637=CARTESIAN_POINT('',(18.7855455223666,-0.736355772437644,0.490769160836289));
#638=CARTESIAN_POINT('',(18.8138268381521,-0.416920961756288,0.6664599452033));
#639=CARTESIAN_POINT('',(18.8311629249455,-0.0616683076392994,0.775038844850724));
#640=CARTESIAN_POINT('',(18.8370839550459,0.313982057856344,0.824239812597579));
#641=CARTESIAN_POINT('',(18.8311571392044,0.689204064711526,0.763009719496332));
#642=CARTESIAN_POINT('',(18.813831432684,1.04432362000289,0.64472959262537));
#643=CARTESIAN_POINT('',(18.7855617067435,1.36367921837051,0.463263360878176));
#644=CARTESIAN_POINT('',(18.7480196225337,1.63185567560855,0.229463627600579));
#645=CARTESIAN_POINT('',(18.7003684741368,1.83526062800097,-0.0482126911306415));
#646=CARTESIAN_POINT('',(18.6524752216365,1.96102992440753,-0.356687853430193));
#647=CARTESIAN_POINT('',(18.5820717452324,2.00484722582869,-0.676468686800658));
#648=CARTESIAN_POINT('',(18.581574081138,1.96575162624494,-0.995144183264924));
#649=CARTESIAN_POINT('',(18.5817112602788,1.84487597003008,-1.29220683465913));
#650=CARTESIAN_POINT('',(18.5816578693848,1.59086437250532,-1.65403528288953));
#651=CARTESIAN_POINT('',(18.5816925315161,1.32069104004828,-1.85723775794738));
#652=CARTESIAN_POINT('',(18.5816804419998,1.12273971905581,-1.95764033210047));
#653=CARTESIAN_POINT('',(19.5578950995349,-0.213769840926724,-1.67452897237473));
#654=CARTESIAN_POINT('',(19.557910157445,-0.353984462060026,-1.60495745424535));
#655=CARTESIAN_POINT('',(19.5578669729478,-0.543317710686161,-1.4623979742348));
#656=CARTESIAN_POINT('',(19.5579335083694,-0.716573787967628,-1.20557584699764));
#657=CARTESIAN_POINT('',(19.5577625867557,-0.796063804121162,-0.993692012641339));
#658=CARTESIAN_POINT('',(19.5583826171595,-0.817289879591858,-0.765986275836691));
#659=CARTESIAN_POINT('',(19.6447922402972,-0.781233188381406,-0.548284485694242));
#660=CARTESIAN_POINT('',(19.7035250498394,-0.689064019200126,-0.336730324990894));
#661=CARTESIAN_POINT('',(19.7619779828101,-0.544913034786639,-0.149253047711791));
#662=CARTESIAN_POINT('',(19.8080501144715,-0.357967299301215,0.00626277223707222));
#663=CARTESIAN_POINT('',(19.8427530315184,-0.137561562811465,0.123678025015219));
#664=CARTESIAN_POINT('',(19.8640254781923,0.106024489535699,0.197627300741358));
#665=CARTESIAN_POINT('',(19.8712909469549,0.36282058056761,0.228599500385194));
#666=CARTESIAN_POINT('',(19.8640183787313,0.619324149886924,0.199477530928275));
#667=CARTESIAN_POINT('',(19.8427586692922,0.862818833683765,0.127103068719158));
#668=CARTESIAN_POINT('',(19.8080699736992,1.08316924889825,0.0106504649459497));
#669=CARTESIAN_POINT('',(19.7620035231852,1.27014466233307,-0.144727056614312));
#670=CARTESIAN_POINT('',(19.7035326280347,1.41437043419823,-0.33298335242116));
#671=CARTESIAN_POINT('',(19.6447646562319,1.50656570189233,-0.546077059109119));
#672=CARTESIAN_POINT('',(19.5583752527118,1.54259576711496,-0.765572401481149));
#673=CARTESIAN_POINT('',(19.5577645882039,1.52137055178633,-0.995246951529826));
#674=CARTESIAN_POINT('',(19.5579329154621,1.44190228661457,-1.20876712359814));
#675=CARTESIAN_POINT('',(19.5578674015455,1.26859925452883,-1.46705665987795));
#676=CARTESIAN_POINT('',(19.5579099341164,1.07922111951638,-1.60939222266507));
#677=CARTESIAN_POINT('',(19.5578950995349,0.939078387354078,-1.67830097759216));
#678=CARTESIAN_POINT('',(20.,0.1435,-1.20463740284973));
#679=CARTESIAN_POINT('',(20.0000179168881,0.0850458429008686,-1.17602865370994));
#680=CARTESIAN_POINT('',(19.9999665331437,0.00672991468670224,-1.11718513381045));
#681=CARTESIAN_POINT('',(20.0000457013481,-0.0633812033260881,-1.01081667607863));
#682=CARTESIAN_POINT('',(19.9998423276123,-0.0945377115623023,-0.92294622604274));
#683=CARTESIAN_POINT('',(20.0005800804147,-0.10129197790436,-0.828486645685008));
#684=CARTESIAN_POINT('',(20.1033959120944,-0.0846348848370314,-0.741571625992736));
#685=CARTESIAN_POINT('',(20.1732800574094,-0.0451871731443159,-0.656440934385554));
#686=CARTESIAN_POINT('',(20.2428311872404,0.0149804557778586,-0.5817828117072));
#687=CARTESIAN_POINT('',(20.29765082841,0.0919811223147771,-0.520410945604587));
#688=CARTESIAN_POINT('',(20.3389426330533,0.182002602344674,-0.474920558558027));
#689=CARTESIAN_POINT('',(20.3642539840025,0.280981133235985,-0.446845211451674));
#690=CARTESIAN_POINT('',(20.3728989148129,0.385067391567406,-0.437298785539055));
#691=CARTESIAN_POINT('',(20.3642455365987,0.489035185926982,-0.446854541159577));
#692=CARTESIAN_POINT('',(20.3389493412459,0.587976554457874,-0.474913230887991));
#693=CARTESIAN_POINT('',(20.2976744582205,0.67797521762477,-0.520384592300825));
#694=CARTESIAN_POINT('',(20.2428615768522,0.754987612943516,-0.581749103974475));
#695=CARTESIAN_POINT('',(20.1732890744427,0.815186108269855,-0.656433192733018));
#696=CARTESIAN_POINT('',(20.103363090766,0.854645297071417,-0.741599860745265));
#697=CARTESIAN_POINT('',(20.0005713177124,0.871291353823117,-0.828508374333979));
#698=CARTESIAN_POINT('',(19.9998447090665,0.86453685393737,-0.922941562200804));
#699=CARTESIAN_POINT('',(20.0000449958681,0.833389202632551,-1.01080180174728));
#700=CARTESIAN_POINT('',(19.9999670431173,0.763259262703537,-1.11720530125537));
#701=CARTESIAN_POINT('',(20.000017651157,0.684924253156894,-1.17604536377292));
#702=CARTESIAN_POINT('',(20.,0.6265,-1.20463740284973));
#703=CARTESIAN_POINT('',(0.,-3.5,-4.50333209967908));
#704=CARTESIAN_POINT('',(20.,0.1435,-1.20463740284973));
#705=CARTESIAN_POINT('',(20.,0.6265,-1.20463740284973));
#706=CARTESIAN_POINT('',(0.,3.5,-4.50333209967908));
#707=CARTESIAN_POINT('',(0.,-3.5,-4.50333209967908));
#708=CARTESIAN_POINT('',(0.606422857246906,-3.43019127016064,-4.43296471840679));
#709=CARTESIAN_POINT('',(1.5160794477051,-3.32021714523806,-4.31577922548253));
#710=CARTESIAN_POINT('',(2.7279319849061,-3.16776345928064,-4.14426071432785));
#711=CARTESIAN_POINT('',(3.63707625655994,-3.05048563848977,-4.01343677266333));
#712=CARTESIAN_POINT('',(4.54628976242067,-2.93039802624078,-3.88658307734735));
#713=CARTESIAN_POINT('',(5.45563519986304,-2.80746468218881,-3.76952925725107));
#714=CARTESIAN_POINT('',(6.36509753837083,-2.68161500130987,-3.66650357705859));
#715=CARTESIAN_POINT('',(7.27459175551967,-2.55273590053177,-3.57925716715925));
#716=CARTESIAN_POINT('',(8.18401935021329,-2.42067033473143,-3.50659198736882));
#717=CARTESIAN_POINT('',(9.09333724152268,-2.28520173074033,-3.44443379654465));
#718=CARTESIAN_POINT('',(10.0025913516652,-2.14603876186397,-3.38641569370752));
#719=CARTESIAN_POINT('',(10.9118932813427,-2.00280133166621,-3.32485155869784));
#720=CARTESIAN_POINT('',(11.8213598332036,-1.85500508418727,-3.25190997549225));
#721=CARTESIAN_POINT('',(12.7310555850011,-1.70203096352645,-3.16076631938957));
#722=CARTESIAN_POINT('',(13.6409998322682,-1.54307382456039,-3.04652417338371));
#723=CARTESIAN_POINT('',(14.5511914279159,-1.37701052282739,-2.90662682316733));
#724=CARTESIAN_POINT('',(15.461904130318,-1.20229034396266,-2.74082271247229));
#725=CARTESIAN_POINT('',(16.373353455053,-1.01620705580779,-2.54959246538517));
#726=CARTESIAN_POINT('',(17.2889329898221,-0.815264061523634,-2.33420947504524));
#727=CARTESIAN_POINT('',(18.5816804419998,-0.495262313660388,-1.98174312883784));
#728=CARTESIAN_POINT('',(19.5578950995349,-0.213769840926724,-1.67452897237473));
#729=CARTESIAN_POINT('',(20.,0.1435,-1.20463740284973));
#730=CARTESIAN_POINT('',(20.,0.1435,-1.20463740284973));
#731=CARTESIAN_POINT('',(20.0000179168881,0.0850458429008686,-1.17602865370994));
#732=CARTESIAN_POINT('',(19.9999665331437,0.00672991468670224,-1.11718513381045));
#733=CARTESIAN_POINT('',(20.0000457013481,-0.0633812033260881,-1.01081667607863));
#734=CARTESIAN_POINT('',(19.9998423276123,-0.0945377115623023,-0.92294622604274));
#735=CARTESIAN_POINT('',(20.0005800804147,-0.10129197790436,-0.828486645685008));
#736=CARTESIAN_POINT('',(20.1033959120944,-0.0846348848370314,-0.741571625992736));
#737=CARTESIAN_POINT('',(20.1732800574094,-0.0451871731443159,-0.656440934385554));
#738=CARTESIAN_POINT('',(20.2428311872404,0.0149804557778586,-0.5817828117072));
#739=CARTESIAN_POINT('',(20.29765082841,0.0919811223147771,-0.520410945604587));
#740=CARTESIAN_POINT('',(20.3389426330533,0.182002602344674,-0.474920558558027));
#741=CARTESIAN_POINT('',(20.3642539840025,0.280981133235985,-0.446845211451674));
#742=CARTESIAN_POINT('',(20.3728989148129,0.385067391567406,-0.437298785539055));
#743=CARTESIAN_POINT('',(20.3642455365987,0.489035185926982,-0.446854541159577));
#744=CARTESIAN_POINT('',(20.3389493412459,0.587976554457874,-0.474913230887991));
#745=CARTESIAN_POINT('',(20.2976744582205,0.67797521762477,-0.520384592300825));
#746=CARTESIAN_POINT('',(20.2428615768522,0.754987612943516,-0.581749103974475));
#747=CARTESIAN_POINT('',(20.1732890744427,0.815186108269855,-0.656433192733018));
#748=CARTESIAN_POINT('',(20.103363090766,0.854645297071417,-0.741599860745265));
#749=CARTESIAN_POINT('',(20.0005713177124,0.871291353823117,-0.828508374333979));
#750=CARTESIAN_POINT('',(19.9998447090665,0.86453685393737,-0.922941562200804));
#751=CARTESIAN_POINT('',(20.0000449958681,0.833389202632551,-1.01080180174728));
#752=CARTESIAN_POINT('',(19.9999670431173,0.763259262703537,-1.11720530125537));
#753=CARTESIAN_POINT('',(20.000017651157,0.684924253156894,-1.17604536377292));
#754=CARTESIAN_POINT('',(20.,0.6265,-1.20463740284973));
#755=CARTESIAN_POINT('',(20.,0.6265,-1.20463740284973));
#756=CARTESIAN_POINT('',(19.5578950995349,0.939078387354078,-1.67830097759216));
#757=CARTESIAN_POINT('',(18.5816804419998,1.12273971905581,-1.95764033210047));
#758=CARTESIAN_POINT('',(17.2889329898221,1.31992676569771,-2.2274901977616));
#759=CARTESIAN_POINT('',(16.373353455053,1.43751682989804,-2.37864932758603));
#760=CARTESIAN_POINT('',(15.461904130318,1.54501149787653,-2.51330144628991));
#761=CARTESIAN_POINT('',(14.5511914279159,1.64625144494806,-2.64271344512063));
#762=CARTESIAN_POINT('',(13.6409998322682,1.7445334155153,-2.77573653343429));
#763=CARTESIAN_POINT('',(12.7310555850011,1.84190715784602,-2.91702848973155));
#764=CARTESIAN_POINT('',(11.8213598332036,1.93992789881959,-3.06771942172182));
#765=CARTESIAN_POINT('',(10.9118932813427,2.03973147048705,-3.22564010959792));
#766=CARTESIAN_POINT('',(10.0025913516652,2.14216311784308,-3.38612693893972));
#767=CARTESIAN_POINT('',(9.09333724152268,2.24782857803903,-3.54310324185699));
#768=CARTESIAN_POINT('',(8.18401935021329,2.35712936207582,-3.69034386788114));
#769=CARTESIAN_POINT('',(7.27459175551967,2.47028301138015,-3.8227178464593));
#770=CARTESIAN_POINT('',(6.36509753837083,2.58734175618245,-3.93721896934086));
#771=CARTESIAN_POINT('',(5.45563519986304,2.70821634327348,-4.03360514591494));
#772=CARTESIAN_POINT('',(4.54628976242067,2.83270471847754,-4.11452443164424));
#773=CARTESIAN_POINT('',(3.63707625655994,2.96052909159526,-4.18510355829931));
#774=CARTESIAN_POINT('',(2.7279319849061,3.09135222044453,-4.25209310759365));
#775=CARTESIAN_POINT('',(1.5160794477051,3.26933194103875,-4.34625828668323));
#776=CARTESIAN_POINT('',(0.606422857246906,3.40635181302935,-4.432336874989));
#777=CARTESIAN_POINT('',(0.,3.5,-4.50333209967908));
#778=CARTESIAN_POINT('',(0.,3.5,-4.50333209967908));
#779=CARTESIAN_POINT('',(0.,4.34672830662165,-4.14025858759263));
#780=CARTESIAN_POINT('',(0.,5.48201830005126,-3.39308319054439));
#781=CARTESIAN_POINT('',(0.,6.49839424105147,-2.04192764123524));
#782=CARTESIAN_POINT('',(0.,6.94980947735318,-0.926242059692745));
#783=CARTESIAN_POINT('',(0.,7.04770078004518,0.272909532266935));
#784=CARTESIAN_POINT('',(0.,6.80645358074517,1.37650970482204));
#785=CARTESIAN_POINT('',(0.,6.23458127927327,2.45799120339025));
#786=CARTESIAN_POINT('',(0.,5.36213931802196,3.40636058445111));
#787=CARTESIAN_POINT('',(0.,4.2460176467358,4.18559247871968));
#788=CARTESIAN_POINT('',(0.,2.94168919504166,4.76300659189852));
#789=CARTESIAN_POINT('',(0.,1.50775631778235,5.11930741384664));
#790=CARTESIAN_POINT('',(0.,0.000976689382695628,5.24065034236121));
#791=CARTESIAN_POINT('',(0.,-1.50751980817414,5.11942588632795));
#792=CARTESIAN_POINT('',(0.,-2.94199127036704,4.76291354212028));
#793=CARTESIAN_POINT('',(0.,-4.24665040123511,4.18525783359255));
#794=CARTESIAN_POINT('',(0.,-5.36260209017596,3.40593254974983));
#795=CARTESIAN_POINT('',(0.,-6.23459671223646,2.45789289669138));
#796=CARTESIAN_POINT('',(0.,-6.80630267879755,1.37686824136208));
#797=CARTESIAN_POINT('',(0.,-7.04770982470087,0.273185451618941));
#798=CARTESIAN_POINT('',(0.,-6.94982190670003,-0.92630128308242));
#799=CARTESIAN_POINT('',(0.,-6.49827830907374,-2.04211652163333));
#800=CARTESIAN_POINT('',(0.,-5.48217514946808,-3.39282709600574));
#801=CARTESIAN_POINT('',(0.,-4.34716169708887,-4.14004639631666));
#802=CARTESIAN_POINT('',(0.,-3.5,-4.50333209967908));
#803=CARTESIAN_POINT('',(0.,0.,0.));
ENDSEC;
END-ISO-10303-21;
