ISO-10303-21;
HEADER;
/* Generated by software containing ST-Developer
 * from STEP Tools, Inc. (www.steptools.com) 
 */
/* OPTION: using custom schema-name function */

FILE_DESCRIPTION(
/* description */ (''),
/* implementation_level */ '2;1');

FILE_NAME(
/* name */ 'Ancher_NEW',
/* time_stamp */ '2026-09-16T11:26:24+01:00',
/* author */ (''),
/* organization */ (''),
/* preprocessor_version */ 'ST-DEVELOPER v19.2',
/* originating_system */ 'Rhino 8.27',
/* authorisation */ '');

FILE_SCHEMA (('CONFIG_CONTROL_DESIGN'));
ENDSEC;

DATA;
#10=SHAPE_REPRESENTATION_RELATIONSHIP('','',#156,#12);
#11=SHELL_BASED_SURFACE_MODEL('shell_1',(#13));
#12=MANIFOLD_SURFACE_SHAPE_REPRESENTATION('shell_rep_0',(#11,#164),#155);
#13=OPEN_SHELL('',(#14));
#14=ADVANCED_FACE('',(#17,#15,#16),#69,.T.);
#15=FACE_BOUND('',#19,.T.);
#16=FACE_BOUND('',#20,.T.);
#17=FACE_OUTER_BOUND('',#18,.T.);
#18=EDGE_LOOP('',(#21,#22,#23,#24,#25,#26));
#19=EDGE_LOOP('',(#27,#28,#29,#30));
#20=EDGE_LOOP('',(#31));
#21=ORIENTED_EDGE('',*,*,#32,.T.);
#22=ORIENTED_EDGE('',*,*,#33,.T.);
#23=ORIENTED_EDGE('',*,*,#34,.T.);
#24=ORIENTED_EDGE('',*,*,#35,.T.);
#25=ORIENTED_EDGE('',*,*,#36,.T.);
#26=ORIENTED_EDGE('',*,*,#37,.T.);
#27=ORIENTED_EDGE('',*,*,#40,.F.);
#28=ORIENTED_EDGE('',*,*,#41,.F.);
#29=ORIENTED_EDGE('',*,*,#42,.F.);
#30=ORIENTED_EDGE('',*,*,#38,.F.);
#31=ORIENTED_EDGE('',*,*,#39,.F.);
#32=EDGE_CURVE('',#58,#59,#52,.T.);
#33=EDGE_CURVE('',#59,#60,#43,.T.);
#34=EDGE_CURVE('',#60,#61,#44,.T.);
#35=EDGE_CURVE('',#61,#62,#45,.T.);
#36=EDGE_CURVE('',#62,#63,#53,.T.);
#37=EDGE_CURVE('',#63,#58,#46,.T.);
#38=EDGE_CURVE('',#64,#68,#54,.T.);
#39=EDGE_CURVE('',#65,#65,#51,.T.);
#40=EDGE_CURVE('',#66,#64,#55,.T.);
#41=EDGE_CURVE('',#67,#66,#56,.T.);
#42=EDGE_CURVE('',#68,#67,#57,.T.);
#43=TRIMMED_CURVE($,#47,(#196),(#197),.T.,.CARTESIAN.);
#44=TRIMMED_CURVE($,#48,(#199),(#200),.T.,.CARTESIAN.);
#45=TRIMMED_CURVE($,#49,(#202),(#203),.T.,.CARTESIAN.);
#46=TRIMMED_CURVE($,#50,(#207),(#208),.T.,.CARTESIAN.);
#47=CIRCLE('',#159,1.);
#48=CIRCLE('',#160,6.);
#49=CIRCLE('',#161,1.00000000000001);
#50=CIRCLE('',#162,4.);
#51=CIRCLE('',#163,1.4142135623731);
#52=B_SPLINE_CURVE_WITH_KNOTS('',1,(#193,#194),.UNSPECIFIED.,.F.,.F.,(2,
2),(0.,17.1010205144336),.UNSPECIFIED.);
#53=B_SPLINE_CURVE_WITH_KNOTS('',1,(#204,#205),.UNSPECIFIED.,.F.,.F.,(2,
2),(0.,17.1010205144336),.UNSPECIFIED.);
#54=B_SPLINE_CURVE_WITH_KNOTS('',1,(#209,#210),.UNSPECIFIED.,.F.,.F.,(2,
2),(0.,4.),.UNSPECIFIED.);
#55=B_SPLINE_CURVE_WITH_KNOTS('',1,(#212,#213),.UNSPECIFIED.,.F.,.F.,(2,
2),(12.,16.),.UNSPECIFIED.);
#56=B_SPLINE_CURVE_WITH_KNOTS('',1,(#214,#215),.UNSPECIFIED.,.F.,.F.,(2,
2),(8.,12.),.UNSPECIFIED.);
#57=B_SPLINE_CURVE_WITH_KNOTS('',1,(#216,#217),.UNSPECIFIED.,.F.,.F.,(2,
2),(4.,8.),.UNSPECIFIED.);
#58=VERTEX_POINT('',#182);
#59=VERTEX_POINT('',#183);
#60=VERTEX_POINT('',#184);
#61=VERTEX_POINT('',#185);
#62=VERTEX_POINT('',#186);
#63=VERTEX_POINT('',#187);
#64=VERTEX_POINT('',#188);
#65=VERTEX_POINT('',#189);
#66=VERTEX_POINT('',#190);
#67=VERTEX_POINT('',#191);
#68=VERTEX_POINT('',#192);
#69=PLANE('',#158);
#70=SHAPE_DEFINITION_REPRESENTATION(#71,#156);
#71=PRODUCT_DEFINITION_SHAPE($,$,#73);
#72=PRODUCT_DEFINITION_CONTEXT('3D Mechanical Parts',#145,'design');
#73=PRODUCT_DEFINITION('A','First version',#115,#72);
#74=DATE_TIME_ROLE('classification_date');
#75=DATE_TIME_ROLE('creation_date');
#76=APPLIED_DATE_AND_TIME_ASSIGNMENT(#100,#74,(#79));
#77=APPLIED_DATE_AND_TIME_ASSIGNMENT(#102,#75,(#73));
#78=SECURITY_CLASSIFICATION_LEVEL('unclassified');
#79=SECURITY_CLASSIFICATION('A','Security for version',#78);
#80=APPLIED_SECURITY_CLASSIFICATION_ASSIGNMENT(#79,(#115));
#81=APPROVAL_ROLE('Version approval');
#82=APPROVAL_ROLE('Version Security approval');
#83=APPROVAL_ROLE('Definition approval');
#84=APPROVAL_PERSON_ORGANIZATION(#133,#109,#81);
#85=APPROVAL_PERSON_ORGANIZATION(#134,#110,#82);
#86=APPROVAL_PERSON_ORGANIZATION(#137,#111,#83);
#87=COORDINATED_UNIVERSAL_TIME_OFFSET(5,0,.BEHIND.);
#88=LOCAL_TIME(0,0,0.,#87);
#89=LOCAL_TIME(0,0,0.,#87);
#90=LOCAL_TIME(0,0,0.,#87);
#91=LOCAL_TIME(0,0,0.,#87);
#92=LOCAL_TIME(0,0,0.,#87);
#93=CALENDAR_DATE(1999,1,1);
#94=CALENDAR_DATE(1999,1,1);
#95=CALENDAR_DATE(1999,1,1);
#96=CALENDAR_DATE(1999,1,1);
#97=CALENDAR_DATE(1999,1,1);
#98=DATE_AND_TIME(#93,#88);
#99=DATE_AND_TIME(#94,#89);
#100=DATE_AND_TIME(#95,#90);
#101=DATE_AND_TIME(#96,#91);
#102=DATE_AND_TIME(#97,#92);
#103=APPROVAL_DATE_TIME(#98,#109);
#104=APPROVAL_DATE_TIME(#99,#110);
#105=APPROVAL_DATE_TIME(#101,#111);
#106=APPROVAL_STATUS('not_yet_approved');
#107=APPROVAL_STATUS('not_yet_approved');
#108=APPROVAL_STATUS('approved');
#109=APPROVAL(#106,'Version approval');
#110=APPROVAL(#107,'Version Security approval');
#111=APPROVAL(#108,'Definition approval');
#112=APPLIED_APPROVAL_ASSIGNMENT(#109,(#115));
#113=APPLIED_APPROVAL_ASSIGNMENT(#110,(#79));
#114=APPLIED_APPROVAL_ASSIGNMENT(#111,(#73));
#115=PRODUCT_DEFINITION_FORMATION_WITH_SPECIFIED_SOURCE('A',
'First version',#147,.MADE.);
#116=PERSON_AND_ORGANIZATION_ROLE('design_owner');
#117=PERSON_AND_ORGANIZATION_ROLE('creator');
#118=PERSON_AND_ORGANIZATION_ROLE('design_supplier');
#119=PERSON_AND_ORGANIZATION_ROLE('classification_officer');
#120=PERSON_AND_ORGANIZATION_ROLE('creator');
#121=ORGANIZATION('STI','lab','lab');
#122=ORGANIZATION('STI','unknown','unknown');
#123=ORGANIZATION('STI','unknown','unknown');
#124=ORGANIZATION('STI','unknown','unknown');
#125=ORGANIZATION('STI','unknown','unknown');
#126=ORGANIZATION('STI','unknown','unknown');
#127=ORGANIZATION('STI','unknown','unknown');
#128=PERSON('1','Box','vc60',$,$,$);
#129=PERSON('2','last','first',$,$,$);
#130=PERSON('3','President','Mr.',$,$,$);
#131=PERSON_AND_ORGANIZATION(#128,#121);
#132=PERSON_AND_ORGANIZATION(#129,#122);
#133=PERSON_AND_ORGANIZATION(#130,#123);
#134=PERSON_AND_ORGANIZATION(#130,#124);
#135=PERSON_AND_ORGANIZATION(#130,#125);
#136=PERSON_AND_ORGANIZATION(#129,#126);
#137=PERSON_AND_ORGANIZATION(#130,#127);
#138=APPLIED_PERSON_AND_ORGANIZATION_ASSIGNMENT(#131,#116,(#147));
#139=APPLIED_PERSON_AND_ORGANIZATION_ASSIGNMENT(#132,#117,(#115));
#140=APPLIED_PERSON_AND_ORGANIZATION_ASSIGNMENT(#132,#118,(#115));
#141=APPLIED_PERSON_AND_ORGANIZATION_ASSIGNMENT(#135,#119,(#79));
#142=APPLIED_PERSON_AND_ORGANIZATION_ASSIGNMENT(#136,#120,(#73));
#143=PRODUCT_RELATED_PRODUCT_CATEGORY('detail','detail',(#147));
#144=APPLICATION_PROTOCOL_DEFINITION('International Standard',
'config_control_design',1994,#145);
#145=APPLICATION_CONTEXT(
'configuration controlled 3d designs of mechanical parts and assemblie
s');
#146=PRODUCT_CONTEXT('3D Mechanical Parts',#145,'mechanical');
#147=PRODUCT('Document','Document','',(#146));
#148=(
LENGTH_UNIT()
NAMED_UNIT(*)
SI_UNIT(.MILLI.,.METRE.)
);
#149=(
NAMED_UNIT(*)
PLANE_ANGLE_UNIT()
SI_UNIT($,.RADIAN.)
);
#150=DIMENSIONAL_EXPONENTS(0.,0.,0.,0.,0.,0.,0.);
#151=PLANE_ANGLE_MEASURE_WITH_UNIT(PLANE_ANGLE_MEASURE(0.01745329252),#149);
#152=(
CONVERSION_BASED_UNIT('DEGREES',#151)
NAMED_UNIT(#150)
PLANE_ANGLE_UNIT()
);
#153=(
NAMED_UNIT(*)
SI_UNIT($,.STERADIAN.)
SOLID_ANGLE_UNIT()
);
#154=UNCERTAINTY_MEASURE_WITH_UNIT(LENGTH_MEASURE(0.01),#148,
'DISTANCE_ACCURACY_VALUE',
'Maximum model space distance between geometric entities at asserted c
onnectivities');
#155=(
GEOMETRIC_REPRESENTATION_CONTEXT(3)
GLOBAL_UNCERTAINTY_ASSIGNED_CONTEXT((#154))
GLOBAL_UNIT_ASSIGNED_CONTEXT((#153,#152,#148))
REPRESENTATION_CONTEXT('ID1','3D')
);
#156=SHAPE_REPRESENTATION('Document',(#157,#164),#155);
#157=AXIS2_PLACEMENT_3D($,#180,#165,#166);
#158=AXIS2_PLACEMENT_3D('',#181,#167,$);
#159=AXIS2_PLACEMENT_3D($,#195,#168,#169);
#160=AXIS2_PLACEMENT_3D($,#198,#170,#171);
#161=AXIS2_PLACEMENT_3D($,#201,#172,#173);
#162=AXIS2_PLACEMENT_3D($,#206,#174,#175);
#163=AXIS2_PLACEMENT_3D($,#211,#176,#177);
#164=AXIS2_PLACEMENT_3D($,#218,#178,#179);
#165=DIRECTION('',(0.,0.,1.));
#166=DIRECTION('',(1.,0.,0.));
#167=DIRECTION('',(0.,0.,1.));
#168=DIRECTION('',(0.,0.,-1.));
#169=DIRECTION('',(1.77635683940025E-15,-1.,0.));
#170=DIRECTION('',(0.,0.,1.));
#171=DIRECTION('',(0.699854212223765,0.714285714285714,0.));
#172=DIRECTION('',(0.,0.,-1.));
#173=DIRECTION('',(-0.699854212223761,0.714285714285719,0.));
#174=DIRECTION('',(0.,0.,1.));
#175=DIRECTION('',(8.88178419700126E-16,-1.,0.));
#176=DIRECTION('',(0.,0.,1.));
#177=DIRECTION('',(0.707106781186547,-0.707106781186547,0.));
#178=DIRECTION('',(0.,0.,1.));
#179=DIRECTION('',(1.,0.,0.));
#180=CARTESIAN_POINT('',(0.,0.,0.));
#181=CARTESIAN_POINT('',(-13.32,-7.2175309802999,0.));
#182=CARTESIAN_POINT('',(15.,4.,0.));
#183=CARTESIAN_POINT('',(-2.10102051443364,4.,0.));
#184=CARTESIAN_POINT('',(-2.80087472665741,4.28571428571429,0.));
#185=CARTESIAN_POINT('',(-2.80087472665741,-4.28571428571428,0.));
#186=CARTESIAN_POINT('',(-2.10102051443364,-4.,0.));
#187=CARTESIAN_POINT('',(15.,-4.,0.));
#188=CARTESIAN_POINT('',(-8.0285912696499,-3.08577380894971,0.));
#189=CARTESIAN_POINT('',(16.,-1.,0.));
#190=CARTESIAN_POINT('',(-10.0857738089497,1.0285912696499,0.));
#191=CARTESIAN_POINT('',(-5.9714087303501,3.08577380894971,0.));
#192=CARTESIAN_POINT('',(-3.91422619105029,-1.0285912696499,0.));
#193=CARTESIAN_POINT('',(15.,4.,0.));
#194=CARTESIAN_POINT('',(-2.10102051443364,4.,0.));
#195=CARTESIAN_POINT('',(-2.10102051443364,5.,0.));
#196=CARTESIAN_POINT('',(-2.10102051443364,4.,0.));
#197=CARTESIAN_POINT('',(-2.80087472665741,4.28571428571429,0.));
#198=CARTESIAN_POINT('',(-7.,-1.14635490226483E-15,0.));
#199=CARTESIAN_POINT('',(-2.80087472665741,4.28571428571429,0.));
#200=CARTESIAN_POINT('',(-2.80087472665741,-4.28571428571429,0.));
#201=CARTESIAN_POINT('',(-2.10102051443364,-5.,0.));
#202=CARTESIAN_POINT('',(-2.80087472665741,-4.28571428571428,0.));
#203=CARTESIAN_POINT('',(-2.10102051443364,-4.,0.));
#204=CARTESIAN_POINT('',(-2.10102051443364,-4.,0.));
#205=CARTESIAN_POINT('',(15.,-4.,0.));
#206=CARTESIAN_POINT('',(15.,-3.5527136788005E-15,0.));
#207=CARTESIAN_POINT('',(15.,-4.,0.));
#208=CARTESIAN_POINT('',(15.,3.99999999999999,0.));
#209=CARTESIAN_POINT('',(-8.0285912696499,-3.08577380894971,0.));
#210=CARTESIAN_POINT('',(-3.91422619105029,-1.0285912696499,0.));
#211=CARTESIAN_POINT('',(15.,-5.55111512312578E-17,0.));
#212=CARTESIAN_POINT('',(-10.0857738089497,1.0285912696499,0.));
#213=CARTESIAN_POINT('',(-8.0285912696499,-3.08577380894971,0.));
#214=CARTESIAN_POINT('',(-5.9714087303501,3.08577380894971,0.));
#215=CARTESIAN_POINT('',(-10.0857738089497,1.0285912696499,0.));
#216=CARTESIAN_POINT('',(-3.91422619105029,-1.0285912696499,0.));
#217=CARTESIAN_POINT('',(-5.9714087303501,3.08577380894971,0.));
#218=CARTESIAN_POINT('',(0.,0.,0.));
ENDSEC;
END-ISO-10303-21;
