ISO-10303-21;
HEADER;
/* Generated by software containing ST-Developer
 * from STEP Tools, Inc. (www.steptools.com) 
 */
/* OPTION: using custom schema-name function */

FILE_DESCRIPTION(
/* description */ (''),
/* implementation_level */ '2;1');

FILE_NAME(
/* name */ 'CircularHoles',
/* time_stamp */ '2026-02-09T14:43:22Z',
/* author */ (''),
/* organization */ (''),
/* preprocessor_version */ 'ST-DEVELOPER v19.2',
/* originating_system */ 'Rhino 8.27',
/* authorisation */ '');

FILE_SCHEMA (('CONFIG_CONTROL_DESIGN'));
ENDSEC;

DATA;
#10=SHAPE_REPRESENTATION_RELATIONSHIP('','',#158,#12);
#11=SHELL_BASED_SURFACE_MODEL('shell_1',(#13));
#12=MANIFOLD_SURFACE_SHAPE_REPRESENTATION('shell_rep_0',(#11,#163),#157);
#13=OPEN_SHELL('',(#14));
#14=ADVANCED_FACE('',(#17,#15,#16),#71,.F.);
#15=FACE_BOUND('',#19,.T.);
#16=FACE_BOUND('',#20,.T.);
#17=FACE_OUTER_BOUND('',#18,.T.);
#18=EDGE_LOOP('',(#21,#22,#23,#24));
#19=EDGE_LOOP('',(#25,#26,#27,#28));
#20=EDGE_LOOP('',(#29,#30,#31,#32));
#21=ORIENTED_EDGE('',*,*,#33,.T.);
#22=ORIENTED_EDGE('',*,*,#35,.F.);
#23=ORIENTED_EDGE('',*,*,#36,.F.);
#24=ORIENTED_EDGE('',*,*,#34,.T.);
#25=ORIENTED_EDGE('',*,*,#40,.T.);
#26=ORIENTED_EDGE('',*,*,#39,.T.);
#27=ORIENTED_EDGE('',*,*,#38,.T.);
#28=ORIENTED_EDGE('',*,*,#37,.T.);
#29=ORIENTED_EDGE('',*,*,#44,.T.);
#30=ORIENTED_EDGE('',*,*,#43,.T.);
#31=ORIENTED_EDGE('',*,*,#42,.T.);
#32=ORIENTED_EDGE('',*,*,#41,.T.);
#33=EDGE_CURVE('',#59,#60,#55,.T.);
#34=EDGE_CURVE('',#61,#59,#45,.T.);
#35=EDGE_CURVE('',#62,#60,#46,.T.);
#36=EDGE_CURVE('',#61,#62,#56,.T.);
#37=EDGE_CURVE('',#63,#64,#47,.T.);
#38=EDGE_CURVE('',#65,#63,#48,.T.);
#39=EDGE_CURVE('',#66,#65,#49,.T.);
#40=EDGE_CURVE('',#64,#66,#50,.T.);
#41=EDGE_CURVE('',#67,#68,#51,.T.);
#42=EDGE_CURVE('',#69,#67,#52,.T.);
#43=EDGE_CURVE('',#70,#69,#53,.T.);
#44=EDGE_CURVE('',#68,#70,#54,.T.);
#45=B_SPLINE_CURVE_WITH_KNOTS('',1,(#190,#191),.UNSPECIFIED.,.F.,.F.,(2,
2),(0.,25.),.UNSPECIFIED.);
#46=B_SPLINE_CURVE_WITH_KNOTS('',1,(#192,#193),.UNSPECIFIED.,.F.,.F.,(2,
2),(0.,25.),.UNSPECIFIED.);
#47=B_SPLINE_CURVE_WITH_KNOTS('',3,(#197,#198,#199,#200,#201,#202,#203,
#204,#205,#206,#207,#208),.UNSPECIFIED.,.F.,.F.,(4,2,2,2,2,4),(0.,0.185354409633142,
0.370708819266283,0.560487924075578,0.750267028884872,1.),.UNSPECIFIED.);
#48=B_SPLINE_CURVE_WITH_KNOTS('',3,(#209,#210,#211,#212,#213,#214,#215,
#216,#217,#218),.UNSPECIFIED.,.F.,.F.,(4,2,2,2,4),(0.803620045676753,0.821946865167044,
0.866751146262536,0.933375573131268,1.),.UNSPECIFIED.);
#49=B_SPLINE_CURVE_WITH_KNOTS('',3,(#219,#220,#221,#222,#223,#224,#225,
#226,#227,#228,#229,#230,#231,#232,#233,#234,#235,#236,#237,#238,#239,#240,
#241,#242,#243,#244),.UNSPECIFIED.,.F.,.F.,(4,2,2,2,2,2,2,2,2,2,2,2,4),
(0.196304736262374,0.221689917622272,0.291844044250921,0.327113713777166,
0.36238338330341,0.423985275699123,0.482254842938618,0.540199440678576,
0.598190371756588,0.65612155932672,0.714765088332006,0.777142584071552,
0.803620045676753),.UNSPECIFIED.);
#50=B_SPLINE_CURVE_WITH_KNOTS('',3,(#245,#246,#247,#248,#249,#250,#251,
#252),.UNSPECIFIED.,.F.,.F.,(4,2,2,4),(0.,0.0683528014060767,0.136705602812153,
0.196304736262374),.UNSPECIFIED.);
#51=B_SPLINE_CURVE_WITH_KNOTS('',3,(#253,#254,#255,#256,#257,#258,#259,
#260,#261,#262,#263,#264),.UNSPECIFIED.,.F.,.F.,(4,2,2,2,2,4),(0.,0.185354409633141,
0.370708819266282,0.560487924075577,0.750267028884872,1.),.UNSPECIFIED.);
#52=B_SPLINE_CURVE_WITH_KNOTS('',3,(#265,#266,#267,#268,#269,#270,#271,
#272,#273,#274),.UNSPECIFIED.,.F.,.F.,(4,2,2,2,4),(0.803620045676753,0.821946865167044,
0.866751146262536,0.933375573131268,1.),.UNSPECIFIED.);
#53=B_SPLINE_CURVE_WITH_KNOTS('',3,(#275,#276,#277,#278,#279,#280,#281,
#282,#283,#284,#285,#286,#287,#288,#289,#290,#291,#292,#293,#294,#295,#296,
#297,#298,#299,#300),.UNSPECIFIED.,.F.,.F.,(4,2,2,2,2,2,2,2,2,2,2,2,4),
(0.196304736262374,0.221689917622272,0.291844044250921,0.327113713777166,
0.362383383303411,0.423985275699124,0.482254842938618,0.540199440678576,
0.598190371756588,0.65612155932672,0.714765088332006,0.777142584071553,
0.803620045676753),.UNSPECIFIED.);
#54=B_SPLINE_CURVE_WITH_KNOTS('',3,(#301,#302,#303,#304,#305,#306,#307,
#308),.UNSPECIFIED.,.F.,.F.,(4,2,2,4),(0.,0.0683528014060766,0.136705602812153,
0.196304736262374),.UNSPECIFIED.);
#55=TRIMMED_CURVE($,#57,(#188),(#189),.T.,.CARTESIAN.);
#56=TRIMMED_CURVE($,#58,(#195),(#196),.T.,.CARTESIAN.);
#57=CIRCLE('',#161,8.);
#58=CIRCLE('',#162,8.);
#59=VERTEX_POINT('',#175);
#60=VERTEX_POINT('',#176);
#61=VERTEX_POINT('',#177);
#62=VERTEX_POINT('',#178);
#63=VERTEX_POINT('',#179);
#64=VERTEX_POINT('',#180);
#65=VERTEX_POINT('',#181);
#66=VERTEX_POINT('',#182);
#67=VERTEX_POINT('',#183);
#68=VERTEX_POINT('',#184);
#69=VERTEX_POINT('',#185);
#70=VERTEX_POINT('',#186);
#71=CYLINDRICAL_SURFACE('',#160,8.);
#72=SHAPE_DEFINITION_REPRESENTATION(#73,#158);
#73=PRODUCT_DEFINITION_SHAPE($,$,#75);
#74=PRODUCT_DEFINITION_CONTEXT('3D Mechanical Parts',#147,'design');
#75=PRODUCT_DEFINITION('A','First version',#117,#74);
#76=DATE_TIME_ROLE('classification_date');
#77=DATE_TIME_ROLE('creation_date');
#78=APPLIED_DATE_AND_TIME_ASSIGNMENT(#102,#76,(#81));
#79=APPLIED_DATE_AND_TIME_ASSIGNMENT(#104,#77,(#75));
#80=SECURITY_CLASSIFICATION_LEVEL('unclassified');
#81=SECURITY_CLASSIFICATION('A','Security for version',#80);
#82=APPLIED_SECURITY_CLASSIFICATION_ASSIGNMENT(#81,(#117));
#83=APPROVAL_ROLE('Version approval');
#84=APPROVAL_ROLE('Version Security approval');
#85=APPROVAL_ROLE('Definition approval');
#86=APPROVAL_PERSON_ORGANIZATION(#135,#111,#83);
#87=APPROVAL_PERSON_ORGANIZATION(#136,#112,#84);
#88=APPROVAL_PERSON_ORGANIZATION(#139,#113,#85);
#89=COORDINATED_UNIVERSAL_TIME_OFFSET(5,0,.BEHIND.);
#90=LOCAL_TIME(0,0,0.,#89);
#91=LOCAL_TIME(0,0,0.,#89);
#92=LOCAL_TIME(0,0,0.,#89);
#93=LOCAL_TIME(0,0,0.,#89);
#94=LOCAL_TIME(0,0,0.,#89);
#95=CALENDAR_DATE(1999,1,1);
#96=CALENDAR_DATE(1999,1,1);
#97=CALENDAR_DATE(1999,1,1);
#98=CALENDAR_DATE(1999,1,1);
#99=CALENDAR_DATE(1999,1,1);
#100=DATE_AND_TIME(#95,#90);
#101=DATE_AND_TIME(#96,#91);
#102=DATE_AND_TIME(#97,#92);
#103=DATE_AND_TIME(#98,#93);
#104=DATE_AND_TIME(#99,#94);
#105=APPROVAL_DATE_TIME(#100,#111);
#106=APPROVAL_DATE_TIME(#101,#112);
#107=APPROVAL_DATE_TIME(#103,#113);
#108=APPROVAL_STATUS('not_yet_approved');
#109=APPROVAL_STATUS('not_yet_approved');
#110=APPROVAL_STATUS('approved');
#111=APPROVAL(#108,'Version approval');
#112=APPROVAL(#109,'Version Security approval');
#113=APPROVAL(#110,'Definition approval');
#114=APPLIED_APPROVAL_ASSIGNMENT(#111,(#117));
#115=APPLIED_APPROVAL_ASSIGNMENT(#112,(#81));
#116=APPLIED_APPROVAL_ASSIGNMENT(#113,(#75));
#117=PRODUCT_DEFINITION_FORMATION_WITH_SPECIFIED_SOURCE('A',
'First version',#149,.MADE.);
#118=PERSON_AND_ORGANIZATION_ROLE('design_owner');
#119=PERSON_AND_ORGANIZATION_ROLE('creator');
#120=PERSON_AND_ORGANIZATION_ROLE('design_supplier');
#121=PERSON_AND_ORGANIZATION_ROLE('classification_officer');
#122=PERSON_AND_ORGANIZATION_ROLE('creator');
#123=ORGANIZATION('STI','lab','lab');
#124=ORGANIZATION('STI','unknown','unknown');
#125=ORGANIZATION('STI','unknown','unknown');
#126=ORGANIZATION('STI','unknown','unknown');
#127=ORGANIZATION('STI','unknown','unknown');
#128=ORGANIZATION('STI','unknown','unknown');
#129=ORGANIZATION('STI','unknown','unknown');
#130=PERSON('1','Box','vc60',$,$,$);
#131=PERSON('2','last','first',$,$,$);
#132=PERSON('3','President','Mr.',$,$,$);
#133=PERSON_AND_ORGANIZATION(#130,#123);
#134=PERSON_AND_ORGANIZATION(#131,#124);
#135=PERSON_AND_ORGANIZATION(#132,#125);
#136=PERSON_AND_ORGANIZATION(#132,#126);
#137=PERSON_AND_ORGANIZATION(#132,#127);
#138=PERSON_AND_ORGANIZATION(#131,#128);
#139=PERSON_AND_ORGANIZATION(#132,#129);
#140=APPLIED_PERSON_AND_ORGANIZATION_ASSIGNMENT(#133,#118,(#149));
#141=APPLIED_PERSON_AND_ORGANIZATION_ASSIGNMENT(#134,#119,(#117));
#142=APPLIED_PERSON_AND_ORGANIZATION_ASSIGNMENT(#134,#120,(#117));
#143=APPLIED_PERSON_AND_ORGANIZATION_ASSIGNMENT(#137,#121,(#81));
#144=APPLIED_PERSON_AND_ORGANIZATION_ASSIGNMENT(#138,#122,(#75));
#145=PRODUCT_RELATED_PRODUCT_CATEGORY('detail','detail',(#149));
#146=APPLICATION_PROTOCOL_DEFINITION('International Standard',
'config_control_design',1994,#147);
#147=APPLICATION_CONTEXT(
'configuration controlled 3d designs of mechanical parts and assemblie
s');
#148=PRODUCT_CONTEXT('3D Mechanical Parts',#147,'mechanical');
#149=PRODUCT('Document','Document','',(#148));
#150=(
LENGTH_UNIT()
NAMED_UNIT(*)
SI_UNIT(.MILLI.,.METRE.)
);
#151=(
NAMED_UNIT(*)
PLANE_ANGLE_UNIT()
SI_UNIT($,.RADIAN.)
);
#152=DIMENSIONAL_EXPONENTS(0.,0.,0.,0.,0.,0.,0.);
#153=PLANE_ANGLE_MEASURE_WITH_UNIT(PLANE_ANGLE_MEASURE(0.01745329252),#151);
#154=(
CONVERSION_BASED_UNIT('DEGREES',#153)
NAMED_UNIT(#152)
PLANE_ANGLE_UNIT()
);
#155=(
NAMED_UNIT(*)
SI_UNIT($,.STERADIAN.)
SOLID_ANGLE_UNIT()
);
#156=UNCERTAINTY_MEASURE_WITH_UNIT(LENGTH_MEASURE(0.001),#150,
'DISTANCE_ACCURACY_VALUE',
'Maximum model space distance between geometric entities at asserted c
onnectivities');
#157=(
GEOMETRIC_REPRESENTATION_CONTEXT(3)
GLOBAL_UNCERTAINTY_ASSIGNED_CONTEXT((#156))
GLOBAL_UNIT_ASSIGNED_CONTEXT((#155,#154,#150))
REPRESENTATION_CONTEXT('ID1','3D')
);
#158=SHAPE_REPRESENTATION('Document',(#159,#163),#157);
#159=AXIS2_PLACEMENT_3D($,#173,#164,#165);
#160=AXIS2_PLACEMENT_3D('',#174,#166,$);
#161=AXIS2_PLACEMENT_3D($,#187,#167,#168);
#162=AXIS2_PLACEMENT_3D($,#194,#169,#170);
#163=AXIS2_PLACEMENT_3D($,#309,#171,#172);
#164=DIRECTION('',(0.,0.,1.));
#165=DIRECTION('',(1.,0.,0.));
#166=DIRECTION('',(0.,1.,0.));
#167=DIRECTION('',(0.,1.,0.));
#168=DIRECTION('',(-0.961282753215632,0.,-0.275563909774436));
#169=DIRECTION('',(0.,1.,0.));
#170=DIRECTION('',(-0.961282753215632,0.,-0.275563909774436));
#171=DIRECTION('',(0.,0.,1.));
#172=DIRECTION('',(1.,0.,0.));
#173=CARTESIAN_POINT('',(0.,0.,0.));
#174=CARTESIAN_POINT('',(0.073421860211667,-45.24975,17.4383657900024));
#175=CARTESIAN_POINT('',(-7.6168401655134,-38.99975,15.2338545118069));
#176=CARTESIAN_POINT('',(7.76368388593675,-38.99975,15.2338545118069));
#177=CARTESIAN_POINT('',(-7.6168401655134,-51.49975,15.2338545118069));
#178=CARTESIAN_POINT('',(7.76368388593675,-51.49975,15.2338545118069));
#179=CARTESIAN_POINT('',(-6.7827029598617,-44.4239336770601,21.5606894613768));
#180=CARTESIAN_POINT('',(-6.7827029598617,-48.3455663229399,21.5606894613768));
#181=CARTESIAN_POINT('',(-4.926578139788335,-43.68475,23.6833637884008));
#182=CARTESIAN_POINT('',(-4.926578139788335,-49.08475,23.6833637884008));
#183=CARTESIAN_POINT('',(6.92954668028505,-48.3455663229399,21.5606894613768));
#184=CARTESIAN_POINT('',(6.92954668028505,-44.4239336770601,21.5606894613768));
#185=CARTESIAN_POINT('',(5.07342186021165,-49.08475,23.6833637884008));
#186=CARTESIAN_POINT('',(5.07342186021165,-43.68475,23.6833637884008));
#187=CARTESIAN_POINT('',(0.0734218602116625,-38.99975,17.4383657900024));
#188=CARTESIAN_POINT('',(-7.6168401655134,-38.99975,15.2338545118069));
#189=CARTESIAN_POINT('',(7.7636838859367,-38.99975,15.2338545118069));
#190=CARTESIAN_POINT('',(-7.6168401655134,-51.49975,15.2338545118069));
#191=CARTESIAN_POINT('',(-7.6168401655134,-38.99975,15.2338545118069));
#192=CARTESIAN_POINT('',(7.76368388593675,-51.49975,15.2338545118069));
#193=CARTESIAN_POINT('',(7.76368388593675,-38.99975,15.2338545118069));
#194=CARTESIAN_POINT('',(0.0734218602116625,-51.49975,17.4383657900024));
#195=CARTESIAN_POINT('',(-7.6168401655134,-51.49975,15.2338545118069));
#196=CARTESIAN_POINT('',(7.7636838859367,-51.49975,15.2338545118069));
#197=CARTESIAN_POINT('',(-6.7827029598617,-44.4239336770601,21.5606894613768));
#198=CARTESIAN_POINT('',(-6.8311285212923,-44.65434510881585,21.48014952319685));
#199=CARTESIAN_POINT('',(-6.8732999797843,-44.89125459830655,21.4067112861874));
#200=CARTESIAN_POINT('',(-6.9403610043773,-45.3696303717609,21.2869447781182));
#201=CARTESIAN_POINT('',(-6.9658372141423,-45.6161510635227,21.2396587942131));
#202=CARTESIAN_POINT('',(-6.99597700684835,-46.11570030704165,21.1833150069382));
#203=CARTESIAN_POINT('',(-7.00029078778795,-46.37580780932035,21.1750527400621));
#204=CARTESIAN_POINT('',(-6.98576599060395,-46.8844245500505,21.20242036932415));
#205=CARTESIAN_POINT('',(-6.9668057720456,-47.1411517504326,21.23818550600505));
#206=CARTESIAN_POINT('',(-6.90146413034745,-47.7153758227345,21.35715559624765));
#207=CARTESIAN_POINT('',(-6.8479480185464,-48.0351268165632,21.45217584092975));
#208=CARTESIAN_POINT('',(-6.7827029598617,-48.3455663229399,21.5606894613768));
#209=CARTESIAN_POINT('',(-4.926578139788335,-43.68475,23.6833637884008));
#210=CARTESIAN_POINT('',(-4.998428254003125,-43.684793346834,23.62579176957725));
#211=CARTESIAN_POINT('',(-5.0692590797329,-43.68762779062,23.5670823033018));
#212=CARTESIAN_POINT('',(-5.30782624278055,-43.7064120754841,23.3622137940977));
#213=CARTESIAN_POINT('',(-5.47230782123255,-43.73566364868235,23.2083878217244));
#214=CARTESIAN_POINT('',(-5.8557212882554,-43.83856991826455,22.81907210355985));
#215=CARTESIAN_POINT('',(-6.07004142976785,-43.92890578242445,22.57222190134905));
#216=CARTESIAN_POINT('',(-6.45357336705325,-44.14712521187665,22.0748464672617));
#217=CARTESIAN_POINT('',(-6.6287336532367,-44.27818506806865,21.81676658409565));
#218=CARTESIAN_POINT('',(-6.7827029598617,-44.42393367706005,21.5606894613768));
#219=CARTESIAN_POINT('',(-4.926578139788335,-49.08475,23.6833637884008));
#220=CARTESIAN_POINT('',(-4.827184539970935,-49.0846979030545,23.76280038512675));
#221=CARTESIAN_POINT('',(-4.726198129635435,-49.0792641859042,23.8398938038119));
#222=CARTESIAN_POINT('',(-4.34190085441571,-49.0359374083883,24.11866960478535));
#223=CARTESIAN_POINT('',(-4.04464936954536,-48.95589938696895,24.30463628817655));
#224=CARTESIAN_POINT('',(-3.618964180446605,-48.75225271009465,24.5371415605499));
#225=CARTESIAN_POINT('',(-3.47673982783227,-48.66838443655815,24.6090030605662));
#226=CARTESIAN_POINT('',(-3.21042872413338,-48.4756465908911,24.73480411407195));
#227=CARTESIAN_POINT('',(-3.081385065172385,-48.36312125459845,24.7911219923114));
#228=CARTESIAN_POINT('',(-2.761704744401385,-48.0251297836104,24.9223720491778));
#229=CARTESIAN_POINT('',(-2.587516854246595,-47.7673367202795,24.9840047382013));
#230=CARTESIAN_POINT('',(-2.345043556574665,-47.22657504780995,25.0650603532909));
#231=CARTESIAN_POINT('',(-2.268032187599915,-46.9384666750992,25.08810286858105));
#232=CARTESIAN_POINT('',(-2.2112524666503,-46.36160507475015,25.105251586214));
#233=CARTESIAN_POINT('',(-2.23011500031668,-46.0649172743226,25.09984326872525));
#234=CARTESIAN_POINT('',(-2.358593008999495,-45.50225811769835,25.0600342511));
#235=CARTESIAN_POINT('',(-2.470108014930815,-45.22858590833995,25.0248658049328));
#236=CARTESIAN_POINT('',(-2.764924024256995,-44.7421771289819,24.9195601353297));
#237=CARTESIAN_POINT('',(-2.952041130188885,-44.5229280126823,24.84767952757555));
#238=CARTESIAN_POINT('',(-3.3691754875397,-44.16179370791275,24.66340216533495));
#239=CARTESIAN_POINT('',(-3.604619043891925,-44.016175040313,24.547988729734));
#240=CARTESIAN_POINT('',(-4.09651438688146,-43.8006416244878,24.27182563615865));
#241=CARTESIAN_POINT('',(-4.35884936169461,-43.7330215920289,24.10552227848825));
#242=CARTESIAN_POINT('',(-4.716673044237095,-43.6907812880707,23.8471323161859));
#243=CARTESIAN_POINT('',(-4.822704666380195,-43.6848226725421,23.7664542637436));
#244=CARTESIAN_POINT('',(-4.926578139788335,-43.68475,23.6833637884008));
#245=CARTESIAN_POINT('',(-6.7827029598617,-48.3455663229399,21.5606894613768));
#246=CARTESIAN_POINT('',(-6.6247393730363,-48.49509595034265,21.8234097508635));
#247=CARTESIAN_POINT('',(-6.44436134214875,-48.62923890582485,22.08837127640745));
#248=CARTESIAN_POINT('',(-6.0488280836325,-48.8509112601981,22.59802706974435));
#249=CARTESIAN_POINT('',(-5.82713607163015,-48.9418650881802,22.85095635451615));
#250=CARTESIAN_POINT('',(-5.38325028709685,-49.054384186194,23.2958760966678));
#251=CARTESIAN_POINT('',(-5.1595575599134,-49.084589661998,23.4963940332793));
#252=CARTESIAN_POINT('',(-4.926578139788335,-49.08475,23.6833637884008));
#253=CARTESIAN_POINT('',(6.92954668028505,-48.3455663229399,21.5606894613768));
#254=CARTESIAN_POINT('',(6.97797224171565,-48.11515489118415,21.48014952319685));
#255=CARTESIAN_POINT('',(7.02014370020765,-47.87824540169345,21.4067112861874));
#256=CARTESIAN_POINT('',(7.08720472480065,-47.3998696282391,21.2869447781182));
#257=CARTESIAN_POINT('',(7.1126809345656,-47.15334893647735,21.2396587942131));
#258=CARTESIAN_POINT('',(7.1428207272717,-46.6537996929584,21.1833150069382));
#259=CARTESIAN_POINT('',(7.14713450821125,-46.39369219067965,21.1750527400621));
#260=CARTESIAN_POINT('',(7.1326097110273,-45.88507544994955,21.20242036932415));
#261=CARTESIAN_POINT('',(7.11364949246895,-45.6283482495674,21.23818550600505));
#262=CARTESIAN_POINT('',(7.0483078507708,-45.0541241772655,21.35715559624765));
#263=CARTESIAN_POINT('',(6.99479173896975,-44.7343731834368,21.4521758409298));
#264=CARTESIAN_POINT('',(6.92954668028505,-44.4239336770601,21.5606894613768));
#265=CARTESIAN_POINT('',(5.07342186021165,-49.08475,23.6833637884008));
#266=CARTESIAN_POINT('',(5.14527197442645,-49.08470665316605,23.62579176957725));
#267=CARTESIAN_POINT('',(5.2161028001562,-49.08187220938005,23.5670823033018));
#268=CARTESIAN_POINT('',(5.4546699632039,-49.0630879245159,23.3622137940977));
#269=CARTESIAN_POINT('',(5.6191515416559,-49.03383635131765,23.2083878217244));
#270=CARTESIAN_POINT('',(6.00256500867875,-48.93093008173545,22.81907210355985));
#271=CARTESIAN_POINT('',(6.2168851501912,-48.84059421757555,22.57222190134905));
#272=CARTESIAN_POINT('',(6.6004170874766,-48.62237478812335,22.0748464672617));
#273=CARTESIAN_POINT('',(6.77557737366,-48.49131493193135,21.81676658409565));
#274=CARTESIAN_POINT('',(6.92954668028505,-48.34556632293985,21.5606894613768));
#275=CARTESIAN_POINT('',(5.07342186021165,-43.68475,23.6833637884008));
#276=CARTESIAN_POINT('',(4.97402826039427,-43.6848020969455,23.76280038512675));
#277=CARTESIAN_POINT('',(4.87304185005877,-43.69023581409585,23.8398938038119));
#278=CARTESIAN_POINT('',(4.488744574839045,-43.73356259161175,24.11866960478535));
#279=CARTESIAN_POINT('',(4.191493089968695,-43.8136006130311,24.30463628817655));
#280=CARTESIAN_POINT('',(3.765807900869935,-44.0172472899054,24.5371415605499));
#281=CARTESIAN_POINT('',(3.623583548255605,-44.10111556344185,24.6090030605662));
#282=CARTESIAN_POINT('',(3.35727244455671,-44.2938534091089,24.73480411407195));
#283=CARTESIAN_POINT('',(3.228228785595715,-44.40637874540155,24.7911219923114));
#284=CARTESIAN_POINT('',(2.90854846482471,-44.7443702163896,24.9223720491778));
#285=CARTESIAN_POINT('',(2.734360574669925,-45.0021632797205,24.9840047382013));
#286=CARTESIAN_POINT('',(2.491887276997995,-45.5429249521901,25.0650603532909));
#287=CARTESIAN_POINT('',(2.414875908023245,-45.8310333249008,25.08810286858105));
#288=CARTESIAN_POINT('',(2.35809618707363,-46.4078949252499,25.105251586214));
#289=CARTESIAN_POINT('',(2.37695872074001,-46.7045827256774,25.09984326872525));
#290=CARTESIAN_POINT('',(2.50543672942282,-47.2672418823017,25.0600342511));
#291=CARTESIAN_POINT('',(2.616951735354145,-47.54091409166005,25.0248658049328));
#292=CARTESIAN_POINT('',(2.91176774468032,-48.0273228710181,24.9195601353297));
#293=CARTESIAN_POINT('',(3.098884850612215,-48.2465719873177,24.84767952757555));
#294=CARTESIAN_POINT('',(3.51601920796303,-48.60770629208725,24.66340216533495));
#295=CARTESIAN_POINT('',(3.751462764315255,-48.753324959687,24.547988729734));
#296=CARTESIAN_POINT('',(4.24335810730479,-48.96885837551225,24.27182563615865));
#297=CARTESIAN_POINT('',(4.50569308211794,-49.03647840797115,24.10552227848825));
#298=CARTESIAN_POINT('',(4.863516764660425,-49.0787187119293,23.8471323161859));
#299=CARTESIAN_POINT('',(4.969548386803525,-49.08467732745795,23.7664542637436));
#300=CARTESIAN_POINT('',(5.07342186021165,-49.08475,23.6833637884008));
#301=CARTESIAN_POINT('',(6.92954668028505,-44.4239336770601,21.5606894613768));
#302=CARTESIAN_POINT('',(6.77158309345965,-44.27440404965735,21.8234097508635));
#303=CARTESIAN_POINT('',(6.59120506257205,-44.14026109417515,22.08837127640745));
#304=CARTESIAN_POINT('',(6.19567180405585,-43.91858873980195,22.59802706974435));
#305=CARTESIAN_POINT('',(5.9739797920535,-43.8276349118198,22.85095635451615));
#306=CARTESIAN_POINT('',(5.5300940075202,-43.715115813806,23.2958760966678));
#307=CARTESIAN_POINT('',(5.3064012803367,-43.684910338002,23.49639403327935));
#308=CARTESIAN_POINT('',(5.07342186021165,-43.68475,23.6833637884008));
#309=CARTESIAN_POINT('',(0.,0.,0.));
ENDSEC;
END-ISO-10303-21;
