ISO-10303-21;
HEADER;
/* Generated by software containing ST-Developer
 * from STEP Tools, Inc. (www.steptools.com) 
 */
/* OPTION: using custom schema-name function */

FILE_DESCRIPTION(
/* description */ (''),
/* implementation_level */ '2;1');

FILE_NAME(
/* name */ 'CircBracket_Full',
/* time_stamp */ '2026-09-16T11:22:35+01:00',
/* author */ (''),
/* organization */ (''),
/* preprocessor_version */ 'ST-DEVELOPER v19.2',
/* originating_system */ 'Rhino 8.27',
/* authorisation */ '');

FILE_SCHEMA (('CONFIG_CONTROL_DESIGN'));
ENDSEC;

DATA;
#10=SHAPE_REPRESENTATION_RELATIONSHIP('','',#162,#12);
#11=SHELL_BASED_SURFACE_MODEL('shell_1',(#13));
#12=MANIFOLD_SURFACE_SHAPE_REPRESENTATION('shell_rep_0',(#11,#176),#161);
#13=OPEN_SHELL('',(#14));
#14=ADVANCED_FACE('',(#18,#15,#16,#17),#75,.T.);
#15=FACE_BOUND('',#20,.T.);
#16=FACE_BOUND('',#21,.T.);
#17=FACE_BOUND('',#22,.T.);
#18=FACE_OUTER_BOUND('',#19,.T.);
#19=EDGE_LOOP('',(#23,#24,#25,#26,#27,#28,#29,#30));
#20=EDGE_LOOP('',(#31));
#21=EDGE_LOOP('',(#32));
#22=EDGE_LOOP('',(#33));
#23=ORIENTED_EDGE('',*,*,#34,.T.);
#24=ORIENTED_EDGE('',*,*,#35,.T.);
#25=ORIENTED_EDGE('',*,*,#36,.T.);
#26=ORIENTED_EDGE('',*,*,#37,.T.);
#27=ORIENTED_EDGE('',*,*,#38,.T.);
#28=ORIENTED_EDGE('',*,*,#39,.T.);
#29=ORIENTED_EDGE('',*,*,#40,.T.);
#30=ORIENTED_EDGE('',*,*,#41,.T.);
#31=ORIENTED_EDGE('',*,*,#42,.F.);
#32=ORIENTED_EDGE('',*,*,#43,.F.);
#33=ORIENTED_EDGE('',*,*,#44,.T.);
#34=EDGE_CURVE('',#64,#65,#45,.T.);
#35=EDGE_CURVE('',#65,#66,#46,.T.);
#36=EDGE_CURVE('',#66,#67,#47,.T.);
#37=EDGE_CURVE('',#67,#68,#48,.T.);
#38=EDGE_CURVE('',#68,#69,#49,.T.);
#39=EDGE_CURVE('',#69,#70,#50,.T.);
#40=EDGE_CURVE('',#70,#71,#51,.T.);
#41=EDGE_CURVE('',#71,#64,#52,.T.);
#42=EDGE_CURVE('',#72,#72,#61,.T.);
#43=EDGE_CURVE('',#73,#73,#62,.T.);
#44=EDGE_CURVE('',#74,#74,#63,.T.);
#45=TRIMMED_CURVE($,#53,(#218),(#219),.T.,.CARTESIAN.);
#46=TRIMMED_CURVE($,#54,(#221),(#222),.T.,.CARTESIAN.);
#47=TRIMMED_CURVE($,#55,(#224),(#225),.T.,.CARTESIAN.);
#48=TRIMMED_CURVE($,#56,(#227),(#228),.T.,.CARTESIAN.);
#49=TRIMMED_CURVE($,#57,(#230),(#231),.T.,.CARTESIAN.);
#50=TRIMMED_CURVE($,#58,(#233),(#234),.T.,.CARTESIAN.);
#51=TRIMMED_CURVE($,#59,(#236),(#237),.T.,.CARTESIAN.);
#52=TRIMMED_CURVE($,#60,(#239),(#240),.T.,.CARTESIAN.);
#53=CIRCLE('',#165,1.99999999999999);
#54=CIRCLE('',#166,7.21110255092798);
#55=CIRCLE('',#167,2.00000000000001);
#56=CIRCLE('',#168,16.1245154965971);
#57=CIRCLE('',#169,2.);
#58=CIRCLE('',#170,7.21110255092798);
#59=CIRCLE('',#171,2.);
#60=CIRCLE('',#172,16.1245154965971);
#61=CIRCLE('',#173,10.);
#62=CIRCLE('',#174,1.);
#63=CIRCLE('',#175,1.);
#64=VERTEX_POINT('',#206);
#65=VERTEX_POINT('',#207);
#66=VERTEX_POINT('',#208);
#67=VERTEX_POINT('',#209);
#68=VERTEX_POINT('',#210);
#69=VERTEX_POINT('',#211);
#70=VERTEX_POINT('',#212);
#71=VERTEX_POINT('',#213);
#72=VERTEX_POINT('',#214);
#73=VERTEX_POINT('',#215);
#74=VERTEX_POINT('',#216);
#75=PLANE('',#164);
#76=SHAPE_DEFINITION_REPRESENTATION(#77,#162);
#77=PRODUCT_DEFINITION_SHAPE($,$,#79);
#78=PRODUCT_DEFINITION_CONTEXT('3D Mechanical Parts',#151,'design');
#79=PRODUCT_DEFINITION('A','First version',#121,#78);
#80=DATE_TIME_ROLE('classification_date');
#81=DATE_TIME_ROLE('creation_date');
#82=APPLIED_DATE_AND_TIME_ASSIGNMENT(#106,#80,(#85));
#83=APPLIED_DATE_AND_TIME_ASSIGNMENT(#108,#81,(#79));
#84=SECURITY_CLASSIFICATION_LEVEL('unclassified');
#85=SECURITY_CLASSIFICATION('A','Security for version',#84);
#86=APPLIED_SECURITY_CLASSIFICATION_ASSIGNMENT(#85,(#121));
#87=APPROVAL_ROLE('Version approval');
#88=APPROVAL_ROLE('Version Security approval');
#89=APPROVAL_ROLE('Definition approval');
#90=APPROVAL_PERSON_ORGANIZATION(#139,#115,#87);
#91=APPROVAL_PERSON_ORGANIZATION(#140,#116,#88);
#92=APPROVAL_PERSON_ORGANIZATION(#143,#117,#89);
#93=COORDINATED_UNIVERSAL_TIME_OFFSET(5,0,.BEHIND.);
#94=LOCAL_TIME(0,0,0.,#93);
#95=LOCAL_TIME(0,0,0.,#93);
#96=LOCAL_TIME(0,0,0.,#93);
#97=LOCAL_TIME(0,0,0.,#93);
#98=LOCAL_TIME(0,0,0.,#93);
#99=CALENDAR_DATE(1999,1,1);
#100=CALENDAR_DATE(1999,1,1);
#101=CALENDAR_DATE(1999,1,1);
#102=CALENDAR_DATE(1999,1,1);
#103=CALENDAR_DATE(1999,1,1);
#104=DATE_AND_TIME(#99,#94);
#105=DATE_AND_TIME(#100,#95);
#106=DATE_AND_TIME(#101,#96);
#107=DATE_AND_TIME(#102,#97);
#108=DATE_AND_TIME(#103,#98);
#109=APPROVAL_DATE_TIME(#104,#115);
#110=APPROVAL_DATE_TIME(#105,#116);
#111=APPROVAL_DATE_TIME(#107,#117);
#112=APPROVAL_STATUS('not_yet_approved');
#113=APPROVAL_STATUS('not_yet_approved');
#114=APPROVAL_STATUS('approved');
#115=APPROVAL(#112,'Version approval');
#116=APPROVAL(#113,'Version Security approval');
#117=APPROVAL(#114,'Definition approval');
#118=APPLIED_APPROVAL_ASSIGNMENT(#115,(#121));
#119=APPLIED_APPROVAL_ASSIGNMENT(#116,(#85));
#120=APPLIED_APPROVAL_ASSIGNMENT(#117,(#79));
#121=PRODUCT_DEFINITION_FORMATION_WITH_SPECIFIED_SOURCE('A',
'First version',#153,.MADE.);
#122=PERSON_AND_ORGANIZATION_ROLE('design_owner');
#123=PERSON_AND_ORGANIZATION_ROLE('creator');
#124=PERSON_AND_ORGANIZATION_ROLE('design_supplier');
#125=PERSON_AND_ORGANIZATION_ROLE('classification_officer');
#126=PERSON_AND_ORGANIZATION_ROLE('creator');
#127=ORGANIZATION('STI','lab','lab');
#128=ORGANIZATION('STI','unknown','unknown');
#129=ORGANIZATION('STI','unknown','unknown');
#130=ORGANIZATION('STI','unknown','unknown');
#131=ORGANIZATION('STI','unknown','unknown');
#132=ORGANIZATION('STI','unknown','unknown');
#133=ORGANIZATION('STI','unknown','unknown');
#134=PERSON('1','Box','vc60',$,$,$);
#135=PERSON('2','last','first',$,$,$);
#136=PERSON('3','President','Mr.',$,$,$);
#137=PERSON_AND_ORGANIZATION(#134,#127);
#138=PERSON_AND_ORGANIZATION(#135,#128);
#139=PERSON_AND_ORGANIZATION(#136,#129);
#140=PERSON_AND_ORGANIZATION(#136,#130);
#141=PERSON_AND_ORGANIZATION(#136,#131);
#142=PERSON_AND_ORGANIZATION(#135,#132);
#143=PERSON_AND_ORGANIZATION(#136,#133);
#144=APPLIED_PERSON_AND_ORGANIZATION_ASSIGNMENT(#137,#122,(#153));
#145=APPLIED_PERSON_AND_ORGANIZATION_ASSIGNMENT(#138,#123,(#121));
#146=APPLIED_PERSON_AND_ORGANIZATION_ASSIGNMENT(#138,#124,(#121));
#147=APPLIED_PERSON_AND_ORGANIZATION_ASSIGNMENT(#141,#125,(#85));
#148=APPLIED_PERSON_AND_ORGANIZATION_ASSIGNMENT(#142,#126,(#79));
#149=PRODUCT_RELATED_PRODUCT_CATEGORY('detail','detail',(#153));
#150=APPLICATION_PROTOCOL_DEFINITION('International Standard',
'config_control_design',1994,#151);
#151=APPLICATION_CONTEXT(
'configuration controlled 3d designs of mechanical parts and assemblie
s');
#152=PRODUCT_CONTEXT('3D Mechanical Parts',#151,'mechanical');
#153=PRODUCT('Document','Document','',(#152));
#154=(
LENGTH_UNIT()
NAMED_UNIT(*)
SI_UNIT(.MILLI.,.METRE.)
);
#155=(
NAMED_UNIT(*)
PLANE_ANGLE_UNIT()
SI_UNIT($,.RADIAN.)
);
#156=DIMENSIONAL_EXPONENTS(0.,0.,0.,0.,0.,0.,0.);
#157=PLANE_ANGLE_MEASURE_WITH_UNIT(PLANE_ANGLE_MEASURE(0.01745329252),#155);
#158=(
CONVERSION_BASED_UNIT('DEGREES',#157)
NAMED_UNIT(#156)
PLANE_ANGLE_UNIT()
);
#159=(
NAMED_UNIT(*)
SI_UNIT($,.STERADIAN.)
SOLID_ANGLE_UNIT()
);
#160=UNCERTAINTY_MEASURE_WITH_UNIT(LENGTH_MEASURE(0.01),#154,
'DISTANCE_ACCURACY_VALUE',
'Maximum model space distance between geometric entities at asserted c
onnectivities');
#161=(
GEOMETRIC_REPRESENTATION_CONTEXT(3)
GLOBAL_UNCERTAINTY_ASSIGNED_CONTEXT((#160))
GLOBAL_UNIT_ASSIGNED_CONTEXT((#159,#158,#154))
REPRESENTATION_CONTEXT('ID1','3D')
);
#162=SHAPE_REPRESENTATION('Document',(#163,#176),#161);
#163=AXIS2_PLACEMENT_3D($,#204,#177,#178);
#164=AXIS2_PLACEMENT_3D('',#205,#179,$);
#165=AXIS2_PLACEMENT_3D($,#217,#180,#181);
#166=AXIS2_PLACEMENT_3D($,#220,#182,#183);
#167=AXIS2_PLACEMENT_3D($,#223,#184,#185);
#168=AXIS2_PLACEMENT_3D($,#226,#186,#187);
#169=AXIS2_PLACEMENT_3D($,#229,#188,#189);
#170=AXIS2_PLACEMENT_3D($,#232,#190,#191);
#171=AXIS2_PLACEMENT_3D($,#235,#192,#193);
#172=AXIS2_PLACEMENT_3D($,#238,#194,#195);
#173=AXIS2_PLACEMENT_3D($,#241,#196,#197);
#174=AXIS2_PLACEMENT_3D($,#242,#198,#199);
#175=AXIS2_PLACEMENT_3D($,#243,#200,#201);
#176=AXIS2_PLACEMENT_3D($,#244,#202,#203);
#177=DIRECTION('',(0.,0.,1.));
#178=DIRECTION('',(1.,0.,0.));
#179=DIRECTION('',(0.,0.,1.));
#180=DIRECTION('',(0.,0.,-1.));
#181=DIRECTION('',(0.861494842228487,-0.50776632107074,0.));
#182=DIRECTION('',(0.,0.,1.));
#183=DIRECTION('',(0.0418867751887613,0.99912236390959,0.));
#184=DIRECTION('',(0.,0.,-1.));
#185=DIRECTION('',(-0.041886775188759,0.99912236390959,0.));
#186=DIRECTION('',(0.,0.,1.));
#187=DIRECTION('',(-0.861494842228485,-0.507766321070744,0.));
#188=DIRECTION('',(0.,0.,-1.));
#189=DIRECTION('',(-0.861494842228491,0.507766321070734,0.));
#190=DIRECTION('',(0.,0.,1.));
#191=DIRECTION('',(-0.0418867751887627,-0.99912236390959,0.));
#192=DIRECTION('',(0.,0.,-1.));
#193=DIRECTION('',(0.0418867751887628,-0.99912236390959,0.));
#194=DIRECTION('',(0.,0.,1.));
#195=DIRECTION('',(0.861494842228485,0.507766321070744,0.));
#196=DIRECTION('',(0.,0.,1.));
#197=DIRECTION('',(0.8,-0.6,0.));
#198=DIRECTION('',(0.,0.,1.));
#199=DIRECTION('',(1.,0.,0.));
#200=DIRECTION('',(0.,0.,-1.));
#201=DIRECTION('',(-1.,0.,0.));
#202=DIRECTION('',(0.,0.,1.));
#203=DIRECTION('',(1.,0.,0.));
#204=CARTESIAN_POINT('',(0.,0.,0.));
#205=CARTESIAN_POINT('',(-23.6753246019465,-16.4470058065291,0.));
#206=CARTESIAN_POINT('',(-13.8911869337517,8.18748591275532,0.));
#207=CARTESIAN_POINT('',(-15.6979501685862,7.20477382707763,0.));
#208=CARTESIAN_POINT('',(-15.6979501685862,-7.20477382707763,0.));
#209=CARTESIAN_POINT('',(-13.8911869337517,-8.18748591275531,0.));
#210=CARTESIAN_POINT('',(13.8911869337517,-8.18748591275535,0.));
#211=CARTESIAN_POINT('',(15.6979501685862,-7.20477382707764,0.));
#212=CARTESIAN_POINT('',(15.6979501685862,7.20477382707763,0.));
#213=CARTESIAN_POINT('',(13.8911869337517,8.18748591275532,0.));
#214=CARTESIAN_POINT('',(8.,-6.,0.));
#215=CARTESIAN_POINT('',(-18.,0.,0.));
#216=CARTESIAN_POINT('',(18.,0.,0.));
#217=CARTESIAN_POINT('',(-15.6141766182086,9.2030185548968,0.));
#218=CARTESIAN_POINT('',(-13.8911869337517,8.18748591275532,0.));
#219=CARTESIAN_POINT('',(-15.6979501685862,7.20477382707763,0.));
#220=CARTESIAN_POINT('',(-16.,0.,0.));
#221=CARTESIAN_POINT('',(-15.6979501685862,7.20477382707763,0.));
#222=CARTESIAN_POINT('',(-15.6979501685862,-7.20477382707763,0.));
#223=CARTESIAN_POINT('',(-15.6141766182086,-9.20301855489682,0.));
#224=CARTESIAN_POINT('',(-15.6979501685862,-7.20477382707763,0.));
#225=CARTESIAN_POINT('',(-13.8911869337517,-8.18748591275531,0.));
#226=CARTESIAN_POINT('',(-5.1146768505737E-16,2.68547312895344E-15,0.));
#227=CARTESIAN_POINT('',(-13.8911869337517,-8.18748591275531,0.));
#228=CARTESIAN_POINT('',(13.8911869337517,-8.18748591275535,0.));
#229=CARTESIAN_POINT('',(15.6141766182086,-9.20301855489681,0.));
#230=CARTESIAN_POINT('',(13.8911869337517,-8.18748591275535,0.));
#231=CARTESIAN_POINT('',(15.6979501685862,-7.20477382707764,0.));
#232=CARTESIAN_POINT('',(16.,0.,0.));
#233=CARTESIAN_POINT('',(15.6979501685862,-7.20477382707764,0.));
#234=CARTESIAN_POINT('',(15.6979501685862,7.20477382707764,0.));
#235=CARTESIAN_POINT('',(15.6141766182086,9.20301855489681,0.));
#236=CARTESIAN_POINT('',(15.6979501685862,7.20477382707763,0.));
#237=CARTESIAN_POINT('',(13.8911869337517,8.18748591275532,0.));
#238=CARTESIAN_POINT('',(5.11467685057375E-16,6.26610396755803E-15,0.));
#239=CARTESIAN_POINT('',(13.8911869337517,8.18748591275532,0.));
#240=CARTESIAN_POINT('',(-13.8911869337517,8.18748591275532,0.));
#241=CARTESIAN_POINT('',(-2.66915717976242E-16,-4.8672866219197E-16,0.));
#242=CARTESIAN_POINT('',(-19.,0.,0.));
#243=CARTESIAN_POINT('',(19.,0.,0.));
#244=CARTESIAN_POINT('',(0.,0.,0.));
ENDSEC;
END-ISO-10303-21;
