ISO-10303-21;
HEADER;
/* Generated by software containing ST-Developer
 * from STEP Tools, Inc. (www.steptools.com) 
 */
/* OPTION: using custom schema-name function */

FILE_DESCRIPTION(
/* description */ (''),
/* implementation_level */ '2;1');

FILE_NAME(
/* name */ 'CircBracket_Half',
/* time_stamp */ '2026-09-16T11:23:15+01:00',
/* author */ (''),
/* organization */ (''),
/* preprocessor_version */ 'ST-DEVELOPER v19.2',
/* originating_system */ 'Rhino 8.27',
/* authorisation */ '');

FILE_SCHEMA (('CONFIG_CONTROL_DESIGN'));
ENDSEC;

DATA;
#10=SHAPE_REPRESENTATION_RELATIONSHIP('','',#148,#12);
#11=SHELL_BASED_SURFACE_MODEL('shell_1',(#13));
#12=MANIFOLD_SURFACE_SHAPE_REPRESENTATION('shell_rep_0',(#11,#158),#147);
#13=OPEN_SHELL('',(#14));
#14=ADVANCED_FACE('',(#16,#15),#61,.T.);
#15=FACE_BOUND('',#18,.T.);
#16=FACE_OUTER_BOUND('',#17,.T.);
#17=EDGE_LOOP('',(#19,#20,#21,#22,#23,#24,#25,#26));
#18=EDGE_LOOP('',(#27));
#19=ORIENTED_EDGE('',*,*,#35,.T.);
#20=ORIENTED_EDGE('',*,*,#28,.T.);
#21=ORIENTED_EDGE('',*,*,#29,.T.);
#22=ORIENTED_EDGE('',*,*,#30,.T.);
#23=ORIENTED_EDGE('',*,*,#31,.T.);
#24=ORIENTED_EDGE('',*,*,#34,.F.);
#25=ORIENTED_EDGE('',*,*,#36,.F.);
#26=ORIENTED_EDGE('',*,*,#33,.F.);
#27=ORIENTED_EDGE('',*,*,#32,.F.);
#28=EDGE_CURVE('',#52,#53,#39,.T.);
#29=EDGE_CURVE('',#53,#54,#40,.T.);
#30=EDGE_CURVE('',#54,#55,#41,.T.);
#31=EDGE_CURVE('',#55,#60,#42,.T.);
#32=EDGE_CURVE('',#56,#56,#49,.T.);
#33=EDGE_CURVE('',#57,#58,#37,.T.);
#34=EDGE_CURVE('',#59,#60,#38,.T.);
#35=EDGE_CURVE('',#57,#52,#43,.T.);
#36=EDGE_CURVE('',#58,#59,#44,.T.);
#37=B_SPLINE_CURVE_WITH_KNOTS('',1,(#202,#203),.UNSPECIFIED.,.F.,.F.,(2,
2),(85.8754845034029,92.),.UNSPECIFIED.);
#38=B_SPLINE_CURVE_WITH_KNOTS('',1,(#204,#205),.UNSPECIFIED.,.F.,.F.,(2,
2),(112.,118.124515496597),.UNSPECIFIED.);
#39=TRIMMED_CURVE($,#45,(#190),(#191),.T.,.CARTESIAN.);
#40=TRIMMED_CURVE($,#46,(#193),(#194),.T.,.CARTESIAN.);
#41=TRIMMED_CURVE($,#47,(#196),(#197),.T.,.CARTESIAN.);
#42=TRIMMED_CURVE($,#48,(#199),(#200),.T.,.CARTESIAN.);
#43=TRIMMED_CURVE($,#50,(#207),(#208),.T.,.CARTESIAN.);
#44=TRIMMED_CURVE($,#51,(#210),(#211),.T.,.CARTESIAN.);
#45=CIRCLE('',#151,1.99999999999999);
#46=CIRCLE('',#152,7.21110255092798);
#47=CIRCLE('',#153,2.00000000000001);
#48=CIRCLE('',#154,16.1245154965971);
#49=CIRCLE('',#155,1.);
#50=CIRCLE('',#156,16.1245154965971);
#51=CIRCLE('',#157,10.);
#52=VERTEX_POINT('',#180);
#53=VERTEX_POINT('',#181);
#54=VERTEX_POINT('',#182);
#55=VERTEX_POINT('',#183);
#56=VERTEX_POINT('',#184);
#57=VERTEX_POINT('',#185);
#58=VERTEX_POINT('',#186);
#59=VERTEX_POINT('',#187);
#60=VERTEX_POINT('',#188);
#61=PLANE('',#150);
#62=SHAPE_DEFINITION_REPRESENTATION(#63,#148);
#63=PRODUCT_DEFINITION_SHAPE($,$,#65);
#64=PRODUCT_DEFINITION_CONTEXT('3D Mechanical Parts',#137,'design');
#65=PRODUCT_DEFINITION('A','First version',#107,#64);
#66=DATE_TIME_ROLE('classification_date');
#67=DATE_TIME_ROLE('creation_date');
#68=APPLIED_DATE_AND_TIME_ASSIGNMENT(#92,#66,(#71));
#69=APPLIED_DATE_AND_TIME_ASSIGNMENT(#94,#67,(#65));
#70=SECURITY_CLASSIFICATION_LEVEL('unclassified');
#71=SECURITY_CLASSIFICATION('A','Security for version',#70);
#72=APPLIED_SECURITY_CLASSIFICATION_ASSIGNMENT(#71,(#107));
#73=APPROVAL_ROLE('Version approval');
#74=APPROVAL_ROLE('Version Security approval');
#75=APPROVAL_ROLE('Definition approval');
#76=APPROVAL_PERSON_ORGANIZATION(#125,#101,#73);
#77=APPROVAL_PERSON_ORGANIZATION(#126,#102,#74);
#78=APPROVAL_PERSON_ORGANIZATION(#129,#103,#75);
#79=COORDINATED_UNIVERSAL_TIME_OFFSET(5,0,.BEHIND.);
#80=LOCAL_TIME(0,0,0.,#79);
#81=LOCAL_TIME(0,0,0.,#79);
#82=LOCAL_TIME(0,0,0.,#79);
#83=LOCAL_TIME(0,0,0.,#79);
#84=LOCAL_TIME(0,0,0.,#79);
#85=CALENDAR_DATE(1999,1,1);
#86=CALENDAR_DATE(1999,1,1);
#87=CALENDAR_DATE(1999,1,1);
#88=CALENDAR_DATE(1999,1,1);
#89=CALENDAR_DATE(1999,1,1);
#90=DATE_AND_TIME(#85,#80);
#91=DATE_AND_TIME(#86,#81);
#92=DATE_AND_TIME(#87,#82);
#93=DATE_AND_TIME(#88,#83);
#94=DATE_AND_TIME(#89,#84);
#95=APPROVAL_DATE_TIME(#90,#101);
#96=APPROVAL_DATE_TIME(#91,#102);
#97=APPROVAL_DATE_TIME(#93,#103);
#98=APPROVAL_STATUS('not_yet_approved');
#99=APPROVAL_STATUS('not_yet_approved');
#100=APPROVAL_STATUS('approved');
#101=APPROVAL(#98,'Version approval');
#102=APPROVAL(#99,'Version Security approval');
#103=APPROVAL(#100,'Definition approval');
#104=APPLIED_APPROVAL_ASSIGNMENT(#101,(#107));
#105=APPLIED_APPROVAL_ASSIGNMENT(#102,(#71));
#106=APPLIED_APPROVAL_ASSIGNMENT(#103,(#65));
#107=PRODUCT_DEFINITION_FORMATION_WITH_SPECIFIED_SOURCE('A',
'First version',#139,.MADE.);
#108=PERSON_AND_ORGANIZATION_ROLE('design_owner');
#109=PERSON_AND_ORGANIZATION_ROLE('creator');
#110=PERSON_AND_ORGANIZATION_ROLE('design_supplier');
#111=PERSON_AND_ORGANIZATION_ROLE('classification_officer');
#112=PERSON_AND_ORGANIZATION_ROLE('creator');
#113=ORGANIZATION('STI','lab','lab');
#114=ORGANIZATION('STI','unknown','unknown');
#115=ORGANIZATION('STI','unknown','unknown');
#116=ORGANIZATION('STI','unknown','unknown');
#117=ORGANIZATION('STI','unknown','unknown');
#118=ORGANIZATION('STI','unknown','unknown');
#119=ORGANIZATION('STI','unknown','unknown');
#120=PERSON('1','Box','vc60',$,$,$);
#121=PERSON('2','last','first',$,$,$);
#122=PERSON('3','President','Mr.',$,$,$);
#123=PERSON_AND_ORGANIZATION(#120,#113);
#124=PERSON_AND_ORGANIZATION(#121,#114);
#125=PERSON_AND_ORGANIZATION(#122,#115);
#126=PERSON_AND_ORGANIZATION(#122,#116);
#127=PERSON_AND_ORGANIZATION(#122,#117);
#128=PERSON_AND_ORGANIZATION(#121,#118);
#129=PERSON_AND_ORGANIZATION(#122,#119);
#130=APPLIED_PERSON_AND_ORGANIZATION_ASSIGNMENT(#123,#108,(#139));
#131=APPLIED_PERSON_AND_ORGANIZATION_ASSIGNMENT(#124,#109,(#107));
#132=APPLIED_PERSON_AND_ORGANIZATION_ASSIGNMENT(#124,#110,(#107));
#133=APPLIED_PERSON_AND_ORGANIZATION_ASSIGNMENT(#127,#111,(#71));
#134=APPLIED_PERSON_AND_ORGANIZATION_ASSIGNMENT(#128,#112,(#65));
#135=PRODUCT_RELATED_PRODUCT_CATEGORY('detail','detail',(#139));
#136=APPLICATION_PROTOCOL_DEFINITION('International Standard',
'config_control_design',1994,#137);
#137=APPLICATION_CONTEXT(
'configuration controlled 3d designs of mechanical parts and assemblie
s');
#138=PRODUCT_CONTEXT('3D Mechanical Parts',#137,'mechanical');
#139=PRODUCT('Document','Document','',(#138));
#140=(
LENGTH_UNIT()
NAMED_UNIT(*)
SI_UNIT(.MILLI.,.METRE.)
);
#141=(
NAMED_UNIT(*)
PLANE_ANGLE_UNIT()
SI_UNIT($,.RADIAN.)
);
#142=DIMENSIONAL_EXPONENTS(0.,0.,0.,0.,0.,0.,0.);
#143=PLANE_ANGLE_MEASURE_WITH_UNIT(PLANE_ANGLE_MEASURE(0.01745329252),#141);
#144=(
CONVERSION_BASED_UNIT('DEGREES',#143)
NAMED_UNIT(#142)
PLANE_ANGLE_UNIT()
);
#145=(
NAMED_UNIT(*)
SI_UNIT($,.STERADIAN.)
SOLID_ANGLE_UNIT()
);
#146=UNCERTAINTY_MEASURE_WITH_UNIT(LENGTH_MEASURE(0.01),#140,
'DISTANCE_ACCURACY_VALUE',
'Maximum model space distance between geometric entities at asserted c
onnectivities');
#147=(
GEOMETRIC_REPRESENTATION_CONTEXT(3)
GLOBAL_UNCERTAINTY_ASSIGNED_CONTEXT((#146))
GLOBAL_UNIT_ASSIGNED_CONTEXT((#145,#144,#140))
REPRESENTATION_CONTEXT('ID1','3D')
);
#148=SHAPE_REPRESENTATION('Document',(#149,#158),#147);
#149=AXIS2_PLACEMENT_3D($,#178,#159,#160);
#150=AXIS2_PLACEMENT_3D('',#179,#161,$);
#151=AXIS2_PLACEMENT_3D($,#189,#162,#163);
#152=AXIS2_PLACEMENT_3D($,#192,#164,#165);
#153=AXIS2_PLACEMENT_3D($,#195,#166,#167);
#154=AXIS2_PLACEMENT_3D($,#198,#168,#169);
#155=AXIS2_PLACEMENT_3D($,#201,#170,#171);
#156=AXIS2_PLACEMENT_3D($,#206,#172,#173);
#157=AXIS2_PLACEMENT_3D($,#209,#174,#175);
#158=AXIS2_PLACEMENT_3D($,#212,#176,#177);
#159=DIRECTION('',(0.,0.,1.));
#160=DIRECTION('',(1.,0.,0.));
#161=DIRECTION('',(0.,0.,1.));
#162=DIRECTION('',(0.,0.,-1.));
#163=DIRECTION('',(0.861494842228487,-0.50776632107074,0.));
#164=DIRECTION('',(0.,0.,1.));
#165=DIRECTION('',(0.0418867751887613,0.99912236390959,0.));
#166=DIRECTION('',(0.,0.,-1.));
#167=DIRECTION('',(-0.041886775188759,0.99912236390959,0.));
#168=DIRECTION('',(0.,0.,1.));
#169=DIRECTION('',(-0.861494842228485,-0.507766321070743,0.));
#170=DIRECTION('',(0.,0.,1.));
#171=DIRECTION('',(1.,0.,0.));
#172=DIRECTION('',(0.,0.,1.));
#173=DIRECTION('',(4.74882354624398E-16,1.,0.));
#174=DIRECTION('',(0.,0.,1.));
#175=DIRECTION('',(4.51054937821932E-16,1.,0.));
#176=DIRECTION('',(0.,0.,1.));
#177=DIRECTION('',(1.,0.,0.));
#178=CARTESIAN_POINT('',(0.,0.,0.));
#179=CARTESIAN_POINT('',(-23.6753246019465,-16.4470058065291,0.));
#180=CARTESIAN_POINT('',(-13.8911869337517,8.18748591275532,0.));
#181=CARTESIAN_POINT('',(-15.6979501685862,7.20477382707763,0.));
#182=CARTESIAN_POINT('',(-15.6979501685862,-7.20477382707763,0.));
#183=CARTESIAN_POINT('',(-13.8911869337517,-8.18748591275531,0.));
#184=CARTESIAN_POINT('',(-18.,0.,0.));
#185=CARTESIAN_POINT('',(4.44089209850063E-15,16.1245154965971,0.));
#186=CARTESIAN_POINT('',(3.88251239474581E-15,10.,0.));
#187=CARTESIAN_POINT('',(5.95318567194358E-15,-10.,0.));
#188=CARTESIAN_POINT('',(-2.93098878501041E-14,-16.1245154965971,0.));
#189=CARTESIAN_POINT('',(-15.6141766182086,9.2030185548968,0.));
#190=CARTESIAN_POINT('',(-13.8911869337517,8.18748591275532,0.));
#191=CARTESIAN_POINT('',(-15.6979501685862,7.20477382707763,0.));
#192=CARTESIAN_POINT('',(-16.,0.,0.));
#193=CARTESIAN_POINT('',(-15.6979501685862,7.20477382707763,0.));
#194=CARTESIAN_POINT('',(-15.6979501685862,-7.20477382707763,0.));
#195=CARTESIAN_POINT('',(-15.6141766182086,-9.20301855489682,0.));
#196=CARTESIAN_POINT('',(-15.6979501685862,-7.20477382707763,0.));
#197=CARTESIAN_POINT('',(-13.8911869337517,-8.18748591275531,0.));
#198=CARTESIAN_POINT('',(-4.37743366343494E-15,-2.34063321434899E-14,0.));
#199=CARTESIAN_POINT('',(-13.8911869337517,-8.18748591275531,0.));
#200=CARTESIAN_POINT('',(-2.93098878501041E-14,-16.1245154965971,0.));
#201=CARTESIAN_POINT('',(-19.,0.,0.));
#202=CARTESIAN_POINT('',(4.44089209850063E-15,16.1245154965971,0.));
#203=CARTESIAN_POINT('',(3.88251239474581E-15,10.,0.));
#204=CARTESIAN_POINT('',(5.95318567194358E-15,-10.,0.));
#205=CARTESIAN_POINT('',(-2.93098878501041E-14,-16.1245154965971,0.));
#206=CARTESIAN_POINT('',(-3.216355787701E-15,1.21124436500612E-14,0.));
#207=CARTESIAN_POINT('',(4.44089209850063E-15,16.1245154965971,0.));
#208=CARTESIAN_POINT('',(-13.8911869337517,8.18748591275533,0.));
#209=CARTESIAN_POINT('',(-6.2803698347351E-16,6.2803698347351E-16,0.));
#210=CARTESIAN_POINT('',(3.88251239474581E-15,10.,0.));
#211=CARTESIAN_POINT('',(2.51855103616107E-15,-10.,0.));
#212=CARTESIAN_POINT('',(0.,0.,0.));
ENDSEC;
END-ISO-10303-21;
