ISO-10303-21;
HEADER;
/* Generated by software containing ST-Developer
 * from STEP Tools, Inc. (www.steptools.com) 
 */
/* OPTION: using custom schema-name function */

FILE_DESCRIPTION(
/* description */ (''),
/* implementation_level */ '2;1');

FILE_NAME(
/* name */ 'FreeForM_Bracket',
/* time_stamp */ '2026-09-16T11:26:59+01:00',
/* author */ (''),
/* organization */ (''),
/* preprocessor_version */ 'ST-DEVELOPER v19.2',
/* originating_system */ 'Rhino 8.27',
/* authorisation */ '');

FILE_SCHEMA (('CONFIG_CONTROL_DESIGN'));
ENDSEC;

DATA;
#10=SHAPE_REPRESENTATION_RELATIONSHIP('','',#190,#12);
#11=SHELL_BASED_SURFACE_MODEL('shell_1',(#13));
#12=MANIFOLD_SURFACE_SHAPE_REPRESENTATION('shell_rep_0',(#11,#206),#189);
#13=OPEN_SHELL('',(#14));
#14=ADVANCED_FACE('',(#21,#15,#16,#17,#18,#19,#20),#103,.T.);
#15=FACE_BOUND('',#23,.T.);
#16=FACE_BOUND('',#24,.T.);
#17=FACE_BOUND('',#25,.T.);
#18=FACE_BOUND('',#26,.T.);
#19=FACE_BOUND('',#27,.T.);
#20=FACE_BOUND('',#28,.T.);
#21=FACE_OUTER_BOUND('',#22,.T.);
#22=EDGE_LOOP('',(#29,#30,#31,#32,#33,#34,#35,#36,#37,#38));
#23=EDGE_LOOP('',(#39));
#24=EDGE_LOOP('',(#40));
#25=EDGE_LOOP('',(#41));
#26=EDGE_LOOP('',(#42));
#27=EDGE_LOOP('',(#43));
#28=EDGE_LOOP('',(#44));
#29=ORIENTED_EDGE('',*,*,#45,.T.);
#30=ORIENTED_EDGE('',*,*,#46,.T.);
#31=ORIENTED_EDGE('',*,*,#47,.T.);
#32=ORIENTED_EDGE('',*,*,#48,.T.);
#33=ORIENTED_EDGE('',*,*,#49,.T.);
#34=ORIENTED_EDGE('',*,*,#50,.T.);
#35=ORIENTED_EDGE('',*,*,#51,.T.);
#36=ORIENTED_EDGE('',*,*,#52,.T.);
#37=ORIENTED_EDGE('',*,*,#53,.T.);
#38=ORIENTED_EDGE('',*,*,#54,.T.);
#39=ORIENTED_EDGE('',*,*,#55,.F.);
#40=ORIENTED_EDGE('',*,*,#56,.T.);
#41=ORIENTED_EDGE('',*,*,#57,.T.);
#42=ORIENTED_EDGE('',*,*,#58,.T.);
#43=ORIENTED_EDGE('',*,*,#59,.F.);
#44=ORIENTED_EDGE('',*,*,#60,.F.);
#45=EDGE_CURVE('',#87,#88,#64,.T.);
#46=EDGE_CURVE('',#88,#89,#65,.T.);
#47=EDGE_CURVE('',#89,#90,#66,.T.);
#48=EDGE_CURVE('',#90,#91,#67,.T.);
#49=EDGE_CURVE('',#91,#92,#68,.T.);
#50=EDGE_CURVE('',#92,#93,#69,.T.);
#51=EDGE_CURVE('',#93,#94,#70,.T.);
#52=EDGE_CURVE('',#94,#95,#71,.T.);
#53=EDGE_CURVE('',#95,#96,#72,.T.);
#54=EDGE_CURVE('',#96,#87,#73,.T.);
#55=EDGE_CURVE('',#97,#97,#84,.T.);
#56=EDGE_CURVE('',#98,#98,#85,.T.);
#57=EDGE_CURVE('',#99,#99,#61,.T.);
#58=EDGE_CURVE('',#100,#100,#62,.T.);
#59=EDGE_CURVE('',#101,#101,#63,.T.);
#60=EDGE_CURVE('',#102,#102,#86,.T.);
#61=(
BOUNDED_CURVE()
B_SPLINE_CURVE(2,(#288,#289,#290,#291,#292,#293,#294,#295,#296),
 .UNSPECIFIED.,.T.,.F.)
B_SPLINE_CURVE_WITH_KNOTS((3,2,2,2,3),(0.,1.5707963267949,3.14159265358979,
4.71238898038469,6.28318530717959),.UNSPECIFIED.)
CURVE()
GEOMETRIC_REPRESENTATION_ITEM()
RATIONAL_B_SPLINE_CURVE((1.,0.707106781186547,1.,0.707106781186547,1.,0.707106781186547,
1.,0.707106781186547,1.))
REPRESENTATION_ITEM('')
);
#62=(
BOUNDED_CURVE()
B_SPLINE_CURVE(2,(#297,#298,#299,#300,#301,#302,#303,#304,#305),
 .UNSPECIFIED.,.T.,.F.)
B_SPLINE_CURVE_WITH_KNOTS((3,2,2,2,3),(0.,1.5707963267949,3.14159265358979,
4.71238898038469,6.28318530717959),.UNSPECIFIED.)
CURVE()
GEOMETRIC_REPRESENTATION_ITEM()
RATIONAL_B_SPLINE_CURVE((1.,0.707106781186547,1.,0.707106781186547,1.,0.707106781186547,
1.,0.707106781186547,1.))
REPRESENTATION_ITEM('')
);
#63=(
BOUNDED_CURVE()
B_SPLINE_CURVE(2,(#306,#307,#308,#309,#310,#311,#312,#313,#314),
 .UNSPECIFIED.,.T.,.F.)
B_SPLINE_CURVE_WITH_KNOTS((3,2,2,2,3),(0.,1.5707963267949,3.14159265358979,
4.71238898038469,6.28318530717959),.UNSPECIFIED.)
CURVE()
GEOMETRIC_REPRESENTATION_ITEM()
RATIONAL_B_SPLINE_CURVE((1.,0.707106781186547,1.,0.707106781186547,1.,0.707106781186547,
1.,0.707106781186547,1.))
REPRESENTATION_ITEM('')
);
#64=TRIMMED_CURVE($,#74,(#257),(#258),.T.,.CARTESIAN.);
#65=TRIMMED_CURVE($,#75,(#260),(#261),.T.,.CARTESIAN.);
#66=TRIMMED_CURVE($,#76,(#263),(#264),.T.,.CARTESIAN.);
#67=TRIMMED_CURVE($,#77,(#266),(#267),.T.,.CARTESIAN.);
#68=TRIMMED_CURVE($,#78,(#269),(#270),.T.,.CARTESIAN.);
#69=TRIMMED_CURVE($,#79,(#272),(#273),.T.,.CARTESIAN.);
#70=TRIMMED_CURVE($,#80,(#275),(#276),.T.,.CARTESIAN.);
#71=TRIMMED_CURVE($,#81,(#278),(#279),.T.,.CARTESIAN.);
#72=TRIMMED_CURVE($,#82,(#281),(#282),.T.,.CARTESIAN.);
#73=TRIMMED_CURVE($,#83,(#284),(#285),.T.,.CARTESIAN.);
#74=CIRCLE('',#193,0.707106781186547);
#75=CIRCLE('',#194,1.11803398874989);
#76=CIRCLE('',#195,0.999999999999999);
#77=CIRCLE('',#196,3.25);
#78=CIRCLE('',#197,1.);
#79=CIRCLE('',#198,1.1180339887499);
#80=CIRCLE('',#199,0.707106781186547);
#81=CIRCLE('',#200,1.);
#82=CIRCLE('',#201,5.59016994374947);
#83=CIRCLE('',#202,1.);
#84=CIRCLE('',#203,0.314590120015987);
#85=CIRCLE('',#204,0.314590120015987);
#86=CIRCLE('',#205,1.);
#87=VERTEX_POINT('',#240);
#88=VERTEX_POINT('',#241);
#89=VERTEX_POINT('',#242);
#90=VERTEX_POINT('',#243);
#91=VERTEX_POINT('',#244);
#92=VERTEX_POINT('',#245);
#93=VERTEX_POINT('',#246);
#94=VERTEX_POINT('',#247);
#95=VERTEX_POINT('',#248);
#96=VERTEX_POINT('',#249);
#97=VERTEX_POINT('',#250);
#98=VERTEX_POINT('',#251);
#99=VERTEX_POINT('',#252);
#100=VERTEX_POINT('',#253);
#101=VERTEX_POINT('',#254);
#102=VERTEX_POINT('',#255);
#103=PLANE('',#192);
#104=SHAPE_DEFINITION_REPRESENTATION(#105,#190);
#105=PRODUCT_DEFINITION_SHAPE($,$,#107);
#106=PRODUCT_DEFINITION_CONTEXT('3D Mechanical Parts',#179,'design');
#107=PRODUCT_DEFINITION('A','First version',#149,#106);
#108=DATE_TIME_ROLE('classification_date');
#109=DATE_TIME_ROLE('creation_date');
#110=APPLIED_DATE_AND_TIME_ASSIGNMENT(#134,#108,(#113));
#111=APPLIED_DATE_AND_TIME_ASSIGNMENT(#136,#109,(#107));
#112=SECURITY_CLASSIFICATION_LEVEL('unclassified');
#113=SECURITY_CLASSIFICATION('A','Security for version',#112);
#114=APPLIED_SECURITY_CLASSIFICATION_ASSIGNMENT(#113,(#149));
#115=APPROVAL_ROLE('Version approval');
#116=APPROVAL_ROLE('Version Security approval');
#117=APPROVAL_ROLE('Definition approval');
#118=APPROVAL_PERSON_ORGANIZATION(#167,#143,#115);
#119=APPROVAL_PERSON_ORGANIZATION(#168,#144,#116);
#120=APPROVAL_PERSON_ORGANIZATION(#171,#145,#117);
#121=COORDINATED_UNIVERSAL_TIME_OFFSET(5,0,.BEHIND.);
#122=LOCAL_TIME(0,0,0.,#121);
#123=LOCAL_TIME(0,0,0.,#121);
#124=LOCAL_TIME(0,0,0.,#121);
#125=LOCAL_TIME(0,0,0.,#121);
#126=LOCAL_TIME(0,0,0.,#121);
#127=CALENDAR_DATE(1999,1,1);
#128=CALENDAR_DATE(1999,1,1);
#129=CALENDAR_DATE(1999,1,1);
#130=CALENDAR_DATE(1999,1,1);
#131=CALENDAR_DATE(1999,1,1);
#132=DATE_AND_TIME(#127,#122);
#133=DATE_AND_TIME(#128,#123);
#134=DATE_AND_TIME(#129,#124);
#135=DATE_AND_TIME(#130,#125);
#136=DATE_AND_TIME(#131,#126);
#137=APPROVAL_DATE_TIME(#132,#143);
#138=APPROVAL_DATE_TIME(#133,#144);
#139=APPROVAL_DATE_TIME(#135,#145);
#140=APPROVAL_STATUS('not_yet_approved');
#141=APPROVAL_STATUS('not_yet_approved');
#142=APPROVAL_STATUS('approved');
#143=APPROVAL(#140,'Version approval');
#144=APPROVAL(#141,'Version Security approval');
#145=APPROVAL(#142,'Definition approval');
#146=APPLIED_APPROVAL_ASSIGNMENT(#143,(#149));
#147=APPLIED_APPROVAL_ASSIGNMENT(#144,(#113));
#148=APPLIED_APPROVAL_ASSIGNMENT(#145,(#107));
#149=PRODUCT_DEFINITION_FORMATION_WITH_SPECIFIED_SOURCE('A',
'First version',#181,.MADE.);
#150=PERSON_AND_ORGANIZATION_ROLE('design_owner');
#151=PERSON_AND_ORGANIZATION_ROLE('creator');
#152=PERSON_AND_ORGANIZATION_ROLE('design_supplier');
#153=PERSON_AND_ORGANIZATION_ROLE('classification_officer');
#154=PERSON_AND_ORGANIZATION_ROLE('creator');
#155=ORGANIZATION('STI','lab','lab');
#156=ORGANIZATION('STI','unknown','unknown');
#157=ORGANIZATION('STI','unknown','unknown');
#158=ORGANIZATION('STI','unknown','unknown');
#159=ORGANIZATION('STI','unknown','unknown');
#160=ORGANIZATION('STI','unknown','unknown');
#161=ORGANIZATION('STI','unknown','unknown');
#162=PERSON('1','Box','vc60',$,$,$);
#163=PERSON('2','last','first',$,$,$);
#164=PERSON('3','President','Mr.',$,$,$);
#165=PERSON_AND_ORGANIZATION(#162,#155);
#166=PERSON_AND_ORGANIZATION(#163,#156);
#167=PERSON_AND_ORGANIZATION(#164,#157);
#168=PERSON_AND_ORGANIZATION(#164,#158);
#169=PERSON_AND_ORGANIZATION(#164,#159);
#170=PERSON_AND_ORGANIZATION(#163,#160);
#171=PERSON_AND_ORGANIZATION(#164,#161);
#172=APPLIED_PERSON_AND_ORGANIZATION_ASSIGNMENT(#165,#150,(#181));
#173=APPLIED_PERSON_AND_ORGANIZATION_ASSIGNMENT(#166,#151,(#149));
#174=APPLIED_PERSON_AND_ORGANIZATION_ASSIGNMENT(#166,#152,(#149));
#175=APPLIED_PERSON_AND_ORGANIZATION_ASSIGNMENT(#169,#153,(#113));
#176=APPLIED_PERSON_AND_ORGANIZATION_ASSIGNMENT(#170,#154,(#107));
#177=PRODUCT_RELATED_PRODUCT_CATEGORY('detail','detail',(#181));
#178=APPLICATION_PROTOCOL_DEFINITION('International Standard',
'config_control_design',1994,#179);
#179=APPLICATION_CONTEXT(
'configuration controlled 3d designs of mechanical parts and assemblie
s');
#180=PRODUCT_CONTEXT('3D Mechanical Parts',#179,'mechanical');
#181=PRODUCT('Document','Document','',(#180));
#182=(
LENGTH_UNIT()
NAMED_UNIT(*)
SI_UNIT(.MILLI.,.METRE.)
);
#183=(
NAMED_UNIT(*)
PLANE_ANGLE_UNIT()
SI_UNIT($,.RADIAN.)
);
#184=DIMENSIONAL_EXPONENTS(0.,0.,0.,0.,0.,0.,0.);
#185=PLANE_ANGLE_MEASURE_WITH_UNIT(PLANE_ANGLE_MEASURE(0.01745329252),#183);
#186=(
CONVERSION_BASED_UNIT('DEGREES',#185)
NAMED_UNIT(#184)
PLANE_ANGLE_UNIT()
);
#187=(
NAMED_UNIT(*)
SI_UNIT($,.STERADIAN.)
SOLID_ANGLE_UNIT()
);
#188=UNCERTAINTY_MEASURE_WITH_UNIT(LENGTH_MEASURE(0.01),#182,
'DISTANCE_ACCURACY_VALUE',
'Maximum model space distance between geometric entities at asserted c
onnectivities');
#189=(
GEOMETRIC_REPRESENTATION_CONTEXT(3)
GLOBAL_UNCERTAINTY_ASSIGNED_CONTEXT((#188))
GLOBAL_UNIT_ASSIGNED_CONTEXT((#187,#186,#182))
REPRESENTATION_CONTEXT('ID1','3D')
);
#190=SHAPE_REPRESENTATION('Document',(#191,#206),#189);
#191=AXIS2_PLACEMENT_3D($,#238,#207,#208);
#192=AXIS2_PLACEMENT_3D('',#239,#209,$);
#193=AXIS2_PLACEMENT_3D($,#256,#210,#211);
#194=AXIS2_PLACEMENT_3D($,#259,#212,#213);
#195=AXIS2_PLACEMENT_3D($,#262,#214,#215);
#196=AXIS2_PLACEMENT_3D($,#265,#216,#217);
#197=AXIS2_PLACEMENT_3D($,#268,#218,#219);
#198=AXIS2_PLACEMENT_3D($,#271,#220,#221);
#199=AXIS2_PLACEMENT_3D($,#274,#222,#223);
#200=AXIS2_PLACEMENT_3D($,#277,#224,#225);
#201=AXIS2_PLACEMENT_3D($,#280,#226,#227);
#202=AXIS2_PLACEMENT_3D($,#283,#228,#229);
#203=AXIS2_PLACEMENT_3D($,#286,#230,#231);
#204=AXIS2_PLACEMENT_3D($,#287,#232,#233);
#205=AXIS2_PLACEMENT_3D($,#315,#234,#235);
#206=AXIS2_PLACEMENT_3D($,#316,#236,#237);
#207=DIRECTION('',(0.,0.,1.));
#208=DIRECTION('',(1.,0.,0.));
#209=DIRECTION('',(0.,0.,1.));
#210=DIRECTION('',(0.,0.,-1.));
#211=DIRECTION('',(0.0565142426817577,0.998401793054333,0.));
#212=DIRECTION('',(0.,0.,1.));
#213=DIRECTION('',(-0.447213595499957,0.894427190999917,0.));
#214=DIRECTION('',(0.,0.,1.));
#215=DIRECTION('',(-0.988419200437916,-0.151748094570146,0.));
#216=DIRECTION('',(0.,0.,-1.));
#217=DIRECTION('',(-0.85098048489051,0.525197309908869,0.));
#218=DIRECTION('',(0.,0.,1.));
#219=DIRECTION('',(-0.850980484890508,-0.525197309908872,0.));
#220=DIRECTION('',(0.,0.,1.));
#221=DIRECTION('',(0.988419200437919,-0.15174809457013,0.));
#222=DIRECTION('',(0.,0.,-1.));
#223=DIRECTION('',(-0.707106781186548,-0.707106781186547,0.));
#224=DIRECTION('',(0.,0.,1.));
#225=DIRECTION('',(0.0565142426817616,-0.998401793054333,0.));
#226=DIRECTION('',(0.,0.,1.));
#227=DIRECTION('',(0.959337934553102,-0.282260034945419,0.));
#228=DIRECTION('',(0.,0.,1.));
#229=DIRECTION('',(-0.959337934553101,-0.28226003494542,0.));
#230=DIRECTION('',(0.,0.,1.));
#231=DIRECTION('',(0.529998940003182,0.847998304005087,0.));
#232=DIRECTION('',(0.,0.,-1.));
#233=DIRECTION('',(-0.529998940003182,0.847998304005087,0.));
#234=DIRECTION('',(0.,0.,1.));
#235=DIRECTION('',(1.,-2.22044604925031E-16,0.));
#236=DIRECTION('',(0.,0.,1.));
#237=DIRECTION('',(1.,0.,0.));
#238=CARTESIAN_POINT('',(0.,0.,0.));
#239=CARTESIAN_POINT('',(-6.27602372950273,-4.24897578137086,0.));
#240=CARTESIAN_POINT('',(-4.46003839576611,-0.794023321782473,0.));
#241=CARTESIAN_POINT('',(-4.,-2.,0.));
#242=CARTESIAN_POINT('',(-4.60508626122259,-3.16965952745746,0.));
#243=CARTESIAN_POINT('',(-2.76568657589416,-3.54310874279618,0.));
#244=CARTESIAN_POINT('',(2.76568657589416,-3.54310874279618,0.));
#245=CARTESIAN_POINT('',(4.60508626122259,-3.16965952745744,0.));
#246=CARTESIAN_POINT('',(4.,-2.,0.));
#247=CARTESIAN_POINT('',(4.46003839576611,-0.794023321782473,0.));
#248=CARTESIAN_POINT('',(5.36286208763745,-0.077881563673559,0.));
#249=CARTESIAN_POINT('',(-5.36286208763745,-0.0778815636735584,0.));
#250=CARTESIAN_POINT('',(-3.50789330940895,-2.80602570671065,0.));
#251=CARTESIAN_POINT('',(3.50789330940895,-2.80602570671065,0.));
#252=CARTESIAN_POINT('',(0.,6.,0.));
#253=CARTESIAN_POINT('',(-3.68527627613801,4.73484305637836,0.));
#254=CARTESIAN_POINT('',(3.68527627613801,4.73484305637836,0.));
#255=CARTESIAN_POINT('',(1.,1.,0.));
#256=CARTESIAN_POINT('',(-4.5,-1.5,0.));
#257=CARTESIAN_POINT('',(-4.46003839576611,-0.794023321782473,0.));
#258=CARTESIAN_POINT('',(-4.,-2.,0.));
#259=CARTESIAN_POINT('',(-3.5,-3.,0.));
#260=CARTESIAN_POINT('',(-4.,-2.,0.));
#261=CARTESIAN_POINT('',(-4.60508626122259,-3.16965952745746,0.));
#262=CARTESIAN_POINT('',(-3.61666706078467,-3.01791143288731,0.));
#263=CARTESIAN_POINT('',(-4.60508626122259,-3.16965952745746,0.));
#264=CARTESIAN_POINT('',(-2.76568657589416,-3.54310874279618,0.));
#265=CARTESIAN_POINT('',(1.33226762955019E-15,-5.25,0.));
#266=CARTESIAN_POINT('',(-2.76568657589416,-3.54310874279618,0.));
#267=CARTESIAN_POINT('',(2.76568657589416,-3.54310874279618,0.));
#268=CARTESIAN_POINT('',(3.61666706078467,-3.01791143288731,0.));
#269=CARTESIAN_POINT('',(2.76568657589416,-3.54310874279618,0.));
#270=CARTESIAN_POINT('',(4.60508626122259,-3.16965952745744,0.));
#271=CARTESIAN_POINT('',(3.5,-3.,0.));
#272=CARTESIAN_POINT('',(4.60508626122259,-3.16965952745744,0.));
#273=CARTESIAN_POINT('',(4.,-2.,0.));
#274=CARTESIAN_POINT('',(4.5,-1.5,0.));
#275=CARTESIAN_POINT('',(4.,-2.,0.));
#276=CARTESIAN_POINT('',(4.46003839576611,-0.794023321782474,0.));
#277=CARTESIAN_POINT('',(4.40352415308434,0.204378471271863,0.));
#278=CARTESIAN_POINT('',(4.46003839576611,-0.794023321782473,0.));
#279=CARTESIAN_POINT('',(5.36286208763745,-0.07788156367356,0.));
#280=CARTESIAN_POINT('',(3.70656532596969E-16,1.5,0.));
#281=CARTESIAN_POINT('',(5.36286208763745,-0.077881563673559,0.));
#282=CARTESIAN_POINT('',(-5.36286208763745,-0.0778815636735586,0.));
#283=CARTESIAN_POINT('',(-4.40352415308434,0.204378471271863,0.));
#284=CARTESIAN_POINT('',(-5.36286208763745,-0.0778815636735583,0.));
#285=CARTESIAN_POINT('',(-4.46003839576611,-0.794023321782474,0.));
#286=CARTESIAN_POINT('',(-3.6746257395529,-3.07279759494096,0.));
#287=CARTESIAN_POINT('',(3.6746257395529,-3.07279759494096,0.));
#288=CARTESIAN_POINT('',(0.,6.,0.));
#289=CARTESIAN_POINT('',(0.457419748381586,6.,0.));
#290=CARTESIAN_POINT('',(0.457419748381586,5.,0.));
#291=CARTESIAN_POINT('',(0.457419748381586,4.,0.));
#292=CARTESIAN_POINT('',(0.,4.,0.));
#293=CARTESIAN_POINT('',(-0.457419748381586,4.,0.));
#294=CARTESIAN_POINT('',(-0.457419748381586,5.,0.));
#295=CARTESIAN_POINT('',(-0.457419748381586,6.,0.));
#296=CARTESIAN_POINT('',(0.,6.,0.));
#297=CARTESIAN_POINT('',(-3.68527627613801,4.73484305637836,0.));
#298=CARTESIAN_POINT('',(-3.32430782289219,5.01579608086964,0.));
#299=CARTESIAN_POINT('',(-2.71009511020252,4.22665557147325,0.));
#300=CARTESIAN_POINT('',(-2.09588239751286,3.43751506207685,0.));
#301=CARTESIAN_POINT('',(-2.45685085075867,3.15656203758557,0.));
#302=CARTESIAN_POINT('',(-2.81781930400449,2.87560901309429,0.));
#303=CARTESIAN_POINT('',(-3.43203201669415,3.66474952249069,0.));
#304=CARTESIAN_POINT('',(-4.04624472938382,4.45389003188708,0.));
#305=CARTESIAN_POINT('',(-3.68527627613801,4.73484305637836,0.));
#306=CARTESIAN_POINT('',(3.68527627613801,4.73484305637836,0.));
#307=CARTESIAN_POINT('',(3.32430782289219,5.01579608086964,0.));
#308=CARTESIAN_POINT('',(2.71009511020252,4.22665557147325,0.));
#309=CARTESIAN_POINT('',(2.09588239751286,3.43751506207685,0.));
#310=CARTESIAN_POINT('',(2.45685085075867,3.15656203758557,0.));
#311=CARTESIAN_POINT('',(2.81781930400449,2.87560901309429,0.));
#312=CARTESIAN_POINT('',(3.43203201669415,3.66474952249069,0.));
#313=CARTESIAN_POINT('',(4.04624472938382,4.45389003188708,0.));
#314=CARTESIAN_POINT('',(3.68527627613801,4.73484305637836,0.));
#315=CARTESIAN_POINT('',(-7.85046229341888E-17,1.,0.));
#316=CARTESIAN_POINT('',(0.,0.,0.));
ENDSEC;
END-ISO-10303-21;
