ISO-10303-21;
HEADER;
/* Generated by software containing ST-Developer
 * from STEP Tools, Inc. (www.steptools.com) 
 */
/* OPTION: using custom schema-name function */

FILE_DESCRIPTION(
/* description */ (''),
/* implementation_level */ '2;1');

FILE_NAME(
/* name */ 'FreeForm_bend',
/* time_stamp */ '2026-09-16T11:24:20+01:00',
/* author */ (''),
/* organization */ (''),
/* preprocessor_version */ 'ST-DEVELOPER v19.2',
/* originating_system */ 'Rhino 8.27',
/* authorisation */ '');

FILE_SCHEMA (('CONFIG_CONTROL_DESIGN'));
ENDSEC;

DATA;
#10=SHAPE_REPRESENTATION_RELATIONSHIP('','',#120,#12);
#11=SHELL_BASED_SURFACE_MODEL('shell_1',(#13));
#12=MANIFOLD_SURFACE_SHAPE_REPRESENTATION('shell_rep_0',(#11,#122),#119);
#13=OPEN_SHELL('',(#14));
#14=ADVANCED_FACE('',(#15),#33,.T.);
#15=FACE_OUTER_BOUND('',#16,.T.);
#16=EDGE_LOOP('',(#17,#18,#19,#20));
#17=ORIENTED_EDGE('',*,*,#21,.T.);
#18=ORIENTED_EDGE('',*,*,#22,.T.);
#19=ORIENTED_EDGE('',*,*,#23,.T.);
#20=ORIENTED_EDGE('',*,*,#24,.T.);
#21=EDGE_CURVE('',#29,#30,#25,.T.);
#22=EDGE_CURVE('',#30,#31,#26,.T.);
#23=EDGE_CURVE('',#31,#32,#27,.T.);
#24=EDGE_CURVE('',#32,#29,#28,.T.);
#25=B_SPLINE_CURVE_WITH_KNOTS('',3,(#267,#268,#269,#270,#271,#272,#273,
#274,#275,#276,#277,#278,#279,#280,#281),.UNSPECIFIED.,.F.,.F.,(4,1,1,1,
1,1,1,1,1,1,1,1,4),(0.,1.72605280913708,2.5576578915471,3.35743621854429,
4.12424298644281,4.86376258518261,5.58780814836618,6.31185371154974,7.05137331028954,
7.81818007818806,8.61795840518525,9.44956348759528,11.1756162967324),
 .UNSPECIFIED.);
#26=B_SPLINE_CURVE_WITH_KNOTS('',3,(#282,#283,#284,#285,#286,#287,#288,
#289,#290),.UNSPECIFIED.,.F.,.F.,(4,1,1,1,1,1,4),(0.,1.09946040442807,1.64109699109911,
2.18013117694274,2.71923090817626,3.26093490509038,4.35941612211336),
 .UNSPECIFIED.);
#27=B_SPLINE_CURVE_WITH_KNOTS('',3,(#291,#292,#293,#294,#295,#296,#297,
#298,#299,#300,#301,#302,#303,#304,#305),.UNSPECIFIED.,.F.,.F.,(4,1,1,1,
1,1,1,1,1,1,1,1,4),(-11.1756162967324,-9.44956348759528,-8.61795840518525,
-7.81818007818806,-7.05137331028954,-6.31185371154974,-5.58780814836618,
-4.86376258518261,-4.12424298644281,-3.35743621854429,-2.5576578915471,
-1.72605280913708,0.),.UNSPECIFIED.);
#28=B_SPLINE_CURVE_WITH_KNOTS('',3,(#306,#307,#308,#309,#310,#311,#312,
#313,#314),.UNSPECIFIED.,.F.,.F.,(4,1,1,1,1,1,4),(-4.35941612211336,-3.26093490509038,
-2.71923090817626,-2.18013117694274,-1.64109699109911,-1.09946040442807,
0.),.UNSPECIFIED.);
#29=VERTEX_POINT('',#263);
#30=VERTEX_POINT('',#264);
#31=VERTEX_POINT('',#265);
#32=VERTEX_POINT('',#266);
#33=B_SPLINE_SURFACE_WITH_KNOTS('',3,3,((#128,#129,#130,#131,#132,#133,
#134,#135,#136),(#137,#138,#139,#140,#141,#142,#143,#144,#145),(#146,#147,
#148,#149,#150,#151,#152,#153,#154),(#155,#156,#157,#158,#159,#160,#161,
#162,#163),(#164,#165,#166,#167,#168,#169,#170,#171,#172),(#173,#174,#175,
#176,#177,#178,#179,#180,#181),(#182,#183,#184,#185,#186,#187,#188,#189,
#190),(#191,#192,#193,#194,#195,#196,#197,#198,#199),(#200,#201,#202,#203,
#204,#205,#206,#207,#208),(#209,#210,#211,#212,#213,#214,#215,#216,#217),
(#218,#219,#220,#221,#222,#223,#224,#225,#226),(#227,#228,#229,#230,#231,
#232,#233,#234,#235),(#236,#237,#238,#239,#240,#241,#242,#243,#244),(#245,
#246,#247,#248,#249,#250,#251,#252,#253),(#254,#255,#256,#257,#258,#259,
#260,#261,#262)),.UNSPECIFIED.,.F.,.F.,.F.,(4,1,1,1,1,1,1,1,1,1,1,1,4),
(4,1,1,1,1,1,4),(0.,1.72605280913708,2.5576578915471,3.35743621854429,4.12424298644281,
4.86376258518261,5.58780814836618,6.31185371154974,7.05137331028954,7.81818007818806,
8.61795840518525,9.44956348759528,11.1756162967324),(0.,1.09946040442807,
1.64109699109911,2.18013117694274,2.71923090817626,3.26093490509038,4.35941612211336),
 .UNSPECIFIED.);
#34=SHAPE_DEFINITION_REPRESENTATION(#35,#120);
#35=PRODUCT_DEFINITION_SHAPE($,$,#37);
#36=PRODUCT_DEFINITION_CONTEXT('3D Mechanical Parts',#109,'design');
#37=PRODUCT_DEFINITION('A','First version',#79,#36);
#38=DATE_TIME_ROLE('classification_date');
#39=DATE_TIME_ROLE('creation_date');
#40=APPLIED_DATE_AND_TIME_ASSIGNMENT(#64,#38,(#43));
#41=APPLIED_DATE_AND_TIME_ASSIGNMENT(#66,#39,(#37));
#42=SECURITY_CLASSIFICATION_LEVEL('unclassified');
#43=SECURITY_CLASSIFICATION('A','Security for version',#42);
#44=APPLIED_SECURITY_CLASSIFICATION_ASSIGNMENT(#43,(#79));
#45=APPROVAL_ROLE('Version approval');
#46=APPROVAL_ROLE('Version Security approval');
#47=APPROVAL_ROLE('Definition approval');
#48=APPROVAL_PERSON_ORGANIZATION(#97,#73,#45);
#49=APPROVAL_PERSON_ORGANIZATION(#98,#74,#46);
#50=APPROVAL_PERSON_ORGANIZATION(#101,#75,#47);
#51=COORDINATED_UNIVERSAL_TIME_OFFSET(5,0,.BEHIND.);
#52=LOCAL_TIME(0,0,0.,#51);
#53=LOCAL_TIME(0,0,0.,#51);
#54=LOCAL_TIME(0,0,0.,#51);
#55=LOCAL_TIME(0,0,0.,#51);
#56=LOCAL_TIME(0,0,0.,#51);
#57=CALENDAR_DATE(1999,1,1);
#58=CALENDAR_DATE(1999,1,1);
#59=CALENDAR_DATE(1999,1,1);
#60=CALENDAR_DATE(1999,1,1);
#61=CALENDAR_DATE(1999,1,1);
#62=DATE_AND_TIME(#57,#52);
#63=DATE_AND_TIME(#58,#53);
#64=DATE_AND_TIME(#59,#54);
#65=DATE_AND_TIME(#60,#55);
#66=DATE_AND_TIME(#61,#56);
#67=APPROVAL_DATE_TIME(#62,#73);
#68=APPROVAL_DATE_TIME(#63,#74);
#69=APPROVAL_DATE_TIME(#65,#75);
#70=APPROVAL_STATUS('not_yet_approved');
#71=APPROVAL_STATUS('not_yet_approved');
#72=APPROVAL_STATUS('approved');
#73=APPROVAL(#70,'Version approval');
#74=APPROVAL(#71,'Version Security approval');
#75=APPROVAL(#72,'Definition approval');
#76=APPLIED_APPROVAL_ASSIGNMENT(#73,(#79));
#77=APPLIED_APPROVAL_ASSIGNMENT(#74,(#43));
#78=APPLIED_APPROVAL_ASSIGNMENT(#75,(#37));
#79=PRODUCT_DEFINITION_FORMATION_WITH_SPECIFIED_SOURCE('A',
'First version',#111,.MADE.);
#80=PERSON_AND_ORGANIZATION_ROLE('design_owner');
#81=PERSON_AND_ORGANIZATION_ROLE('creator');
#82=PERSON_AND_ORGANIZATION_ROLE('design_supplier');
#83=PERSON_AND_ORGANIZATION_ROLE('classification_officer');
#84=PERSON_AND_ORGANIZATION_ROLE('creator');
#85=ORGANIZATION('STI','lab','lab');
#86=ORGANIZATION('STI','unknown','unknown');
#87=ORGANIZATION('STI','unknown','unknown');
#88=ORGANIZATION('STI','unknown','unknown');
#89=ORGANIZATION('STI','unknown','unknown');
#90=ORGANIZATION('STI','unknown','unknown');
#91=ORGANIZATION('STI','unknown','unknown');
#92=PERSON('1','Box','vc60',$,$,$);
#93=PERSON('2','last','first',$,$,$);
#94=PERSON('3','President','Mr.',$,$,$);
#95=PERSON_AND_ORGANIZATION(#92,#85);
#96=PERSON_AND_ORGANIZATION(#93,#86);
#97=PERSON_AND_ORGANIZATION(#94,#87);
#98=PERSON_AND_ORGANIZATION(#94,#88);
#99=PERSON_AND_ORGANIZATION(#94,#89);
#100=PERSON_AND_ORGANIZATION(#93,#90);
#101=PERSON_AND_ORGANIZATION(#94,#91);
#102=APPLIED_PERSON_AND_ORGANIZATION_ASSIGNMENT(#95,#80,(#111));
#103=APPLIED_PERSON_AND_ORGANIZATION_ASSIGNMENT(#96,#81,(#79));
#104=APPLIED_PERSON_AND_ORGANIZATION_ASSIGNMENT(#96,#82,(#79));
#105=APPLIED_PERSON_AND_ORGANIZATION_ASSIGNMENT(#99,#83,(#43));
#106=APPLIED_PERSON_AND_ORGANIZATION_ASSIGNMENT(#100,#84,(#37));
#107=PRODUCT_RELATED_PRODUCT_CATEGORY('detail','detail',(#111));
#108=APPLICATION_PROTOCOL_DEFINITION('International Standard',
'config_control_design',1994,#109);
#109=APPLICATION_CONTEXT(
'configuration controlled 3d designs of mechanical parts and assemblie
s');
#110=PRODUCT_CONTEXT('3D Mechanical Parts',#109,'mechanical');
#111=PRODUCT('Document','Document','',(#110));
#112=(
LENGTH_UNIT()
NAMED_UNIT(*)
SI_UNIT(.MILLI.,.METRE.)
);
#113=(
NAMED_UNIT(*)
PLANE_ANGLE_UNIT()
SI_UNIT($,.RADIAN.)
);
#114=DIMENSIONAL_EXPONENTS(0.,0.,0.,0.,0.,0.,0.);
#115=PLANE_ANGLE_MEASURE_WITH_UNIT(PLANE_ANGLE_MEASURE(0.01745329252),#113);
#116=(
CONVERSION_BASED_UNIT('DEGREES',#115)
NAMED_UNIT(#114)
PLANE_ANGLE_UNIT()
);
#117=(
NAMED_UNIT(*)
SI_UNIT($,.STERADIAN.)
SOLID_ANGLE_UNIT()
);
#118=UNCERTAINTY_MEASURE_WITH_UNIT(LENGTH_MEASURE(0.01),#112,
'DISTANCE_ACCURACY_VALUE',
'Maximum model space distance between geometric entities at asserted c
onnectivities');
#119=(
GEOMETRIC_REPRESENTATION_CONTEXT(3)
GLOBAL_UNCERTAINTY_ASSIGNED_CONTEXT((#118))
GLOBAL_UNIT_ASSIGNED_CONTEXT((#117,#116,#112))
REPRESENTATION_CONTEXT('ID1','3D')
);
#120=SHAPE_REPRESENTATION('Document',(#121,#122),#119);
#121=AXIS2_PLACEMENT_3D($,#127,#123,#124);
#122=AXIS2_PLACEMENT_3D($,#315,#125,#126);
#123=DIRECTION('',(0.,0.,1.));
#124=DIRECTION('',(1.,0.,0.));
#125=DIRECTION('',(0.,0.,1.));
#126=DIRECTION('',(1.,0.,0.));
#127=CARTESIAN_POINT('',(0.,0.,0.));
#128=CARTESIAN_POINT('',(0.,-2.5,0.));
#129=CARTESIAN_POINT('',(0.,-2.0917722743145,0.));
#130=CARTESIAN_POINT('',(0.,-1.46827267820943,0.));
#131=CARTESIAN_POINT('',(0.,-0.627420158391443,0.));
#132=CARTESIAN_POINT('',(0.,9.46268545473083E-5,0.));
#133=CARTESIAN_POINT('',(0.,0.627477910033683,0.));
#134=CARTESIAN_POINT('',(0.,1.46759343644394,0.));
#135=CARTESIAN_POINT('',(0.,2.09094283502261,0.));
#136=CARTESIAN_POINT('',(0.,2.5,0.));
#137=CARTESIAN_POINT('',(0.4687045236306,-2.49988844893693,0.294207102221219));
#138=CARTESIAN_POINT('',(0.4687045236306,-2.09167893854614,0.316395724473239));
#139=CARTESIAN_POINT('',(0.4687045236306,-1.46820716325818,0.341624076636938));
#140=CARTESIAN_POINT('',(0.4687045236306,-0.627392162637179,0.358039013220855));
#141=CARTESIAN_POINT('',(0.468704523630601,9.46226322567085E-5,0.361791351274756));
#142=CARTESIAN_POINT('',(0.468704523630599,0.627449911702517,0.357204089599628));
#143=CARTESIAN_POINT('',(0.468704523630601,1.46752795180075,0.340109805211601));
#144=CARTESIAN_POINT('',(0.4687045236306,2.09084953626419,0.315343990814646));
#145=CARTESIAN_POINT('',(0.4687045236306,2.49988844893693,0.294207102221219));
#146=CARTESIAN_POINT('',(1.16310609792176,-2.47988759549545,0.731600644130988));
#147=CARTESIAN_POINT('',(1.16310609792176,-2.07494404626953,0.772187471556022));
#148=CARTESIAN_POINT('',(1.16310609792176,-1.45646048059858,0.829072129483189));
#149=CARTESIAN_POINT('',(1.16310609792176,-0.622372587183493,0.879188359006749));
#150=CARTESIAN_POINT('',(1.16310609792175,9.38655851172085E-5,0.899663215357161));
#151=CARTESIAN_POINT('',(1.16310609792176,0.622429874215977,0.899397209107085));
#152=CARTESIAN_POINT('',(1.16310609792176,1.45578670330715,0.866177700601258));
#153=CARTESIAN_POINT('',(1.16310609792175,2.07412127978507,0.798769437273342));
#154=CARTESIAN_POINT('',(1.16310609792176,2.47988759549545,0.731600644130988));
#155=CARTESIAN_POINT('',(2.11873404400388,-2.42108435312906,1.2453938432483));
#156=CARTESIAN_POINT('',(2.11873404400388,-2.0257428494608,1.30038311491437));
#157=CARTESIAN_POINT('',(2.11873404400388,-1.4219248029359,1.39156252453686));
#158=CARTESIAN_POINT('',(2.11873404400388,-0.607614851327711,1.48586103888395));
#159=CARTESIAN_POINT('',(2.11873404400388,9.16398387719169E-5,1.53148619105621));
#160=CARTESIAN_POINT('',(2.11873404400388,0.60767077996667,1.5418016536064));
#161=CARTESIAN_POINT('',(2.11873404400388,1.42126700229173,1.49423033640574));
#162=CARTESIAN_POINT('',(2.11873404400388,2.02493959246423,1.37385356112486));
#163=CARTESIAN_POINT('',(2.11873404400388,2.42108435312906,1.2453938432483));
#164=CARTESIAN_POINT('',(2.83073925713101,-2.36503198330842,1.56635712610168));
#165=CARTESIAN_POINT('',(2.83073925713101,-1.97884333222063,1.63442381072428));
#166=CARTESIAN_POINT('',(2.83073925713101,-1.38900473767328,1.74866313440561));
#167=CARTESIAN_POINT('',(2.83073925713101,-0.593547496627279,1.86796175226648));
#168=CARTESIAN_POINT('',(2.83073925713101,8.95182149936354E-5,1.92618141452279));
#169=CARTESIAN_POINT('',(2.83073925713101,0.593602130419674,1.93999114574728));
#170=CARTESIAN_POINT('',(2.83073925713101,1.38836216627337,1.88085653308335));
#171=CARTESIAN_POINT('',(2.83073925713101,1.97805867203922,1.72901936248985));
#172=CARTESIAN_POINT('',(2.83073925713101,2.36503198330842,1.56635712610168));
#173=CARTESIAN_POINT('',(3.54833668767435,-2.29919485899002,1.8109476111731));
#174=CARTESIAN_POINT('',(3.54833668767435,-1.9237568237127,1.89976279571175));
#175=CARTESIAN_POINT('',(3.54833668767435,-1.35033799733385,2.03589888849471));
#176=CARTESIAN_POINT('',(3.54833668767435,-0.577024481040125,2.1673772043714));
#177=CARTESIAN_POINT('',(3.54833668767435,8.70262309988716E-5,2.2269581091883));
#178=CARTESIAN_POINT('',(3.54833668767435,0.5770775939517,2.23519637396195));
#179=CARTESIAN_POINT('',(3.54833668767435,1.34971331366377,2.16038480124657));
#180=CARTESIAN_POINT('',(3.54833668767435,1.92299400669041,1.98887727073838));
#181=CARTESIAN_POINT('',(3.54833668767435,2.29919485899002,1.8109476111731));
#182=CARTESIAN_POINT('',(4.27206421695012,-2.2264280434889,1.96480031600684));
#183=CARTESIAN_POINT('',(4.27206421695013,-1.86287218085054,2.0823343271704));
#184=CARTESIAN_POINT('',(4.27206421695012,-1.30760138650161,2.23852667592656));
#185=CARTESIAN_POINT('',(4.27206421695012,-0.558762334277182,2.36768169214817));
#186=CARTESIAN_POINT('',(4.27206421695013,8.42719530525321E-5,2.41615124984525));
#187=CARTESIAN_POINT('',(4.27206421695012,0.558813766227519,2.4089204555553));
#188=CARTESIAN_POINT('',(4.27206421695013,1.30699647333562,2.31427262724422));
#189=CARTESIAN_POINT('',(4.27206421695012,1.86213350609061,2.1366458776106));
#190=CARTESIAN_POINT('',(4.27206421695012,2.2264280434889,1.96480031600684));
#191=CARTESIAN_POINT('',(5.,-2.15,2.01741376174001));
#192=CARTESIAN_POINT('',(5.,-1.79892415591047,2.1658231282937));
#193=CARTESIAN_POINT('',(5.,-1.26271450326011,2.3373169696558));
#194=CARTESIAN_POINT('',(5.,-0.539581336216641,2.45226004771135));
#195=CARTESIAN_POINT('',(5.,8.13790949106658E-5,2.48084760447061));
#196=CARTESIAN_POINT('',(5.,0.539631002628968,2.45224877202336));
#197=CARTESIAN_POINT('',(5.,1.26213035534179,2.33741279565828));
#198=CARTESIAN_POINT('',(5.,1.79821083811945,2.16609746550193));
#199=CARTESIAN_POINT('',(5.,2.15,2.01741376174001));
#200=CARTESIAN_POINT('',(5.72793578304987,-2.0735719565111,1.96480031600684));
#201=CARTESIAN_POINT('',(5.72793578304987,-1.73497613097039,2.13634410914213));
#202=CARTESIAN_POINT('',(5.72793578304987,-1.21782762001861,2.3141944442337));
#203=CARTESIAN_POINT('',(5.72793578304987,-0.5204003381561,2.40893023352692));
#204=CARTESIAN_POINT('',(5.72793578304987,7.84862367687356E-5,2.41614468237297));
#205=CARTESIAN_POINT('',(5.72793578304987,0.520448239030417,2.36766950687583));
#206=CARTESIAN_POINT('',(5.72793578304987,1.21726423734797,2.23863514670371));
#207=CARTESIAN_POINT('',(5.72793578304987,1.73428817014828,2.08256692388141));
#208=CARTESIAN_POINT('',(5.72793578304987,2.0735719565111,1.96480031600684));
#209=CARTESIAN_POINT('',(6.45166331232565,-2.00080514100998,1.8109476111731));
#210=CARTESIAN_POINT('',(6.45166331232566,-1.67409148810823,1.98857413822889));
#211=CARTESIAN_POINT('',(6.45166331232565,-1.17509100918637,2.1603236842132));
#212=CARTESIAN_POINT('',(6.45166331232566,-0.502138191393157,2.23520451644309));
#213=CARTESIAN_POINT('',(6.45166331232565,7.57319588224201E-5,2.22694730992178));
#214=CARTESIAN_POINT('',(6.45166331232565,0.502184411306235,2.1673651034294));
#215=CARTESIAN_POINT('',(6.45166331232566,1.17454739701982,2.03600980941764));
#216=CARTESIAN_POINT('',(6.45166331232565,1.67342766954849,1.89995218518396));
#217=CARTESIAN_POINT('',(6.45166331232565,2.00080514100998,1.8109476111731));
#218=CARTESIAN_POINT('',(7.16926074286899,-1.93496801669158,1.56635712610168));
#219=CARTESIAN_POINT('',(7.16926074286898,-1.6190049796003,1.72874596160115));
#220=CARTESIAN_POINT('',(7.16926074286899,-1.13642426884693,1.88080857914222));
#221=CARTESIAN_POINT('',(7.16926074286899,-0.485615175806003,1.93999779835557));
#222=CARTESIAN_POINT('',(7.16926074286899,7.32399748276257E-5,1.92616994515393));
#223=CARTESIAN_POINT('',(7.16926074286898,0.485659874838262,1.86795089557196));
#224=CARTESIAN_POINT('',(7.16926074286899,1.13589854441021,1.74876398260385));
#225=CARTESIAN_POINT('',(7.16926074286898,1.61836300419967,1.63457641073755));
#226=CARTESIAN_POINT('',(7.16926074286899,1.93496801669158,1.56635712610168));
#227=CARTESIAN_POINT('',(7.88126595599612,-1.87891564687094,1.2453938432483));
#228=CARTESIAN_POINT('',(7.88126595599612,-1.57210546236013,1.37363729745292));
#229=CARTESIAN_POINT('',(7.88126595599612,-1.10350420358432,1.49419172075834));
#230=CARTESIAN_POINT('',(7.88126595599612,-0.471547821105571,1.54180698180943));
#231=CARTESIAN_POINT('',(7.88126595599612,7.11183510492646E-5,1.53147728350658));
#232=CARTESIAN_POINT('',(7.88126595599612,0.471591225291266,1.48585244562709));
#233=CARTESIAN_POINT('',(7.88126595599613,1.10299370839185,1.39164221988325));
#234=CARTESIAN_POINT('',(7.88126595599611,1.57148208377467,1.30050556001562));
#235=CARTESIAN_POINT('',(7.88126595599612,1.87891564687094,1.2453938432483));
#236=CARTESIAN_POINT('',(8.83689390207825,-1.82011240450455,0.731600644130988));
#237=CARTESIAN_POINT('',(8.83689390207825,-1.5229042655514,0.798653003297108));
#238=CARTESIAN_POINT('',(8.83689390207824,-1.06896852592164,0.866150370698051));
#239=CARTESIAN_POINT('',(8.83689390207825,-0.45679008524979,0.899400708349396));
#240=CARTESIAN_POINT('',(8.83689390207825,6.889260470425E-5,0.899659997205933));
#241=CARTESIAN_POINT('',(8.83689390207824,0.456832131041959,0.879183680154169));
#242=CARTESIAN_POINT('',(8.83689390207825,1.06847400737643,0.829114300806228));
#243=CARTESIAN_POINT('',(8.83689390207825,1.52230039645383,0.772270010425182));
#244=CARTESIAN_POINT('',(8.83689390207825,1.82011240450455,0.731600644130988));
#245=CARTESIAN_POINT('',(9.5312954763694,-1.80011155106307,0.294207102221221));
#246=CARTESIAN_POINT('',(9.5312954763694,-1.5061693732748,0.315304681842422));
#247=CARTESIAN_POINT('',(9.5312954763694,-1.05722184326204,0.34009552462306));
#248=CARTESIAN_POINT('',(9.53129547636939,-0.451770509796102,0.357205758290724));
#249=CARTESIAN_POINT('',(9.5312954763694,6.81355575645275E-5,0.361791483943175));
#250=CARTESIAN_POINT('',(9.5312954763694,0.451812093555418,0.358037393159242));
#251=CARTESIAN_POINT('',(9.5312954763694,1.05673275888283,0.34163774538734));
#252=CARTESIAN_POINT('',(9.53129547636939,1.50557213997471,0.316436430772645));
#253=CARTESIAN_POINT('',(9.5312954763694,1.80011155106307,0.294207102221221));
#254=CARTESIAN_POINT('',(10.,-1.8,2.44929359829471E-16));
#255=CARTESIAN_POINT('',(10.,-1.50607603750644,2.62947384605578E-16));
#256=CARTESIAN_POINT('',(10.,-1.05715632831079,2.8376804002893E-16));
#257=CARTESIAN_POINT('',(10.,-0.451742514041839,2.97723003090494E-16));
#258=CARTESIAN_POINT('',(10.,6.81313352739604E-5,3.01193749701292E-16));
#259=CARTESIAN_POINT('',(9.99999999999999,0.451784095224252,2.97721634136296E-16));
#260=CARTESIAN_POINT('',(10.,1.05666727423964,2.83779674033757E-16));
#261=CARTESIAN_POINT('',(10.,1.50547884121628,2.62980691227187E-16));
#262=CARTESIAN_POINT('',(10.,1.8,2.44929359829471E-16));
#263=CARTESIAN_POINT('',(0.,-2.5,0.));
#264=CARTESIAN_POINT('',(10.,-1.8,2.44929359829471E-16));
#265=CARTESIAN_POINT('',(10.,1.8,2.44929359829471E-16));
#266=CARTESIAN_POINT('',(0.,2.5,0.));
#267=CARTESIAN_POINT('',(0.,-2.5,0.));
#268=CARTESIAN_POINT('',(0.4687045236306,-2.49988844893693,0.294207102221219));
#269=CARTESIAN_POINT('',(1.16310609792176,-2.47988759549545,0.731600644130988));
#270=CARTESIAN_POINT('',(2.11873404400388,-2.42108435312906,1.2453938432483));
#271=CARTESIAN_POINT('',(2.83073925713101,-2.36503198330842,1.56635712610168));
#272=CARTESIAN_POINT('',(3.54833668767435,-2.29919485899002,1.8109476111731));
#273=CARTESIAN_POINT('',(4.27206421695012,-2.2264280434889,1.96480031600684));
#274=CARTESIAN_POINT('',(5.,-2.15,2.01741376174001));
#275=CARTESIAN_POINT('',(5.72793578304987,-2.0735719565111,1.96480031600684));
#276=CARTESIAN_POINT('',(6.45166331232565,-2.00080514100998,1.8109476111731));
#277=CARTESIAN_POINT('',(7.16926074286899,-1.93496801669158,1.56635712610168));
#278=CARTESIAN_POINT('',(7.88126595599612,-1.87891564687094,1.2453938432483));
#279=CARTESIAN_POINT('',(8.83689390207825,-1.82011240450455,0.731600644130988));
#280=CARTESIAN_POINT('',(9.5312954763694,-1.80011155106307,0.294207102221221));
#281=CARTESIAN_POINT('',(10.,-1.8,2.44929359829471E-16));
#282=CARTESIAN_POINT('',(10.,-1.8,2.44929359829471E-16));
#283=CARTESIAN_POINT('',(10.,-1.50607603750644,2.62947384605578E-16));
#284=CARTESIAN_POINT('',(10.,-1.05715632831079,2.8376804002893E-16));
#285=CARTESIAN_POINT('',(10.,-0.451742514041839,2.97723003090494E-16));
#286=CARTESIAN_POINT('',(10.,6.81313352739604E-5,3.01193749701292E-16));
#287=CARTESIAN_POINT('',(9.99999999999999,0.451784095224252,2.97721634136296E-16));
#288=CARTESIAN_POINT('',(10.,1.05666727423964,2.83779674033757E-16));
#289=CARTESIAN_POINT('',(10.,1.50547884121628,2.62980691227187E-16));
#290=CARTESIAN_POINT('',(10.,1.8,2.44929359829471E-16));
#291=CARTESIAN_POINT('',(10.,1.8,2.44929359829471E-16));
#292=CARTESIAN_POINT('',(9.5312954763694,1.80011155106307,0.294207102221221));
#293=CARTESIAN_POINT('',(8.83689390207825,1.82011240450455,0.731600644130988));
#294=CARTESIAN_POINT('',(7.88126595599612,1.87891564687094,1.2453938432483));
#295=CARTESIAN_POINT('',(7.16926074286899,1.93496801669158,1.56635712610168));
#296=CARTESIAN_POINT('',(6.45166331232565,2.00080514100998,1.8109476111731));
#297=CARTESIAN_POINT('',(5.72793578304987,2.0735719565111,1.96480031600684));
#298=CARTESIAN_POINT('',(5.,2.15,2.01741376174001));
#299=CARTESIAN_POINT('',(4.27206421695012,2.2264280434889,1.96480031600684));
#300=CARTESIAN_POINT('',(3.54833668767435,2.29919485899002,1.8109476111731));
#301=CARTESIAN_POINT('',(2.83073925713101,2.36503198330842,1.56635712610168));
#302=CARTESIAN_POINT('',(2.11873404400388,2.42108435312906,1.2453938432483));
#303=CARTESIAN_POINT('',(1.16310609792176,2.47988759549545,0.731600644130988));
#304=CARTESIAN_POINT('',(0.4687045236306,2.49988844893693,0.294207102221219));
#305=CARTESIAN_POINT('',(0.,2.5,0.));
#306=CARTESIAN_POINT('',(0.,2.5,0.));
#307=CARTESIAN_POINT('',(0.,2.09094283502261,0.));
#308=CARTESIAN_POINT('',(0.,1.46759343644394,0.));
#309=CARTESIAN_POINT('',(0.,0.627477910033683,0.));
#310=CARTESIAN_POINT('',(0.,9.46268545473083E-5,0.));
#311=CARTESIAN_POINT('',(0.,-0.627420158391443,0.));
#312=CARTESIAN_POINT('',(0.,-1.46827267820943,0.));
#313=CARTESIAN_POINT('',(0.,-2.0917722743145,0.));
#314=CARTESIAN_POINT('',(0.,-2.5,0.));
#315=CARTESIAN_POINT('',(0.,0.,0.));
ENDSEC;
END-ISO-10303-21;
