ISO-10303-21;
HEADER;
/* Generated by software containing ST-Developer
 * from STEP Tools, Inc. (www.steptools.com) 
 */
/* OPTION: using custom schema-name function */

FILE_DESCRIPTION(
/* description */ (''),
/* implementation_level */ '2;1');

FILE_NAME(
/* name */ 'Helmet_New',
/* time_stamp */ '2026-09-16T11:23:45+01:00',
/* author */ (''),
/* organization */ (''),
/* preprocessor_version */ 'ST-DEVELOPER v19.2',
/* originating_system */ 'Rhino 8.27',
/* authorisation */ '');

FILE_SCHEMA (('CONFIG_CONTROL_DESIGN'));
ENDSEC;

DATA;
#10=SHAPE_REPRESENTATION_RELATIONSHIP('','',#108,#12);
#11=SHELL_BASED_SURFACE_MODEL('shell_1',(#13));
#12=MANIFOLD_SURFACE_SHAPE_REPRESENTATION('shell_rep_0',(#11,#110),#107);
#13=OPEN_SHELL('',(#14));
#14=ADVANCED_FACE('',(#15),#21,.T.);
#15=FACE_OUTER_BOUND('',#16,.T.);
#16=EDGE_LOOP('',(#17));
#17=ORIENTED_EDGE('',*,*,#18,.F.);
#18=EDGE_CURVE('',#20,#20,#19,.T.);
#19=B_SPLINE_CURVE_WITH_KNOTS('',3,(#216,#217,#218,#219,#220,#221,#222,
#223,#224,#225,#226,#227,#228,#229,#230,#231,#232,#233,#234,#235,#236,#237,
#238,#239,#240,#241,#242,#243,#244,#245,#246,#247,#248,#249,#250,#251,#252,
#253,#254,#255,#256,#257,#258,#259,#260,#261,#262,#263,#264,#265,#266,#267,
#268,#269,#270,#271,#272,#273,#274,#275,#276,#277,#278,#279,#280,#281,#282,
#283,#284,#285,#286,#287,#288),.UNSPECIFIED.,.T.,.F.,(4,3,3,3,3,3,3,3,3,
3,3,3,3,3,3,3,3,3,3,3,3,3,3,3,4),(0.,2.29370812074776,4.72968673879034,
7.02473223261975,9.31977772644915,11.7557563444917,14.0494644652395,16.397018225587,
18.5309580791668,20.6064121469904,22.6833178048279,24.8031418719668,27.0561232615062,
30.0203154140191,32.5425774121761,34.8549229160545,37.167268419933,39.6895304180899,
42.6537225706028,44.9067039601422,47.0265280272812,49.1034336851187,51.1788877529423,
53.3128276065221,55.6603813668696),.UNSPECIFIED.);
#20=VERTEX_POINT('',#215);
#21=B_SPLINE_SURFACE_WITH_KNOTS('',3,3,((#116,#117,#118,#119,#120,#121,
#122,#123,#124),(#125,#126,#127,#128,#129,#130,#131,#132,#133),(#134,#135,
#136,#137,#138,#139,#140,#141,#142),(#143,#144,#145,#146,#147,#148,#149,
#150,#151),(#152,#153,#154,#155,#156,#157,#158,#159,#160),(#161,#162,#163,
#164,#165,#166,#167,#168,#169),(#170,#171,#172,#173,#174,#175,#176,#177,
#178),(#179,#180,#181,#182,#183,#184,#185,#186,#187),(#188,#189,#190,#191,
#192,#193,#194,#195,#196),(#197,#198,#199,#200,#201,#202,#203,#204,#205),
(#206,#207,#208,#209,#210,#211,#212,#213,#214)),.UNSPECIFIED.,.F.,.F.,.F.,
(4,1,1,1,1,1,1,1,4),(4,1,1,1,1,1,4),(0.,6.48795917062441,9.1324012103491,
11.4355225244904,13.5391272752288,15.6191987620957,17.8562094488996,20.4025301291119,
26.6411698621414),(0.,7.15136157314078,9.84052477723774,12.1633115894139,
14.48609840159,17.1752616056869,24.3266231788277),.UNSPECIFIED.);
#22=SHAPE_DEFINITION_REPRESENTATION(#23,#108);
#23=PRODUCT_DEFINITION_SHAPE($,$,#25);
#24=PRODUCT_DEFINITION_CONTEXT('3D Mechanical Parts',#97,'design');
#25=PRODUCT_DEFINITION('A','First version',#67,#24);
#26=DATE_TIME_ROLE('classification_date');
#27=DATE_TIME_ROLE('creation_date');
#28=APPLIED_DATE_AND_TIME_ASSIGNMENT(#52,#26,(#31));
#29=APPLIED_DATE_AND_TIME_ASSIGNMENT(#54,#27,(#25));
#30=SECURITY_CLASSIFICATION_LEVEL('unclassified');
#31=SECURITY_CLASSIFICATION('A','Security for version',#30);
#32=APPLIED_SECURITY_CLASSIFICATION_ASSIGNMENT(#31,(#67));
#33=APPROVAL_ROLE('Version approval');
#34=APPROVAL_ROLE('Version Security approval');
#35=APPROVAL_ROLE('Definition approval');
#36=APPROVAL_PERSON_ORGANIZATION(#85,#61,#33);
#37=APPROVAL_PERSON_ORGANIZATION(#86,#62,#34);
#38=APPROVAL_PERSON_ORGANIZATION(#89,#63,#35);
#39=COORDINATED_UNIVERSAL_TIME_OFFSET(5,0,.BEHIND.);
#40=LOCAL_TIME(0,0,0.,#39);
#41=LOCAL_TIME(0,0,0.,#39);
#42=LOCAL_TIME(0,0,0.,#39);
#43=LOCAL_TIME(0,0,0.,#39);
#44=LOCAL_TIME(0,0,0.,#39);
#45=CALENDAR_DATE(1999,1,1);
#46=CALENDAR_DATE(1999,1,1);
#47=CALENDAR_DATE(1999,1,1);
#48=CALENDAR_DATE(1999,1,1);
#49=CALENDAR_DATE(1999,1,1);
#50=DATE_AND_TIME(#45,#40);
#51=DATE_AND_TIME(#46,#41);
#52=DATE_AND_TIME(#47,#42);
#53=DATE_AND_TIME(#48,#43);
#54=DATE_AND_TIME(#49,#44);
#55=APPROVAL_DATE_TIME(#50,#61);
#56=APPROVAL_DATE_TIME(#51,#62);
#57=APPROVAL_DATE_TIME(#53,#63);
#58=APPROVAL_STATUS('not_yet_approved');
#59=APPROVAL_STATUS('not_yet_approved');
#60=APPROVAL_STATUS('approved');
#61=APPROVAL(#58,'Version approval');
#62=APPROVAL(#59,'Version Security approval');
#63=APPROVAL(#60,'Definition approval');
#64=APPLIED_APPROVAL_ASSIGNMENT(#61,(#67));
#65=APPLIED_APPROVAL_ASSIGNMENT(#62,(#31));
#66=APPLIED_APPROVAL_ASSIGNMENT(#63,(#25));
#67=PRODUCT_DEFINITION_FORMATION_WITH_SPECIFIED_SOURCE('A',
'First version',#99,.MADE.);
#68=PERSON_AND_ORGANIZATION_ROLE('design_owner');
#69=PERSON_AND_ORGANIZATION_ROLE('creator');
#70=PERSON_AND_ORGANIZATION_ROLE('design_supplier');
#71=PERSON_AND_ORGANIZATION_ROLE('classification_officer');
#72=PERSON_AND_ORGANIZATION_ROLE('creator');
#73=ORGANIZATION('STI','lab','lab');
#74=ORGANIZATION('STI','unknown','unknown');
#75=ORGANIZATION('STI','unknown','unknown');
#76=ORGANIZATION('STI','unknown','unknown');
#77=ORGANIZATION('STI','unknown','unknown');
#78=ORGANIZATION('STI','unknown','unknown');
#79=ORGANIZATION('STI','unknown','unknown');
#80=PERSON('1','Box','vc60',$,$,$);
#81=PERSON('2','last','first',$,$,$);
#82=PERSON('3','President','Mr.',$,$,$);
#83=PERSON_AND_ORGANIZATION(#80,#73);
#84=PERSON_AND_ORGANIZATION(#81,#74);
#85=PERSON_AND_ORGANIZATION(#82,#75);
#86=PERSON_AND_ORGANIZATION(#82,#76);
#87=PERSON_AND_ORGANIZATION(#82,#77);
#88=PERSON_AND_ORGANIZATION(#81,#78);
#89=PERSON_AND_ORGANIZATION(#82,#79);
#90=APPLIED_PERSON_AND_ORGANIZATION_ASSIGNMENT(#83,#68,(#99));
#91=APPLIED_PERSON_AND_ORGANIZATION_ASSIGNMENT(#84,#69,(#67));
#92=APPLIED_PERSON_AND_ORGANIZATION_ASSIGNMENT(#84,#70,(#67));
#93=APPLIED_PERSON_AND_ORGANIZATION_ASSIGNMENT(#87,#71,(#31));
#94=APPLIED_PERSON_AND_ORGANIZATION_ASSIGNMENT(#88,#72,(#25));
#95=PRODUCT_RELATED_PRODUCT_CATEGORY('detail','detail',(#99));
#96=APPLICATION_PROTOCOL_DEFINITION('International Standard',
'config_control_design',1994,#97);
#97=APPLICATION_CONTEXT(
'configuration controlled 3d designs of mechanical parts and assemblie
s');
#98=PRODUCT_CONTEXT('3D Mechanical Parts',#97,'mechanical');
#99=PRODUCT('Document','Document','',(#98));
#100=(
LENGTH_UNIT()
NAMED_UNIT(*)
SI_UNIT(.MILLI.,.METRE.)
);
#101=(
NAMED_UNIT(*)
PLANE_ANGLE_UNIT()
SI_UNIT($,.RADIAN.)
);
#102=DIMENSIONAL_EXPONENTS(0.,0.,0.,0.,0.,0.,0.);
#103=PLANE_ANGLE_MEASURE_WITH_UNIT(PLANE_ANGLE_MEASURE(0.01745329252),#101);
#104=(
CONVERSION_BASED_UNIT('DEGREES',#103)
NAMED_UNIT(#102)
PLANE_ANGLE_UNIT()
);
#105=(
NAMED_UNIT(*)
SI_UNIT($,.STERADIAN.)
SOLID_ANGLE_UNIT()
);
#106=UNCERTAINTY_MEASURE_WITH_UNIT(LENGTH_MEASURE(0.01),#100,
'DISTANCE_ACCURACY_VALUE',
'Maximum model space distance between geometric entities at asserted c
onnectivities');
#107=(
GEOMETRIC_REPRESENTATION_CONTEXT(3)
GLOBAL_UNCERTAINTY_ASSIGNED_CONTEXT((#106))
GLOBAL_UNIT_ASSIGNED_CONTEXT((#105,#104,#100))
REPRESENTATION_CONTEXT('ID1','3D')
);
#108=SHAPE_REPRESENTATION('Document',(#109,#110),#107);
#109=AXIS2_PLACEMENT_3D($,#115,#111,#112);
#110=AXIS2_PLACEMENT_3D($,#289,#113,#114);
#111=DIRECTION('',(0.,0.,1.));
#112=DIRECTION('',(1.,0.,0.));
#113=DIRECTION('',(0.,0.,1.));
#114=DIRECTION('',(1.,0.,0.));
#115=CARTESIAN_POINT('',(0.,0.,0.));
#116=CARTESIAN_POINT('',(-10.,-8.5,-7.5));
#117=CARTESIAN_POINT('',(-10.,-7.35984349935843,-5.60977506448563));
#118=CARTESIAN_POINT('',(-9.99999999999999,-5.65694937197124,-2.97670792518422));
#119=CARTESIAN_POINT('',(-10.,-2.45022794841733,-0.62628642212389));
#120=CARTESIAN_POINT('',(-10.,1.11022302462516E-16,-0.00243767868710437));
#121=CARTESIAN_POINT('',(-10.,2.45022794841733,-0.62628642212389));
#122=CARTESIAN_POINT('',(-10.,5.65694937197123,-2.97670792518422));
#123=CARTESIAN_POINT('',(-10.,7.35984349935844,-5.60977506448563));
#124=CARTESIAN_POINT('',(-10.,8.5,-7.5));
#125=CARTESIAN_POINT('',(-8.86754076379451,-8.5,-5.71293430429332));
#126=CARTESIAN_POINT('',(-8.86754076379451,-7.35984349935843,-3.80218304164593));
#127=CARTESIAN_POINT('',(-8.86754076379451,-5.65694937197124,-1.14052290452238));
#128=CARTESIAN_POINT('',(-8.86754076379451,-2.45022794841733,1.23542229138838));
#129=CARTESIAN_POINT('',(-8.86754076379451,1.11022302462516E-16,1.86604553194914));
#130=CARTESIAN_POINT('',(-8.86754076379451,2.45022794841733,1.23542229138838));
#131=CARTESIAN_POINT('',(-8.86754076379452,5.65694937197123,-1.14052290452238));
#132=CARTESIAN_POINT('',(-8.86754076379451,7.35984349935844,-3.80218304164593));
#133=CARTESIAN_POINT('',(-8.86754076379451,8.5,-5.71293430429332));
#134=CARTESIAN_POINT('',(-7.11659350922879,-8.5,-3.25154582674504));
#135=CARTESIAN_POINT('',(-7.11659350922879,-7.35984349935844,-1.30905786666004));
#136=CARTESIAN_POINT('',(-7.11659350922878,-5.65694937197124,1.39681121806697));
#137=CARTESIAN_POINT('',(-7.11659350922879,-2.45022794841734,3.81221976814895));
#138=CARTESIAN_POINT('',(-7.11659350922879,1.11022302462516E-16,4.45331736995915));
#139=CARTESIAN_POINT('',(-7.11659350922879,2.45022794841734,3.81221976814895));
#140=CARTESIAN_POINT('',(-7.11659350922878,5.65694937197124,1.39681121806697));
#141=CARTESIAN_POINT('',(-7.11659350922879,7.35984349935844,-1.30905786666004));
#142=CARTESIAN_POINT('',(-7.11659350922879,8.5,-3.25154582674504));
#143=CARTESIAN_POINT('',(-4.24502758433074,-8.5,-0.831759154537219));
#144=CARTESIAN_POINT('',(-4.24502758433074,-7.35984349935843,1.16277721459779));
#145=CARTESIAN_POINT('',(-4.24502758433073,-5.65694937197124,3.94114928716906));
#146=CARTESIAN_POINT('',(-4.24502758433074,-2.45022794841733,6.4212780181844));
#147=CARTESIAN_POINT('',(-4.24502758433074,1.11022302462516E-16,7.07955364678584));
#148=CARTESIAN_POINT('',(-4.24502758433074,2.45022794841733,6.42127801818439));
#149=CARTESIAN_POINT('',(-4.24502758433074,5.65694937197123,3.94114928716906));
#150=CARTESIAN_POINT('',(-4.24502758433074,7.35984349935844,1.16277721459779));
#151=CARTESIAN_POINT('',(-4.24502758433074,8.5,-0.831759154537219));
#152=CARTESIAN_POINT('',(-2.17086240756959,-8.5,0.239907910076711));
#153=CARTESIAN_POINT('',(-2.17086240756959,-7.35984349935843,2.27203944518766));
#154=CARTESIAN_POINT('',(-2.17086240756959,-5.65694937197124,5.10278126183958));
#155=CARTESIAN_POINT('',(-2.17086240756959,-2.45022794841733,7.62965812576795));
#156=CARTESIAN_POINT('',(-2.17086240756959,1.11022302462516E-16,8.30034164118367));
#157=CARTESIAN_POINT('',(-2.17086240756959,2.45022794841734,7.62965812576795));
#158=CARTESIAN_POINT('',(-2.17086240756959,5.65694937197124,5.10278126183958));
#159=CARTESIAN_POINT('',(-2.17086240756959,7.35984349935844,2.27203944518765));
#160=CARTESIAN_POINT('',(-2.17086240756959,8.5,0.239907910076711));
#161=CARTESIAN_POINT('',(-0.0220480118751709,-8.5,0.621647241006292));
#162=CARTESIAN_POINT('',(-0.0220480118751709,-7.35984349935843,2.6927269923744));
#163=CARTESIAN_POINT('',(-0.0220480118751709,-5.65694937197124,5.57772334055555));
#164=CARTESIAN_POINT('',(-0.022048011875171,-2.45022794841733,8.15303080302102));
#165=CARTESIAN_POINT('',(-0.0220480118751709,1.11022302462516E-16,8.83656876518253));
#166=CARTESIAN_POINT('',(-0.0220480118751709,2.45022794841734,8.15303080302101));
#167=CARTESIAN_POINT('',(-0.0220480118751709,5.65694937197124,5.57772334055556));
#168=CARTESIAN_POINT('',(-0.0220480118751709,7.35984349935844,2.6927269923744));
#169=CARTESIAN_POINT('',(-0.0220480118751709,8.5,0.621647241006292));
#170=CARTESIAN_POINT('',(2.13915524705454,-8.5,0.252633012911832));
#171=CARTESIAN_POINT('',(2.13915524705454,-7.35984349935843,2.36288553419118));
#172=CARTESIAN_POINT('',(2.13915524705454,-5.65694937197124,5.30244921521765));
#173=CARTESIAN_POINT('',(2.13915524705454,-2.45022794841733,7.92646649999256));
#174=CARTESIAN_POINT('',(2.13915524705454,1.11022302462516E-16,8.62293302045786));
#175=CARTESIAN_POINT('',(2.13915524705454,2.45022794841733,7.92646649999256));
#176=CARTESIAN_POINT('',(2.13915524705454,5.65694937197124,5.30244921521765));
#177=CARTESIAN_POINT('',(2.13915524705454,7.35984349935844,2.36288553419118));
#178=CARTESIAN_POINT('',(2.13915524705454,8.5,0.252633012911832));
#179=CARTESIAN_POINT('',(4.23301155254427,-8.5,-0.822034501859391));
#180=CARTESIAN_POINT('',(4.23301155254427,-7.35984349935843,1.32617009585853));
#181=CARTESIAN_POINT('',(4.23301155254427,-5.65694937197124,4.31860069418199));
#182=CARTESIAN_POINT('',(4.23301155254428,-2.45022794841733,6.98980991620787));
#183=CARTESIAN_POINT('',(4.23301155254427,1.11022302462516E-16,7.6988021180099));
#184=CARTESIAN_POINT('',(4.23301155254427,2.45022794841733,6.98980991620787));
#185=CARTESIAN_POINT('',(4.23301155254428,5.65694937197123,4.318600694182));
#186=CARTESIAN_POINT('',(4.23301155254427,7.35984349935844,1.32617009585851));
#187=CARTESIAN_POINT('',(4.23301155254427,8.5,-0.822034501859391));
#188=CARTESIAN_POINT('',(7.11789828065784,-8.5,-3.25150043143162));
#189=CARTESIAN_POINT('',(7.11789828065784,-7.35984349935843,-1.05100597918317));
#190=CARTESIAN_POINT('',(7.11789828065784,-5.65694937197124,2.01426393847022));
#191=CARTESIAN_POINT('',(7.11789828065784,-2.45022794841733,4.75049356953383));
#192=CARTESIAN_POINT('',(7.11789828065784,1.11022302462516E-16,5.47674348465372));
#193=CARTESIAN_POINT('',(7.11789828065784,2.45022794841734,4.75049356953383));
#194=CARTESIAN_POINT('',(7.11789828065783,5.65694937197124,2.0142639384702));
#195=CARTESIAN_POINT('',(7.11789828065784,7.35984349935844,-1.05100597918316));
#196=CARTESIAN_POINT('',(7.11789828065784,8.5,-3.25150043143162));
#197=CARTESIAN_POINT('',(8.87085565512469,-8.5,-5.71819765995571));
#198=CARTESIAN_POINT('',(8.8708556551247,-7.35984349935844,-3.48593007595275));
#199=CARTESIAN_POINT('',(8.87085565512469,-5.65694937197124,-0.376400458004697));
#200=CARTESIAN_POINT('',(8.8708556551247,-2.45022794841734,2.39933783189218));
#201=CARTESIAN_POINT('',(8.8708556551247,1.11022302462516E-16,3.13607413302237));
#202=CARTESIAN_POINT('',(8.87085565512469,2.45022794841733,2.39933783189217));
#203=CARTESIAN_POINT('',(8.8708556551247,5.65694937197124,-0.376400458004683));
#204=CARTESIAN_POINT('',(8.87085565512469,7.35984349935844,-3.48593007595277));
#205=CARTESIAN_POINT('',(8.87085565512469,8.5,-5.71819765995571));
#206=CARTESIAN_POINT('',(10.,-8.5,-7.5));
#207=CARTESIAN_POINT('',(10.,-7.35984349935843,-5.24726617274315));
#208=CARTESIAN_POINT('',(9.99999999999999,-5.65694937197124,-2.10922725330174));
#209=CARTESIAN_POINT('',(10.,-2.45022794841733,0.69196001746879));
#210=CARTESIAN_POINT('',(10.,1.11022302462516E-16,1.43545098567427));
#211=CARTESIAN_POINT('',(10.,2.45022794841733,0.691960017468789));
#212=CARTESIAN_POINT('',(10.,5.65694937197123,-2.10922725330174));
#213=CARTESIAN_POINT('',(10.,7.35984349935844,-5.24726617274315));
#214=CARTESIAN_POINT('',(10.,8.5,-7.5));
#215=CARTESIAN_POINT('',(-6.10598070019992,-6.06494324085585,1.2367767600832));
#216=CARTESIAN_POINT('',(-6.10598070019992,-6.06494324085585,1.2367767600832));
#217=CARTESIAN_POINT('',(-6.70877269298244,-5.58736789568566,1.2367767600832));
#218=CARTESIAN_POINT('',(-7.22979274724607,-5.04019772487729,1.2367767600832));
#219=CARTESIAN_POINT('',(-7.67629454365248,-4.41396802299183,1.2367767600832));
#220=CARTESIAN_POINT('',(-8.15130881518014,-3.74774887663176,1.2367767600832));
#221=CARTESIAN_POINT('',(-8.51118310745467,-3.03455347669093,1.23677676008319));
#222=CARTESIAN_POINT('',(-8.75257833782356,-2.25203103850804,1.23677676008319));
#223=CARTESIAN_POINT('',(-8.97425974393498,-1.53341421188295,1.23677676008319));
#224=CARTESIAN_POINT('',(-9.097074043358,-0.752527679138396,1.23677676008319));
#225=CARTESIAN_POINT('',(-9.097074043358,4.57156002203535E-16,1.23677676008319));
#226=CARTESIAN_POINT('',(-9.097074043358,0.75252767913835,1.23677676008319));
#227=CARTESIAN_POINT('',(-8.97425974393497,1.53341421188299,1.2367767600832));
#228=CARTESIAN_POINT('',(-8.75257833782356,2.25203103850804,1.2367767600832));
#229=CARTESIAN_POINT('',(-8.51118310745468,3.0345534766909,1.2367767600832));
#230=CARTESIAN_POINT('',(-8.15130881518013,3.74774887663179,1.2367767600832));
#231=CARTESIAN_POINT('',(-7.67629454365248,4.41396802299183,1.2367767600832));
#232=CARTESIAN_POINT('',(-7.2297927472461,5.04019772487726,1.2367767600832));
#233=CARTESIAN_POINT('',(-6.7087726929824,5.5873678956857,1.2367767600832));
#234=CARTESIAN_POINT('',(-6.10598070019992,6.06494324085586,1.2367767600832));
#235=CARTESIAN_POINT('',(-5.49112092517511,6.55207955455052,1.2367767600832));
#236=CARTESIAN_POINT('',(-4.81823003042567,6.94523485416026,1.2367767600832));
#237=CARTESIAN_POINT('',(-4.09847056078116,7.25548812617571,1.2367767600832));
#238=CARTESIAN_POINT('',(-3.44634723925501,7.5365867470261,1.2367767600832));
#239=CARTESIAN_POINT('',(-2.76391394557396,7.74606749387015,1.23677676008319));
#240=CARTESIAN_POINT('',(-2.0675149007242,7.88412271063441,1.23677676008319));
#241=CARTESIAN_POINT('',(-1.3941829767597,8.01760506590856,1.23677676008319));
#242=CARTESIAN_POINT('',(-0.694985015015577,8.08698130490695,1.2367767600832));
#243=CARTESIAN_POINT('',(-0.00860381338052202,8.08989645797507,1.2367767600832));
#244=CARTESIAN_POINT('',(0.676881894983102,8.09280780776309,1.2367767600832));
#245=CARTESIAN_POINT('',(1.3801032449739,8.02956959088842,1.2367767600832));
#246=CARTESIAN_POINT('',(2.05473482842757,7.90880802221613,1.2367767600832));
#247=CARTESIAN_POINT('',(2.74751712238825,7.78479740869166,1.2367767600832));
#248=CARTESIAN_POINT('',(3.43423755210625,7.59570032338504,1.2367767600832));
#249=CARTESIAN_POINT('',(4.09331157045462,7.3489498601414,1.2367767600832));
#250=CARTESIAN_POINT('',(4.79682786226729,7.0855606715655,1.2367767600832));
#251=CARTESIAN_POINT('',(5.47071678097601,6.75581270483306,1.23677676008319));
#252=CARTESIAN_POINT('',(6.10556605655768,6.3536021654865,1.23677676008319));
#253=CARTESIAN_POINT('',(6.94543159725912,5.82150299628668,1.23677676008319));
#254=CARTESIAN_POINT('',(7.68282024455164,5.18452282955031,1.23677676008319));
#255=CARTESIAN_POINT('',(8.31317559435674,4.41396802299183,1.23677676008319));
#256=CARTESIAN_POINT('',(8.8479196582146,3.7602897305625,1.23677676008319));
#257=CARTESIAN_POINT('',(9.27508051068697,3.04733860587397,1.23677676008319));
#258=CARTESIAN_POINT('',(9.56528175829717,2.25203103850804,1.23677676008319));
#259=CARTESIAN_POINT('',(9.82530777557593,1.53941983867059,1.23677676008319));
#260=CARTESIAN_POINT('',(9.97559034932361,0.759986616497137,1.23677676008319));
#261=CARTESIAN_POINT('',(9.97559034932361,-1.76139595165883E-18,1.23677676008319));
#262=CARTESIAN_POINT('',(9.97559034932361,-0.75998661649717,1.23677676008319));
#263=CARTESIAN_POINT('',(9.82530777557595,-1.53941983867056,1.2367767600832));
#264=CARTESIAN_POINT('',(9.56528175829717,-2.25203103850804,1.2367767600832));
#265=CARTESIAN_POINT('',(9.27508051068696,-3.047338605874,1.2367767600832));
#266=CARTESIAN_POINT('',(8.84791965821462,-3.76028973056248,1.2367767600832));
#267=CARTESIAN_POINT('',(8.31317559435674,-4.41396802299183,1.2367767600832));
#268=CARTESIAN_POINT('',(7.68282024455163,-5.18452282955032,1.2367767600832));
#269=CARTESIAN_POINT('',(6.94543159725914,-5.82150299628667,1.2367767600832));
#270=CARTESIAN_POINT('',(6.10556605655768,-6.3536021654865,1.2367767600832));
#271=CARTESIAN_POINT('',(5.47071678097603,-6.75581270483304,1.2367767600832));
#272=CARTESIAN_POINT('',(4.79682786226727,-7.08556067156551,1.23677676008319));
#273=CARTESIAN_POINT('',(4.09331157045462,-7.34894986014139,1.23677676008319));
#274=CARTESIAN_POINT('',(3.43423755210629,-7.59570032338502,1.23677676008319));
#275=CARTESIAN_POINT('',(2.74751712238822,-7.78479740869167,1.23677676008319));
#276=CARTESIAN_POINT('',(2.05473482842757,-7.90880802221613,1.23677676008319));
#277=CARTESIAN_POINT('',(1.38010324497394,-8.02956959088841,1.23677676008319));
#278=CARTESIAN_POINT('',(0.676881894983059,-8.09280780776309,1.23677676008319));
#279=CARTESIAN_POINT('',(-0.00860381338052468,-8.08989645797507,1.23677676008319));
#280=CARTESIAN_POINT('',(-0.694985015015533,-8.08698130490695,1.23677676008319));
#281=CARTESIAN_POINT('',(-1.39418297675974,-8.01760506590855,1.2367767600832));
#282=CARTESIAN_POINT('',(-2.0675149007242,-7.88412271063441,1.2367767600832));
#283=CARTESIAN_POINT('',(-2.76391394557391,-7.74606749387016,1.2367767600832));
#284=CARTESIAN_POINT('',(-3.44634723925505,-7.53658674702608,1.2367767600832));
#285=CARTESIAN_POINT('',(-4.09847056078116,-7.25548812617571,1.2367767600832));
#286=CARTESIAN_POINT('',(-4.8182300304257,-6.94523485416024,1.2367767600832));
#287=CARTESIAN_POINT('',(-5.49112092517509,-6.55207955455054,1.2367767600832));
#288=CARTESIAN_POINT('',(-6.10598070019992,-6.06494324085585,1.2367767600832));
#289=CARTESIAN_POINT('',(0.,0.,0.));
ENDSEC;
END-ISO-10303-21;
