ISO-10303-21;
HEADER;
/* Generated by software containing ST-Developer
 * from STEP Tools, Inc. (www.steptools.com) 
 */
/* OPTION: using custom schema-name function */

FILE_DESCRIPTION(
/* description */ (''),
/* implementation_level */ '2;1');

FILE_NAME(
/* name */ 'HelmetNew_Half',
/* time_stamp */ '2026-09-17T14:44:23+01:00',
/* author */ (''),
/* organization */ (''),
/* preprocessor_version */ 'ST-DEVELOPER v19.2',
/* originating_system */ 'Rhino 8.35',
/* authorisation */ '');

FILE_SCHEMA (('CONFIG_CONTROL_DESIGN'));
ENDSEC;

DATA;
#10=SHAPE_REPRESENTATION_RELATIONSHIP('','',#116,#12);
#11=SHELL_BASED_SURFACE_MODEL('shell_1',(#13));
#12=MANIFOLD_SURFACE_SHAPE_REPRESENTATION('shell_rep_0',(#11,#118),#115);
#13=OPEN_SHELL('',(#14));
#14=ADVANCED_FACE('',(#15),#29,.T.);
#15=FACE_OUTER_BOUND('',#16,.T.);
#16=EDGE_LOOP('',(#17,#18,#19));
#17=ORIENTED_EDGE('',*,*,#21,.T.);
#18=ORIENTED_EDGE('',*,*,#22,.T.);
#19=ORIENTED_EDGE('',*,*,#20,.T.);
#20=EDGE_CURVE('',#26,#27,#23,.T.);
#21=EDGE_CURVE('',#27,#28,#24,.T.);
#22=EDGE_CURVE('',#28,#26,#25,.T.);
#23=B_SPLINE_CURVE_WITH_KNOTS('',3,(#412,#413,#414,#415,#416,#417,#418,
#419,#420,#421,#422,#423,#424,#425,#426,#427,#428,#429,#430,#431,#432,#433,
#434,#435,#436,#437,#438,#439,#440,#441,#442,#443,#444,#445,#446,#447,#448,
#449,#450,#451,#452,#453,#454,#455,#456,#457,#458,#459,#460,#461,#462,#463,
#464,#465,#466,#467,#468,#469,#470,#471,#472,#473,#474,#475,#476,#477,#478),
 .UNSPECIFIED.,.F.,.F.,(4,3,3,3,3,3,3,3,3,3,3,3,3,3,3,3,3,3,3,3,3,3,4),
(0.,1.10049080423356,1.28309477955266,2.45075216706095,3.43674094457145,
3.56371894708441,4.65408307957821,5.73078170130911,6.79692326267786,7.85351972996445,
8.93571014405603,10.0694495629337,11.2354395659893,12.3940812070601,13.561254376817,
14.9194330301325,15.0770681369428,16.5206999178142,16.656814009365,17.5204479792912,
18.4284226818589,19.3081621541855,20.1811047493077),.UNSPECIFIED.);
#24=B_SPLINE_CURVE_WITH_KNOTS('',3,(#479,#480,#481,#482,#483,#484,#485,
#486,#487,#488,#489,#490,#491,#492,#493,#494,#495,#496,#497),
 .UNSPECIFIED.,.F.,.F.,(4,1,1,1,1,1,1,1,1,1,1,1,1,1,1,1,4),(-19.5299333936722,
-18.3496580807261,-16.9614496860833,-15.8379876243804,-14.8516777406794,
-13.8894307772778,-12.9367341841819,-12.0189680256639,-11.1436410418094,
-10.291645303975,-9.44041760920948,-8.56697398971049,-7.66038541514353,
-6.72188335629985,-5.7743358620288,-4.84724434546123,-3.68265469513594),
 .UNSPECIFIED.);
#25=B_SPLINE_CURVE_WITH_KNOTS('',3,(#498,#499,#500,#501,#502,#503,#504,
#505,#506,#507,#508,#509,#510),.UNSPECIFIED.,.F.,.F.,(4,3,3,3,4),(43.9440140785188,
44.6767106394763,45.4986612124014,46.4943509739314,46.699701660615),
 .UNSPECIFIED.);
#26=VERTEX_POINT('',#409);
#27=VERTEX_POINT('',#410);
#28=VERTEX_POINT('',#411);
#29=B_SPLINE_SURFACE_WITH_KNOTS('',3,3,((#124,#125,#126,#127,#128,#129,
#130,#131,#132,#133,#134,#135,#136,#137,#138),(#139,#140,#141,#142,#143,
#144,#145,#146,#147,#148,#149,#150,#151,#152,#153),(#154,#155,#156,#157,
#158,#159,#160,#161,#162,#163,#164,#165,#166,#167,#168),(#169,#170,#171,
#172,#173,#174,#175,#176,#177,#178,#179,#180,#181,#182,#183),(#184,#185,
#186,#187,#188,#189,#190,#191,#192,#193,#194,#195,#196,#197,#198),(#199,
#200,#201,#202,#203,#204,#205,#206,#207,#208,#209,#210,#211,#212,#213),
(#214,#215,#216,#217,#218,#219,#220,#221,#222,#223,#224,#225,#226,#227,
#228),(#229,#230,#231,#232,#233,#234,#235,#236,#237,#238,#239,#240,#241,
#242,#243),(#244,#245,#246,#247,#248,#249,#250,#251,#252,#253,#254,#255,
#256,#257,#258),(#259,#260,#261,#262,#263,#264,#265,#266,#267,#268,#269,
#270,#271,#272,#273),(#274,#275,#276,#277,#278,#279,#280,#281,#282,#283,
#284,#285,#286,#287,#288),(#289,#290,#291,#292,#293,#294,#295,#296,#297,
#298,#299,#300,#301,#302,#303),(#304,#305,#306,#307,#308,#309,#310,#311,
#312,#313,#314,#315,#316,#317,#318),(#319,#320,#321,#322,#323,#324,#325,
#326,#327,#328,#329,#330,#331,#332,#333),(#334,#335,#336,#337,#338,#339,
#340,#341,#342,#343,#344,#345,#346,#347,#348),(#349,#350,#351,#352,#353,
#354,#355,#356,#357,#358,#359,#360,#361,#362,#363),(#364,#365,#366,#367,
#368,#369,#370,#371,#372,#373,#374,#375,#376,#377,#378),(#379,#380,#381,
#382,#383,#384,#385,#386,#387,#388,#389,#390,#391,#392,#393),(#394,#395,
#396,#397,#398,#399,#400,#401,#402,#403,#404,#405,#406,#407,#408)),
 .UNSPECIFIED.,.F.,.F.,.F.,(4,1,1,1,1,1,1,1,1,1,1,1,1,1,1,1,4),(4,1,1,1,
1,1,1,1,1,1,1,1,4),(0.,4.84724434546123,5.7743358620288,6.72188335629985,
7.66038541514353,8.56697398971049,9.44041760920948,10.291645303975,11.1436410418094,
12.0189680256639,12.9367341841819,13.8894307772778,14.8516777406794,15.8379876243804,
16.9614496860833,18.3496580807261,22.5180558194538),(0.,5.87835983985086,
7.40678624253231,8.64661656225957,9.71965475712146,10.6952135772534,11.6277423677059,
12.5679071051181,13.5669811923607,14.6810468556248,15.9815507219505,17.5920061684651,
23.679839614635),.UNSPECIFIED.);
#30=SHAPE_DEFINITION_REPRESENTATION(#31,#116);
#31=PRODUCT_DEFINITION_SHAPE($,$,#33);
#32=PRODUCT_DEFINITION_CONTEXT('3D Mechanical Parts',#105,'design');
#33=PRODUCT_DEFINITION('A','First version',#75,#32);
#34=DATE_TIME_ROLE('classification_date');
#35=DATE_TIME_ROLE('creation_date');
#36=APPLIED_DATE_AND_TIME_ASSIGNMENT(#60,#34,(#39));
#37=APPLIED_DATE_AND_TIME_ASSIGNMENT(#62,#35,(#33));
#38=SECURITY_CLASSIFICATION_LEVEL('unclassified');
#39=SECURITY_CLASSIFICATION('A','Security for version',#38);
#40=APPLIED_SECURITY_CLASSIFICATION_ASSIGNMENT(#39,(#75));
#41=APPROVAL_ROLE('Version approval');
#42=APPROVAL_ROLE('Version Security approval');
#43=APPROVAL_ROLE('Definition approval');
#44=APPROVAL_PERSON_ORGANIZATION(#93,#69,#41);
#45=APPROVAL_PERSON_ORGANIZATION(#94,#70,#42);
#46=APPROVAL_PERSON_ORGANIZATION(#97,#71,#43);
#47=COORDINATED_UNIVERSAL_TIME_OFFSET(5,0,.BEHIND.);
#48=LOCAL_TIME(0,0,0.,#47);
#49=LOCAL_TIME(0,0,0.,#47);
#50=LOCAL_TIME(0,0,0.,#47);
#51=LOCAL_TIME(0,0,0.,#47);
#52=LOCAL_TIME(0,0,0.,#47);
#53=CALENDAR_DATE(1999,1,1);
#54=CALENDAR_DATE(1999,1,1);
#55=CALENDAR_DATE(1999,1,1);
#56=CALENDAR_DATE(1999,1,1);
#57=CALENDAR_DATE(1999,1,1);
#58=DATE_AND_TIME(#53,#48);
#59=DATE_AND_TIME(#54,#49);
#60=DATE_AND_TIME(#55,#50);
#61=DATE_AND_TIME(#56,#51);
#62=DATE_AND_TIME(#57,#52);
#63=APPROVAL_DATE_TIME(#58,#69);
#64=APPROVAL_DATE_TIME(#59,#70);
#65=APPROVAL_DATE_TIME(#61,#71);
#66=APPROVAL_STATUS('not_yet_approved');
#67=APPROVAL_STATUS('not_yet_approved');
#68=APPROVAL_STATUS('approved');
#69=APPROVAL(#66,'Version approval');
#70=APPROVAL(#67,'Version Security approval');
#71=APPROVAL(#68,'Definition approval');
#72=APPLIED_APPROVAL_ASSIGNMENT(#69,(#75));
#73=APPLIED_APPROVAL_ASSIGNMENT(#70,(#39));
#74=APPLIED_APPROVAL_ASSIGNMENT(#71,(#33));
#75=PRODUCT_DEFINITION_FORMATION_WITH_SPECIFIED_SOURCE('A',
'First version',#107,.MADE.);
#76=PERSON_AND_ORGANIZATION_ROLE('design_owner');
#77=PERSON_AND_ORGANIZATION_ROLE('creator');
#78=PERSON_AND_ORGANIZATION_ROLE('design_supplier');
#79=PERSON_AND_ORGANIZATION_ROLE('classification_officer');
#80=PERSON_AND_ORGANIZATION_ROLE('creator');
#81=ORGANIZATION('STI','lab','lab');
#82=ORGANIZATION('STI','unknown','unknown');
#83=ORGANIZATION('STI','unknown','unknown');
#84=ORGANIZATION('STI','unknown','unknown');
#85=ORGANIZATION('STI','unknown','unknown');
#86=ORGANIZATION('STI','unknown','unknown');
#87=ORGANIZATION('STI','unknown','unknown');
#88=PERSON('1','Box','vc60',$,$,$);
#89=PERSON('2','last','first',$,$,$);
#90=PERSON('3','President','Mr.',$,$,$);
#91=PERSON_AND_ORGANIZATION(#88,#81);
#92=PERSON_AND_ORGANIZATION(#89,#82);
#93=PERSON_AND_ORGANIZATION(#90,#83);
#94=PERSON_AND_ORGANIZATION(#90,#84);
#95=PERSON_AND_ORGANIZATION(#90,#85);
#96=PERSON_AND_ORGANIZATION(#89,#86);
#97=PERSON_AND_ORGANIZATION(#90,#87);
#98=APPLIED_PERSON_AND_ORGANIZATION_ASSIGNMENT(#91,#76,(#107));
#99=APPLIED_PERSON_AND_ORGANIZATION_ASSIGNMENT(#92,#77,(#75));
#100=APPLIED_PERSON_AND_ORGANIZATION_ASSIGNMENT(#92,#78,(#75));
#101=APPLIED_PERSON_AND_ORGANIZATION_ASSIGNMENT(#95,#79,(#39));
#102=APPLIED_PERSON_AND_ORGANIZATION_ASSIGNMENT(#96,#80,(#33));
#103=PRODUCT_RELATED_PRODUCT_CATEGORY('detail','detail',(#107));
#104=APPLICATION_PROTOCOL_DEFINITION('International Standard',
'config_control_design',1994,#105);
#105=APPLICATION_CONTEXT(
'configuration controlled 3d designs of mechanical parts and assemblie
s');
#106=PRODUCT_CONTEXT('3D Mechanical Parts',#105,'mechanical');
#107=PRODUCT('Document','Document','',(#106));
#108=(
LENGTH_UNIT()
NAMED_UNIT(*)
SI_UNIT(.MILLI.,.METRE.)
);
#109=(
NAMED_UNIT(*)
PLANE_ANGLE_UNIT()
SI_UNIT($,.RADIAN.)
);
#110=DIMENSIONAL_EXPONENTS(0.,0.,0.,0.,0.,0.,0.);
#111=PLANE_ANGLE_MEASURE_WITH_UNIT(PLANE_ANGLE_MEASURE(0.01745329252),#109);
#112=(
CONVERSION_BASED_UNIT('DEGREES',#111)
NAMED_UNIT(#110)
PLANE_ANGLE_UNIT()
);
#113=(
NAMED_UNIT(*)
SI_UNIT($,.STERADIAN.)
SOLID_ANGLE_UNIT()
);
#114=UNCERTAINTY_MEASURE_WITH_UNIT(LENGTH_MEASURE(0.001),#108,
'DISTANCE_ACCURACY_VALUE',
'Maximum model space distance between geometric entities at asserted c
onnectivities');
#115=(
GEOMETRIC_REPRESENTATION_CONTEXT(3)
GLOBAL_UNCERTAINTY_ASSIGNED_CONTEXT((#114))
GLOBAL_UNIT_ASSIGNED_CONTEXT((#113,#112,#108))
REPRESENTATION_CONTEXT('ID1','3D')
);
#116=SHAPE_REPRESENTATION('Document',(#117,#118),#115);
#117=AXIS2_PLACEMENT_3D($,#123,#119,#120);
#118=AXIS2_PLACEMENT_3D($,#511,#121,#122);
#119=DIRECTION('',(0.,0.,1.));
#120=DIRECTION('',(1.,0.,0.));
#121=DIRECTION('',(0.,0.,1.));
#122=DIRECTION('',(1.,0.,0.));
#123=CARTESIAN_POINT('',(0.,0.,0.));
#124=CARTESIAN_POINT('',(-12.4529439981673,-5.99589314257106,-3.25144768043964));
#125=CARTESIAN_POINT('',(-12.4529441189533,-5.89800613452433,-1.90792878343208));
#126=CARTESIAN_POINT('',(-12.452945774813,-5.24792122043669,-0.302845946044459));
#127=CARTESIAN_POINT('',(-12.4529481121884,-3.60585218323176,1.07757222566082));
#128=CARTESIAN_POINT('',(-12.4529490947176,-2.70805026164797,1.57369892836416));
#129=CARTESIAN_POINT('',(-12.452949790244,-1.81249521285664,1.88499497702625));
#130=CARTESIAN_POINT('',(-12.4529502088547,-0.90855846009781,2.04982296882107));
#131=CARTESIAN_POINT('',(-12.4529503479205,0.00512304090487119,2.08476501181539));
#132=CARTESIAN_POINT('',(-12.4529502051613,0.92449442698735,1.99672332199329));
#133=CARTESIAN_POINT('',(-12.4529497837849,1.84539329133499,1.78618611171324));
#134=CARTESIAN_POINT('',(-12.4529490873847,2.76898103097139,1.44356154826149));
#135=CARTESIAN_POINT('',(-12.4529481073038,3.70582086659675,0.937838172672056));
#136=CARTESIAN_POINT('',(-12.4529458087555,5.42143239222179,-0.389247040201211));
#137=CARTESIAN_POINT('',(-12.4529441601274,6.15371553511632,-1.86489445623808));
#138=CARTESIAN_POINT('',(-12.4529439981673,6.27296066318622,-3.25144768043964));
#139=CARTESIAN_POINT('',(-10.606028197441,-4.55828200860953,-2.08327465808249));
#140=CARTESIAN_POINT('',(-10.6060281619373,-4.48392396210895,-1.148087683285));
#141=CARTESIAN_POINT('',(-10.6060276752145,-3.99291633698281,0.182434143645488));
#142=CARTESIAN_POINT('',(-10.6060269881674,-2.7465760306689,1.46367095131045));
#143=CARTESIAN_POINT('',(-10.6060266993632,-2.06416400291753,1.94647819447528));
#144=CARTESIAN_POINT('',(-10.6060264949205,-1.382520780815,2.26265563114778));
#145=CARTESIAN_POINT('',(-10.6060263718742,-0.693562574602072,2.43941355111255));
#146=CARTESIAN_POINT('',(-10.6060263309973,0.00376025547777063,2.48722258449984));
#147=CARTESIAN_POINT('',(-10.6060263729598,0.70635852043756,2.40995848181612));
#148=CARTESIAN_POINT('',(-10.6060264968191,1.41104279190166,2.20791579658779));
#149=CARTESIAN_POINT('',(-10.6060267015186,2.11868816865185,1.87459458451902));
#150=CARTESIAN_POINT('',(-10.6060269896032,2.83739039349343,1.38708629176687));
#151=CARTESIAN_POINT('',(-10.6060276652376,4.15519435571148,0.143414407554926));
#152=CARTESIAN_POINT('',(-10.6060281498345,4.71988218708485,-1.11190766713084));
#153=CARTESIAN_POINT('',(-10.606028197441,4.81148459345085,-2.08327465808249));
#154=CARTESIAN_POINT('',(-8.16853560005399,-4.58023969829389,-1.56718901066488));
#155=CARTESIAN_POINT('',(-8.16853561650979,-4.5056638289653,-0.457654502636447));
#156=CARTESIAN_POINT('',(-8.16853584210378,-4.0199271699518,0.893070881750493));
#157=CARTESIAN_POINT('',(-8.16853616054724,-2.77238144392555,2.12824747828837));
#158=CARTESIAN_POINT('',(-8.16853629440682,-2.08698567571203,2.59057989397956));
#159=CARTESIAN_POINT('',(-8.16853638916514,-1.40012717097238,2.89702702317635));
#160=CARTESIAN_POINT('',(-8.16853644619658,-0.703674671085531,3.07628610083011));
#161=CARTESIAN_POINT('',(-8.16853646514287,0.00345842325620643,3.13845003949357));
#162=CARTESIAN_POINT('',(-8.1685364456934,0.718152470099791,3.08542847455772));
#163=CARTESIAN_POINT('',(-8.16853638828512,1.43714312806341,2.91413594670001));
#164=CARTESIAN_POINT('',(-8.16853629340778,2.16129106790965,2.61346745824694));
#165=CARTESIAN_POINT('',(-8.16853615988177,2.8988862338576,2.15415559323321));
#166=CARTESIAN_POINT('',(-8.16853584672807,4.25525225824526,0.932178801998083));
#167=CARTESIAN_POINT('',(-8.16853562211939,4.84165232965608,-0.414566904934809));
#168=CARTESIAN_POINT('',(-8.16853560005399,4.93595231901988,-1.56718901066488));
#169=CARTESIAN_POINT('',(-5.77641538897757,-5.14156033747371,-1.88096988518085));
#170=CARTESIAN_POINT('',(-5.77641537775506,-5.0580035884726,-0.26952245047124));
#171=CARTESIAN_POINT('',(-5.77641522390472,-4.52136630391748,1.70154347916335));
#172=CARTESIAN_POINT('',(-5.77641500673299,-3.12635185943071,3.53854744480719));
#173=CARTESIAN_POINT('',(-5.77641491544358,-2.35730191743596,4.23447663447408));
#174=CARTESIAN_POINT('',(-5.77641485082041,-1.58408450064163,4.70297226619745));
#175=CARTESIAN_POINT('',(-5.77641481192617,-0.797562207095158,4.98419183821459));
#176=CARTESIAN_POINT('',(-5.77641479900519,0.00352077391606762,5.09098523540619));
#177=CARTESIAN_POINT('',(-5.77641481226932,0.815644886007005,5.02421899854662));
#178=CARTESIAN_POINT('',(-5.77641485142056,1.63507845276708,4.77764375712863));
#179=CARTESIAN_POINT('',(-5.77641491612491,2.46276655829264,4.33351391139769));
#180=CARTESIAN_POINT('',(-5.77641500718682,3.30819045713231,3.64748972084718));
#181=CARTESIAN_POINT('',(-5.77641522075107,4.86717960470805,1.81400989973673));
#182=CARTESIAN_POINT('',(-5.7764153739294,5.54690264277075,-0.203216995992674));
#183=CARTESIAN_POINT('',(-5.77641538897757,5.65530864104061,-1.88096988518085));
#184=CARTESIAN_POINT('',(-4.81088643577597,-5.42038392721733,-2.05673774528236));
#185=CARTESIAN_POINT('',(-4.81088636734775,-5.33235352426228,-0.228360830546213));
#186=CARTESIAN_POINT('',(-4.81088542925944,-4.76974696855965,2.03571215273787));
#187=CARTESIAN_POINT('',(-4.81088410507488,-3.30104995290589,4.16688144055451));
#188=CARTESIAN_POINT('',(-4.81088354844612,-2.49041940759192,4.97769816809899));
#189=CARTESIAN_POINT('',(-4.81088315441229,-1.67447853012062,5.52565325136675));
#190=CARTESIAN_POINT('',(-4.81088291725827,-0.843590904746369,5.85609390850979));
#191=CARTESIAN_POINT('',(-4.81088283847381,0.00358046724785735,5.9831389404464));
#192=CARTESIAN_POINT('',(-4.81088291935059,0.863318778770412,5.90731009565346));
#193=CARTESIAN_POINT('',(-4.81088315807171,1.73166556091568,5.6211881859401));
#194=CARTESIAN_POINT('',(-4.81088355260043,2.6096095018849,5.10436481370852));
#195=CARTESIAN_POINT('',(-4.81088410784209,3.50720968038428,4.3060354985514));
#196=CARTESIAN_POINT('',(-4.81088541003033,5.16395546770632,2.17605995320459));
#197=CARTESIAN_POINT('',(-4.81088634402122,5.88832967292812,-0.151690821675495));
#198=CARTESIAN_POINT('',(-4.81088643577597,6.00353996475791,-2.05673774528236));
#199=CARTESIAN_POINT('',(-3.83538563963675,-5.73102479070399,-2.22558434977186));
#200=CARTESIAN_POINT('',(-3.83538491270164,-5.63800320256911,-0.195594548408635));
#201=CARTESIAN_POINT('',(-3.83537494708592,-5.04608145156856,2.34613010146164));
#202=CARTESIAN_POINT('',(-3.83536087984462,-3.49505340549216,4.75782312197227));
#203=CARTESIAN_POINT('',(-3.83535496659706,-2.63808218490918,5.67829315707474));
#204=CARTESIAN_POINT('',(-3.83535078064821,-1.77463932592591,6.30200628772974));
#205=CARTESIAN_POINT('',(-3.83534826128426,-0.894532882460294,6.67919254864553));
#206=CARTESIAN_POINT('',(-3.83534742433143,0.00366299871305643,6.82517673537948));
#207=CARTESIAN_POINT('',(-3.83534828351163,0.916012531030463,6.74019356938038));
#208=CARTESIAN_POINT('',(-3.8353508195233,1.83830755609373,6.41578911249592));
#209=CARTESIAN_POINT('',(-3.83535501072972,2.77158627585276,5.82913391115268));
#210=CARTESIAN_POINT('',(-3.83536090924163,3.72654375588378,4.92343600432445));
#211=CARTESIAN_POINT('',(-3.83537474280876,5.49058781112213,2.51125736001774));
#212=CARTESIAN_POINT('',(-3.83538466489639,6.26375711169179,-0.1092409752331));
#213=CARTESIAN_POINT('',(-3.83538563963675,6.38643513104761,-2.22558434977186));
#214=CARTESIAN_POINT('',(-2.83523714657381,-6.07312213518013,-2.36912473806841));
#215=CARTESIAN_POINT('',(-2.83523260714582,-5.97459610403751,-0.169175095154392));
#216=CARTESIAN_POINT('',(-2.83517037573765,-5.34996439551418,2.59991597333526));
#217=CARTESIAN_POINT('',(-2.83508253126741,-3.7080004000792,5.23823953584718));
#218=CARTESIAN_POINT('',(-2.83504560532807,-2.79997896013957,6.2469623292315));
#219=CARTESIAN_POINT('',(-2.83501946569971,-1.88433173764631,6.93155087787202));
#220=CARTESIAN_POINT('',(-2.83500373324823,-0.9502554774273,7.34632465392491));
#221=CARTESIAN_POINT('',(-2.83499850680216,0.00377174526479966,7.5076463453275));
#222=CARTESIAN_POINT('',(-2.83500387204951,0.973573858986481,7.41552472008794));
#223=CARTESIAN_POINT('',(-2.83501970845961,1.95467105521959,7.06062252932724));
#224=CARTESIAN_POINT('',(-2.83504588091938,2.94815710416183,6.41805237829426));
#225=CARTESIAN_POINT('',(-2.83508271484038,3.96541879767197,5.42600385795694));
#226=CARTESIAN_POINT('',(-2.83516910010594,5.84582846438356,2.78565480651762));
#227=CARTESIAN_POINT('',(-2.83523105969808,6.67167396851807,-0.0748293395860485));
#228=CARTESIAN_POINT('',(-2.83523714657381,6.80244998501351,-2.36912473806841));
#229=CARTESIAN_POINT('',(-1.81595581560069,-6.39831693878136,-2.51599767986471));
#230=CARTESIAN_POINT('',(-1.81592799389489,-6.29455331655259,-0.178098823448497));
#231=CARTESIAN_POINT('',(-1.81554658374079,-5.63854955266733,2.76856801069949));
#232=CARTESIAN_POINT('',(-1.81500819365908,-3.90996778040903,5.58007125460856));
#233=CARTESIAN_POINT('',(-1.81478187822399,-2.95340738028683,6.65574357061252));
#234=CARTESIAN_POINT('',(-1.81462167102357,-1.98820552662763,7.38629480225947));
#235=CARTESIAN_POINT('',(-1.8145252483823,-1.00297816984021,7.8293629843137));
#236=CARTESIAN_POINT('',(-1.81449321601061,0.00388677708475758,8.00220640103509));
#237=CARTESIAN_POINT('',(-1.81452609908169,1.0279853973752,7.90470001880554));
#238=CARTESIAN_POINT('',(-1.81462315887501,2.06458182410967,7.52680934942012));
#239=CARTESIAN_POINT('',(-1.8147835672959,3.11482332952186,6.84198765802064));
#240=CARTESIAN_POINT('',(-1.81500931875962,4.19074859919637,5.78441280826782));
#241=CARTESIAN_POINT('',(-1.81553876552003,6.18060059270487,2.96978145795934));
#242=CARTESIAN_POINT('',(-1.81591850974059,7.05582760516563,-0.077505180286388));
#243=CARTESIAN_POINT('',(-1.81595581560069,7.19421929167118,-2.51599767986471));
#244=CARTESIAN_POINT('',(-0.800292258930565,-6.82084995283688,-2.70555201894662));
#245=CARTESIAN_POINT('',(-0.80016744160748,-6.71025916675545,-0.24949596644204));
#246=CARTESIAN_POINT('',(-0.798456310206063,-6.01230471108715,2.84730841335603));
#247=CARTESIAN_POINT('',(-0.796040915216888,-4.17043182359175,5.80255036924448));
#248=CARTESIAN_POINT('',(-0.795025589737325,-3.1507564188293,6.93325680377626));
#249=CARTESIAN_POINT('',(-0.794306847542294,-2.12146770179857,7.70117985139542));
#250=CARTESIAN_POINT('',(-0.793874263859067,-1.0704283106029,8.16688284738798));
#251=CARTESIAN_POINT('',(-0.793730556103809,0.00408602718174856,8.3485009461881));
#252=CARTESIAN_POINT('',(-0.793878080376308,1.09737777331845,8.24590889428698));
#253=CARTESIAN_POINT('',(-0.794313522533211,2.20438762480204,7.84857558653956));
#254=CARTESIAN_POINT('',(-0.795033167469483,3.32633527138094,7.128623553645));
#255=CARTESIAN_POINT('',(-0.796045962787984,4.47608226785736,6.01690734643787));
#256=CARTESIAN_POINT('',(-0.798421235096231,6.60312234959096,3.05847729929122));
#257=CARTESIAN_POINT('',(-0.800124892571869,7.53955652956066,-0.143803996025844));
#258=CARTESIAN_POINT('',(-0.800292258930565,7.68749232363658,-2.70555201894662));
#259=CARTESIAN_POINT('',(0.259049494204144,-6.87323779481681,-2.94094712913636));
#260=CARTESIAN_POINT('',(0.259518607783673,-6.76180628833219,-0.377066705969801));
#261=CARTESIAN_POINT('',(0.2659497261326,-6.05896320817958,2.85804143901745));
#262=CARTESIAN_POINT('',(0.275027749609893,-4.20324035120756,5.9439376623871));
#263=CARTESIAN_POINT('',(0.278843750132326,-3.17575204578864,7.12413553055033));
#264=CARTESIAN_POINT('',(0.281545071675946,-2.13843841675279,7.92514360375997));
#265=CARTESIAN_POINT('',(0.283170894719314,-1.07906835345207,8.41032848676264));
#266=CARTESIAN_POINT('',(0.283711006122186,0.00409763205288937,8.59876919211758));
#267=CARTESIAN_POINT('',(0.283156550716253,1.10632495925863,8.4904946344252));
#268=CARTESIAN_POINT('',(0.281519984381931,2.22251178581185,8.0746726130383));
#269=CARTESIAN_POINT('',(0.278815269974526,3.35388601686244,7.32235341970994));
#270=CARTESIAN_POINT('',(0.275008778812519,4.51341758514687,6.16150553922831));
#271=CARTESIAN_POINT('',(0.266081552468237,6.65878586593862,3.07371687693819));
#272=CARTESIAN_POINT('',(0.25967852413107,7.60358640142623,-0.266981592738605));
#273=CARTESIAN_POINT('',(0.259049494204144,7.75279790191479,-2.94094712913636));
#274=CARTESIAN_POINT('',(1.33064036747329,-6.8607818475098,-3.12805146388742));
#275=CARTESIAN_POINT('',(1.33199481053726,-6.74954309973645,-0.479184761749557));
#276=CARTESIAN_POINT('',(1.35056298681983,-6.04747423578211,2.86760555644789));
#277=CARTESIAN_POINT('',(1.37677341105373,-4.19480052094285,6.05825098173363));
#278=CARTESIAN_POINT('',(1.38779111692549,-3.16915441652892,7.27770064199381));
#279=CARTESIAN_POINT('',(1.395590478078,-2.13384700745446,8.10443804624614));
#280=CARTESIAN_POINT('',(1.4002846179205,-1.07666990663133,8.60416581377031));
#281=CARTESIAN_POINT('',(1.40184404867525,0.00411113463393275,8.79684438211629));
#282=CARTESIAN_POINT('',(1.40024320335417,1.10377113463472,8.68278529108908));
#283=CARTESIAN_POINT('',(1.39551804506209,2.21722139204024,8.25109512634863));
#284=CARTESIAN_POINT('',(1.38770888790063,3.34568880625925,7.4721560522294));
#285=CARTESIAN_POINT('',(1.376718637826,4.50210965316167,6.27184412603236));
#286=CARTESIAN_POINT('',(1.35094360096904,6.64148280985517,3.08184714019161));
#287=CARTESIAN_POINT('',(1.33245652726642,7.58332882056504,-0.365892528681785));
#288=CARTESIAN_POINT('',(1.33064036747329,7.73212232220249,-3.12805146388742));
#289=CARTESIAN_POINT('',(2.4306454194473,-6.87205571375885,-3.16004429477085));
#290=CARTESIAN_POINT('',(2.43366607797695,-6.76060930760065,-0.515363147597821));
#291=CARTESIAN_POINT('',(2.47507654517207,-6.0560339675894,2.83412332774003));
#292=CARTESIAN_POINT('',(2.53353063869155,-4.19946581629228,6.03221095853261));
#293=CARTESIAN_POINT('',(2.55810216045139,-3.17208056758178,7.25469698568568));
#294=CARTESIAN_POINT('',(2.57549617827167,-2.13541412991791,8.08307842884378));
#295=CARTESIAN_POINT('',(2.58596497827653,-1.07723956586621,8.58295551825316));
#296=CARTESIAN_POINT('',(2.58944279726801,0.0041745711135264,8.77432118313096));
#297=CARTESIAN_POINT('',(2.58587261613421,1.1040982937773,8.65767825019141));
#298=CARTESIAN_POINT('',(2.57533463925009,2.21744508848641,8.22248226264061));
#299=CARTESIAN_POINT('',(2.55791877451814,3.34544717356776,7.4395860859509));
#300=CARTESIAN_POINT('',(2.53340848426371,4.50103458669387,6.23546114386554));
#301=CARTESIAN_POINT('',(2.47592538511735,6.63821625458634,3.04051718089522));
#302=CARTESIAN_POINT('',(2.43469579167503,7.57824533991081,-0.402560435430722));
#303=CARTESIAN_POINT('',(2.4306454194473,7.72688361809055,-3.16004429477085));
#304=CARTESIAN_POINT('',(3.5452982711668,-6.89221237831103,-2.95207643436972));
#305=CARTESIAN_POINT('',(3.55058058928553,-6.78039976389343,-0.363589305611224));
#306=CARTESIAN_POINT('',(3.62299634201726,-6.07161868699419,2.93630014001198));
#307=CARTESIAN_POINT('',(3.72521680629065,-4.2082608205425,6.1123130870928));
#308=CARTESIAN_POINT('',(3.76818577922253,-3.17777709196965,7.32935443473645));
#309=CARTESIAN_POINT('',(3.79860323110853,-2.13861110919491,8.15477472049463));
#310=CARTESIAN_POINT('',(3.81691034242358,-1.07850246060076,8.65214925143457));
#311=CARTESIAN_POINT('',(3.82299211104855,0.00427644186099545,8.8406418951262));
#312=CARTESIAN_POINT('',(3.81674882591548,1.10498609944154,8.7207894582498));
#313=CARTESIAN_POINT('',(3.79832074287219,2.21854176055227,8.28286114278906));
#314=CARTESIAN_POINT('',(3.7678650866224,3.34618448036004,7.49932353837511));
#315=CARTESIAN_POINT('',(3.72500319110008,4.50083874505409,6.29942304583593));
#316=CARTESIAN_POINT('',(3.62448073443661,6.63526494989179,3.12994344530348));
#317=CARTESIAN_POINT('',(3.55238128117806,7.57273102844492,-0.253293474493863));
#318=CARTESIAN_POINT('',(3.5452982711668,7.72117321994346,-2.95207643436972));
#319=CARTESIAN_POINT('',(4.6680339600845,-6.87805869858283,-2.40615751865294));
#320=CARTESIAN_POINT('',(4.6755041201702,-6.76642406339383,-0.0396610853085552));
#321=CARTESIAN_POINT('',(4.77791318631757,-6.0562894170843,3.01533273522538));
#322=CARTESIAN_POINT('',(4.92247154402977,-4.19499295235643,6.01238949983943));
#323=CARTESIAN_POINT('',(4.98323749929873,-3.16651375066641,7.16857949984934));
#324=CARTESIAN_POINT('',(5.0262533173317,-2.13019239747483,7.955869055337));
#325=CARTESIAN_POINT('',(5.05214290768887,-1.07379679618495,8.43061937916319));
#326=CARTESIAN_POINT('',(5.06074363642417,0.00438535733560272,8.60904833713134));
#327=CARTESIAN_POINT('',(5.05191449392339,1.09963002569703,8.4912428752109));
#328=CARTESIAN_POINT('',(5.02585382750539,2.20688480542373,8.06903542807136));
#329=CARTESIAN_POINT('',(4.98278398154244,3.32739506139341,7.31885638076828));
#330=CARTESIAN_POINT('',(4.92216945323659,4.47400164416843,6.17808076811305));
#331=CARTESIAN_POINT('',(4.78001238760633,6.59219415010134,3.18975005293072));
#332=CARTESIAN_POINT('',(4.6780506265335,7.52074851075713,0.0617244544584594));
#333=CARTESIAN_POINT('',(4.6680339600845,7.66805583743178,-2.40615751865294));
#334=CARTESIAN_POINT('',(5.87116754218763,-7.03073632098811,-1.6855867171124));
#335=CARTESIAN_POINT('',(5.87941584765066,-6.91654773945594,0.351502892620267));
#336=CARTESIAN_POINT('',(5.99249257560285,-6.1865203031351,3.01550177851098));
#337=CARTESIAN_POINT('',(6.15210916721113,-4.28131243302767,5.67765308213329));
#338=CARTESIAN_POINT('',(6.21920493959923,-3.22983915354154,6.71103198047586));
#339=CARTESIAN_POINT('',(6.26670159332669,-2.17155838387598,7.41715757060808));
#340=CARTESIAN_POINT('',(6.29528802884204,-1.09397111394521,7.84305071507597));
#341=CARTESIAN_POINT('',(6.3047846710826,0.00465571756598271,8.00158153703489));
#342=CARTESIAN_POINT('',(6.29503582186281,1.11950163092735,7.89252785794899));
#343=CARTESIAN_POINT('',(6.26626048977884,2.24543427258611,7.50955665964743));
#344=CARTESIAN_POINT('',(6.21870418018526,3.38373673345733,6.83384043556261));
#345=CARTESIAN_POINT('',(6.15177560847729,4.5474509740777,5.81333459470403));
#346=CARTESIAN_POINT('',(5.99481044473277,6.69524244726245,3.16162684478578));
#347=CARTESIAN_POINT('',(5.88222761635536,7.63413842249212,0.439167694533289));
#348=CARTESIAN_POINT('',(5.87116754218763,7.7834955057681,-1.6855867171124));
#349=CARTESIAN_POINT('',(7.13467698871321,-6.43651476647353,-1.73145006680129));
#350=CARTESIAN_POINT('',(7.1389548991843,-6.33189226159033,0.079759496193775));
#351=CARTESIAN_POINT('',(7.19760114121664,-5.6589475619281,2.43590931351094));
#352=CARTESIAN_POINT('',(7.28038487075468,-3.91186197694772,4.75387772311212));
#353=CARTESIAN_POINT('',(7.31518349800612,-2.9490732596206,5.64762680054618));
#354=CARTESIAN_POINT('',(7.33981721619617,-1.98140402421034,6.25464734413104));
#355=CARTESIAN_POINT('',(7.35464331743237,-0.997416805050048,6.61828687871234));
#356=CARTESIAN_POINT('',(7.35956866670114,0.00445569338826758,6.75129128400875));
#357=CARTESIAN_POINT('',(7.3545125125195,1.01980982333437,6.65431454350383));
#358=CARTESIAN_POINT('',(7.3395884417534,2.04398301437467,6.32195387787864));
#359=CARTESIAN_POINT('',(7.31492378357748,3.07816118696314,5.73717517668301));
#360=CARTESIAN_POINT('',(7.28021187347583,4.13419017619182,4.8531522534724));
#361=CARTESIAN_POINT('',(7.19880328348283,6.08097593111827,2.54856660655654));
#362=CARTESIAN_POINT('',(7.14041319808434,6.92903437027564,0.15641658599841));
#363=CARTESIAN_POINT('',(7.13467698871321,7.06440377335874,-1.73145006680129));
#364=CARTESIAN_POINT('',(8.96240078067524,-5.74633743698431,-2.99895099470269));
#365=CARTESIAN_POINT('',(8.95646657337777,-5.65282405536292,-1.45903915814746));
#366=CARTESIAN_POINT('',(8.87511401591156,-5.04608754573054,0.514911073282464));
#367=CARTESIAN_POINT('',(8.76027855704613,-3.48260003582403,2.37914810985689));
#368=CARTESIAN_POINT('',(8.71200679699613,-2.62281312428821,3.08521609564613));
#369=CARTESIAN_POINT('',(8.677835537164,-1.76041086987796,3.55714398042711));
#370=CARTESIAN_POINT('',(8.65726915113449,-0.885188874249365,3.83495610863717));
#371=CARTESIAN_POINT('',(8.65043683340119,0.00422723839863302,3.93214124415068));
#372=CARTESIAN_POINT('',(8.65745060034286,0.903918151223377,3.85092035030153));
#373=CARTESIAN_POINT('',(8.67815288718266,1.80976765840779,3.5870177683631));
#374=CARTESIAN_POINT('',(8.71236706616682,2.72284904418691,3.12515182162318));
#375=CARTESIAN_POINT('',(8.7605185344186,3.65361698909039,2.42415501859489));
#376=CARTESIAN_POINT('',(8.87344643510157,5.36654873187811,0.578589132025216));
#377=CARTESIAN_POINT('',(8.95444365867839,6.10887136723304,-1.39637158614964));
#378=CARTESIAN_POINT('',(8.96240078067524,6.22796705110454,-2.99895099470269));
#379=CARTESIAN_POINT('',(9.29028606825081,-5.52246674806757,-5.2471636276071));
#380=CARTESIAN_POINT('',(9.28297228586023,-5.43257085833602,-3.79864658380277));
#381=CARTESIAN_POINT('',(9.1827070149634,-4.84807497514233,-1.93194521866859));
#382=CARTESIAN_POINT('',(9.04117479089712,-3.34462123024819,-0.162915329610801));
#383=CARTESIAN_POINT('',(8.98168088869148,-2.51827509695379,0.5073743164249));
#384=CARTESIAN_POINT('',(8.939565548613,-1.68982447513552,0.954924705425942));
#385=CARTESIAN_POINT('',(8.91421792180394,-0.849464078435543,1.21738921026368));
#386=CARTESIAN_POINT('',(8.9057972376888,0.00412108777096256,1.30753797270671));
#387=CARTESIAN_POINT('',(8.91444155403626,0.867167247793955,1.22770015825006));
#388=CARTESIAN_POINT('',(8.93995667566028,1.73572945366143,0.974266846971234));
#389=CARTESIAN_POINT('',(8.98212491266709,2.61084258672291,0.533389999839557));
#390=CARTESIAN_POINT('',(9.04147055782825,3.50252562896166,-0.133060763721399));
#391=CARTESIAN_POINT('',(9.18065175761362,5.1428295928703,-1.88141595364552));
#392=CARTESIAN_POINT('',(9.28047908716243,5.85275737551706,-3.740086850701));
#393=CARTESIAN_POINT('',(9.29028606825081,5.96680040832879,-5.2471636276071));
#394=CARTESIAN_POINT('',(11.5858726703203,-5.44224136669064,-1.28326945699755));
#395=CARTESIAN_POINT('',(11.5889570939912,-5.35337339953681,-1.1378229265419));
#396=CARTESIAN_POINT('',(11.6312417229873,-4.76224471828366,-0.921830944211417));
#397=CARTESIAN_POINT('',(11.690929763842,-3.27112849502586,-0.767753964054388));
#398=CARTESIAN_POINT('',(11.7160199826165,-2.45618566308216,-0.72267358393998));
#399=CARTESIAN_POINT('',(11.7337811826245,-1.64359591626446,-0.704621554552625));
#400=CARTESIAN_POINT('',(11.7444709756701,-0.823713301491333,-0.706247857040428));
#401=CARTESIAN_POINT('',(11.7480222103151,0.00469488686743792,-0.722800465832305));
#402=CARTESIAN_POINT('',(11.7443766637924,0.837950390944329,-0.750701031921923));
#403=CARTESIAN_POINT('',(11.7336162335655,1.6722835112172,-0.787402857610446));
#404=CARTESIAN_POINT('',(11.7158327254645,2.5087510193973,-0.831932176438713));
#405=CARTESIAN_POINT('',(11.690805030773,3.35691896362279,-0.885959710981409));
#406=CARTESIAN_POINT('',(11.632108481674,4.90959270458953,-1.01056912951725));
#407=CARTESIAN_POINT('',(11.5900085446182,5.57159264976882,-1.13714649713093));
#408=CARTESIAN_POINT('',(11.5858726703203,5.67951021821121,-1.28326945699755));
#409=CARTESIAN_POINT('',(-6.7833305334924,-2.32505117231,3.48383142830368));
#410=CARTESIAN_POINT('',(8.57758221580953,1.11998084417753E-16,3.48383142830369));
#411=CARTESIAN_POINT('',(-8.10400830769447,5.22151766269019E-16,3.48383142830368));
#412=CARTESIAN_POINT('',(-6.7833305334924,-2.32505117231,3.48383142830368));
#413=CARTESIAN_POINT('',(-6.51567333684738,-2.5756098509077,3.48383142830368));
#414=CARTESIAN_POINT('',(-6.23214221041792,-2.80910494906326,3.48383142830368));
#415=CARTESIAN_POINT('',(-5.93730326915038,-3.02689793242687,3.48383142830368));
#416=CARTESIAN_POINT('',(-5.88834593473941,-3.06306196107605,3.48383142830368));
#417=CARTESIAN_POINT('',(-5.83906589807235,-3.09880152665483,3.48383142830368));
#418=CARTESIAN_POINT('',(-5.78949412066862,-3.134112716421,3.48383142830368));
#419=CARTESIAN_POINT('',(-5.47172668493123,-3.36046623474352,3.48383142830368));
#420=CARTESIAN_POINT('',(-5.14428797392535,-3.56752677385407,3.48383142830368));
#421=CARTESIAN_POINT('',(-4.80487765110875,-3.75982309275491,3.48383142830368));
#422=CARTESIAN_POINT('',(-4.51943457164471,-3.92154372924338,3.48383142830368));
#423=CARTESIAN_POINT('',(-4.22609118150214,-4.07245630441571,3.48383142830368));
#424=CARTESIAN_POINT('',(-3.93011027689422,-4.21387497546347,3.48383142830368));
#425=CARTESIAN_POINT('',(-3.89191989281606,-4.23212221127853,3.48383142830368));
#426=CARTESIAN_POINT('',(-3.85365891499859,-4.25022393892422,3.48383142830368));
#427=CARTESIAN_POINT('',(-3.81533315525085,-4.26818403814026,3.48383142830368));
#428=CARTESIAN_POINT('',(-3.48835773850448,-4.42141024851735,3.48383142830368));
#429=CARTESIAN_POINT('',(-3.15036220592194,-4.56732758769836,3.48383142830368));
#430=CARTESIAN_POINT('',(-2.81387588198917,-4.69841507158494,3.48383142830368));
#431=CARTESIAN_POINT('',(-2.48701110475231,-4.82575421784898,3.48383142830368));
#432=CARTESIAN_POINT('',(-2.13295468579254,-4.94984967836689,3.48383142830368));
#433=CARTESIAN_POINT('',(-1.80350443456232,-5.07016175699726,3.48383142830368));
#434=CARTESIAN_POINT('',(-1.47421460126043,-5.19041525253553,3.48383142830368));
#435=CARTESIAN_POINT('',(-1.1343330841594,-5.31971029927344,3.48383142830368));
#436=CARTESIAN_POINT('',(-0.790224036459084,-5.39352709379074,3.48383142830368));
#437=CARTESIAN_POINT('',(-0.445535512692223,-5.46746819502425,3.48383142830368));
#438=CARTESIAN_POINT('',(-0.0931331000413023,-5.48683252963542,3.48383142830368));
#439=CARTESIAN_POINT('',(0.257853400826643,-5.49695145676859,3.48383142830368));
#440=CARTESIAN_POINT('',(0.619262739145391,-5.50737087389902,3.48383142830368));
#441=CARTESIAN_POINT('',(0.97837763362131,-5.50794055359242,3.48383142830368));
#442=CARTESIAN_POINT('',(1.33989281005498,-5.50741054832207,3.48383142830368));
#443=CARTESIAN_POINT('',(1.71676995908077,-5.50685802137914,3.48383142830368));
#444=CARTESIAN_POINT('',(2.09670955616797,-5.50511527018909,3.48383142830368));
#445=CARTESIAN_POINT('',(2.47354475440777,-5.51302831380635,3.48383142830368));
#446=CARTESIAN_POINT('',(2.86207900868884,-5.52118702221599,3.48383142830368));
#447=CARTESIAN_POINT('',(3.25040007007536,-5.53970912204174,3.48383142830368));
#448=CARTESIAN_POINT('',(3.63885112061657,-5.55073692376241,3.48383142830368));
#449=CARTESIAN_POINT('',(4.0248665412877,-5.5616955799801,3.48383142830368));
#450=CARTESIAN_POINT('',(4.41114824173652,-5.56520087699825,3.48383142830368));
#451=CARTESIAN_POINT('',(4.79692968811583,-5.58258862948943,3.48383142830368));
#452=CARTESIAN_POINT('',(5.17104453961326,-5.59945055092749,3.48383142830368));
#453=CARTESIAN_POINT('',(5.5807460487532,-5.63390884292125,3.48383142830368));
#454=CARTESIAN_POINT('',(5.9510296845601,-5.54195482225861,3.48383142830368));
#455=CARTESIAN_POINT('',(6.37934178141212,-5.43559036108505,3.48383142830368));
#456=CARTESIAN_POINT('',(6.7770283179712,-5.15828367806727,3.48383142830368));
#457=CARTESIAN_POINT('',(7.09913441661797,-4.8703583835151,3.48383142830368));
#458=CARTESIAN_POINT('',(7.13831012808725,-4.83533986535766,3.48383142830368));
#459=CARTESIAN_POINT('',(7.17689858672427,-4.7996781361198,3.48383142830368));
#460=CARTESIAN_POINT('',(7.21483742844996,-4.76332259271586,3.48383142830368));
#461=CARTESIAN_POINT('',(7.57105114587372,-4.42197471081385,3.48383142830368));
#462=CARTESIAN_POINT('',(7.83691192975608,-4.05168407119622,3.48383142830368));
#463=CARTESIAN_POINT('',(8.03166189560635,-3.59723371067894,3.48383142830368));
#464=CARTESIAN_POINT('',(8.04953587893078,-3.55552464988295,3.48383142830368));
#465=CARTESIAN_POINT('',(8.06664010560366,-3.51351390733355,3.48383142830369));
#466=CARTESIAN_POINT('',(8.08302608195778,-3.47119842692996,3.48383142830369));
#467=CARTESIAN_POINT('',(8.18592062989634,-3.2054814423063,3.48383142830369));
#468=CARTESIAN_POINT('',(8.26272677038109,-2.92153374140003,3.48383142830369));
#469=CARTESIAN_POINT('',(8.32258119025771,-2.64336202238363,3.48383142830369));
#470=CARTESIAN_POINT('',(8.38542882371275,-2.35127942814346,3.48383142830369));
#471=CARTESIAN_POINT('',(8.43395712683784,-2.04456005794647,3.48383142830369));
#472=CARTESIAN_POINT('',(8.47053436043027,-1.7481357802763,3.48383142830369));
#473=CARTESIAN_POINT('',(8.50620265168144,-1.45907763039903,3.48383142830369));
#474=CARTESIAN_POINT('',(8.53260660023257,-1.16299906123709,3.48383142830369));
#475=CARTESIAN_POINT('',(8.55006652514642,-0.872287484849403,3.48383142830369));
#476=CARTESIAN_POINT('',(8.56743259354352,-0.583138640035512,3.48383142830369));
#477=CARTESIAN_POINT('',(8.57655846533457,-0.2896848128632,3.48383142830369));
#478=CARTESIAN_POINT('',(8.57758221580953,1.11998084417753E-16,3.48383142830369));
#479=CARTESIAN_POINT('',(8.57758221580953,1.11998084417753E-16,3.48383142830369));
#480=CARTESIAN_POINT('',(8.39592027309073,-2.1883850329876E-17,4.01849178739058));
#481=CARTESIAN_POINT('',(8.07352851445625,2.0894069246635E-17,5.16013264163822));
#482=CARTESIAN_POINT('',(7.35793491292396,-1.38777878078145E-16,6.71351944650484));
#483=CARTESIAN_POINT('',(6.30163460511076,1.11022302462516E-16,7.95760880136221));
#484=CARTESIAN_POINT('',(5.05789074776775,-5.55111512312578E-17,8.56034817977695));
#485=CARTESIAN_POINT('',(3.82097476934936,2.77555756156289E-17,8.78993248401998));
#486=CARTESIAN_POINT('',(2.58828919381704,-2.77555756156289E-17,8.72364677079791));
#487=CARTESIAN_POINT('',(1.40132678061023,2.77555756156289E-17,8.74636517861961));
#488=CARTESIAN_POINT('',(0.283531849478386,0.,8.5499257608169));
#489=CARTESIAN_POINT('',(-0.793778224416278,2.77555756156289E-17,8.30170863529176));
#490=CARTESIAN_POINT('',(-1.81450384124861,0.,7.95769551133749));
#491=CARTESIAN_POINT('',(-2.83500024043069,-2.77555756156289E-17,7.46592367925048));
#492=CARTESIAN_POINT('',(-3.83534770195131,0.,6.78716094737512));
#493=CARTESIAN_POINT('',(-4.81088286460686,2.77555756156289E-17,5.94975497539871));
#494=CARTESIAN_POINT('',(-5.77641480329113,2.77555756156289E-17,5.0624375970254));
#495=CARTESIAN_POINT('',(-6.85798737919383,-3.81911487327632E-17,4.18398666609115));
#496=CARTESIAN_POINT('',(-7.65255518583401,6.56970391988007E-18,3.71276475810887));
#497=CARTESIAN_POINT('',(-8.10400830769447,5.22151766269019E-16,3.48383142830368));
#498=CARTESIAN_POINT('',(-8.10400830769447,5.22151766269019E-16,3.48383142830368));
#499=CARTESIAN_POINT('',(-8.10067409815302,-0.244910417694654,3.48383142830368));
#500=CARTESIAN_POINT('',(-8.05318406336374,-0.483401201673295,3.48383142830368));
#501=CARTESIAN_POINT('',(-7.96934807418405,-0.713138526429524,3.48383142830368));
#502=CARTESIAN_POINT('',(-7.8758896894755,-0.969244281118716,3.48383142830368));
#503=CARTESIAN_POINT('',(-7.73866911920902,-1.21049101950308,3.48383142830368));
#504=CARTESIAN_POINT('',(-7.58177327477044,-1.43241410270856,3.48383142830368));
#505=CARTESIAN_POINT('',(-7.39244733340789,-1.7002082994784,3.48383142830368));
#506=CARTESIAN_POINT('',(-7.16482649841037,-1.95321966497594,3.48383142830368));
#507=CARTESIAN_POINT('',(-6.93149774716491,-2.18288591342792,3.48383142830368));
#508=CARTESIAN_POINT('',(-6.88273365072496,-2.23088457209615,3.48383142830368));
#509=CARTESIAN_POINT('',(-6.83328235421575,-2.27829038145186,3.48383142830368));
#510=CARTESIAN_POINT('',(-6.7833305334924,-2.32505117231,3.48383142830368));
#511=CARTESIAN_POINT('',(0.,0.,0.));
ENDSEC;
END-ISO-10303-21;
