ISO-10303-21;
HEADER;
/* Generated by software containing ST-Developer
 * from STEP Tools, Inc. (www.steptools.com) 
 */
/* OPTION: using custom schema-name function */

FILE_DESCRIPTION(
/* description */ (''),
/* implementation_level */ '2;1');

FILE_NAME(
/* name */ 'Rib_NACA2412',
/* time_stamp */ '2026-09-17T15:17:19+01:00',
/* author */ (''),
/* organization */ (''),
/* preprocessor_version */ 'ST-DEVELOPER v19.2',
/* originating_system */ 'Rhino 8.35',
/* authorisation */ '');

FILE_SCHEMA (('CONFIG_CONTROL_DESIGN'));
ENDSEC;

DATA;
#10=SHAPE_REPRESENTATION_RELATIONSHIP('','',#108,#12);
#11=SHELL_BASED_SURFACE_MODEL('shell_1',(#13));
#12=MANIFOLD_SURFACE_SHAPE_REPRESENTATION('shell_rep_0',(#11,#111),#107);
#13=OPEN_SHELL('',(#14));
#14=ADVANCED_FACE('',(#15),#21,.T.);
#15=FACE_OUTER_BOUND('',#16,.T.);
#16=EDGE_LOOP('',(#17));
#17=ORIENTED_EDGE('',*,*,#18,.T.);
#18=EDGE_CURVE('',#20,#20,#19,.T.);
#19=B_SPLINE_CURVE_WITH_KNOTS('',3,(#120,#121,#122,#123,#124,#125,#126,
#127,#128,#129,#130,#131,#132,#133,#134,#135,#136,#137,#138,#139,#140,#141,
#142,#143,#144,#145,#146,#147,#148,#149,#150,#151,#152,#153,#154,#155,#156,
#157,#158,#159,#160,#161,#162,#163,#164,#165,#166,#167,#168,#169,#170,#171,
#172,#173,#174,#175,#176,#177,#178,#179,#180,#181,#182,#183,#184,#185,#186,
#187,#188,#189,#190,#191,#192,#193,#194,#195,#196,#197,#198,#199,#200,#201,
#202,#203,#204,#205,#206,#207,#208,#209,#210,#211,#212,#213,#214,#215,#216,
#217,#218,#219,#220,#221,#222,#223,#224,#225,#226,#227,#228,#229,#230,#231,
#232,#233,#234,#235,#236,#237,#238,#239,#240,#241,#242,#243,#244,#245,#246,
#247,#248,#249,#250,#251,#252,#253,#254,#255,#256,#257,#258,#259,#260,#261,
#262,#263,#264,#265,#266,#267,#268,#269,#270,#271,#272,#273,#274,#275,#276,
#277,#278,#279,#280,#281,#282,#283,#284,#285,#286,#287,#288,#289,#290,#291,
#292,#293,#294,#295,#296,#297,#298,#299,#300,#301,#302,#303,#304,#305,#306,
#307,#308,#309,#310,#311,#312,#313,#314,#315,#316,#317,#318,#319,#320,#321,
#322,#323,#324,#325,#326,#327,#328,#329,#330,#331,#332,#333,#334,#335,#336,
#337,#338,#339,#340,#341,#342,#343,#344,#345,#346,#347,#348,#349,#350,#351,
#352,#353,#354,#355,#356,#357,#358,#359,#360,#361,#362),.UNSPECIFIED.,.T.,
 .F.,(4,1,1,1,1,1,1,1,1,1,1,1,1,1,1,1,1,1,1,1,1,1,1,1,1,1,1,1,1,1,1,1,1,
1,1,1,1,1,1,1,1,1,1,1,1,1,1,1,1,1,1,1,1,1,1,1,1,1,1,1,1,1,1,1,1,1,1,1,1,
1,1,1,1,1,1,1,1,1,1,1,1,1,1,1,1,1,1,1,1,1,1,1,1,1,1,1,1,1,1,1,1,1,1,1,1,
1,1,1,1,1,1,1,1,1,1,1,1,1,1,1,1,1,1,1,1,1,1,1,1,1,1,1,1,1,1,1,1,1,1,1,1,
1,1,1,1,1,1,1,1,1,1,1,1,1,1,1,1,1,1,1,1,1,1,1,1,1,1,1,1,1,1,1,1,1,1,1,1,
1,1,1,1,1,1,1,1,1,1,1,1,1,1,1,1,1,1,1,1,1,1,1,1,1,1,1,1,1,1,1,1,1,1,1,1,
1,1,1,1,1,1,1,1,1,1,1,1,1,1,1,1,1,1,1,1,1,1,1,1,1,1,1,4),(0.,0.00347028108000682,
0.0138786808444517,0.0312178712277181,0.0554756466448441,0.0866349357341659,
0.124673817710016,0.169565543240173,0.221278559741122,0.279776540964214,
0.345018420727977,0.416958430636602,0.495546141611956,0.580726509056418,
0.672439921457092,0.77062225223775,0.875204914663682,0.986114919606362,
1.10327493597907,1.22660335366148,1.35601434874019,1.49141795090316,1.63272011283896,
1.77982278150558,1.93262397114895,2.09101783796733,2.25489475633398,2.42414139650762,
2.59864080377636,2.77827247899731,2.96291246050996,3.15243340741635,3.3467046842353,
3.54559244695147,3.74895973049208,3.95666653767527,4.16856992968404,4.38452411812838,
4.60438055876587,4.82798804695689,5.05519281493589,5.28583863098354,5.51976690058699,
5.75681676967617,5.99682523002375,6.239627226894,6.48505576902222,6.732942041001,
6.98311551814238,7.23540408387582,7.48963414973102,7.74563077794161,8.00321780669054,
8.26221797800094,8.52245306825721,8.78374402131992,9.04591108417526,9.30877394503554,
9.5721518737813,9.83586386460927,10.0997287807227,10.363565500874,10.6271930675418,
10.8904308365005,11.1530986275139,11.4150168758656,11.676006784419,11.9358904758849,
12.1951287426615,12.4543400290234,12.711922878488,12.9677029018248,13.221507251231,
13.4731647698039,13.722506140311,13.9693640330373,14.2135732525336,14.4549708831358,
14.6933964331947,14.9286919780284,15.1607023016971,15.3892750378083,15.6142608096714,
15.8355133702641,16.0528897426235,16.2662503614547,16.4754592169567,16.6803840021006,
16.8808962648778,17.0768715673596,17.2681896538075,17.4547346305445,17.6363951608776,
17.8130646790778,17.98464162832,18.1510297286123,18.3121382821865,18.4678825256733,
18.6181840407926,18.7629712384284,18.902179935107,19.0357540463849,19.1636464289897,
19.2858199133936,19.4022485817585,19.5129193640985,19.617834049699,19.7170118433552,
19.8104926392524,19.8983412414925,19.9806528300246,20.0575600495471,20.1292421694477,
20.1959367788234,20.2579543388263,20.315695415709,20.3696692486184,20.4205101540535,
20.468985294096,20.5159850798154,20.5624892684091,20.6089933113489,20.6559892222255,
20.7044470759056,20.7552430620725,20.8091276260927,20.8667175500489,20.9285047773565,
20.9948733449947,21.0661181499047,21.1424622169074,21.2240712221674,21.3110651451772,
21.4035273919196,21.5015118593243,21.6050483890229,21.7141469857483,21.8288010964631,
21.9489901767639,22.0746817153131,22.2058328441946,22.3423916309044,22.4842981237731,
22.6314852049289,22.7838792918256,22.9414009186614,23.1039652217997,23.2714823479014,
23.4438577994278,23.6209927290981,23.8027841925524,23.9891253666795,24.1799057396849,
24.3750112778989,24.5743245734764,24.7777249764701,24.9850887142173,25.1962890005424,
25.4111961369153,25.6296776074025,25.8515981689893,26.076819938632,26.3052024782021,
26.5366028783141,26.7708758418768,27.0078737680663,27.2474468372973,27.4894430976561,
27.7337085531526,27.9800872540628,28.2284213895428,28.4785513826282,28.7303159876628,
28.9849778961468,29.2415745860694,29.4992971133206,29.7579729501138,30.017428493013,
30.2774891991731,30.5379797236021,30.7987240571427,31.059545664871,31.3202676246244,
31.5807127653812,31.8407038052305,32.1000634886932,32.3586147231741,32.6161807143481,
32.8725851003089,33.1276520843299,33.3812065661147,33.6330742714339,33.8830818800724,
34.1310571520284,34.3768290519291,34.620227871647,34.8610853511134,35.0992347973492,
35.3345112017388,35.5667513555895,35.7957939640287,36.021479758296,36.2436516064978,
36.4621546228926,36.6768362757803,36.8875464940668,37.0941377725762,37.2964652761768,
37.494386942785,37.6877635853002,37.8764589925184,38.060340029058,38.2392767343218,
38.4131424205015,38.5818137696175,38.7451709295681,38.9030976091437,39.0554811719422,
39.2022127290999,39.3431872307321,39.4783035559568,39.6074646013512,39.7305773676721,
39.8475530446501,39.9583070936493,40.0627593279671,40.1608339905322,40.2524598287495,
40.3375701662266,40.4161029711126,40.4880009207757,40.5532114625453,40.6116868702486,
40.6633842962789,40.7082658189442,40.7462984848586,40.7774543461578,40.8017104923433,
40.8190490765809,40.8294573363099,40.8329276080484),.UNSPECIFIED.);
#20=VERTEX_POINT('',#119);
#21=PLANE('',#110);
#22=SHAPE_DEFINITION_REPRESENTATION(#23,#108);
#23=PRODUCT_DEFINITION_SHAPE($,$,#25);
#24=PRODUCT_DEFINITION_CONTEXT('3D Mechanical Parts',#97,'design');
#25=PRODUCT_DEFINITION('A','First version',#67,#24);
#26=DATE_TIME_ROLE('classification_date');
#27=DATE_TIME_ROLE('creation_date');
#28=APPLIED_DATE_AND_TIME_ASSIGNMENT(#52,#26,(#31));
#29=APPLIED_DATE_AND_TIME_ASSIGNMENT(#54,#27,(#25));
#30=SECURITY_CLASSIFICATION_LEVEL('unclassified');
#31=SECURITY_CLASSIFICATION('A','Security for version',#30);
#32=APPLIED_SECURITY_CLASSIFICATION_ASSIGNMENT(#31,(#67));
#33=APPROVAL_ROLE('Version approval');
#34=APPROVAL_ROLE('Version Security approval');
#35=APPROVAL_ROLE('Definition approval');
#36=APPROVAL_PERSON_ORGANIZATION(#85,#61,#33);
#37=APPROVAL_PERSON_ORGANIZATION(#86,#62,#34);
#38=APPROVAL_PERSON_ORGANIZATION(#89,#63,#35);
#39=COORDINATED_UNIVERSAL_TIME_OFFSET(5,0,.BEHIND.);
#40=LOCAL_TIME(0,0,0.,#39);
#41=LOCAL_TIME(0,0,0.,#39);
#42=LOCAL_TIME(0,0,0.,#39);
#43=LOCAL_TIME(0,0,0.,#39);
#44=LOCAL_TIME(0,0,0.,#39);
#45=CALENDAR_DATE(1999,1,1);
#46=CALENDAR_DATE(1999,1,1);
#47=CALENDAR_DATE(1999,1,1);
#48=CALENDAR_DATE(1999,1,1);
#49=CALENDAR_DATE(1999,1,1);
#50=DATE_AND_TIME(#45,#40);
#51=DATE_AND_TIME(#46,#41);
#52=DATE_AND_TIME(#47,#42);
#53=DATE_AND_TIME(#48,#43);
#54=DATE_AND_TIME(#49,#44);
#55=APPROVAL_DATE_TIME(#50,#61);
#56=APPROVAL_DATE_TIME(#51,#62);
#57=APPROVAL_DATE_TIME(#53,#63);
#58=APPROVAL_STATUS('not_yet_approved');
#59=APPROVAL_STATUS('not_yet_approved');
#60=APPROVAL_STATUS('approved');
#61=APPROVAL(#58,'Version approval');
#62=APPROVAL(#59,'Version Security approval');
#63=APPROVAL(#60,'Definition approval');
#64=APPLIED_APPROVAL_ASSIGNMENT(#61,(#67));
#65=APPLIED_APPROVAL_ASSIGNMENT(#62,(#31));
#66=APPLIED_APPROVAL_ASSIGNMENT(#63,(#25));
#67=PRODUCT_DEFINITION_FORMATION_WITH_SPECIFIED_SOURCE('A',
'First version',#99,.MADE.);
#68=PERSON_AND_ORGANIZATION_ROLE('design_owner');
#69=PERSON_AND_ORGANIZATION_ROLE('creator');
#70=PERSON_AND_ORGANIZATION_ROLE('design_supplier');
#71=PERSON_AND_ORGANIZATION_ROLE('classification_officer');
#72=PERSON_AND_ORGANIZATION_ROLE('creator');
#73=ORGANIZATION('STI','lab','lab');
#74=ORGANIZATION('STI','unknown','unknown');
#75=ORGANIZATION('STI','unknown','unknown');
#76=ORGANIZATION('STI','unknown','unknown');
#77=ORGANIZATION('STI','unknown','unknown');
#78=ORGANIZATION('STI','unknown','unknown');
#79=ORGANIZATION('STI','unknown','unknown');
#80=PERSON('1','Box','vc60',$,$,$);
#81=PERSON('2','last','first',$,$,$);
#82=PERSON('3','President','Mr.',$,$,$);
#83=PERSON_AND_ORGANIZATION(#80,#73);
#84=PERSON_AND_ORGANIZATION(#81,#74);
#85=PERSON_AND_ORGANIZATION(#82,#75);
#86=PERSON_AND_ORGANIZATION(#82,#76);
#87=PERSON_AND_ORGANIZATION(#82,#77);
#88=PERSON_AND_ORGANIZATION(#81,#78);
#89=PERSON_AND_ORGANIZATION(#82,#79);
#90=APPLIED_PERSON_AND_ORGANIZATION_ASSIGNMENT(#83,#68,(#99));
#91=APPLIED_PERSON_AND_ORGANIZATION_ASSIGNMENT(#84,#69,(#67));
#92=APPLIED_PERSON_AND_ORGANIZATION_ASSIGNMENT(#84,#70,(#67));
#93=APPLIED_PERSON_AND_ORGANIZATION_ASSIGNMENT(#87,#71,(#31));
#94=APPLIED_PERSON_AND_ORGANIZATION_ASSIGNMENT(#88,#72,(#25));
#95=PRODUCT_RELATED_PRODUCT_CATEGORY('detail','detail',(#99));
#96=APPLICATION_PROTOCOL_DEFINITION('International Standard',
'config_control_design',1994,#97);
#97=APPLICATION_CONTEXT(
'configuration controlled 3d designs of mechanical parts and assemblie
s');
#98=PRODUCT_CONTEXT('3D Mechanical Parts',#97,'mechanical');
#99=PRODUCT('Document','Document','',(#98));
#100=(
LENGTH_UNIT()
NAMED_UNIT(*)
SI_UNIT(.MILLI.,.METRE.)
);
#101=(
NAMED_UNIT(*)
PLANE_ANGLE_UNIT()
SI_UNIT($,.RADIAN.)
);
#102=DIMENSIONAL_EXPONENTS(0.,0.,0.,0.,0.,0.,0.);
#103=PLANE_ANGLE_MEASURE_WITH_UNIT(PLANE_ANGLE_MEASURE(0.01745329252),#101);
#104=(
CONVERSION_BASED_UNIT('DEGREES',#103)
NAMED_UNIT(#102)
PLANE_ANGLE_UNIT()
);
#105=(
NAMED_UNIT(*)
SI_UNIT($,.STERADIAN.)
SOLID_ANGLE_UNIT()
);
#106=UNCERTAINTY_MEASURE_WITH_UNIT(LENGTH_MEASURE(0.001),#100,
'DISTANCE_ACCURACY_VALUE',
'Maximum model space distance between geometric entities at asserted c
onnectivities');
#107=(
GEOMETRIC_REPRESENTATION_CONTEXT(3)
GLOBAL_UNCERTAINTY_ASSIGNED_CONTEXT((#106))
GLOBAL_UNIT_ASSIGNED_CONTEXT((#105,#104,#100))
REPRESENTATION_CONTEXT('ID1','3D')
);
#108=SHAPE_REPRESENTATION('Document',(#109,#111),#107);
#109=AXIS2_PLACEMENT_3D($,#117,#112,#113);
#110=AXIS2_PLACEMENT_3D('',#118,#114,$);
#111=AXIS2_PLACEMENT_3D($,#363,#115,#116);
#112=DIRECTION('',(0.,0.,1.));
#113=DIRECTION('',(1.,0.,0.));
#114=DIRECTION('',(0.,0.,1.));
#115=DIRECTION('',(0.,0.,1.));
#116=DIRECTION('',(1.,0.,0.));
#117=CARTESIAN_POINT('',(0.,0.,0.));
#118=CARTESIAN_POINT('',(-0.201960690755037,-0.871850916332438,0.));
#119=CARTESIAN_POINT('',(20.,-3.32329216764496E-16,0.));
#120=CARTESIAN_POINT('',(20.,-3.32329216764496E-16,0.));
#121=CARTESIAN_POINT('',(19.9988687955766,0.000241807946246713,0.));
#122=CARTESIAN_POINT('',(19.9943447498322,0.00120875463270017,0.));
#123=CARTESIAN_POINT('',(19.9841684121652,0.00338271304894772,0.));
#124=CARTESIAN_POINT('',(19.967215075198,0.00700083712519575,0.));
#125=CARTESIAN_POINT('',(19.9434955757911,0.0120554387461217,0.));
#126=CARTESIAN_POINT('',(19.9130250818747,0.0185357982841453,0.));
#127=CARTESIAN_POINT('',(19.8758230886491,0.0264282076698562,0.));
#128=CARTESIAN_POINT('',(19.8319134136273,0.0357160252781239,0.));
#129=CARTESIAN_POINT('',(19.7813241903888,0.0463797419274223,0.));
#130=CARTESIAN_POINT('',(19.7240878609656,0.0583970574923796,0.));
#131=CARTESIAN_POINT('',(19.6602411667423,0.0717429674174807,0.));
#132=CARTESIAN_POINT('',(19.5898251377493,0.0863898583817338,0.));
#133=CARTESIAN_POINT('',(19.512885080214,0.10230761227368,0.));
#134=CARTESIAN_POINT('',(19.4294705622303,0.119463717576727,0.));
#135=CARTESIAN_POINT('',(19.339635397398,0.137823387207957,0.));
#136=CARTESIAN_POINT('',(19.2434376262862,0.157349681810481,0.));
#137=CARTESIAN_POINT('',(19.1409394955674,0.178003637466529,0.));
#138=CARTESIAN_POINT('',(19.0322074346778,0.199744396777763,0.));
#139=CARTESIAN_POINT('',(18.9173120298591,0.222529342250373,0.));
#140=CARTESIAN_POINT('',(18.7963279954467,0.246314230925667,0.));
#141=CARTESIAN_POINT('',(18.6693341422762,0.271053329212092,0.));
#142=CARTESIAN_POINT('',(18.5364133430928,0.296699546901516,0.));
#143=CARTESIAN_POINT('',(18.3976524948605,0.32320456939112,0.));
#144=CARTESIAN_POINT('',(18.253142477881,0.350518987181676,0.));
#145=CARTESIAN_POINT('',(18.1029781116506,0.378592421783019,0.));
#146=CARTESIAN_POINT('',(17.947258107398,0.407373647226966,0.));
#147=CARTESIAN_POINT('',(17.7860850172636,0.436810706466731,0.));
#148=CARTESIAN_POINT('',(17.6195651801002,0.46685102202812,0.));
#149=CARTESIAN_POINT('',(17.4478086638918,0.497441500371377,0.));
#150=CARTESIAN_POINT('',(17.2709292048046,0.52852862952164,0.));
#151=CARTESIAN_POINT('',(17.089044142903,0.560058569629812,0.));
#152=CARTESIAN_POINT('',(16.9022743545787,0.591977236232767,0.));
#153=CARTESIAN_POINT('',(16.7107441817572,0.624230376090991,0.));
#154=CARTESIAN_POINT('',(16.5145813579582,0.656763635591652,0.));
#155=CARTESIAN_POINT('',(16.3139169313023,0.689522621814308,0.));
#156=CARTESIAN_POINT('',(16.1088851845625,0.722452956463779,0.));
#157=CARTESIAN_POINT('',(15.8996235523716,0.755500322978566,0.));
#158=CARTESIAN_POINT('',(15.6862725357018,0.788610507222598,0.));
#159=CARTESIAN_POINT('',(15.4689756137357,0.821729432261504,0.));
#160=CARTESIAN_POINT('',(15.2478791532533,0.854803187810942,0.));
#161=CARTESIAN_POINT('',(15.0231323156573,0.887778055022825,0.));
#162=CARTESIAN_POINT('',(14.7948869617578,0.920600527344187,0.));
#163=CARTESIAN_POINT('',(14.5632975544339,0.953217328242341,0.));
#164=CARTESIAN_POINT('',(14.3285210592831,0.98557542663794,0.));
#165=CARTESIAN_POINT('',(14.0907168433614,1.01762205092383,0.));
#166=CARTESIAN_POINT('',(13.8500465721099,1.04930470247176,0.));
#167=CARTESIAN_POINT('',(13.6066741045502,1.08057116954058,0.));
#168=CARTESIAN_POINT('',(13.360765386821,1.11136954249835,0.));
#169=CARTESIAN_POINT('',(13.1124883441173,1.1416482312564,0.));
#170=CARTESIAN_POINT('',(12.8620127710781,1.17135598578651,0.));
#171=CARTESIAN_POINT('',(12.6095102206577,1.2004419205524,0.));
#172=CARTESIAN_POINT('',(12.3551538915039,1.22885554363447,0.));
#173=CARTESIAN_POINT('',(12.0991185138514,1.25654679126305,0.));
#174=CARTESIAN_POINT('',(11.8415802339306,1.28346606839934,0.));
#175=CARTESIAN_POINT('',(11.5827164968817,1.30956429592013,0.));
#176=CARTESIAN_POINT('',(11.3227059281531,1.33479296485804,0.));
#177=CARTESIAN_POINT('',(11.0617282133606,1.35910419807976,0.));
#178=CARTESIAN_POINT('',(10.7999639765727,1.38245081954546,0.));
#179=CARTESIAN_POINT('',(10.5375946570007,1.4047864316558,0.));
#180=CARTESIAN_POINT('',(10.274802384019,1.42606549927493,0.));
#181=CARTESIAN_POINT('',(10.0117698506379,1.44624344561057,0.));
#182=CARTESIAN_POINT('',(9.74868018482882,1.46527673990443,0.));
#183=CARTESIAN_POINT('',(9.48571682082935,1.4831230504584,0.));
#184=CARTESIAN_POINT('',(9.22306336241177,1.49974118698344,0.));
#185=CARTESIAN_POINT('',(8.96090346794809,1.51509185778425,0.));
#186=CARTESIAN_POINT('',(8.69942064630245,1.52913542319298,0.));
#187=CARTESIAN_POINT('',(8.43879837610273,1.54184083442018,0.));
#188=CARTESIAN_POINT('',(8.17900668497535,1.55316232384106,0.));
#189=CARTESIAN_POINT('',(7.91975318543184,1.56315690738403,0.));
#190=CARTESIAN_POINT('',(7.66119931308977,1.571231096241,0.));
#191=CARTESIAN_POINT('',(7.40374644875261,1.57740851467902,0.));
#192=CARTESIAN_POINT('',(7.14805663922735,1.58164056370741,0.));
#193=CARTESIAN_POINT('',(6.89431710092811,1.58391874428862,0.));
#194=CARTESIAN_POINT('',(6.64271365760647,1.5842326155571,0.));
#195=CARTESIAN_POINT('',(6.39343092215151,1.58257712011627,0.));
#196=CARTESIAN_POINT('',(6.14665201388254,1.57895073958136,0.));
#197=CARTESIAN_POINT('',(5.90255839697232,1.57335606411925,0.));
#198=CARTESIAN_POINT('',(5.6613296856266,1.56579970701036,0.));
#199=CARTESIAN_POINT('',(5.42314345760613,1.55629237445818,0.));
#200=CARTESIAN_POINT('',(5.18817506590227,1.54484887513205,0.));
#201=CARTESIAN_POINT('',(4.9565974520887,1.53148812497385,0.));
#202=CARTESIAN_POINT('',(4.72858096128141,1.51623313140906,0.));
#203=CARTESIAN_POINT('',(4.50429315960177,1.49911096005414,0.));
#204=CARTESIAN_POINT('',(4.28389865479029,1.48015268217821,0.));
#205=CARTESIAN_POINT('',(4.06755892067831,1.45939330261597,0.));
#206=CARTESIAN_POINT('',(3.8554321261922,1.4368716676316,0.));
#207=CARTESIAN_POINT('',(3.647672969544,1.41263035247679,0.));
#208=CARTESIAN_POINT('',(3.44443251822608,1.38671552852225,0.));
#209=CARTESIAN_POINT('',(3.24585805538271,1.35917681001315,0.));
#210=CARTESIAN_POINT('',(3.05209293307575,1.33006708066517,0.));
#211=CARTESIAN_POINT('',(2.8632764328956,1.29944230048635,0.));
#212=CARTESIAN_POINT('',(2.67954363429185,1.26736129337707,0.));
#213=CARTESIAN_POINT('',(2.50102529090959,1.23388551622251,0.));
#214=CARTESIAN_POINT('',(2.32784771511688,1.19907881034667,0.));
#215=CARTESIAN_POINT('',(2.16013267079515,1.16300713633967,0.));
#216=CARTESIAN_POINT('',(1.99799727433523,1.12573829339587,0.));
#217=CARTESIAN_POINT('',(1.84155390363559,1.08734162440096,0.));
#218=CARTESIAN_POINT('',(1.69091011473239,1.0478877080737,0.));
#219=CARTESIAN_POINT('',(1.54616856550036,1.0074480394852,0.));
#220=CARTESIAN_POINT('',(1.40742694564412,0.966094700226601,0.));
#221=CARTESIAN_POINT('',(1.27477791194974,0.923900019340413,0.));
#222=CARTESIAN_POINT('',(1.14830902748492,0.88093622582356,0.));
#223=CARTESIAN_POINT('',(1.0281027031355,0.837275092975251,0.));
#224=CARTESIAN_POINT('',(0.914236139576618,0.792987573984711,0.));
#225=CARTESIAN_POINT('',(0.806781267581238,0.74814342675741,0.));
#226=CARTESIAN_POINT('',(0.705804684646095,0.70281082380254,0.));
#227=CARTESIAN_POINT('',(0.611367586647157,0.657055939678277,0.));
#228=CARTESIAN_POINT('',(0.523525695397989,0.610942503525577,0.));
#229=CARTESIAN_POINT('',(0.442329188101083,0.564531297109235,0.));
#230=CARTESIAN_POINT('',(0.367822645672984,0.517879569310336,0.));
#231=CARTESIAN_POINT('',(0.300045059032963,0.47104032748858,0.));
#232=CARTESIAN_POINT('',(0.239029974566897,0.424061459611528,0.));
#233=CARTESIAN_POINT('',(0.184805933966055,0.376984655628118,0.));
#234=CARTESIAN_POINT('',(0.137397480023482,0.329844167420212,0.));
#235=CARTESIAN_POINT('',(0.0968271339336047,0.282665666102815,0.));
#236=CARTESIAN_POINT('',(0.063118789402346,0.23546589823918,0.));
#237=CARTESIAN_POINT('',(0.0363024963536711,0.188254697024416,0.));
#238=CARTESIAN_POINT('',(0.0164191218124135,0.14104122257967,0.));
#239=CARTESIAN_POINT('',(0.00352012084440359,0.0938460834856841,0.));
#240=CARTESIAN_POINT('',(-0.00234289890326342,0.0467122116584382,0.));
#241=CARTESIAN_POINT('',(-0.00114650728247283,-0.000114704265696666,0.));
#242=CARTESIAN_POINT('',(0.00695311512991924,-0.0462493813980628,0.));
#243=CARTESIAN_POINT('',(0.022007570720502,-0.0912882476435106,0.));
#244=CARTESIAN_POINT('',(0.0439220028628181,-0.135004583713498,0.));
#245=CARTESIAN_POINT('',(0.0726164954297894,-0.17737923496321,0.));
#246=CARTESIAN_POINT('',(0.108017386565525,-0.21841739073824,0.));
#247=CARTESIAN_POINT('',(0.150064672608602,-0.258135888194781,0.));
#248=CARTESIAN_POINT('',(0.1987095794723,-0.296551609823846,0.));
#249=CARTESIAN_POINT('',(0.253908833915149,-0.333676524391293,0.));
#250=CARTESIAN_POINT('',(0.315619754662981,-0.369516727084476,0.));
#251=CARTESIAN_POINT('',(0.383797162900463,-0.404073395294924,0.));
#252=CARTESIAN_POINT('',(0.458391802340658,-0.437344189302883,0.));
#253=CARTESIAN_POINT('',(0.539349699409371,-0.469324532165309,0.));
#254=CARTESIAN_POINT('',(0.62661202583949,-0.500008609529591,0.));
#255=CARTESIAN_POINT('',(0.720115197753776,-0.52939010879399,0.));
#256=CARTESIAN_POINT('',(0.81979106968929,-0.557462759755823,0.));
#257=CARTESIAN_POINT('',(0.925567154892898,-0.584220737540038,0.));
#258=CARTESIAN_POINT('',(1.03736684177596,-0.609658973868593,0.));
#259=CARTESIAN_POINT('',(1.15510959527953,-0.63377340828905,0.));
#260=CARTESIAN_POINT('',(1.2787111404745,-0.656561199777862,0.));
#261=CARTESIAN_POINT('',(1.40808362921567,-0.67802091135128,0.));
#262=CARTESIAN_POINT('',(1.54313579180205,-0.698152675163333,0.));
#263=CARTESIAN_POINT('',(1.68377307570924,-0.716958342260117,0.));
#264=CARTESIAN_POINT('',(1.82989777319188,-0.734441619073946,0.));
#265=CARTESIAN_POINT('',(1.98140913919053,-0.750608191450962,0.));
#266=CARTESIAN_POINT('',(2.13820350063684,-0.765465836227526,0.));
#267=CARTESIAN_POINT('',(2.30017435797422,-0.779024519920924,0.));
#268=CARTESIAN_POINT('',(2.46721247950403,-0.791296483862144,0.));
#269=CARTESIAN_POINT('',(2.63920598902367,-0.802296314998414,0.));
#270=CARTESIAN_POINT('',(2.81604044713105,-0.812041001583951,0.));
#271=CARTESIAN_POINT('',(2.99759892651882,-0.820549973028593,0.));
#272=CARTESIAN_POINT('',(3.1837620815612,-0.827845123265969,0.));
#273=CARTESIAN_POINT('',(3.37440821249831,-0.833950817122748,0.));
#274=CARTESIAN_POINT('',(3.56941332454066,-0.838893879309145,0.));
#275=CARTESIAN_POINT('',(3.76865118224416,-0.842703565802218,0.));
#276=CARTESIAN_POINT('',(3.97199335954048,-0.845411517552723,0.));
#277=CARTESIAN_POINT('',(4.17930928584382,-0.847051696609933,0.));
#278=CARTESIAN_POINT('',(4.39046628869206,-0.847660304923919,0.));
#279=CARTESIAN_POINT('',(4.60532963341483,-0.847275686248523,0.));
#280=CARTESIAN_POINT('',(4.82376256035124,-0.845938211730504,0.));
#281=CARTESIAN_POINT('',(5.04562632016602,-0.843690149920005,0.));
#282=CARTESIAN_POINT('',(5.27078020783245,-0.840575522109452,0.));
#283=CARTESIAN_POINT('',(5.49908159585995,-0.836639943958665,0.));
#284=CARTESIAN_POINT('',(5.73038596736311,-0.83193045483515,0.));
#285=CARTESIAN_POINT('',(5.96454694951348,-0.826495335117513,0.));
#286=CARTESIAN_POINT('',(6.20141634810914,-0.820383916758261,0.));
#287=CARTESIAN_POINT('',(6.44084418320658,-0.81364637371758,0.));
#288=CARTESIAN_POINT('',(6.68267872866825,-0.806333550208507,0.));
#289=CARTESIAN_POINT('',(6.9267665473312,-0.798496614680826,0.));
#290=CARTESIAN_POINT('',(7.17295255555401,-0.790187350090681,0.));
#291=CARTESIAN_POINT('',(7.42107999167005,-0.781456023502005,0.));
#292=CARTESIAN_POINT('',(7.67099076424878,-0.772358390019171,0.));
#293=CARTESIAN_POINT('',(7.92299922125615,-0.762910436962644,0.));
#294=CARTESIAN_POINT('',(8.17715566037264,-0.753217355550869,0.));
#295=CARTESIAN_POINT('',(8.43326989223828,-0.742767143340555,0.));
#296=CARTESIAN_POINT('',(8.69069709829347,-0.73169520068367,0.));
#297=CARTESIAN_POINT('',(8.9490521054082,-0.720031514351918,0.));
#298=CARTESIAN_POINT('',(9.20816219079684,-0.707823550912227,0.));
#299=CARTESIAN_POINT('',(9.46785362752913,-0.695111260962869,0.));
#300=CARTESIAN_POINT('',(9.72795211426024,-0.681935962799525,0.));
#301=CARTESIAN_POINT('',(9.9882827986272,-0.668337774990887,0.));
#302=CARTESIAN_POINT('',(10.2486704126495,-0.654356144833726,0.));
#303=CARTESIAN_POINT('',(10.5089393804613,-0.64002955890887,0.));
#304=CARTESIAN_POINT('',(10.7689139357223,-0.625395488749186,0.));
#305=CARTESIAN_POINT('',(11.0284182384587,-0.610490289474725,0.));
#306=CARTESIAN_POINT('',(11.2872764938512,-0.595349127571859,0.));
#307=CARTESIAN_POINT('',(11.5453130720511,-0.580005917697811,0.));
#308=CARTESIAN_POINT('',(11.8023526290214,-0.564493274014936,0.));
#309=CARTESIAN_POINT('',(12.0582202281486,-0.548842474521841,0.));
#310=CARTESIAN_POINT('',(12.3127414624408,-0.533083438555856,0.));
#311=CARTESIAN_POINT('',(12.5657425771086,-0.517244717016898,0.));
#312=CARTESIAN_POINT('',(12.8170505923397,-0.501353494868676,0.));
#313=CARTESIAN_POINT('',(13.0664934260804,-0.485435605320199,0.));
#314=CARTESIAN_POINT('',(13.3139000166506,-0.469515554990806,0.));
#315=CARTESIAN_POINT('',(13.559100445025,-0.453616559260168,0.));
#316=CARTESIAN_POINT('',(13.8019260566318,-0.437760586917071,0.));
#317=CARTESIAN_POINT('',(14.0422095825265,-0.421968413143811,0.));
#318=CARTESIAN_POINT('',(14.2797852598185,-0.40625967980881,0.));
#319=CARTESIAN_POINT('',(14.5144889512382,-0.390652961988533,0.));
#320=CARTESIAN_POINT('',(14.7461582637497,-0.375165839601611,0.));
#321=CARTESIAN_POINT('',(14.9746326661263,-0.359814973013385,0.));
#322=CARTESIAN_POINT('',(15.1997536054193,-0.344616181458001,0.));
#323=CARTESIAN_POINT('',(15.4213646222662,-0.329584523127494,0.));
#324=CARTESIAN_POINT('',(15.6393114649912,-0.314734375793013,0.));
#325=CARTESIAN_POINT('',(15.8534422024643,-0.300079516851792,0.));
#326=CARTESIAN_POINT('',(16.0636073356923,-0.285633201734291,0.));
#327=CARTESIAN_POINT('',(16.2696599081208,-0.271408239658551,0.));
#328=CARTESIAN_POINT('',(16.4714556146326,-0.257417065782068,0.));
#329=CARTESIAN_POINT('',(16.6688529092288,-0.243671808874988,0.));
#330=CARTESIAN_POINT('',(16.8617131113791,-0.230184353720746,0.));
#331=CARTESIAN_POINT('',(17.0499005110284,-0.216966397540445,0.));
#332=CARTESIAN_POINT('',(17.2332824722396,-0.204029499834214,0.));
#333=CARTESIAN_POINT('',(17.4117295354501,-0.191385125135111,0.));
#334=CARTESIAN_POINT('',(17.5851155183096,-0.17904467827757,0.));
#335=CARTESIAN_POINT('',(17.7533176150592,-0.167019531891709,0.));
#336=CARTESIAN_POINT('',(17.9162164943988,-0.155321045945531,0.));
#337=CARTESIAN_POINT('',(18.0736963957819,-0.143960579267946,0.));
#338=CARTESIAN_POINT('',(18.2256452240588,-0.132949493095087,0.));
#339=CARTESIAN_POINT('',(18.3719546423797,-0.122299146789627,0.));
#340=CARTESIAN_POINT('',(18.5125201632538,-0.112020885985932,0.));
#341=CARTESIAN_POINT('',(18.647241237644,-0.102126023512395,0.));
#342=CARTESIAN_POINT('',(18.7760213419682,-0.0926258135342233,0.));
#343=CARTESIAN_POINT('',(18.8987680628574,-0.0835314194451492,0.));
#344=CARTESIAN_POINT('',(19.0153931795158,-0.0748538761131688,0.));
#345=CARTESIAN_POINT('',(19.1258127435092,-0.0666040471533862,0.));
#346=CARTESIAN_POINT('',(19.2299471558042,-0.0587925779589955,0.));
#347=CARTESIAN_POINT('',(19.3277212408667,-0.0514298452693133,0.));
#348=CARTESIAN_POINT('',(19.4190643176255,-0.0445259040905509,0.));
#349=CARTESIAN_POINT('',(19.5039102670992,-0.0380904328108033,0.));
#350=CARTESIAN_POINT('',(19.5821975964833,-0.032132677365064,0.));
#351=CARTESIAN_POINT('',(19.6538694994958,-0.0266613953088231,0.));
#352=CARTESIAN_POINT('',(19.7188739127763,-0.0216848006503469,0.));
#353=CARTESIAN_POINT('',(19.7771635681464,-0.0172105102716762,0.));
#354=CARTESIAN_POINT('',(19.8286960405387,-0.013245492738332,0.));
#355=CARTESIAN_POINT('',(19.8734337914155,-0.00979602025473582,0.));
#356=CARTESIAN_POINT('',(19.9113442075087,-0.00686762447673307,0.));
#357=CARTESIAN_POINT('',(19.9423996347274,-0.00446505681678651,0.));
#358=CARTESIAN_POINT('',(19.9665774070948,-0.00259225385352625,0.));
#359=CARTESIAN_POINT('',(19.9838598705905,-0.00125230826129641,0.));
#360=CARTESIAN_POINT('',(19.9942344018112,-0.000447445890210137,0.));
#361=CARTESIAN_POINT('',(19.9988467109397,-8.95079330245374E-5,0.));
#362=CARTESIAN_POINT('',(20.,3.32329216764496E-16,0.));
#363=CARTESIAN_POINT('',(0.,0.,0.));
ENDSEC;
END-ISO-10303-21;
