ISO-10303-21;
HEADER;
/* Generated by software containing ST-Developer
 * from STEP Tools, Inc. (www.steptools.com) 
 */
/* OPTION: using custom schema-name function */

FILE_DESCRIPTION(
/* description */ (''),
/* implementation_level */ '2;1');

FILE_NAME(
/* name */ 'U_Bent_Spring',
/* time_stamp */ '2026-09-17T15:06:58+01:00',
/* author */ (''),
/* organization */ (''),
/* preprocessor_version */ 'ST-DEVELOPER v19.2',
/* originating_system */ 'Rhino 8.35',
/* authorisation */ '');

FILE_SCHEMA (('CONFIG_CONTROL_DESIGN'));
ENDSEC;

DATA;
#10=SHAPE_REPRESENTATION_RELATIONSHIP('','',#120,#12);
#11=SHELL_BASED_SURFACE_MODEL('shell_1',(#13));
#12=MANIFOLD_SURFACE_SHAPE_REPRESENTATION('shell_rep_0',(#11,#122),#119);
#13=OPEN_SHELL('',(#14));
#14=ADVANCED_FACE('',(#15),#33,.T.);
#15=FACE_OUTER_BOUND('',#16,.T.);
#16=EDGE_LOOP('',(#17,#18,#19,#20));
#17=ORIENTED_EDGE('',*,*,#21,.T.);
#18=ORIENTED_EDGE('',*,*,#22,.T.);
#19=ORIENTED_EDGE('',*,*,#23,.T.);
#20=ORIENTED_EDGE('',*,*,#24,.T.);
#21=EDGE_CURVE('',#29,#30,#25,.T.);
#22=EDGE_CURVE('',#30,#31,#26,.T.);
#23=EDGE_CURVE('',#31,#32,#27,.T.);
#24=EDGE_CURVE('',#32,#29,#28,.T.);
#25=B_SPLINE_CURVE_WITH_KNOTS('',3,(#583,#584,#585,#586,#587,#588,#589,
#590,#591,#592,#593,#594,#595,#596,#597,#598,#599,#600,#601,#602,#603,#604,
#605,#606,#607,#608,#609,#610,#611,#612,#613,#614,#615,#616,#617,#618,#619,
#620,#621,#622,#623),.UNSPECIFIED.,.F.,.F.,(4,1,1,1,1,1,1,1,1,1,1,1,1,1,
1,1,1,1,1,1,1,1,1,1,1,1,1,1,1,1,1,1,1,1,1,1,1,1,4),(0.,1.,1.5,2.,2.5,3.,
3.5055606587479,4.02090769106595,4.54604109695413,5.07540021766454,5.60475933837495,
6.13411845908537,6.66347757979578,7.1928367005062,7.72219582121661,8.25155494192702,
8.78091406263744,9.31027318334785,9.83963230405826,10.3689914247687,10.8983505454791,
11.4277096661895,11.9570687868999,12.4864279076103,13.0157870283207,13.5451461490312,
14.0745052697416,14.603864390452,15.1332235111624,15.6625826318728,16.1919417525832,
16.7170751584714,17.2324221907895,17.7379828495374,18.2379828495374,18.7379828495374,
19.2379828495374,19.7379828495374,20.7379828495374),.UNSPECIFIED.);
#26=B_SPLINE_CURVE_WITH_KNOTS('',3,(#624,#625,#626,#627,#628,#629,#630,
#631,#632,#633,#634),.UNSPECIFIED.,.F.,.F.,(4,1,1,1,1,1,1,1,4),(0.,0.627355216531246,
0.941032824796869,1.25471043306249,1.56838804132812,1.88206564959374,2.19574325785936,
2.50942086612498,3.13677608265623),.UNSPECIFIED.);
#27=B_SPLINE_CURVE_WITH_KNOTS('',3,(#635,#636,#637,#638,#639,#640,#641,
#642,#643,#644,#645,#646,#647,#648,#649,#650,#651,#652,#653,#654,#655,#656,
#657,#658,#659,#660,#661,#662,#663,#664,#665,#666,#667,#668,#669,#670,#671,
#672,#673,#674,#675),.UNSPECIFIED.,.F.,.F.,(4,1,1,1,1,1,1,1,1,1,1,1,1,1,
1,1,1,1,1,1,1,1,1,1,1,1,1,1,1,1,1,1,1,1,1,1,1,1,4),(-20.7379828495374,-19.7379828495374,
-19.2379828495374,-18.7379828495374,-18.2379828495374,-17.7379828495374,
-17.2324221907895,-16.7170751584714,-16.1919417525832,-15.6625826318728,
-15.1332235111624,-14.603864390452,-14.0745052697416,-13.5451461490312,
-13.0157870283207,-12.4864279076103,-11.9570687868999,-11.4277096661895,
-10.8983505454791,-10.3689914247687,-9.83963230405826,-9.31027318334785,
-8.78091406263744,-8.25155494192702,-7.72219582121661,-7.1928367005062,
-6.66347757979578,-6.13411845908537,-5.60475933837495,-5.07540021766454,
-4.54604109695413,-4.02090769106595,-3.5055606587479,-3.,-2.5,-2.,-1.5,
-1.,0.),.UNSPECIFIED.);
#28=B_SPLINE_CURVE_WITH_KNOTS('',3,(#676,#677,#678,#679,#680,#681,#682,
#683,#684,#685,#686),.UNSPECIFIED.,.F.,.F.,(4,1,1,1,1,1,1,1,4),(-3.13677608265623,
-2.50942086612498,-2.19574325785936,-1.88206564959374,-1.56838804132812,
-1.25471043306249,-0.941032824796869,-0.627355216531246,0.),
 .UNSPECIFIED.);
#29=VERTEX_POINT('',#579);
#30=VERTEX_POINT('',#580);
#31=VERTEX_POINT('',#581);
#32=VERTEX_POINT('',#582);
#33=B_SPLINE_SURFACE_WITH_KNOTS('',3,3,((#128,#129,#130,#131,#132,#133,
#134,#135,#136,#137,#138),(#139,#140,#141,#142,#143,#144,#145,#146,#147,
#148,#149),(#150,#151,#152,#153,#154,#155,#156,#157,#158,#159,#160),(#161,
#162,#163,#164,#165,#166,#167,#168,#169,#170,#171),(#172,#173,#174,#175,
#176,#177,#178,#179,#180,#181,#182),(#183,#184,#185,#186,#187,#188,#189,
#190,#191,#192,#193),(#194,#195,#196,#197,#198,#199,#200,#201,#202,#203,
#204),(#205,#206,#207,#208,#209,#210,#211,#212,#213,#214,#215),(#216,#217,
#218,#219,#220,#221,#222,#223,#224,#225,#226),(#227,#228,#229,#230,#231,
#232,#233,#234,#235,#236,#237),(#238,#239,#240,#241,#242,#243,#244,#245,
#246,#247,#248),(#249,#250,#251,#252,#253,#254,#255,#256,#257,#258,#259),
(#260,#261,#262,#263,#264,#265,#266,#267,#268,#269,#270),(#271,#272,#273,
#274,#275,#276,#277,#278,#279,#280,#281),(#282,#283,#284,#285,#286,#287,
#288,#289,#290,#291,#292),(#293,#294,#295,#296,#297,#298,#299,#300,#301,
#302,#303),(#304,#305,#306,#307,#308,#309,#310,#311,#312,#313,#314),(#315,
#316,#317,#318,#319,#320,#321,#322,#323,#324,#325),(#326,#327,#328,#329,
#330,#331,#332,#333,#334,#335,#336),(#337,#338,#339,#340,#341,#342,#343,
#344,#345,#346,#347),(#348,#349,#350,#351,#352,#353,#354,#355,#356,#357,
#358),(#359,#360,#361,#362,#363,#364,#365,#366,#367,#368,#369),(#370,#371,
#372,#373,#374,#375,#376,#377,#378,#379,#380),(#381,#382,#383,#384,#385,
#386,#387,#388,#389,#390,#391),(#392,#393,#394,#395,#396,#397,#398,#399,
#400,#401,#402),(#403,#404,#405,#406,#407,#408,#409,#410,#411,#412,#413),
(#414,#415,#416,#417,#418,#419,#420,#421,#422,#423,#424),(#425,#426,#427,
#428,#429,#430,#431,#432,#433,#434,#435),(#436,#437,#438,#439,#440,#441,
#442,#443,#444,#445,#446),(#447,#448,#449,#450,#451,#452,#453,#454,#455,
#456,#457),(#458,#459,#460,#461,#462,#463,#464,#465,#466,#467,#468),(#469,
#470,#471,#472,#473,#474,#475,#476,#477,#478,#479),(#480,#481,#482,#483,
#484,#485,#486,#487,#488,#489,#490),(#491,#492,#493,#494,#495,#496,#497,
#498,#499,#500,#501),(#502,#503,#504,#505,#506,#507,#508,#509,#510,#511,
#512),(#513,#514,#515,#516,#517,#518,#519,#520,#521,#522,#523),(#524,#525,
#526,#527,#528,#529,#530,#531,#532,#533,#534),(#535,#536,#537,#538,#539,
#540,#541,#542,#543,#544,#545),(#546,#547,#548,#549,#550,#551,#552,#553,
#554,#555,#556),(#557,#558,#559,#560,#561,#562,#563,#564,#565,#566,#567),
(#568,#569,#570,#571,#572,#573,#574,#575,#576,#577,#578)),.UNSPECIFIED.,
 .F.,.F.,.F.,(4,1,1,1,1,1,1,1,1,1,1,1,1,1,1,1,1,1,1,1,1,1,1,1,1,1,1,1,1,
1,1,1,1,1,1,1,1,1,4),(4,1,1,1,1,1,1,1,4),(0.,1.,1.5,2.,2.5,3.,3.5055606587479,
4.02090769106595,4.54604109695413,5.07540021766454,5.60475933837495,6.13411845908537,
6.66347757979578,7.1928367005062,7.72219582121661,8.25155494192702,8.78091406263744,
9.31027318334785,9.83963230405826,10.3689914247687,10.8983505454791,11.4277096661895,
11.9570687868999,12.4864279076103,13.0157870283207,13.5451461490312,14.0745052697416,
14.603864390452,15.1332235111624,15.6625826318728,16.1919417525832,16.7170751584714,
17.2324221907895,17.7379828495374,18.2379828495374,18.7379828495374,19.2379828495374,
19.7379828495374,20.7379828495374),(0.,0.627355216531246,0.941032824796869,
1.25471043306249,1.56838804132812,1.88206564959374,2.19574325785936,2.50942086612498,
3.13677608265623),.UNSPECIFIED.);
#34=SHAPE_DEFINITION_REPRESENTATION(#35,#120);
#35=PRODUCT_DEFINITION_SHAPE($,$,#37);
#36=PRODUCT_DEFINITION_CONTEXT('3D Mechanical Parts',#109,'design');
#37=PRODUCT_DEFINITION('A','First version',#79,#36);
#38=DATE_TIME_ROLE('classification_date');
#39=DATE_TIME_ROLE('creation_date');
#40=APPLIED_DATE_AND_TIME_ASSIGNMENT(#64,#38,(#43));
#41=APPLIED_DATE_AND_TIME_ASSIGNMENT(#66,#39,(#37));
#42=SECURITY_CLASSIFICATION_LEVEL('unclassified');
#43=SECURITY_CLASSIFICATION('A','Security for version',#42);
#44=APPLIED_SECURITY_CLASSIFICATION_ASSIGNMENT(#43,(#79));
#45=APPROVAL_ROLE('Version approval');
#46=APPROVAL_ROLE('Version Security approval');
#47=APPROVAL_ROLE('Definition approval');
#48=APPROVAL_PERSON_ORGANIZATION(#97,#73,#45);
#49=APPROVAL_PERSON_ORGANIZATION(#98,#74,#46);
#50=APPROVAL_PERSON_ORGANIZATION(#101,#75,#47);
#51=COORDINATED_UNIVERSAL_TIME_OFFSET(5,0,.BEHIND.);
#52=LOCAL_TIME(0,0,0.,#51);
#53=LOCAL_TIME(0,0,0.,#51);
#54=LOCAL_TIME(0,0,0.,#51);
#55=LOCAL_TIME(0,0,0.,#51);
#56=LOCAL_TIME(0,0,0.,#51);
#57=CALENDAR_DATE(1999,1,1);
#58=CALENDAR_DATE(1999,1,1);
#59=CALENDAR_DATE(1999,1,1);
#60=CALENDAR_DATE(1999,1,1);
#61=CALENDAR_DATE(1999,1,1);
#62=DATE_AND_TIME(#57,#52);
#63=DATE_AND_TIME(#58,#53);
#64=DATE_AND_TIME(#59,#54);
#65=DATE_AND_TIME(#60,#55);
#66=DATE_AND_TIME(#61,#56);
#67=APPROVAL_DATE_TIME(#62,#73);
#68=APPROVAL_DATE_TIME(#63,#74);
#69=APPROVAL_DATE_TIME(#65,#75);
#70=APPROVAL_STATUS('not_yet_approved');
#71=APPROVAL_STATUS('not_yet_approved');
#72=APPROVAL_STATUS('approved');
#73=APPROVAL(#70,'Version approval');
#74=APPROVAL(#71,'Version Security approval');
#75=APPROVAL(#72,'Definition approval');
#76=APPLIED_APPROVAL_ASSIGNMENT(#73,(#79));
#77=APPLIED_APPROVAL_ASSIGNMENT(#74,(#43));
#78=APPLIED_APPROVAL_ASSIGNMENT(#75,(#37));
#79=PRODUCT_DEFINITION_FORMATION_WITH_SPECIFIED_SOURCE('A',
'First version',#111,.MADE.);
#80=PERSON_AND_ORGANIZATION_ROLE('design_owner');
#81=PERSON_AND_ORGANIZATION_ROLE('creator');
#82=PERSON_AND_ORGANIZATION_ROLE('design_supplier');
#83=PERSON_AND_ORGANIZATION_ROLE('classification_officer');
#84=PERSON_AND_ORGANIZATION_ROLE('creator');
#85=ORGANIZATION('STI','lab','lab');
#86=ORGANIZATION('STI','unknown','unknown');
#87=ORGANIZATION('STI','unknown','unknown');
#88=ORGANIZATION('STI','unknown','unknown');
#89=ORGANIZATION('STI','unknown','unknown');
#90=ORGANIZATION('STI','unknown','unknown');
#91=ORGANIZATION('STI','unknown','unknown');
#92=PERSON('1','Box','vc60',$,$,$);
#93=PERSON('2','last','first',$,$,$);
#94=PERSON('3','President','Mr.',$,$,$);
#95=PERSON_AND_ORGANIZATION(#92,#85);
#96=PERSON_AND_ORGANIZATION(#93,#86);
#97=PERSON_AND_ORGANIZATION(#94,#87);
#98=PERSON_AND_ORGANIZATION(#94,#88);
#99=PERSON_AND_ORGANIZATION(#94,#89);
#100=PERSON_AND_ORGANIZATION(#93,#90);
#101=PERSON_AND_ORGANIZATION(#94,#91);
#102=APPLIED_PERSON_AND_ORGANIZATION_ASSIGNMENT(#95,#80,(#111));
#103=APPLIED_PERSON_AND_ORGANIZATION_ASSIGNMENT(#96,#81,(#79));
#104=APPLIED_PERSON_AND_ORGANIZATION_ASSIGNMENT(#96,#82,(#79));
#105=APPLIED_PERSON_AND_ORGANIZATION_ASSIGNMENT(#99,#83,(#43));
#106=APPLIED_PERSON_AND_ORGANIZATION_ASSIGNMENT(#100,#84,(#37));
#107=PRODUCT_RELATED_PRODUCT_CATEGORY('detail','detail',(#111));
#108=APPLICATION_PROTOCOL_DEFINITION('International Standard',
'config_control_design',1994,#109);
#109=APPLICATION_CONTEXT(
'configuration controlled 3d designs of mechanical parts and assemblie
s');
#110=PRODUCT_CONTEXT('3D Mechanical Parts',#109,'mechanical');
#111=PRODUCT('Document','Document','',(#110));
#112=(
LENGTH_UNIT()
NAMED_UNIT(*)
SI_UNIT(.MILLI.,.METRE.)
);
#113=(
NAMED_UNIT(*)
PLANE_ANGLE_UNIT()
SI_UNIT($,.RADIAN.)
);
#114=DIMENSIONAL_EXPONENTS(0.,0.,0.,0.,0.,0.,0.);
#115=PLANE_ANGLE_MEASURE_WITH_UNIT(PLANE_ANGLE_MEASURE(0.01745329252),#113);
#116=(
CONVERSION_BASED_UNIT('DEGREES',#115)
NAMED_UNIT(#114)
PLANE_ANGLE_UNIT()
);
#117=(
NAMED_UNIT(*)
SI_UNIT($,.STERADIAN.)
SOLID_ANGLE_UNIT()
);
#118=UNCERTAINTY_MEASURE_WITH_UNIT(LENGTH_MEASURE(0.001),#112,
'DISTANCE_ACCURACY_VALUE',
'Maximum model space distance between geometric entities at asserted c
onnectivities');
#119=(
GEOMETRIC_REPRESENTATION_CONTEXT(3)
GLOBAL_UNCERTAINTY_ASSIGNED_CONTEXT((#118))
GLOBAL_UNIT_ASSIGNED_CONTEXT((#117,#116,#112))
REPRESENTATION_CONTEXT('ID1','3D')
);
#120=SHAPE_REPRESENTATION('Document',(#121,#122),#119);
#121=AXIS2_PLACEMENT_3D($,#127,#123,#124);
#122=AXIS2_PLACEMENT_3D($,#687,#125,#126);
#123=DIRECTION('',(0.,0.,1.));
#124=DIRECTION('',(1.,0.,0.));
#125=DIRECTION('',(0.,0.,1.));
#126=DIRECTION('',(1.,0.,0.));
#127=CARTESIAN_POINT('',(0.,0.,0.));
#128=CARTESIAN_POINT('',(-4.5852234616656,-1.41365036221073,7.71681469282041));
#129=CARTESIAN_POINT('',(-4.43714418808511,-1.26565638316846,7.71681469282041));
#130=CARTESIAN_POINT('',(-4.25058140129404,-1.0083046311933,7.71681469282041));
#131=CARTESIAN_POINT('',(-4.08995986460696,-0.620272582741617,7.71681469282042));
#132=CARTESIAN_POINT('',(-4.01646588522397,-0.313999291140339,7.71681469282041));
#133=CARTESIAN_POINT('',(-3.99176705738801,2.77555756156289E-17,7.71681469282041));
#134=CARTESIAN_POINT('',(-4.01646588522397,0.313999291140339,7.71681469282041));
#135=CARTESIAN_POINT('',(-4.08995986460696,0.620272582741617,7.71681469282041));
#136=CARTESIAN_POINT('',(-4.25058140129404,1.0083046311933,7.71681469282041));
#137=CARTESIAN_POINT('',(-4.43714418808511,1.26565638316846,7.71681469282042));
#138=CARTESIAN_POINT('',(-4.5852234616656,1.41365036221073,7.71681469282041));
#139=CARTESIAN_POINT('',(-4.58522299816372,-1.41365036221073,7.3834908339273));
#140=CARTESIAN_POINT('',(-4.43714373955197,-1.26565638316846,7.38348688798957));
#141=CARTESIAN_POINT('',(-4.25058097161978,-1.0083046311933,7.38348191656366));
#142=CARTESIAN_POINT('',(-4.08995945116928,-0.620272582741617,7.38347763640637));
#143=CARTESIAN_POINT('',(-4.01646547921551,-0.313999291140339,7.3834756779779));
#144=CARTESIAN_POINT('',(-3.99176665387626,2.77555756156289E-17,7.38347501981667));
#145=CARTESIAN_POINT('',(-4.01646547921551,0.313999291140339,7.3834756779779));
#146=CARTESIAN_POINT('',(-4.08995945116928,0.620272582741617,7.38347763640637));
#147=CARTESIAN_POINT('',(-4.25058097161978,1.0083046311933,7.38348191656366));
#148=CARTESIAN_POINT('',(-4.43714373955197,1.26565638316846,7.38348688798957));
#149=CARTESIAN_POINT('',(-4.58522299816372,1.41365036221073,7.3834908339273));
#150=CARTESIAN_POINT('',(-4.58522438866937,-1.41365036221073,6.88346241060664));
#151=CARTESIAN_POINT('',(-4.4371450851514,-1.26565638316846,6.88347030248209));
#152=CARTESIAN_POINT('',(-4.25058226064256,-1.0083046311933,6.88348024533393));
#153=CARTESIAN_POINT('',(-4.0899606914823,-0.620272582741617,6.88348880564849));
#154=CARTESIAN_POINT('',(-4.01646669724089,-0.313999291140339,6.88349272250544));
#155=CARTESIAN_POINT('',(-3.99176786441152,2.77555756156289E-17,6.8834940388279));
#156=CARTESIAN_POINT('',(-4.01646669724089,0.313999291140339,6.88349272250544));
#157=CARTESIAN_POINT('',(-4.0899606914823,0.620272582741617,6.88348880564849));
#158=CARTESIAN_POINT('',(-4.25058226064256,1.0083046311933,6.88348024533393));
#159=CARTESIAN_POINT('',(-4.43714508515141,1.26565638316846,6.8834703024821));
#160=CARTESIAN_POINT('',(-4.58522438866937,1.41365036221073,6.88346241060664));
#161=CARTESIAN_POINT('',(-4.58522207115994,-1.41365036221073,6.21684311614107));
#162=CARTESIAN_POINT('',(-4.43714284248568,-1.26565638316846,6.21683127832789));
#163=CARTESIAN_POINT('',(-4.25058011227126,-1.0083046311933,6.21681636405014));
#164=CARTESIAN_POINT('',(-4.08995862429394,-0.620272582741617,6.2168035235783));
#165=CARTESIAN_POINT('',(-4.01646466719859,-0.313999291140339,6.21679764829287));
#166=CARTESIAN_POINT('',(-3.99176584685275,2.77555756156289E-17,6.21679567380918));
#167=CARTESIAN_POINT('',(-4.01646466719859,0.313999291140339,6.21679764829287));
#168=CARTESIAN_POINT('',(-4.08995862429394,0.620272582741617,6.21680352357829));
#169=CARTESIAN_POINT('',(-4.25058011227126,1.0083046311933,6.21681636405014));
#170=CARTESIAN_POINT('',(-4.43714284248568,1.26565638316846,6.21683127832789));
#171=CARTESIAN_POINT('',(-4.58522207115994,1.41365036221073,6.21684311614107));
#172=CARTESIAN_POINT('',(-4.58522867606183,-1.41365036221073,5.71670810536794));
#173=CARTESIAN_POINT('',(-4.437149234083,-1.26565638316846,5.71675249716736));
#174=CARTESIAN_POINT('',(-4.25058623512947,-1.0083046311933,5.71680842570894));
#175=CARTESIAN_POINT('',(-4.08996451578076,-0.620272582741617,5.71685657747837));
#176=CARTESIAN_POINT('',(-4.01647045281915,-0.313999291140339,5.71687860979871));
#177=CARTESIAN_POINT('',(-3.99177159689525,2.77555756156289E-17,5.71688601411253));
#178=CARTESIAN_POINT('',(-4.01647045281915,0.313999291140339,5.71687860979871));
#179=CARTESIAN_POINT('',(-4.08996451578076,0.620272582741617,5.71685657747837));
#180=CARTESIAN_POINT('',(-4.25058623512946,1.0083046311933,5.71680842570894));
#181=CARTESIAN_POINT('',(-4.437149234083,1.26565638316846,5.71675249716736));
#182=CARTESIAN_POINT('',(-4.58522867606183,1.41365036221073,5.71670810536794));
#183=CARTESIAN_POINT('',(-4.58520399458636,-1.41365036221073,5.21721261930965));
#184=CARTESIAN_POINT('',(-4.437125349693,-1.26565638316846,5.21704688992516));
#185=CARTESIAN_POINT('',(-4.25056335497511,-1.0083046311933,5.21683809003658));
#186=CARTESIAN_POINT('',(-4.08994250022473,-0.620272582741617,5.21665832343072));
#187=CARTESIAN_POINT('',(-4.01644883286866,-0.313999291140339,5.21657606943478));
#188=CARTESIAN_POINT('',(-3.99175010989434,2.77555756156289E-17,5.2165484266632));
#189=CARTESIAN_POINT('',(-4.01644883286866,0.313999291140339,5.21657606943478));
#190=CARTESIAN_POINT('',(-4.08994250022473,0.620272582741617,5.21665832343071));
#191=CARTESIAN_POINT('',(-4.25056335497511,1.0083046311933,5.21683809003658));
#192=CARTESIAN_POINT('',(-4.437125349693,1.26565638316846,5.21704688992516));
#193=CARTESIAN_POINT('',(-4.58520399458636,1.41365036221073,5.21721261930965));
#194=CARTESIAN_POINT('',(-4.58529645708863,-1.41365036221073,4.7134690407529));
#195=CARTESIAN_POINT('',(-4.4372148261292,-1.26565638316846,4.71409047380819));
#196=CARTESIAN_POINT('',(-4.25064906931286,-1.0083046311933,4.7148734077043));
#197=CARTESIAN_POINT('',(-4.09002497557766,-0.620272582741617,4.71554747592381));
#198=CARTESIAN_POINT('',(-4.01652982619191,-0.313999291140339,4.7158559025324));
#199=CARTESIAN_POINT('',(-3.9918306051578,2.77555756156289E-17,4.71595955422972));
#200=CARTESIAN_POINT('',(-4.01652982619191,0.313999291140339,4.7158559025324));
#201=CARTESIAN_POINT('',(-4.09002497557766,0.620272582741617,4.71554747592381));
#202=CARTESIAN_POINT('',(-4.25064906931286,1.0083046311933,4.7148734077043));
#203=CARTESIAN_POINT('',(-4.4372148261292,1.26565638316846,4.71409047380819));
#204=CARTESIAN_POINT('',(-4.58529645708863,1.41365036221073,4.7134690407529));
#205=CARTESIAN_POINT('',(-4.58494540467714,-1.41365036221073,4.21367567134349));
#206=CARTESIAN_POINT('',(-4.43687511091568,-1.26565638316846,4.21130848451563));
#207=CARTESIAN_POINT('',(-4.25032363765972,-1.0083046311933,4.20832610243892));
#208=CARTESIAN_POINT('',(-4.08971184137922,-0.620272582741617,4.20575841570788));
#209=CARTESIAN_POINT('',(-4.01622231881601,-0.313999291140339,4.20458354514216));
#210=CARTESIAN_POINT('',(-3.99152498876565,2.77555756156289E-17,4.20418871108806));
#211=CARTESIAN_POINT('',(-4.01622231881601,0.313999291140339,4.20458354514216));
#212=CARTESIAN_POINT('',(-4.08971184137922,0.620272582741617,4.20575841570787));
#213=CARTESIAN_POINT('',(-4.25032363765972,1.0083046311933,4.20832610243892));
#214=CARTESIAN_POINT('',(-4.43687511091568,1.26565638316846,4.21130848451563));
#215=CARTESIAN_POINT('',(-4.58494540467714,1.41365036221073,4.21367567134349));
#216=CARTESIAN_POINT('',(-4.58632457691349,-1.41365036221073,3.67013698483162));
#217=CARTESIAN_POINT('',(-4.43820974294049,-1.26565638316846,3.67951112617295));
#218=CARTESIAN_POINT('',(-4.25160215416082,-1.0083046311933,3.69132146188115));
#219=CARTESIAN_POINT('',(-4.09094204512832,-0.620272582741617,3.7014895897424));
#220=CARTESIAN_POINT('',(-4.0174304165856,-0.313999291140339,3.70614211763381));
#221=CARTESIAN_POINT('',(-3.99272565746708,2.77555756156289E-17,3.70770567408234));
#222=CARTESIAN_POINT('',(-4.0174304165856,0.313999291140339,3.70614211763381));
#223=CARTESIAN_POINT('',(-4.09094204512832,0.620272582741617,3.7014895897424));
#224=CARTESIAN_POINT('',(-4.25160215416082,1.0083046311933,3.69132146188116));
#225=CARTESIAN_POINT('',(-4.43820974294049,1.26565638316846,3.67951112617295));
#226=CARTESIAN_POINT('',(-4.58632457691349,1.41365036221073,3.67013698483162));
#227=CARTESIAN_POINT('',(-4.50850169563167,-1.41365036221073,3.10322599288177));
#228=CARTESIAN_POINT('',(-4.36290014281597,-1.26565638316846,3.13253566067106));
#229=CARTESIAN_POINT('',(-4.17945899809937,-1.0083046311933,3.16946245785526));
#230=CARTESIAN_POINT('',(-4.02152504426637,-0.620272582741617,3.20125464433937));
#231=CARTESIAN_POINT('',(-3.94926079511099,-0.313999291140339,3.21580147502096));
#232=CARTESIAN_POINT('',(-3.92497523779639,2.77555756156289E-17,3.22069017025259));
#233=CARTESIAN_POINT('',(-3.94926079511099,0.313999291140339,3.21580147502096));
#234=CARTESIAN_POINT('',(-4.02152504426637,0.620272582741617,3.20125464433937));
#235=CARTESIAN_POINT('',(-4.17945899809937,1.0083046311933,3.16946245785526));
#236=CARTESIAN_POINT('',(-4.36290014281597,1.26565638316846,3.13253566067106));
#237=CARTESIAN_POINT('',(-4.50850169563167,1.41365036221073,3.10322599288177));
#238=CARTESIAN_POINT('',(-4.36277371787549,-1.41365036221073,2.55065535348816));
#239=CARTESIAN_POINT('',(-4.22187843363467,-1.26565638316846,2.59736809141597));
#240=CARTESIAN_POINT('',(-4.04436664391482,-1.0083046311933,2.65622074753545));
#241=CARTESIAN_POINT('',(-3.8915375779725,-0.620272582741617,2.70689003816205));
#242=CARTESIAN_POINT('',(-3.82160912097257,-0.313999291140339,2.73007427532893));
#243=CARTESIAN_POINT('',(-3.79810854398959,2.77555756156289E-17,2.73786570922733));
#244=CARTESIAN_POINT('',(-3.82160912097257,0.313999291140339,2.73007427532893));
#245=CARTESIAN_POINT('',(-3.8915375779725,0.620272582741617,2.70689003816205));
#246=CARTESIAN_POINT('',(-4.04436664391482,1.0083046311933,2.65622074753544));
#247=CARTESIAN_POINT('',(-4.22187843363467,1.26565638316846,2.59736809141598));
#248=CARTESIAN_POINT('',(-4.36277371787549,1.41365036221073,2.55065535348816));
#249=CARTESIAN_POINT('',(-4.14785387932222,-1.41365036221073,2.01773737092296));
#250=CARTESIAN_POINT('',(-4.0138994069823,-1.26565638316846,2.08177942100152));
#251=CARTESIAN_POINT('',(-3.84513223883921,-1.0083046311933,2.16246500950811));
#252=CARTESIAN_POINT('',(-3.69983186915817,-0.620272582741617,2.23193139901345));
#253=CARTESIAN_POINT('',(-3.6333482419066,-0.313999291140339,2.26371643546259));
#254=CARTESIAN_POINT('',(-3.61100535508536,2.77555756156289E-17,2.27439830559138));
#255=CARTESIAN_POINT('',(-3.6333482419066,0.313999291140339,2.26371643546259));
#256=CARTESIAN_POINT('',(-3.69983186915817,0.620272582741617,2.23193139901345));
#257=CARTESIAN_POINT('',(-3.84513223883921,1.0083046311933,2.16246500950811));
#258=CARTESIAN_POINT('',(-4.0138994069823,1.26565638316846,2.08177942100152));
#259=CARTESIAN_POINT('',(-4.14785387932222,1.41365036221073,2.01773737092296));
#260=CARTESIAN_POINT('',(-3.86840201181813,-1.41365036221073,1.51615107715302));
#261=CARTESIAN_POINT('',(-3.74347240596218,-1.26565638316846,1.59635997126603));
#262=CARTESIAN_POINT('',(-3.58607552753593,-1.0083046311933,1.69741391655717));
#263=CARTESIAN_POINT('',(-3.45056442739951,-0.620272582741617,1.78441647617873));
#264=CARTESIAN_POINT('',(-3.38855997765381,-0.313999291140339,1.82422536143147));
#265=CARTESIAN_POINT('',(-3.36772239011004,2.77555756156289E-17,1.83760377434982));
#266=CARTESIAN_POINT('',(-3.38855997765381,0.313999291140339,1.82422536143147));
#267=CARTESIAN_POINT('',(-3.45056442739951,0.620272582741617,1.78441647617873));
#268=CARTESIAN_POINT('',(-3.58607552753593,1.0083046311933,1.69741391655717));
#269=CARTESIAN_POINT('',(-3.74347240596218,1.26565638316846,1.59635997126603));
#270=CARTESIAN_POINT('',(-3.86840201181813,1.41365036221073,1.51615107715302));
#271=CARTESIAN_POINT('',(-3.52853308451742,-1.41365036221073,1.05321746491325));
#272=CARTESIAN_POINT('',(-3.41457950726467,-1.26565638316846,1.14838527618354));
#273=CARTESIAN_POINT('',(-3.27101115753522,-1.0083046311933,1.26828572986682));
#274=CARTESIAN_POINT('',(-3.14740575181732,-0.620272582741617,1.37151422173993));
#275=CARTESIAN_POINT('',(-3.09084887079859,-0.313999291140339,1.41874744344816));
#276=CARTESIAN_POINT('',(-3.07184202589854,2.77555756156289E-17,1.43462092343801));
#277=CARTESIAN_POINT('',(-3.09084887079859,0.313999291140339,1.41874744344816));
#278=CARTESIAN_POINT('',(-3.14740575181732,0.620272582741617,1.37151422173993));
#279=CARTESIAN_POINT('',(-3.27101115753522,1.0083046311933,1.26828572986682));
#280=CARTESIAN_POINT('',(-3.41457950726467,1.26565638316846,1.14838527618354));
#281=CARTESIAN_POINT('',(-3.52853308451742,1.41365036221073,1.05321746491325));
#282=CARTESIAN_POINT('',(-3.13361649592187,-1.41365036221073,0.636296065767475));
#283=CARTESIAN_POINT('',(-3.03241670527364,-1.26565638316846,0.744926021318525));
#284=CARTESIAN_POINT('',(-2.90491665405447,-1.0083046311933,0.8817872223939));
#285=CARTESIAN_POINT('',(-2.79514527624247,-0.620272582741617,0.999618097498615));
#286=CARTESIAN_POINT('',(-2.74491829208981,-0.313999291140339,1.0535327846834));
#287=CARTESIAN_POINT('',(-2.72803871032379,2.77555756156289E-17,1.07165167806469));
#288=CARTESIAN_POINT('',(-2.74491829208982,0.313999291140339,1.05353278468341));
#289=CARTESIAN_POINT('',(-2.79514527624247,0.620272582741616,0.999618097498615));
#290=CARTESIAN_POINT('',(-2.90491665405447,1.0083046311933,0.8817872223939));
#291=CARTESIAN_POINT('',(-3.03241670527364,1.26565638316846,0.744926021318525));
#292=CARTESIAN_POINT('',(-3.13361649592187,1.41365036221073,0.636296065767475));
#293=CARTESIAN_POINT('',(-2.68979714083293,-1.41365036221073,0.271856462817998));
#294=CARTESIAN_POINT('',(-2.60293044610728,-1.26565638316846,0.392256566482097));
#295=CARTESIAN_POINT('',(-2.49348844078478,-1.0083046311933,0.543946795143973));
#296=CARTESIAN_POINT('',(-2.39926416714814,-0.620272582741617,0.674544745824088));
#297=CARTESIAN_POINT('',(-2.3561509149227,-0.313999291140339,0.734301135239304));
#298=CARTESIAN_POINT('',(-2.34166201660608,2.77555756156289E-17,0.754383226135132));
#299=CARTESIAN_POINT('',(-2.3561509149227,0.313999291140339,0.734301135239305));
#300=CARTESIAN_POINT('',(-2.39926416714814,0.620272582741617,0.674544745824087));
#301=CARTESIAN_POINT('',(-2.49348844078478,1.0083046311933,0.543946795143973));
#302=CARTESIAN_POINT('',(-2.60293044610728,1.26565638316846,0.392256566482097));
#303=CARTESIAN_POINT('',(-2.68979714083293,1.41365036221073,0.271856462817998));
#304=CARTESIAN_POINT('',(-2.20400540020543,-1.41365036221073,-0.0344046496445607));
#305=CARTESIAN_POINT('',(-2.1328272948506,-1.26565638316846,0.0958859579693853));
#306=CARTESIAN_POINT('',(-2.04315110065797,-1.0083046311933,0.26003707960457));
#307=CARTESIAN_POINT('',(-1.96594423446981,-0.620272582741617,0.401363256488271));
#308=CARTESIAN_POINT('',(-1.93061746603706,-0.313999291140339,0.466028452354259));
#309=CARTESIAN_POINT('',(-1.91874534019972,2.77555756156289E-17,0.487760226209501));
#310=CARTESIAN_POINT('',(-1.93061746603706,0.313999291140339,0.46602845235426));
#311=CARTESIAN_POINT('',(-1.96594423446981,0.620272582741617,0.401363256488271));
#312=CARTESIAN_POINT('',(-2.04315110065797,1.0083046311933,0.26003707960457));
#313=CARTESIAN_POINT('',(-2.1328272948506,1.26565638316846,0.0958859579693853));
#314=CARTESIAN_POINT('',(-2.20400540020543,1.41365036221073,-0.0344046496445607));
#315=CARTESIAN_POINT('',(-1.68382062472331,-1.41365036221073,-0.277710778209796));
#316=CARTESIAN_POINT('',(-1.62944182791363,-1.26565638316846,-0.139562582699905));
#317=CARTESIAN_POINT('',(-1.56093082276176,-1.0083046311933,0.0344881924105962));
#318=CARTESIAN_POINT('',(-1.5019461607252,-0.620272582741617,0.184337492159392));
#319=CARTESIAN_POINT('',(-1.47495714278253,-0.313999291140339,0.25290252754283));
#320=CARTESIAN_POINT('',(-1.46588705141961,2.77555756156289E-17,0.275944904873867));
#321=CARTESIAN_POINT('',(-1.47495714278252,0.313999291140339,0.25290252754283));
#322=CARTESIAN_POINT('',(-1.5019461607252,0.620272582741617,0.184337492159392));
#323=CARTESIAN_POINT('',(-1.56093082276176,1.0083046311933,0.0344881924105961));
#324=CARTESIAN_POINT('',(-1.62944182791364,1.26565638316846,-0.139562582699905));
#325=CARTESIAN_POINT('',(-1.68382062472331,1.41365036221073,-0.277710778209796));
#326=CARTESIAN_POINT('',(-1.13736046327499,-1.41365036221073,-0.454264513022297));
#327=CARTESIAN_POINT('',(-1.10062953563123,-1.26565638316846,-0.310414546392516));
#328=CARTESIAN_POINT('',(-1.0543528079235,-1.0083046311933,-0.129180198023917));
#329=CARTESIAN_POINT('',(-1.01451078344952,-0.620272582741617,0.0268538108807959));
#330=CARTESIAN_POINT('',(-0.996280669445743,-0.313999291140339,0.0982487213642356));
#331=CARTESIAN_POINT('',(-0.990154147913105,2.77555756156289E-17,0.122242123506815));
#332=CARTESIAN_POINT('',(-0.996280669445744,0.313999291140339,0.0982487213642357));
#333=CARTESIAN_POINT('',(-1.01451078344952,0.620272582741617,0.0268538108807959));
#334=CARTESIAN_POINT('',(-1.0543528079235,1.0083046311933,-0.129180198023916));
#335=CARTESIAN_POINT('',(-1.10062953563123,1.26565638316846,-0.310414546392516));
#336=CARTESIAN_POINT('',(-1.13736046327499,1.41365036221073,-0.454264513022297));
#337=CARTESIAN_POINT('',(-0.573152153073529,-1.41365036221073,-0.56131097966231));
#338=CARTESIAN_POINT('',(-0.554642269054182,-1.26565638316846,-0.414003956271189));
#339=CARTESIAN_POINT('',(-0.531321952426939,-1.0083046311933,-0.228414115551122));
#340=CARTESIAN_POINT('',(-0.511244287651853,-0.620272582741617,-0.0686302383765659));
#341=CARTESIAN_POINT('',(-0.502057552725308,-0.313999291140339,0.0044804615769354));
#342=CARTESIAN_POINT('',(-0.498970203445404,2.77555756156289E-17,0.0290504822273105));
#343=CARTESIAN_POINT('',(-0.502057552725308,0.313999291140339,0.00448046157693542));
#344=CARTESIAN_POINT('',(-0.511244287651853,0.620272582741617,-0.0686302383765659));
#345=CARTESIAN_POINT('',(-0.531321952426939,1.0083046311933,-0.228414115551122));
#346=CARTESIAN_POINT('',(-0.554642269054182,1.26565638316846,-0.414003956271189));
#347=CARTESIAN_POINT('',(-0.573152153073529,1.41365036221073,-0.56131097966231));
#348=CARTESIAN_POINT('',(-1.52655665885959E-15,-1.41365036221073,-0.597179702667245));
#349=CARTESIAN_POINT('',(-1.27675647831893E-15,-1.26565638316846,-0.448714303992076));
#350=CARTESIAN_POINT('',(-1.41553435639707E-15,-1.0083046311933,-0.261665044165496));
#351=CARTESIAN_POINT('',(-1.4432899320127E-15,-0.620272582741617,-0.100624677722149));
#352=CARTESIAN_POINT('',(-1.27675647831893E-15,-0.313999291140339,-0.026939058624428));
#353=CARTESIAN_POINT('',(-1.30451205393456E-15,2.77555756156289E-17,-0.00217582719567481));
#354=CARTESIAN_POINT('',(-1.38777878078145E-15,0.313999291140339,-0.026939058624428));
#355=CARTESIAN_POINT('',(-1.33226762955019E-15,0.620272582741617,-0.100624677722149));
#356=CARTESIAN_POINT('',(-1.4432899320127E-15,1.0083046311933,-0.261665044165496));
#357=CARTESIAN_POINT('',(-1.2490009027033E-15,1.26565638316846,-0.448714303992076));
#358=CARTESIAN_POINT('',(-1.52655665885959E-15,1.41365036221073,-0.597179702667245));
#359=CARTESIAN_POINT('',(0.573152153073525,-1.41365036221073,-0.561310979662311));
#360=CARTESIAN_POINT('',(0.554642269054177,-1.26565638316846,-0.41400395627119));
#361=CARTESIAN_POINT('',(0.531321952426935,-1.0083046311933,-0.228414115551123));
#362=CARTESIAN_POINT('',(0.51124428765185,-0.620272582741617,-0.0686302383765667));
#363=CARTESIAN_POINT('',(0.502057552725304,-0.313999291140339,0.00448046157693451));
#364=CARTESIAN_POINT('',(0.4989702034454,2.77555756156289E-17,0.0290504822273096));
#365=CARTESIAN_POINT('',(0.502057552725305,0.313999291140339,0.00448046157693453));
#366=CARTESIAN_POINT('',(0.511244287651849,0.620272582741617,-0.0686302383765668));
#367=CARTESIAN_POINT('',(0.531321952426935,1.0083046311933,-0.228414115551123));
#368=CARTESIAN_POINT('',(0.554642269054177,1.26565638316846,-0.41400395627119));
#369=CARTESIAN_POINT('',(0.573152153073525,1.41365036221073,-0.561310979662311));
#370=CARTESIAN_POINT('',(1.13736046327499,-1.41365036221073,-0.454264513022298));
#371=CARTESIAN_POINT('',(1.10062953563123,-1.26565638316846,-0.310414546392517));
#372=CARTESIAN_POINT('',(1.0543528079235,-1.0083046311933,-0.129180198023917));
#373=CARTESIAN_POINT('',(1.01451078344952,-0.620272582741617,0.0268538108807954));
#374=CARTESIAN_POINT('',(0.996280669445741,-0.313999291140339,0.0982487213642351));
#375=CARTESIAN_POINT('',(0.990154147913103,2.77555756156289E-17,0.122242123506814));
#376=CARTESIAN_POINT('',(0.996280669445741,0.313999291140339,0.0982487213642351));
#377=CARTESIAN_POINT('',(1.01451078344952,0.620272582741617,0.0268538108807954));
#378=CARTESIAN_POINT('',(1.0543528079235,1.0083046311933,-0.129180198023917));
#379=CARTESIAN_POINT('',(1.10062953563123,1.26565638316846,-0.310414546392517));
#380=CARTESIAN_POINT('',(1.13736046327499,1.41365036221073,-0.454264513022298));
#381=CARTESIAN_POINT('',(1.68382062472331,-1.41365036221073,-0.277710778209798));
#382=CARTESIAN_POINT('',(1.62944182791363,-1.26565638316846,-0.139562582699907));
#383=CARTESIAN_POINT('',(1.56093082276176,-1.0083046311933,0.0344881924105939));
#384=CARTESIAN_POINT('',(1.50194616072519,-0.620272582741617,0.18433749215939));
#385=CARTESIAN_POINT('',(1.47495714278252,-0.313999291140339,0.252902527542828));
#386=CARTESIAN_POINT('',(1.46588705141961,2.77555756156289E-17,0.275944904873865));
#387=CARTESIAN_POINT('',(1.47495714278252,0.313999291140339,0.252902527542828));
#388=CARTESIAN_POINT('',(1.50194616072519,0.620272582741617,0.18433749215939));
#389=CARTESIAN_POINT('',(1.56093082276175,1.0083046311933,0.034488192410594));
#390=CARTESIAN_POINT('',(1.62944182791363,1.26565638316846,-0.139562582699907));
#391=CARTESIAN_POINT('',(1.68382062472331,1.41365036221073,-0.277710778209798));
#392=CARTESIAN_POINT('',(2.20400540020543,-1.41365036221073,-0.0344046496445619));
#393=CARTESIAN_POINT('',(2.13282729485059,-1.26565638316846,0.0958859579693843));
#394=CARTESIAN_POINT('',(2.04315110065797,-1.0083046311933,0.260037079604569));
#395=CARTESIAN_POINT('',(1.96594423446981,-0.620272582741617,0.40136325648827));
#396=CARTESIAN_POINT('',(1.93061746603706,-0.313999291140339,0.466028452354258));
#397=CARTESIAN_POINT('',(1.91874534019972,2.77555756156289E-17,0.4877602262095));
#398=CARTESIAN_POINT('',(1.93061746603706,0.313999291140339,0.466028452354259));
#399=CARTESIAN_POINT('',(1.96594423446981,0.620272582741617,0.40136325648827));
#400=CARTESIAN_POINT('',(2.04315110065797,1.0083046311933,0.260037079604569));
#401=CARTESIAN_POINT('',(2.13282729485059,1.26565638316846,0.0958859579693844));
#402=CARTESIAN_POINT('',(2.20400540020543,1.41365036221073,-0.0344046496445619));
#403=CARTESIAN_POINT('',(2.68979714083293,-1.41365036221073,0.271856462817996));
#404=CARTESIAN_POINT('',(2.60293044610727,-1.26565638316846,0.392256566482094));
#405=CARTESIAN_POINT('',(2.49348844078477,-1.0083046311933,0.543946795143971));
#406=CARTESIAN_POINT('',(2.39926416714814,-0.620272582741617,0.674544745824085));
#407=CARTESIAN_POINT('',(2.3561509149227,-0.313999291140339,0.734301135239302));
#408=CARTESIAN_POINT('',(2.34166201660607,2.77555756156289E-17,0.75438322613513));
#409=CARTESIAN_POINT('',(2.3561509149227,0.313999291140339,0.734301135239303));
#410=CARTESIAN_POINT('',(2.39926416714814,0.620272582741617,0.674544745824085));
#411=CARTESIAN_POINT('',(2.49348844078477,1.0083046311933,0.543946795143971));
#412=CARTESIAN_POINT('',(2.60293044610727,1.26565638316846,0.392256566482094));
#413=CARTESIAN_POINT('',(2.68979714083293,1.41365036221073,0.271856462817996));
#414=CARTESIAN_POINT('',(3.13361649592187,-1.41365036221073,0.636296065767473));
#415=CARTESIAN_POINT('',(3.03241670527364,-1.26565638316846,0.744926021318524));
#416=CARTESIAN_POINT('',(2.90491665405447,-1.0083046311933,0.881787222393898));
#417=CARTESIAN_POINT('',(2.79514527624247,-0.620272582741617,0.999618097498613));
#418=CARTESIAN_POINT('',(2.74491829208981,-0.313999291140339,1.0535327846834));
#419=CARTESIAN_POINT('',(2.72803871032379,2.77555756156289E-17,1.07165167806469));
#420=CARTESIAN_POINT('',(2.74491829208981,0.313999291140339,1.0535327846834));
#421=CARTESIAN_POINT('',(2.79514527624247,0.620272582741617,0.999618097498613));
#422=CARTESIAN_POINT('',(2.90491665405447,1.0083046311933,0.881787222393898));
#423=CARTESIAN_POINT('',(3.03241670527364,1.26565638316846,0.744926021318524));
#424=CARTESIAN_POINT('',(3.13361649592187,1.41365036221073,0.636296065767473));
#425=CARTESIAN_POINT('',(3.52853308451742,-1.41365036221073,1.05321746491325));
#426=CARTESIAN_POINT('',(3.41457950726467,-1.26565638316846,1.14838527618353));
#427=CARTESIAN_POINT('',(3.27101115753522,-1.0083046311933,1.26828572986682));
#428=CARTESIAN_POINT('',(3.14740575181732,-0.620272582741617,1.37151422173993));
#429=CARTESIAN_POINT('',(3.09084887079859,-0.313999291140339,1.41874744344816));
#430=CARTESIAN_POINT('',(3.07184202589854,2.77555756156289E-17,1.434620923438));
#431=CARTESIAN_POINT('',(3.09084887079859,0.313999291140339,1.41874744344816));
#432=CARTESIAN_POINT('',(3.14740575181732,0.620272582741617,1.37151422173993));
#433=CARTESIAN_POINT('',(3.27101115753521,1.0083046311933,1.26828572986682));
#434=CARTESIAN_POINT('',(3.41457950726467,1.26565638316846,1.14838527618353));
#435=CARTESIAN_POINT('',(3.52853308451742,1.41365036221073,1.05321746491325));
#436=CARTESIAN_POINT('',(3.86840201181813,-1.41365036221073,1.51615107715302));
#437=CARTESIAN_POINT('',(3.74347240596218,-1.26565638316846,1.59635997126603));
#438=CARTESIAN_POINT('',(3.58607552753592,-1.0083046311933,1.69741391655717));
#439=CARTESIAN_POINT('',(3.45056442739951,-0.620272582741617,1.78441647617873));
#440=CARTESIAN_POINT('',(3.38855997765381,-0.313999291140339,1.82422536143146));
#441=CARTESIAN_POINT('',(3.36772239011004,2.77555756156289E-17,1.83760377434982));
#442=CARTESIAN_POINT('',(3.38855997765381,0.313999291140339,1.82422536143146));
#443=CARTESIAN_POINT('',(3.4505644273995,0.620272582741617,1.78441647617873));
#444=CARTESIAN_POINT('',(3.58607552753593,1.0083046311933,1.69741391655717));
#445=CARTESIAN_POINT('',(3.74347240596218,1.26565638316846,1.59635997126603));
#446=CARTESIAN_POINT('',(3.86840201181813,1.41365036221073,1.51615107715302));
#447=CARTESIAN_POINT('',(4.14785387932221,-1.41365036221073,2.01773737092296));
#448=CARTESIAN_POINT('',(4.01389940698229,-1.26565638316846,2.08177942100152));
#449=CARTESIAN_POINT('',(3.84513223883921,-1.0083046311933,2.16246500950811));
#450=CARTESIAN_POINT('',(3.69983186915817,-0.620272582741617,2.23193139901345));
#451=CARTESIAN_POINT('',(3.63334824190659,-0.313999291140339,2.26371643546258));
#452=CARTESIAN_POINT('',(3.61100535508535,2.77555756156289E-17,2.27439830559137));
#453=CARTESIAN_POINT('',(3.6333482419066,0.313999291140339,2.26371643546258));
#454=CARTESIAN_POINT('',(3.69983186915817,0.620272582741617,2.23193139901345));
#455=CARTESIAN_POINT('',(3.84513223883921,1.0083046311933,2.16246500950811));
#456=CARTESIAN_POINT('',(4.0138994069823,1.26565638316846,2.08177942100152));
#457=CARTESIAN_POINT('',(4.14785387932221,1.41365036221073,2.01773737092296));
#458=CARTESIAN_POINT('',(4.36277371787549,-1.41365036221073,2.55065535348816));
#459=CARTESIAN_POINT('',(4.22187843363467,-1.26565638316846,2.59736809141597));
#460=CARTESIAN_POINT('',(4.04436664391482,-1.0083046311933,2.65622074753544));
#461=CARTESIAN_POINT('',(3.8915375779725,-0.620272582741617,2.70689003816205));
#462=CARTESIAN_POINT('',(3.82160912097257,-0.313999291140339,2.73007427532893));
#463=CARTESIAN_POINT('',(3.79810854398958,2.77555756156289E-17,2.73786570922733));
#464=CARTESIAN_POINT('',(3.82160912097257,0.313999291140339,2.73007427532893));
#465=CARTESIAN_POINT('',(3.8915375779725,0.620272582741617,2.70689003816205));
#466=CARTESIAN_POINT('',(4.04436664391482,1.0083046311933,2.65622074753544));
#467=CARTESIAN_POINT('',(4.22187843363468,1.26565638316846,2.59736809141597));
#468=CARTESIAN_POINT('',(4.36277371787549,1.41365036221073,2.55065535348816));
#469=CARTESIAN_POINT('',(4.50850169563167,-1.41365036221073,3.10322599288177));
#470=CARTESIAN_POINT('',(4.36290014281597,-1.26565638316846,3.13253566067105));
#471=CARTESIAN_POINT('',(4.17945899809936,-1.0083046311933,3.16946245785525));
#472=CARTESIAN_POINT('',(4.02152504426637,-0.620272582741617,3.20125464433937));
#473=CARTESIAN_POINT('',(3.94926079511099,-0.313999291140339,3.21580147502095));
#474=CARTESIAN_POINT('',(3.92497523779639,2.77555756156289E-17,3.22069017025259));
#475=CARTESIAN_POINT('',(3.94926079511099,0.313999291140339,3.21580147502095));
#476=CARTESIAN_POINT('',(4.02152504426637,0.620272582741617,3.20125464433936));
#477=CARTESIAN_POINT('',(4.17945899809937,1.0083046311933,3.16946245785525));
#478=CARTESIAN_POINT('',(4.36290014281596,1.26565638316846,3.13253566067105));
#479=CARTESIAN_POINT('',(4.50850169563167,1.41365036221073,3.10322599288177));
#480=CARTESIAN_POINT('',(4.58632457691349,-1.41365036221073,3.67013698483162));
#481=CARTESIAN_POINT('',(4.43820974294049,-1.26565638316846,3.67951112617296));
#482=CARTESIAN_POINT('',(4.25160215416082,-1.0083046311933,3.69132146188116));
#483=CARTESIAN_POINT('',(4.09094204512832,-0.620272582741617,3.7014895897424));
#484=CARTESIAN_POINT('',(4.0174304165856,-0.313999291140339,3.70614211763381));
#485=CARTESIAN_POINT('',(3.99272565746708,2.77555756156289E-17,3.70770567408234));
#486=CARTESIAN_POINT('',(4.0174304165856,0.313999291140339,3.70614211763381));
#487=CARTESIAN_POINT('',(4.09094204512832,0.620272582741617,3.7014895897424));
#488=CARTESIAN_POINT('',(4.25160215416082,1.0083046311933,3.69132146188116));
#489=CARTESIAN_POINT('',(4.43820974294049,1.26565638316846,3.67951112617295));
#490=CARTESIAN_POINT('',(4.58632457691349,1.41365036221073,3.67013698483162));
#491=CARTESIAN_POINT('',(4.58494540467714,-1.41365036221073,4.21367567134348));
#492=CARTESIAN_POINT('',(4.43687511091568,-1.26565638316846,4.21130848451563));
#493=CARTESIAN_POINT('',(4.25032363765972,-1.0083046311933,4.20832610243892));
#494=CARTESIAN_POINT('',(4.08971184137922,-0.620272582741617,4.20575841570787));
#495=CARTESIAN_POINT('',(4.016222318816,-0.313999291140339,4.20458354514216));
#496=CARTESIAN_POINT('',(3.99152498876565,2.77555756156289E-17,4.20418871108805));
#497=CARTESIAN_POINT('',(4.016222318816,0.313999291140339,4.20458354514216));
#498=CARTESIAN_POINT('',(4.08971184137922,0.620272582741616,4.20575841570787));
#499=CARTESIAN_POINT('',(4.25032363765972,1.0083046311933,4.20832610243892));
#500=CARTESIAN_POINT('',(4.43687511091568,1.26565638316846,4.21130848451563));
#501=CARTESIAN_POINT('',(4.58494540467714,1.41365036221073,4.21367567134348));
#502=CARTESIAN_POINT('',(4.58529645708863,-1.41365036221073,4.7134690407529));
#503=CARTESIAN_POINT('',(4.4372148261292,-1.26565638316846,4.71409047380819));
#504=CARTESIAN_POINT('',(4.25064906931286,-1.0083046311933,4.7148734077043));
#505=CARTESIAN_POINT('',(4.09002497557766,-0.620272582741617,4.71554747592381));
#506=CARTESIAN_POINT('',(4.01652982619191,-0.313999291140339,4.7158559025324));
#507=CARTESIAN_POINT('',(3.9918306051578,2.77555756156289E-17,4.71595955422972));
#508=CARTESIAN_POINT('',(4.01652982619191,0.313999291140339,4.7158559025324));
#509=CARTESIAN_POINT('',(4.09002497557766,0.620272582741617,4.71554747592381));
#510=CARTESIAN_POINT('',(4.25064906931286,1.0083046311933,4.7148734077043));
#511=CARTESIAN_POINT('',(4.4372148261292,1.26565638316846,4.71409047380819));
#512=CARTESIAN_POINT('',(4.58529645708863,1.41365036221073,4.7134690407529));
#513=CARTESIAN_POINT('',(4.58520399458636,-1.41365036221073,5.21721261930965));
#514=CARTESIAN_POINT('',(4.437125349693,-1.26565638316846,5.21704688992515));
#515=CARTESIAN_POINT('',(4.25056335497511,-1.0083046311933,5.21683809003658));
#516=CARTESIAN_POINT('',(4.08994250022473,-0.620272582741617,5.21665832343071));
#517=CARTESIAN_POINT('',(4.01644883286866,-0.313999291140339,5.21657606943477));
#518=CARTESIAN_POINT('',(3.99175010989434,2.77555756156289E-17,5.2165484266632));
#519=CARTESIAN_POINT('',(4.01644883286866,0.313999291140339,5.21657606943478));
#520=CARTESIAN_POINT('',(4.08994250022473,0.620272582741617,5.21665832343071));
#521=CARTESIAN_POINT('',(4.25056335497511,1.0083046311933,5.21683809003658));
#522=CARTESIAN_POINT('',(4.437125349693,1.26565638316846,5.21704688992515));
#523=CARTESIAN_POINT('',(4.58520399458636,1.41365036221073,5.21721261930965));
#524=CARTESIAN_POINT('',(4.58522867606183,-1.41365036221073,5.71670810536794));
#525=CARTESIAN_POINT('',(4.437149234083,-1.26565638316846,5.71675249716735));
#526=CARTESIAN_POINT('',(4.25058623512946,-1.0083046311933,5.71680842570894));
#527=CARTESIAN_POINT('',(4.08996451578076,-0.620272582741617,5.71685657747836));
#528=CARTESIAN_POINT('',(4.01647045281914,-0.313999291140339,5.7168786097987));
#529=CARTESIAN_POINT('',(3.99177159689525,2.77555756156289E-17,5.71688601411252));
#530=CARTESIAN_POINT('',(4.01647045281914,0.313999291140339,5.7168786097987));
#531=CARTESIAN_POINT('',(4.08996451578076,0.620272582741617,5.71685657747837));
#532=CARTESIAN_POINT('',(4.25058623512946,1.0083046311933,5.71680842570894));
#533=CARTESIAN_POINT('',(4.437149234083,1.26565638316846,5.71675249716735));
#534=CARTESIAN_POINT('',(4.58522867606183,1.41365036221073,5.71670810536794));
#535=CARTESIAN_POINT('',(4.58522207115994,-1.41365036221073,6.21684311614107));
#536=CARTESIAN_POINT('',(4.43714284248568,-1.26565638316846,6.21683127832789));
#537=CARTESIAN_POINT('',(4.25058011227126,-1.0083046311933,6.21681636405013));
#538=CARTESIAN_POINT('',(4.08995862429394,-0.620272582741617,6.21680352357829));
#539=CARTESIAN_POINT('',(4.01646466719859,-0.313999291140339,6.21679764829286));
#540=CARTESIAN_POINT('',(3.99176584685275,2.77555756156289E-17,6.21679567380918));
#541=CARTESIAN_POINT('',(4.01646466719859,0.313999291140339,6.21679764829286));
#542=CARTESIAN_POINT('',(4.08995862429394,0.620272582741617,6.21680352357829));
#543=CARTESIAN_POINT('',(4.25058011227126,1.0083046311933,6.21681636405014));
#544=CARTESIAN_POINT('',(4.43714284248568,1.26565638316846,6.21683127832789));
#545=CARTESIAN_POINT('',(4.58522207115994,1.41365036221073,6.21684311614107));
#546=CARTESIAN_POINT('',(4.58522438866938,-1.41365036221073,6.88346241060664));
#547=CARTESIAN_POINT('',(4.4371450851514,-1.26565638316846,6.88347030248209));
#548=CARTESIAN_POINT('',(4.25058226064256,-1.0083046311933,6.88348024533393));
#549=CARTESIAN_POINT('',(4.0899606914823,-0.620272582741617,6.88348880564849));
#550=CARTESIAN_POINT('',(4.01646669724089,-0.313999291140339,6.88349272250544));
#551=CARTESIAN_POINT('',(3.99176786441152,2.77555756156289E-17,6.8834940388279));
#552=CARTESIAN_POINT('',(4.01646669724089,0.313999291140339,6.88349272250545));
#553=CARTESIAN_POINT('',(4.0899606914823,0.620272582741617,6.88348880564849));
#554=CARTESIAN_POINT('',(4.25058226064256,1.0083046311933,6.88348024533393));
#555=CARTESIAN_POINT('',(4.4371450851514,1.26565638316846,6.88347030248209));
#556=CARTESIAN_POINT('',(4.58522438866938,1.41365036221073,6.88346241060664));
#557=CARTESIAN_POINT('',(4.58522299816371,-1.41365036221073,7.3834908339273));
#558=CARTESIAN_POINT('',(4.43714373955197,-1.26565638316846,7.38348688798957));
#559=CARTESIAN_POINT('',(4.25058097161978,-1.0083046311933,7.38348191656365));
#560=CARTESIAN_POINT('',(4.08995945116928,-0.620272582741617,7.38347763640637));
#561=CARTESIAN_POINT('',(4.01646547921551,-0.313999291140339,7.3834756779779));
#562=CARTESIAN_POINT('',(3.99176665387626,2.77555756156289E-17,7.38347501981667));
#563=CARTESIAN_POINT('',(4.01646547921551,0.313999291140339,7.38347567797789));
#564=CARTESIAN_POINT('',(4.08995945116928,0.620272582741616,7.38347763640637));
#565=CARTESIAN_POINT('',(4.25058097161978,1.0083046311933,7.38348191656365));
#566=CARTESIAN_POINT('',(4.43714373955197,1.26565638316846,7.38348688798957));
#567=CARTESIAN_POINT('',(4.58522299816371,1.41365036221073,7.3834908339273));
#568=CARTESIAN_POINT('',(4.5852234616656,-1.41365036221073,7.71681469282041));
#569=CARTESIAN_POINT('',(4.43714418808511,-1.26565638316846,7.71681469282041));
#570=CARTESIAN_POINT('',(4.25058140129404,-1.0083046311933,7.71681469282041));
#571=CARTESIAN_POINT('',(4.08995986460696,-0.620272582741617,7.71681469282042));
#572=CARTESIAN_POINT('',(4.01646588522397,-0.313999291140339,7.71681469282041));
#573=CARTESIAN_POINT('',(3.99176705738801,2.77555756156289E-17,7.71681469282041));
#574=CARTESIAN_POINT('',(4.01646588522397,0.313999291140339,7.71681469282041));
#575=CARTESIAN_POINT('',(4.08995986460696,0.620272582741617,7.71681469282041));
#576=CARTESIAN_POINT('',(4.25058140129404,1.0083046311933,7.71681469282041));
#577=CARTESIAN_POINT('',(4.43714418808511,1.26565638316846,7.71681469282042));
#578=CARTESIAN_POINT('',(4.5852234616656,1.41365036221073,7.71681469282041));
#579=CARTESIAN_POINT('',(-4.5852234616656,-1.41365036221073,7.71681469282041));
#580=CARTESIAN_POINT('',(4.5852234616656,-1.41365036221073,7.71681469282041));
#581=CARTESIAN_POINT('',(4.5852234616656,1.41365036221073,7.71681469282041));
#582=CARTESIAN_POINT('',(-4.5852234616656,1.41365036221073,7.71681469282041));
#583=CARTESIAN_POINT('',(-4.5852234616656,-1.41365036221073,7.71681469282041));
#584=CARTESIAN_POINT('',(-4.58522299816372,-1.41365036221073,7.3834908339273));
#585=CARTESIAN_POINT('',(-4.58522438866937,-1.41365036221073,6.88346241060664));
#586=CARTESIAN_POINT('',(-4.58522207115994,-1.41365036221073,6.21684311614107));
#587=CARTESIAN_POINT('',(-4.58522867606183,-1.41365036221073,5.71670810536794));
#588=CARTESIAN_POINT('',(-4.58520399458636,-1.41365036221073,5.21721261930965));
#589=CARTESIAN_POINT('',(-4.58529645708863,-1.41365036221073,4.7134690407529));
#590=CARTESIAN_POINT('',(-4.58494540467714,-1.41365036221073,4.21367567134349));
#591=CARTESIAN_POINT('',(-4.58632457691349,-1.41365036221073,3.67013698483162));
#592=CARTESIAN_POINT('',(-4.50850169563167,-1.41365036221073,3.10322599288177));
#593=CARTESIAN_POINT('',(-4.36277371787549,-1.41365036221073,2.55065535348816));
#594=CARTESIAN_POINT('',(-4.14785387932222,-1.41365036221073,2.01773737092296));
#595=CARTESIAN_POINT('',(-3.86840201181813,-1.41365036221073,1.51615107715302));
#596=CARTESIAN_POINT('',(-3.52853308451742,-1.41365036221073,1.05321746491325));
#597=CARTESIAN_POINT('',(-3.13361649592187,-1.41365036221073,0.636296065767475));
#598=CARTESIAN_POINT('',(-2.68979714083293,-1.41365036221073,0.271856462817998));
#599=CARTESIAN_POINT('',(-2.20400540020543,-1.41365036221073,-0.0344046496445607));
#600=CARTESIAN_POINT('',(-1.68382062472331,-1.41365036221073,-0.277710778209796));
#601=CARTESIAN_POINT('',(-1.13736046327499,-1.41365036221073,-0.454264513022297));
#602=CARTESIAN_POINT('',(-0.573152153073529,-1.41365036221073,-0.56131097966231));
#603=CARTESIAN_POINT('',(-1.52655665885959E-15,-1.41365036221073,-0.597179702667245));
#604=CARTESIAN_POINT('',(0.573152153073525,-1.41365036221073,-0.561310979662311));
#605=CARTESIAN_POINT('',(1.13736046327499,-1.41365036221073,-0.454264513022298));
#606=CARTESIAN_POINT('',(1.68382062472331,-1.41365036221073,-0.277710778209798));
#607=CARTESIAN_POINT('',(2.20400540020543,-1.41365036221073,-0.0344046496445619));
#608=CARTESIAN_POINT('',(2.68979714083293,-1.41365036221073,0.271856462817996));
#609=CARTESIAN_POINT('',(3.13361649592187,-1.41365036221073,0.636296065767473));
#610=CARTESIAN_POINT('',(3.52853308451742,-1.41365036221073,1.05321746491325));
#611=CARTESIAN_POINT('',(3.86840201181813,-1.41365036221073,1.51615107715302));
#612=CARTESIAN_POINT('',(4.14785387932221,-1.41365036221073,2.01773737092296));
#613=CARTESIAN_POINT('',(4.36277371787549,-1.41365036221073,2.55065535348816));
#614=CARTESIAN_POINT('',(4.50850169563167,-1.41365036221073,3.10322599288177));
#615=CARTESIAN_POINT('',(4.58632457691349,-1.41365036221073,3.67013698483162));
#616=CARTESIAN_POINT('',(4.58494540467714,-1.41365036221073,4.21367567134348));
#617=CARTESIAN_POINT('',(4.58529645708863,-1.41365036221073,4.7134690407529));
#618=CARTESIAN_POINT('',(4.58520399458636,-1.41365036221073,5.21721261930965));
#619=CARTESIAN_POINT('',(4.58522867606183,-1.41365036221073,5.71670810536794));
#620=CARTESIAN_POINT('',(4.58522207115994,-1.41365036221073,6.21684311614107));
#621=CARTESIAN_POINT('',(4.58522438866938,-1.41365036221073,6.88346241060664));
#622=CARTESIAN_POINT('',(4.58522299816371,-1.41365036221073,7.3834908339273));
#623=CARTESIAN_POINT('',(4.5852234616656,-1.41365036221073,7.71681469282041));
#624=CARTESIAN_POINT('',(4.5852234616656,-1.41365036221073,7.71681469282041));
#625=CARTESIAN_POINT('',(4.43714418808511,-1.26565638316846,7.71681469282041));
#626=CARTESIAN_POINT('',(4.25058140129404,-1.0083046311933,7.71681469282041));
#627=CARTESIAN_POINT('',(4.08995986460696,-0.620272582741617,7.71681469282042));
#628=CARTESIAN_POINT('',(4.01646588522397,-0.313999291140339,7.71681469282041));
#629=CARTESIAN_POINT('',(3.99176705738801,2.77555756156289E-17,7.71681469282041));
#630=CARTESIAN_POINT('',(4.01646588522397,0.313999291140339,7.71681469282041));
#631=CARTESIAN_POINT('',(4.08995986460696,0.620272582741617,7.71681469282041));
#632=CARTESIAN_POINT('',(4.25058140129404,1.0083046311933,7.71681469282041));
#633=CARTESIAN_POINT('',(4.43714418808511,1.26565638316846,7.71681469282042));
#634=CARTESIAN_POINT('',(4.5852234616656,1.41365036221073,7.71681469282041));
#635=CARTESIAN_POINT('',(4.5852234616656,1.41365036221073,7.71681469282041));
#636=CARTESIAN_POINT('',(4.58522299816371,1.41365036221073,7.3834908339273));
#637=CARTESIAN_POINT('',(4.58522438866938,1.41365036221073,6.88346241060664));
#638=CARTESIAN_POINT('',(4.58522207115994,1.41365036221073,6.21684311614107));
#639=CARTESIAN_POINT('',(4.58522867606183,1.41365036221073,5.71670810536794));
#640=CARTESIAN_POINT('',(4.58520399458636,1.41365036221073,5.21721261930965));
#641=CARTESIAN_POINT('',(4.58529645708863,1.41365036221073,4.7134690407529));
#642=CARTESIAN_POINT('',(4.58494540467714,1.41365036221073,4.21367567134348));
#643=CARTESIAN_POINT('',(4.58632457691349,1.41365036221073,3.67013698483162));
#644=CARTESIAN_POINT('',(4.50850169563167,1.41365036221073,3.10322599288177));
#645=CARTESIAN_POINT('',(4.36277371787549,1.41365036221073,2.55065535348816));
#646=CARTESIAN_POINT('',(4.14785387932221,1.41365036221073,2.01773737092296));
#647=CARTESIAN_POINT('',(3.86840201181813,1.41365036221073,1.51615107715302));
#648=CARTESIAN_POINT('',(3.52853308451742,1.41365036221073,1.05321746491325));
#649=CARTESIAN_POINT('',(3.13361649592187,1.41365036221073,0.636296065767473));
#650=CARTESIAN_POINT('',(2.68979714083293,1.41365036221073,0.271856462817996));
#651=CARTESIAN_POINT('',(2.20400540020543,1.41365036221073,-0.0344046496445619));
#652=CARTESIAN_POINT('',(1.68382062472331,1.41365036221073,-0.277710778209798));
#653=CARTESIAN_POINT('',(1.13736046327499,1.41365036221073,-0.454264513022298));
#654=CARTESIAN_POINT('',(0.573152153073525,1.41365036221073,-0.561310979662311));
#655=CARTESIAN_POINT('',(-1.52655665885959E-15,1.41365036221073,-0.597179702667245));
#656=CARTESIAN_POINT('',(-0.573152153073529,1.41365036221073,-0.56131097966231));
#657=CARTESIAN_POINT('',(-1.13736046327499,1.41365036221073,-0.454264513022297));
#658=CARTESIAN_POINT('',(-1.68382062472331,1.41365036221073,-0.277710778209796));
#659=CARTESIAN_POINT('',(-2.20400540020543,1.41365036221073,-0.0344046496445607));
#660=CARTESIAN_POINT('',(-2.68979714083293,1.41365036221073,0.271856462817998));
#661=CARTESIAN_POINT('',(-3.13361649592187,1.41365036221073,0.636296065767475));
#662=CARTESIAN_POINT('',(-3.52853308451742,1.41365036221073,1.05321746491325));
#663=CARTESIAN_POINT('',(-3.86840201181813,1.41365036221073,1.51615107715302));
#664=CARTESIAN_POINT('',(-4.14785387932222,1.41365036221073,2.01773737092296));
#665=CARTESIAN_POINT('',(-4.36277371787549,1.41365036221073,2.55065535348816));
#666=CARTESIAN_POINT('',(-4.50850169563167,1.41365036221073,3.10322599288177));
#667=CARTESIAN_POINT('',(-4.58632457691349,1.41365036221073,3.67013698483162));
#668=CARTESIAN_POINT('',(-4.58494540467714,1.41365036221073,4.21367567134349));
#669=CARTESIAN_POINT('',(-4.58529645708863,1.41365036221073,4.7134690407529));
#670=CARTESIAN_POINT('',(-4.58520399458636,1.41365036221073,5.21721261930965));
#671=CARTESIAN_POINT('',(-4.58522867606183,1.41365036221073,5.71670810536794));
#672=CARTESIAN_POINT('',(-4.58522207115994,1.41365036221073,6.21684311614107));
#673=CARTESIAN_POINT('',(-4.58522438866937,1.41365036221073,6.88346241060664));
#674=CARTESIAN_POINT('',(-4.58522299816372,1.41365036221073,7.3834908339273));
#675=CARTESIAN_POINT('',(-4.5852234616656,1.41365036221073,7.71681469282041));
#676=CARTESIAN_POINT('',(-4.5852234616656,1.41365036221073,7.71681469282041));
#677=CARTESIAN_POINT('',(-4.43714418808511,1.26565638316846,7.71681469282042));
#678=CARTESIAN_POINT('',(-4.25058140129404,1.0083046311933,7.71681469282041));
#679=CARTESIAN_POINT('',(-4.08995986460696,0.620272582741617,7.71681469282041));
#680=CARTESIAN_POINT('',(-4.01646588522397,0.313999291140339,7.71681469282041));
#681=CARTESIAN_POINT('',(-3.99176705738801,2.77555756156289E-17,7.71681469282041));
#682=CARTESIAN_POINT('',(-4.01646588522397,-0.313999291140339,7.71681469282041));
#683=CARTESIAN_POINT('',(-4.08995986460696,-0.620272582741617,7.71681469282042));
#684=CARTESIAN_POINT('',(-4.25058140129404,-1.0083046311933,7.71681469282041));
#685=CARTESIAN_POINT('',(-4.43714418808511,-1.26565638316846,7.71681469282041));
#686=CARTESIAN_POINT('',(-4.5852234616656,-1.41365036221073,7.71681469282041));
#687=CARTESIAN_POINT('',(0.,0.,0.));
ENDSEC;
END-ISO-10303-21;
