ISO-10303-21;
HEADER;
/* Generated by software containing ST-Developer
 * from STEP Tools, Inc. (www.steptools.com) 
 */
/* OPTION: using custom schema-name function */

FILE_DESCRIPTION(
/* description */ (''),
/* implementation_level */ '2;1');

FILE_NAME(
/* name */ 'Wing_NACA2412',
/* time_stamp */ '2026-09-17T15:16:24+01:00',
/* author */ (''),
/* organization */ (''),
/* preprocessor_version */ 'ST-DEVELOPER v19.2',
/* originating_system */ 'Rhino 8.35',
/* authorisation */ '');

FILE_SCHEMA (('CONFIG_CONTROL_DESIGN'));
ENDSEC;

DATA;
#10=SHAPE_REPRESENTATION_RELATIONSHIP('','',#120,#12);
#11=SHELL_BASED_SURFACE_MODEL('shell_1',(#13));
#12=MANIFOLD_SURFACE_SHAPE_REPRESENTATION('shell_rep_0',(#11,#122),#119);
#13=OPEN_SHELL('',(#14));
#14=ADVANCED_FACE('',(#15),#33,.T.);
#15=FACE_OUTER_BOUND('',#16,.T.);
#16=EDGE_LOOP('',(#17,#18,#19,#20));
#17=ORIENTED_EDGE('',*,*,#21,.T.);
#18=ORIENTED_EDGE('',*,*,#22,.T.);
#19=ORIENTED_EDGE('',*,*,#23,.T.);
#20=ORIENTED_EDGE('',*,*,#24,.T.);
#21=EDGE_CURVE('',#29,#30,#25,.T.);
#22=EDGE_CURVE('',#30,#31,#26,.T.);
#23=EDGE_CURVE('',#31,#32,#27,.T.);
#24=EDGE_CURVE('',#32,#29,#28,.T.);
#25=B_SPLINE_CURVE_WITH_KNOTS('',3,(#783,#784,#785,#786,#787,#788,#789,
#790,#791,#792,#793,#794,#795,#796,#797,#798,#799,#800,#801,#802,#803),
 .UNSPECIFIED.,.F.,.F.,(4,1,1,1,1,1,1,1,1,1,1,1,1,1,1,1,1,1,4),(0.,2.00408287778735,
3.00602264535644,4.00807543638842,5.0104596482666,6.01330488223507,7.0166446866899,
8.02042954208609,9.02454680683543,10.0288437021861,11.0331518526959,12.0373127785689,
13.0412041044777,14.0447663980219,15.048030578256,16.0511457774475,17.0544074118083,
18.0582850274813,20.0697171528686),.UNSPECIFIED.);
#26=B_SPLINE_CURVE_WITH_KNOTS('',3,(#804,#805,#806,#807,#808,#809,#810,
#811,#812,#813,#814,#815,#816,#817,#818,#819,#820,#821,#822,#823,#824,#825,
#826,#827,#828,#829,#830,#831,#832,#833,#834),.UNSPECIFIED.,.F.,.F.,(4,
1,1,1,1,1,1,1,1,1,1,1,1,1,1,1,1,1,1,1,1,1,1,1,1,1,1,1,4),(0.,0.499455811687734,
0.715936837502817,0.9297677756999,1.14248366519414,1.35462941428305,1.56646102894342,
1.77811630430574,1.98967522961736,2.20118625751456,2.4126793968755,2.62362088562128,
2.83403413317697,3.04393730699676,3.25389732873245,3.4639141505718,3.67398647763496,
3.88411248423721,4.09429035018323,4.30451867051627,4.51479677573305,4.72512498928578,
4.93550484268273,5.14593926423106,5.35643275459839,5.56699156039742,5.77762385560589,
5.98833993962203,6.41003374682076),.UNSPECIFIED.);
#27=B_SPLINE_CURVE_WITH_KNOTS('',3,(#835,#836,#837,#838,#839,#840,#841,
#842,#843,#844,#845,#846,#847,#848,#849,#850,#851,#852,#853,#854,#855),
 .UNSPECIFIED.,.F.,.F.,(4,1,1,1,1,1,1,1,1,1,1,1,1,1,1,1,1,1,4),(-20.0697171528686,
-18.0582850274813,-17.0544074118083,-16.0511457774475,-15.048030578256,
-14.0447663980219,-13.0412041044777,-12.0373127785689,-11.0331518526959,
-10.0288437021861,-9.02454680683543,-8.02042954208609,-7.0166446866899,
-6.01330488223507,-5.0104596482666,-4.00807543638842,-3.00602264535644,
-2.00408287778735,0.),.UNSPECIFIED.);
#28=B_SPLINE_CURVE_WITH_KNOTS('',3,(#856,#857,#858,#859,#860,#861,#862,
#863,#864,#865,#866,#867,#868,#869,#870,#871,#872,#873,#874,#875,#876,#877,
#878,#879,#880,#881,#882,#883,#884,#885,#886),.UNSPECIFIED.,.F.,.F.,(4,
1,1,1,1,1,1,1,1,1,1,1,1,1,1,1,1,1,1,1,1,1,1,1,1,1,1,1,4),(-6.41003374682076,
-5.98833993962203,-5.77762385560589,-5.56699156039742,-5.35643275459839,
-5.14593926423106,-4.93550484268273,-4.72512498928578,-4.51479677573305,
-4.30451867051627,-4.09429035018323,-3.88411248423721,-3.67398647763496,
-3.4639141505718,-3.25389732873245,-3.04393730699676,-2.83403413317697,
-2.62362088562128,-2.4126793968755,-2.20118625751456,-1.98967522961736,
-1.77811630430574,-1.56646102894342,-1.35462941428305,-1.14248366519414,
-0.9297677756999,-0.715936837502817,-0.499455811687734,0.),
 .UNSPECIFIED.);
#29=VERTEX_POINT('',#779);
#30=VERTEX_POINT('',#780);
#31=VERTEX_POINT('',#781);
#32=VERTEX_POINT('',#782);
#33=B_SPLINE_SURFACE_WITH_KNOTS('',3,3,((#128,#129,#130,#131,#132,#133,
#134,#135,#136,#137,#138,#139,#140,#141,#142,#143,#144,#145,#146,#147,#148,
#149,#150,#151,#152,#153,#154,#155,#156,#157,#158),(#159,#160,#161,#162,
#163,#164,#165,#166,#167,#168,#169,#170,#171,#172,#173,#174,#175,#176,#177,
#178,#179,#180,#181,#182,#183,#184,#185,#186,#187,#188,#189),(#190,#191,
#192,#193,#194,#195,#196,#197,#198,#199,#200,#201,#202,#203,#204,#205,#206,
#207,#208,#209,#210,#211,#212,#213,#214,#215,#216,#217,#218,#219,#220),
(#221,#222,#223,#224,#225,#226,#227,#228,#229,#230,#231,#232,#233,#234,
#235,#236,#237,#238,#239,#240,#241,#242,#243,#244,#245,#246,#247,#248,#249,
#250,#251),(#252,#253,#254,#255,#256,#257,#258,#259,#260,#261,#262,#263,
#264,#265,#266,#267,#268,#269,#270,#271,#272,#273,#274,#275,#276,#277,#278,
#279,#280,#281,#282),(#283,#284,#285,#286,#287,#288,#289,#290,#291,#292,
#293,#294,#295,#296,#297,#298,#299,#300,#301,#302,#303,#304,#305,#306,#307,
#308,#309,#310,#311,#312,#313),(#314,#315,#316,#317,#318,#319,#320,#321,
#322,#323,#324,#325,#326,#327,#328,#329,#330,#331,#332,#333,#334,#335,#336,
#337,#338,#339,#340,#341,#342,#343,#344),(#345,#346,#347,#348,#349,#350,
#351,#352,#353,#354,#355,#356,#357,#358,#359,#360,#361,#362,#363,#364,#365,
#366,#367,#368,#369,#370,#371,#372,#373,#374,#375),(#376,#377,#378,#379,
#380,#381,#382,#383,#384,#385,#386,#387,#388,#389,#390,#391,#392,#393,#394,
#395,#396,#397,#398,#399,#400,#401,#402,#403,#404,#405,#406),(#407,#408,
#409,#410,#411,#412,#413,#414,#415,#416,#417,#418,#419,#420,#421,#422,#423,
#424,#425,#426,#427,#428,#429,#430,#431,#432,#433,#434,#435,#436,#437),
(#438,#439,#440,#441,#442,#443,#444,#445,#446,#447,#448,#449,#450,#451,
#452,#453,#454,#455,#456,#457,#458,#459,#460,#461,#462,#463,#464,#465,#466,
#467,#468),(#469,#470,#471,#472,#473,#474,#475,#476,#477,#478,#479,#480,
#481,#482,#483,#484,#485,#486,#487,#488,#489,#490,#491,#492,#493,#494,#495,
#496,#497,#498,#499),(#500,#501,#502,#503,#504,#505,#506,#507,#508,#509,
#510,#511,#512,#513,#514,#515,#516,#517,#518,#519,#520,#521,#522,#523,#524,
#525,#526,#527,#528,#529,#530),(#531,#532,#533,#534,#535,#536,#537,#538,
#539,#540,#541,#542,#543,#544,#545,#546,#547,#548,#549,#550,#551,#552,#553,
#554,#555,#556,#557,#558,#559,#560,#561),(#562,#563,#564,#565,#566,#567,
#568,#569,#570,#571,#572,#573,#574,#575,#576,#577,#578,#579,#580,#581,#582,
#583,#584,#585,#586,#587,#588,#589,#590,#591,#592),(#593,#594,#595,#596,
#597,#598,#599,#600,#601,#602,#603,#604,#605,#606,#607,#608,#609,#610,#611,
#612,#613,#614,#615,#616,#617,#618,#619,#620,#621,#622,#623),(#624,#625,
#626,#627,#628,#629,#630,#631,#632,#633,#634,#635,#636,#637,#638,#639,#640,
#641,#642,#643,#644,#645,#646,#647,#648,#649,#650,#651,#652,#653,#654),
(#655,#656,#657,#658,#659,#660,#661,#662,#663,#664,#665,#666,#667,#668,
#669,#670,#671,#672,#673,#674,#675,#676,#677,#678,#679,#680,#681,#682,#683,
#684,#685),(#686,#687,#688,#689,#690,#691,#692,#693,#694,#695,#696,#697,
#698,#699,#700,#701,#702,#703,#704,#705,#706,#707,#708,#709,#710,#711,#712,
#713,#714,#715,#716),(#717,#718,#719,#720,#721,#722,#723,#724,#725,#726,
#727,#728,#729,#730,#731,#732,#733,#734,#735,#736,#737,#738,#739,#740,#741,
#742,#743,#744,#745,#746,#747),(#748,#749,#750,#751,#752,#753,#754,#755,
#756,#757,#758,#759,#760,#761,#762,#763,#764,#765,#766,#767,#768,#769,#770,
#771,#772,#773,#774,#775,#776,#777,#778)),.UNSPECIFIED.,.F.,.F.,.F.,(4,
1,1,1,1,1,1,1,1,1,1,1,1,1,1,1,1,1,4),(4,1,1,1,1,1,1,1,1,1,1,1,1,1,1,1,1,
1,1,1,1,1,1,1,1,1,1,1,4),(0.,2.00408287778735,3.00602264535644,4.00807543638842,
5.0104596482666,6.01330488223507,7.0166446866899,8.02042954208609,9.02454680683543,
10.0288437021861,11.0331518526959,12.0373127785689,13.0412041044777,14.0447663980219,
15.048030578256,16.0511457774475,17.0544074118083,18.0582850274813,20.0697171528686),
(0.,0.499455811687734,0.715936837502817,0.9297677756999,1.14248366519414,
1.35462941428305,1.56646102894342,1.77811630430574,1.98967522961736,2.20118625751456,
2.4126793968755,2.62362088562128,2.83403413317697,3.04393730699676,3.25389732873245,
3.4639141505718,3.67398647763496,3.88411248423721,4.09429035018323,4.30451867051627,
4.51479677573305,4.72512498928578,4.93550484268273,5.14593926423106,5.35643275459839,
5.56699156039742,5.77762385560589,5.98833993962203,6.41003374682076),
 .UNSPECIFIED.);
#34=SHAPE_DEFINITION_REPRESENTATION(#35,#120);
#35=PRODUCT_DEFINITION_SHAPE($,$,#37);
#36=PRODUCT_DEFINITION_CONTEXT('3D Mechanical Parts',#109,'design');
#37=PRODUCT_DEFINITION('A','First version',#79,#36);
#38=DATE_TIME_ROLE('classification_date');
#39=DATE_TIME_ROLE('creation_date');
#40=APPLIED_DATE_AND_TIME_ASSIGNMENT(#64,#38,(#43));
#41=APPLIED_DATE_AND_TIME_ASSIGNMENT(#66,#39,(#37));
#42=SECURITY_CLASSIFICATION_LEVEL('unclassified');
#43=SECURITY_CLASSIFICATION('A','Security for version',#42);
#44=APPLIED_SECURITY_CLASSIFICATION_ASSIGNMENT(#43,(#79));
#45=APPROVAL_ROLE('Version approval');
#46=APPROVAL_ROLE('Version Security approval');
#47=APPROVAL_ROLE('Definition approval');
#48=APPROVAL_PERSON_ORGANIZATION(#97,#73,#45);
#49=APPROVAL_PERSON_ORGANIZATION(#98,#74,#46);
#50=APPROVAL_PERSON_ORGANIZATION(#101,#75,#47);
#51=COORDINATED_UNIVERSAL_TIME_OFFSET(5,0,.BEHIND.);
#52=LOCAL_TIME(0,0,0.,#51);
#53=LOCAL_TIME(0,0,0.,#51);
#54=LOCAL_TIME(0,0,0.,#51);
#55=LOCAL_TIME(0,0,0.,#51);
#56=LOCAL_TIME(0,0,0.,#51);
#57=CALENDAR_DATE(1999,1,1);
#58=CALENDAR_DATE(1999,1,1);
#59=CALENDAR_DATE(1999,1,1);
#60=CALENDAR_DATE(1999,1,1);
#61=CALENDAR_DATE(1999,1,1);
#62=DATE_AND_TIME(#57,#52);
#63=DATE_AND_TIME(#58,#53);
#64=DATE_AND_TIME(#59,#54);
#65=DATE_AND_TIME(#60,#55);
#66=DATE_AND_TIME(#61,#56);
#67=APPROVAL_DATE_TIME(#62,#73);
#68=APPROVAL_DATE_TIME(#63,#74);
#69=APPROVAL_DATE_TIME(#65,#75);
#70=APPROVAL_STATUS('not_yet_approved');
#71=APPROVAL_STATUS('not_yet_approved');
#72=APPROVAL_STATUS('approved');
#73=APPROVAL(#70,'Version approval');
#74=APPROVAL(#71,'Version Security approval');
#75=APPROVAL(#72,'Definition approval');
#76=APPLIED_APPROVAL_ASSIGNMENT(#73,(#79));
#77=APPLIED_APPROVAL_ASSIGNMENT(#74,(#43));
#78=APPLIED_APPROVAL_ASSIGNMENT(#75,(#37));
#79=PRODUCT_DEFINITION_FORMATION_WITH_SPECIFIED_SOURCE('A',
'First version',#111,.MADE.);
#80=PERSON_AND_ORGANIZATION_ROLE('design_owner');
#81=PERSON_AND_ORGANIZATION_ROLE('creator');
#82=PERSON_AND_ORGANIZATION_ROLE('design_supplier');
#83=PERSON_AND_ORGANIZATION_ROLE('classification_officer');
#84=PERSON_AND_ORGANIZATION_ROLE('creator');
#85=ORGANIZATION('STI','lab','lab');
#86=ORGANIZATION('STI','unknown','unknown');
#87=ORGANIZATION('STI','unknown','unknown');
#88=ORGANIZATION('STI','unknown','unknown');
#89=ORGANIZATION('STI','unknown','unknown');
#90=ORGANIZATION('STI','unknown','unknown');
#91=ORGANIZATION('STI','unknown','unknown');
#92=PERSON('1','Box','vc60',$,$,$);
#93=PERSON('2','last','first',$,$,$);
#94=PERSON('3','President','Mr.',$,$,$);
#95=PERSON_AND_ORGANIZATION(#92,#85);
#96=PERSON_AND_ORGANIZATION(#93,#86);
#97=PERSON_AND_ORGANIZATION(#94,#87);
#98=PERSON_AND_ORGANIZATION(#94,#88);
#99=PERSON_AND_ORGANIZATION(#94,#89);
#100=PERSON_AND_ORGANIZATION(#93,#90);
#101=PERSON_AND_ORGANIZATION(#94,#91);
#102=APPLIED_PERSON_AND_ORGANIZATION_ASSIGNMENT(#95,#80,(#111));
#103=APPLIED_PERSON_AND_ORGANIZATION_ASSIGNMENT(#96,#81,(#79));
#104=APPLIED_PERSON_AND_ORGANIZATION_ASSIGNMENT(#96,#82,(#79));
#105=APPLIED_PERSON_AND_ORGANIZATION_ASSIGNMENT(#99,#83,(#43));
#106=APPLIED_PERSON_AND_ORGANIZATION_ASSIGNMENT(#100,#84,(#37));
#107=PRODUCT_RELATED_PRODUCT_CATEGORY('detail','detail',(#111));
#108=APPLICATION_PROTOCOL_DEFINITION('International Standard',
'config_control_design',1994,#109);
#109=APPLICATION_CONTEXT(
'configuration controlled 3d designs of mechanical parts and assemblie
s');
#110=PRODUCT_CONTEXT('3D Mechanical Parts',#109,'mechanical');
#111=PRODUCT('Document','Document','',(#110));
#112=(
LENGTH_UNIT()
NAMED_UNIT(*)
SI_UNIT(.MILLI.,.METRE.)
);
#113=(
NAMED_UNIT(*)
PLANE_ANGLE_UNIT()
SI_UNIT($,.RADIAN.)
);
#114=DIMENSIONAL_EXPONENTS(0.,0.,0.,0.,0.,0.,0.);
#115=PLANE_ANGLE_MEASURE_WITH_UNIT(PLANE_ANGLE_MEASURE(0.01745329252),#113);
#116=(
CONVERSION_BASED_UNIT('DEGREES',#115)
NAMED_UNIT(#114)
PLANE_ANGLE_UNIT()
);
#117=(
NAMED_UNIT(*)
SI_UNIT($,.STERADIAN.)
SOLID_ANGLE_UNIT()
);
#118=UNCERTAINTY_MEASURE_WITH_UNIT(LENGTH_MEASURE(0.001),#112,
'DISTANCE_ACCURACY_VALUE',
'Maximum model space distance between geometric entities at asserted c
onnectivities');
#119=(
GEOMETRIC_REPRESENTATION_CONTEXT(3)
GLOBAL_UNCERTAINTY_ASSIGNED_CONTEXT((#118))
GLOBAL_UNIT_ASSIGNED_CONTEXT((#117,#116,#112))
REPRESENTATION_CONTEXT('ID1','3D')
);
#120=SHAPE_REPRESENTATION('Document',(#121,#122),#119);
#121=AXIS2_PLACEMENT_3D($,#127,#123,#124);
#122=AXIS2_PLACEMENT_3D($,#887,#125,#126);
#123=DIRECTION('',(0.,0.,1.));
#124=DIRECTION('',(1.,0.,0.));
#125=DIRECTION('',(0.,0.,1.));
#126=DIRECTION('',(1.,0.,0.));
#127=CARTESIAN_POINT('',(0.,0.,0.));
#128=CARTESIAN_POINT('',(0.,0.,0.));
#129=CARTESIAN_POINT('',(0.,0.0952402374505188,0.222474595576602));
#130=CARTESIAN_POINT('',(0.,0.38911123938654,0.337324465700639));
#131=CARTESIAN_POINT('',(0.,0.769048250039225,0.446280477281627));
#132=CARTESIAN_POINT('',(0.,1.03806101284874,0.502647910113907));
#133=CARTESIAN_POINT('',(0.,1.30698647192285,0.546545976889831));
#134=CARTESIAN_POINT('',(0.,1.57667864829111,0.579845770309557));
#135=CARTESIAN_POINT('',(0.,1.84680659589123,0.604345441827276));
#136=CARTESIAN_POINT('',(0.,2.11727567952006,0.621101731256104));
#137=CARTESIAN_POINT('',(0.,2.38793859356099,0.630952386009282));
#138=CARTESIAN_POINT('',(0.,2.65868400227559,0.634520117294849));
#139=CARTESIAN_POINT('',(0.,2.92917823330018,0.632361809746593));
#140=CARTESIAN_POINT('',(0.,3.19910253966368,0.624765684095968));
#141=CARTESIAN_POINT('',(0.,3.46817744963127,0.612699846238308));
#142=CARTESIAN_POINT('',(0.,3.73666668275005,0.597413960506509));
#143=CARTESIAN_POINT('',(0.,4.0047838352614,0.578909260413277));
#144=CARTESIAN_POINT('',(0.,4.27275201488616,0.55745076003199));
#145=CARTESIAN_POINT('',(0.,4.54055259261733,0.533199431681986));
#146=CARTESIAN_POINT('',(0.,4.8081696575844,0.506309374075488));
#147=CARTESIAN_POINT('',(0.,5.07558843891057,0.476901936465408));
#148=CARTESIAN_POINT('',(0.,5.34279522652935,0.4450755967922));
#149=CARTESIAN_POINT('',(0.,5.60977691903259,0.410905594546678));
#150=CARTESIAN_POINT('',(0.,5.87652069497871,0.374445825101331));
#151=CARTESIAN_POINT('',(0.,6.14301367043213,0.335729765111988));
#152=CARTESIAN_POINT('',(0.,6.409242574904,0.294771380019464));
#153=CARTESIAN_POINT('',(0.,6.67519343830687,0.251565832664829));
#154=CARTESIAN_POINT('',(0.,6.94085127354726,0.206090050984722));
#155=CARTESIAN_POINT('',(0.,7.20619981358306,0.158303315826734));
#156=CARTESIAN_POINT('',(0.,7.55962898582337,0.0914158888881831));
#157=CARTESIAN_POINT('',(0.,7.82405086975354,0.0376092637573339));
#158=CARTESIAN_POINT('',(0.,8.,-1.32931686705798E-16));
#159=CARTESIAN_POINT('',(0.666587298407969,0.0358418720349119,0.0289721679161491));
#160=CARTESIAN_POINT('',(0.66658729840797,0.131352447140864,0.251331088584373));
#161=CARTESIAN_POINT('',(0.666587298407969,0.425363059051788,0.365823914981684));
#162=CARTESIAN_POINT('',(0.66658729840797,0.805432536415945,0.474318307131439));
#163=CARTESIAN_POINT('',(0.666587298407969,1.0745138449216,0.5303588879533));
#164=CARTESIAN_POINT('',(0.66658729840797,1.3434926987756,0.573930206179619));
#165=CARTESIAN_POINT('',(0.66658729840797,1.61322539265717,0.606902317225438));
#166=CARTESIAN_POINT('',(0.666587298407969,1.8833831652777,0.631073775038289));
#167=CARTESIAN_POINT('',(0.66658729840797,2.15387266540544,0.647501434639581));
#168=CARTESIAN_POINT('',(0.66658729840797,2.42454760529749,0.657023222602039));
#169=CARTESIAN_POINT('',(0.666587298407969,2.69529740581705,0.660261985542865));
#170=CARTESIAN_POINT('',(0.66658729840797,2.96578907117282,0.657775013641208));
#171=CARTESIAN_POINT('',(0.66658729840797,3.23570420452928,0.649850914982399));
#172=CARTESIAN_POINT('',(0.666587298407969,3.50476451038962,0.637458135237007));
#173=CARTESIAN_POINT('',(0.66658729840797,3.7732352267604,0.621846018567936));
#174=CARTESIAN_POINT('',(0.66658729840797,4.04132995142663,0.603015538958122));
#175=CARTESIAN_POINT('',(0.666587298407969,4.30927211416122,0.58123143944964));
#176=CARTESIAN_POINT('',(0.666587298407969,4.57704328154259,0.556654715030781));
#177=CARTESIAN_POINT('',(0.666587298407969,4.84462772993447,0.529439483778616));
#178=CARTESIAN_POINT('',(0.666587298407969,5.11201083590234,0.499707112918877));
#179=CARTESIAN_POINT('',(0.66658729840797,5.37917900903239,0.467556097071101));
#180=CARTESIAN_POINT('',(0.666587298407969,5.64611923933343,0.433061691660756));
#181=CARTESIAN_POINT('',(0.66658729840797,5.91281877084675,0.396277807650332));
#182=CARTESIAN_POINT('',(0.666587298407969,6.17926476030986,0.357237937357305));
#183=CARTESIAN_POINT('',(0.666587298407969,6.44544395419982,0.315956062349726));
#184=CARTESIAN_POINT('',(0.66658729840797,6.71134237654886,0.272427362441996));
#185=CARTESIAN_POINT('',(0.666587298407969,6.97694501222666,0.226628783775974));
#186=CARTESIAN_POINT('',(0.66658729840797,7.24223554471191,0.178519626955964));
#187=CARTESIAN_POINT('',(0.666587298407969,7.59558351960403,0.111202752011107));
#188=CARTESIAN_POINT('',(0.666587298407969,7.85994008132438,0.0570748298876548));
#189=CARTESIAN_POINT('',(0.666587298407969,8.03584355138595,0.0192517713195741));
#190=CARTESIAN_POINT('',(1.6664479419608,0.112716377092123,0.0861758139025329));
#191=CARTESIAN_POINT('',(1.6664479419608,0.208339856599718,0.306758300817239));
#192=CARTESIAN_POINT('',(1.6664479419608,0.500802375005698,0.419522195839177));
#193=CARTESIAN_POINT('',(1.6664479419608,0.878739218103201,0.526040801538874));
#194=CARTESIAN_POINT('',(1.6664479419608,1.14624158651219,0.580818836566237));
#195=CARTESIAN_POINT('',(1.6664479419608,1.4136007031092,0.623209754685024));
#196=CARTESIAN_POINT('',(1.6664479419608,1.68167346411475,0.655068494959502));
#197=CARTESIAN_POINT('',(1.6664479419608,1.95013924658074,0.678182905242062));
#198=CARTESIAN_POINT('',(1.6664479419608,2.21890882651618,0.693603217487108));
#199=CARTESIAN_POINT('',(1.6664479419608,2.48783966261499,0.702162347538862));
#200=CARTESIAN_POINT('',(1.6664479419608,2.75682397261339,0.704479423567225));
#201=CARTESIAN_POINT('',(1.6664479419608,3.02553279874138,0.701109187085167));
#202=CARTESIAN_POINT('',(1.6664479419608,3.29365079284556,0.692339411656255));
#203=CARTESIAN_POINT('',(1.6664479419608,3.5609047059769,0.679133114969563));
#204=CARTESIAN_POINT('',(1.6664479419608,3.8275621910135,0.662730562721941));
#205=CARTESIAN_POINT('',(1.6664479419608,4.09383544766522,0.643132012139359));
#206=CARTESIAN_POINT('',(1.6664479419608,4.35994732034968,0.620599726344046));
#207=CARTESIAN_POINT('',(1.6664479419608,4.62588003200314,0.595293705416571));
#208=CARTESIAN_POINT('',(1.6664479419608,4.89161847469871,0.567367108630443));
#209=CARTESIAN_POINT('',(1.6664479419608,5.15714852457312,0.536940555611761));
#210=CARTESIAN_POINT('',(1.6664479419608,5.42245700793877,0.504111940001275));
#211=CARTESIAN_POINT('',(1.6664479419608,5.68753125043556,0.468956066776729));
#212=CARTESIAN_POINT('',(1.6664479419608,5.95235875908357,0.431526535638999));
#213=CARTESIAN_POINT('',(1.6664479419608,6.21692688626507,0.391856661891404));
#214=CARTESIAN_POINT('',(1.6664479419608,6.48122251190606,0.349960379453063));
#215=CARTESIAN_POINT('',(1.6664479419608,6.74523173569791,0.30583294624155));
#216=CARTESIAN_POINT('',(1.6664479419608,7.00893956434672,0.25945150958038));
#217=CARTESIAN_POINT('',(1.6664479419608,7.27232965302126,0.210775691347634));
#218=CARTESIAN_POINT('',(1.6664479419608,7.62313560119717,0.142725313083215));
#219=CARTESIAN_POINT('',(1.6664479419608,7.88557782970059,0.0880733219559388));
#220=CARTESIAN_POINT('',(1.6664479419608,8.06020149102787,0.0499133963705793));
#221=CARTESIAN_POINT('',(3.0001103532003,0.225039398116462,0.16755758601364));
#222=CARTESIAN_POINT('',(3.0001103532003,0.319928075774395,0.383375769616663));
#223=CARTESIAN_POINT('',(3.0001103532003,0.60729012968659,0.492467280795526));
#224=CARTESIAN_POINT('',(3.0001103532003,0.9784368062963,0.595000630853117));
#225=CARTESIAN_POINT('',(3.0001103532003,1.24102843915337,0.64735780479364));
#226=CARTESIAN_POINT('',(3.0001103532003,1.50341670058094,0.687568868598812));
#227=CARTESIAN_POINT('',(3.0001103532003,1.7664512840024,0.717448429028871));
#228=CARTESIAN_POINT('',(3.0001103532003,2.02982686395658,0.738751282151581));
#229=CARTESIAN_POINT('',(3.0001103532003,2.29346127996378,0.752507741077983));
#230=CARTESIAN_POINT('',(3.0001103532003,2.55721898498199,0.759535288933643));
#231=CARTESIAN_POINT('',(3.0001103532003,2.8209974312177,0.760441591624269));
#232=CARTESIAN_POINT('',(3.0001103532003,3.08447685869035,0.75577230040821));
#233=CARTESIAN_POINT('',(3.0001103532003,3.34734949745391,0.745811208005383));
#234=CARTESIAN_POINT('',(3.0001103532003,3.60935228884905,0.731504039429933));
#235=CARTESIAN_POINT('',(3.0001103532003,3.87075399167669,0.714065643229662));
#236=CARTESIAN_POINT('',(3.0001103532003,4.13176269080413,0.693495194149657));
#237=CARTESIAN_POINT('',(3.0001103532003,4.3925982397189,0.670048736515091));
#238=CARTESIAN_POINT('',(3.0001103532003,4.65324401862424,0.643883257068359));
#239=CARTESIAN_POINT('',(3.0001103532003,4.91368599035004,0.615149020886369));
#240=CARTESIAN_POINT('',(3.0001103532003,5.17391091747403,0.583964379590362));
#241=CARTESIAN_POINT('',(3.0001103532003,5.43390637892225,0.550425394819313));
#242=CARTESIAN_POINT('',(3.0001103532003,5.69366032602479,0.514605484876605));
#243=CARTESIAN_POINT('',(3.0001103532003,5.95316078029899,0.476557273197603));
#244=CARTESIAN_POINT('',(3.0001103532003,6.21239550862546,0.436313493072368));
#245=CARTESIAN_POINT('',(3.0001103532003,6.47135171617972,0.393887874756617));
#246=CARTESIAN_POINT('',(3.0001103532003,6.7300157482057,0.349275838734484));
#247=CARTESIAN_POINT('',(3.0001103532003,6.98837278620271,0.302455051746588));
#248=CARTESIAN_POINT('',(3.0001103532003,7.24640659735982,0.253386001901067));
#249=CARTESIAN_POINT('',(3.0001103532003,7.59006223825978,0.184874336974323));
#250=CARTESIAN_POINT('',(3.0001103532003,7.84713623003464,0.12994985015441));
#251=CARTESIAN_POINT('',(3.0001103532003,8.01817885941467,0.091643442015979));
#252=CARTESIAN_POINT('',(4.00029478449155,0.313866192164525,0.230846347531537));
#253=CARTESIAN_POINT('',(4.00029478449155,0.407800121384661,0.442049794619034));
#254=CARTESIAN_POINT('',(4.00029478449156,0.689999671985059,0.547810107245601));
#255=CARTESIAN_POINT('',(4.00029478449155,1.05431861664306,0.64679098953433));
#256=CARTESIAN_POINT('',(4.00029478449155,1.31199533044643,0.697029362485285));
#257=CARTESIAN_POINT('',(4.00029478449156,1.56942198607294,0.735359913311785));
#258=CARTESIAN_POINT('',(4.00029478449155,1.82743923547646,0.763558231571939));
#259=CARTESIAN_POINT('',(4.00029478449156,2.08575504128046,0.783346083022522));
#260=CARTESIAN_POINT('',(4.00029478449155,2.34429314664636,0.795733982269403));
#261=CARTESIAN_POINT('',(4.00029478449155,2.60292406407653,0.801523997145752));
#262=CARTESIAN_POINT('',(4.00029478449155,2.86154978506783,0.801312342260233));
#263=CARTESIAN_POINT('',(4.00029478449156,3.11985907646139,0.795635335884225));
#264=CARTESIAN_POINT('',(4.00029478449156,3.37755136851165,0.784772506713248));
#265=CARTESIAN_POINT('',(4.00029478449156,3.63437268968721,0.769652189377634));
#266=CARTESIAN_POINT('',(4.00029478449155,3.89059161215307,0.751464362794385));
#267=CARTESIAN_POINT('',(4.00029478449155,4.14641214956163,0.730207349902874));
#268=CARTESIAN_POINT('',(4.00029478449156,4.40205092554835,0.706131272688035));
#269=CARTESIAN_POINT('',(4.00029478449155,4.65749230001468,0.679390118340033));
#270=CARTESIAN_POINT('',(4.00029478449156,4.91272313696527,0.650131273010518));
#271=CARTESIAN_POINT('',(4.00029478449155,5.16773095140514,0.618470829923787));
#272=CARTESIAN_POINT('',(4.00029478449156,5.42250396575586,0.584503024655286));
#273=CARTESIAN_POINT('',(4.00029478449155,5.67703067311594,0.548299890537588));
#274=CARTESIAN_POINT('',(4.00029478449155,5.93129954866205,0.509913072253521));
#275=CARTESIAN_POINT('',(4.00029478449155,6.18529873494856,0.469374714227698));
#276=CARTESIAN_POINT('',(4.00029478449156,6.43901574454218,0.426698331676447));
#277=CARTESIAN_POINT('',(4.00029478449155,6.692437170517,0.381879491562197));
#278=CARTESIAN_POINT('',(4.00029478449155,6.94554839089982,0.334896359019172));
#279=CARTESIAN_POINT('',(4.00029478449156,7.19833332540165,0.285710262266931));
#280=CARTESIAN_POINT('',(4.00029478449155,7.53498520406888,0.217104491420152));
#281=CARTESIAN_POINT('',(4.00029478449156,7.78680465884879,0.162181426907711));
#282=CARTESIAN_POINT('',(4.00029478449155,7.95434386124785,0.123910424081241));
#283=CARTESIAN_POINT('',(5.00040299145543,0.406008664730324,0.295515073375938));
#284=CARTESIAN_POINT('',(5.00040299145543,0.498614369384418,0.501222305658557));
#285=CARTESIAN_POINT('',(5.00040299145543,0.774490602149731,0.603192760110989));
#286=CARTESIAN_POINT('',(5.00040299145544,1.13048044988333,0.698184561581919));
#287=CARTESIAN_POINT('',(5.00040299145543,1.38217890336392,0.746077187639693));
#288=CARTESIAN_POINT('',(5.00040299145544,1.63358077348306,0.782349607718878));
#289=CARTESIAN_POINT('',(5.00040299145543,1.88551431993217,0.808730979839267));
#290=CARTESIAN_POINT('',(5.00040299145543,2.13770212909433,0.826902931120821));
#291=CARTESIAN_POINT('',(5.00040299145544,2.39007423771032,0.83785199876289));
#292=CARTESIAN_POINT('',(5.00040299145543,2.64250781289297,0.842361523480696));
#293=CARTESIAN_POINT('',(5.00040299145543,2.89490983503489,0.841013806879482));
#294=CARTESIAN_POINT('',(5.00040299145544,3.14697892596259,0.83433363621405));
#295=CARTESIAN_POINT('',(5.00040299145544,3.39842298129216,0.822595140697997));
#296=CARTESIAN_POINT('',(5.00040299145543,3.64899823643606,0.80670543902278));
#297=CARTESIAN_POINT('',(5.00040299145543,3.89897205211028,0.787824693112146));
#298=CARTESIAN_POINT('',(5.00040299145544,4.14854352581743,0.765950366071778));
#299=CARTESIAN_POINT('',(5.00040299145543,4.39792517266818,0.741325605903855));
#300=CARTESIAN_POINT('',(5.00040299145543,4.64710240832828,0.714100763739764));
#301=CARTESIAN_POINT('',(5.00040299145543,4.89606306318947,0.684419737450186));
#302=CARTESIAN_POINT('',(5.00040299145544,5.14479546490397,0.652395882041665));
#303=CARTESIAN_POINT('',(5.00040299145543,5.39328853507535,0.618121217664981));
#304=CARTESIAN_POINT('',(5.00040299145544,5.64153136150661,0.581666095239429));
#305=CARTESIAN_POINT('',(5.00040299145543,5.88951292454779,0.543080967682696));
#306=CARTESIAN_POINT('',(5.00040299145543,6.1372217938873,0.50239725831546));
#307=CARTESIAN_POINT('',(5.00040299145544,6.3846458421848,0.459628212265193));
#308=CARTESIAN_POINT('',(5.00040299145544,6.63177196553675,0.414769562313572));
#309=CARTESIAN_POINT('',(5.00040299145543,6.87858579744396,0.367800063478781));
#310=CARTESIAN_POINT('',(5.00040299145544,7.12507147388898,0.318682045410132));
#311=CARTESIAN_POINT('',(5.00040299145543,7.45332049427214,0.250241555263344));
#312=CARTESIAN_POINT('',(5.00040299145543,7.6988386076287,0.195528866044057));
#313=CARTESIAN_POINT('',(5.00040299145543,7.86217780164426,0.157439451383137));
#314=CARTESIAN_POINT('',(6.00042726300299,0.500990328976729,0.361183185006472));
#315=CARTESIAN_POINT('',(6.00042726300299,0.591937104407183,0.560667434439064));
#316=CARTESIAN_POINT('',(6.00042726300298,0.860512118654597,0.658491045239756));
#317=CARTESIAN_POINT('',(6.00042726300299,1.20691151102212,0.749162622978198));
#318=CARTESIAN_POINT('',(6.00042726300298,1.45174015016685,0.794543577169803));
#319=CARTESIAN_POINT('',(6.00042726300299,1.69622689615428,0.828633066309381));
#320=CARTESIAN_POINT('',(6.00042726300298,1.94118466018908,0.853107708436451));
#321=CARTESIAN_POINT('',(6.00042726300299,2.18635161033035,0.869603036063151));
#322=CARTESIAN_POINT('',(6.00042726300299,2.43166431046541,0.879078116196865));
#323=CARTESIAN_POINT('',(6.00042726300299,2.67700700591031,0.882294788097279));
#324=CARTESIAN_POINT('',(6.00042726300298,2.92229198688966,0.879819378019252));
#325=CARTESIAN_POINT('',(6.00042726300299,3.16722878944399,0.872163280452357));
#326=CARTESIAN_POINT('',(6.00042726300299,3.4115348045288,0.85959425070063));
#327=CARTESIAN_POINT('',(6.00042726300298,3.654977324359,0.842994977350562));
#328=CARTESIAN_POINT('',(6.00042726300299,3.89782153535616,0.823491702821757));
#329=CARTESIAN_POINT('',(6.00042726300299,4.1402609142158,0.801081042203603));
#330=CARTESIAN_POINT('',(6.00042726300299,4.38250311187339,0.775998311937512));
#331=CARTESIAN_POINT('',(6.00042726300298,4.62453464923608,0.74838969472955));
#332=CARTESIAN_POINT('',(6.00042726300299,4.86634436410493,0.718395090678233));
#333=CARTESIAN_POINT('',(6.00042726300298,5.10792143647704,0.68612471519284));
#334=CARTESIAN_POINT('',(6.00042726300299,5.34925552503744,0.651668047141864));
#335=CARTESIAN_POINT('',(6.00042726300299,5.59033634991389,0.615093505872991));
#336=CARTESIAN_POINT('',(6.00042726300299,5.8311534349139,0.57645017380665));
#337=CARTESIAN_POINT('',(6.00042726300299,6.07169581686883,0.53576864177573));
#338=CARTESIAN_POINT('',(6.00042726300299,6.31195177126654,0.493061837765644));
#339=CARTESIAN_POINT('',(6.00042726300299,6.55190854366708,0.448325675294072));
#340=CARTESIAN_POINT('',(6.00042726300298,6.79155207419749,0.401539574253678));
#341=CARTESIAN_POINT('',(6.00042726300299,7.03086677179861,0.352666998829278));
#342=CARTESIAN_POINT('',(6.00042726300299,7.34955209220234,0.284638709616502));
#343=CARTESIAN_POINT('',(6.00042726300299,7.58790064773281,0.230333547854554));
#344=CARTESIAN_POINT('',(6.00042726300299,7.74646224725215,0.192562864970429));
#345=CARTESIAN_POINT('',(7.00038194561533,0.598388129488414,0.427519944744346));
#346=CARTESIAN_POINT('',(7.00038194561532,0.687391504212945,0.620207671364242));
#347=CARTESIAN_POINT('',(7.00038194561532,0.947872099956173,0.713624554342631));
#348=CARTESIAN_POINT('',(7.00038194561533,1.28366138011931,0.799744323517585));
#349=CARTESIAN_POINT('',(7.00038194561532,1.52090131504029,0.842504515816393));
#350=CARTESIAN_POINT('',(7.00038194561533,1.75775612219504,0.874334906785231));
#351=CARTESIAN_POINT('',(7.00038194561532,1.99502083176003,0.896854758645137));
#352=CARTESIAN_POINT('',(7.00038194561533,2.2324498016082,0.911648710832368));
#353=CARTESIAN_POINT('',(7.00038194561533,2.46998621641311,0.919645554964446));
#354=CARTESIAN_POINT('',(7.00038194561533,2.70752166484905,0.921583394287296));
#355=CARTESIAN_POINT('',(7.00038194561532,2.94497394892964,0.918010918449765));
#356=CARTESIAN_POINT('',(7.00038194561533,3.18206431786846,0.909424608900083));
#357=CARTESIAN_POINT('',(7.00038194561533,3.41852045724,0.896085038594544));
#358=CARTESIAN_POINT('',(7.00038194561533,3.65412131102708,0.878847867585397));
#359=CARTESIAN_POINT('',(7.00038194561532,3.88912900992412,0.85880215702419));
#360=CARTESIAN_POINT('',(7.00038194561533,4.12373084545891,0.835943702323111));
#361=CARTESIAN_POINT('',(7.00038194561532,4.35812897588723,0.810499321377442));
#362=CARTESIAN_POINT('',(7.00038194561533,4.59231105275033,0.782610600531131));
#363=CARTESIAN_POINT('',(7.00038194561532,4.82626694048871,0.752413032731292));
#364=CARTESIAN_POINT('',(7.00038194561533,5.05998669250798,0.720013371081474));
#365=CARTESIAN_POINT('',(7.00038194561533,5.29346072621961,0.685498291027017));
#366=CARTESIAN_POINT('',(7.00038194561533,5.52667941755109,0.648934079673587));
#367=CARTESIAN_POINT('',(7.00038194561533,5.75963285966037,0.610368304692231));
#368=CARTESIAN_POINT('',(7.00038194561532,5.99231058560031,0.569830634099229));
#369=CARTESIAN_POINT('',(7.00038194561533,6.22470130667274,0.527333639887502));
#370=CARTESIAN_POINT('',(7.00038194561533,6.45679265551654,0.482873427020676));
#371=CARTESIAN_POINT('',(7.00038194561532,6.68857092188384,0.436430138989791));
#372=CARTESIAN_POINT('',(7.00038194561533,6.92002083666399,0.387968479661509));
#373=CARTESIAN_POINT('',(7.00038194561532,7.22821882865594,0.320581345801187));
#374=CARTESIAN_POINT('',(7.00038194561533,7.45870736050803,0.266864948384354));
#375=CARTESIAN_POINT('',(7.00038194561533,7.61203218934489,0.229538363845457));
#376=CARTESIAN_POINT('',(8.00028373945514,0.697916298154317,0.494299318114023));
#377=CARTESIAN_POINT('',(8.00028373945514,0.78474267697699,0.679768230552711));
#378=CARTESIAN_POINT('',(8.00028373945514,1.0365227595032,0.768609477169724));
#379=CARTESIAN_POINT('',(8.00028373945514,1.36092625655812,0.850037490099635));
#380=CARTESIAN_POINT('',(8.00028373945514,1.59003244552927,0.890119056394498));
#381=CARTESIAN_POINT('',(8.00028373945515,1.81871294703455,0.919657207324029));
#382=CARTESIAN_POINT('',(8.00028373945514,2.04774284041559,0.940210308302384));
#383=CARTESIAN_POINT('',(8.00028373945514,2.27689296921217,0.95330847168337));
#384=CARTESIAN_POINT('',(8.00028373945514,2.50611311463356,0.959848098091044));
#385=CARTESIAN_POINT('',(8.00028373945514,2.73530233289798,0.960541863077182));
#386=CARTESIAN_POINT('',(8.00028373945514,2.96438403377008,0.955919561861831));
#387=CARTESIAN_POINT('',(8.00028373945515,3.19309172993058,0.946461591025064));
#388=CARTESIAN_POINT('',(8.00028373945514,3.42116397615566,0.932420705383771));
#389=CARTESIAN_POINT('',(8.00028373945515,3.64839172845159,0.914623559622612));
#390=CARTESIAN_POINT('',(8.00028373945514,3.87503328783795,0.894119607146672));
#391=CARTESIAN_POINT('',(8.00028373945514,4.10126933664322,0.870903864096837));
#392=CARTESIAN_POINT('',(8.00028373945515,4.32729604461908,0.845194168784436));
#393=CARTESIAN_POINT('',(8.00028373945514,4.55310219860623,0.817127188077817));
#394=CARTESIAN_POINT('',(8.00028373945514,4.77867869033609,0.786833698842068));
#395=CARTESIAN_POINT('',(8.00028373945514,5.00401645158278,0.754416748149433));
#396=CARTESIAN_POINT('',(8.00028373945514,5.22910666592829,0.719960009887027));
#397=CARTESIAN_POINT('',(8.00028373945514,5.45394037599847,0.683527487011609));
#398=CARTESIAN_POINT('',(8.00028373945514,5.6785082589271,0.645165122941774));
#399=CARTESIAN_POINT('',(8.00028373945514,5.90280036283451,0.604901593873205));
#400=CARTESIAN_POINT('',(8.00028373945515,6.12680585836391,0.562749085435875));
#401=CARTESIAN_POINT('',(8.00028373945514,6.35051279392065,0.518703900833705));
#402=CARTESIAN_POINT('',(8.00028373945514,6.57390784324595,0.472746949925256));
#403=CARTESIAN_POINT('',(8.00028373945514,6.79697609962148,0.424844253783972));
#404=CARTESIAN_POINT('',(8.00028373945514,7.09399896397847,0.358301890337599));
#405=CARTESIAN_POINT('',(8.00028373945514,7.31611364284818,0.305334062164667));
#406=CARTESIAN_POINT('',(8.00028373945514,7.46386015581132,0.268561494561194));
#407=CARTESIAN_POINT('',(9.00015212036645,0.799347440549587,0.561354992988808));
#408=CARTESIAN_POINT('',(9.00015212036645,0.883817912125094,0.739332408569851));
#409=CARTESIAN_POINT('',(9.00015212036646,1.12648044839904,0.823515047379145));
#410=CARTESIAN_POINT('',(9.00015212036645,1.43896832957682,0.90019648084326));
#411=CARTESIAN_POINT('',(9.00015212036645,1.65957053452763,0.937588172439058));
#412=CARTESIAN_POINT('',(9.00015212036646,1.87970955333887,0.964839358288514));
#413=CARTESIAN_POINT('',(9.00015212036644,2.10013893946647,0.983445226159901));
#414=CARTESIAN_POINT('',(9.00015212036646,2.32064603650123,0.994878897381214));
#415=CARTESIAN_POINT('',(9.00015212036645,2.54118709815367,1.00000295715515));
#416=CARTESIAN_POINT('',(9.00015212036646,2.76166864575903,0.999503507028691));
#417=CARTESIAN_POINT('',(9.00015212036645,2.98201969747177,0.993890595287003));
#418=CARTESIAN_POINT('',(9.00015212036646,3.20198634062117,0.983627715959549));
#419=CARTESIAN_POINT('',(9.00015212036646,3.4213183540205,0.968959348028221));
#420=CARTESIAN_POINT('',(9.00015212036645,3.63981884783977,0.950681790323783));
#421=CARTESIAN_POINT('',(9.00015212036646,3.85774164835883,0.929803292747262));
#422=CARTESIAN_POINT('',(9.00015212036646,4.0752605450174,0.906318140981807));
#423=CARTESIAN_POINT('',(9.00015212036646,4.2925653604504,0.880434894832574));
#424=CARTESIAN_POINT('',(9.00015212036645,4.50964600349408,0.852285083715206));
#425=CARTESIAN_POINT('',(9.00015212036646,4.72649437788398,0.821994560197527));
#426=CARTESIAN_POINT('',(9.00015212036645,4.94310228469868,0.78966250082627));
#427=CARTESIAN_POINT('',(9.00015212036646,5.15946166862117,0.755369444032179));
#428=CARTESIAN_POINT('',(9.00015212036645,5.37556423858741,0.719177005701363));
#429=CARTESIAN_POINT('',(9.00015212036646,5.59140125998865,0.681129430463577));
#430=CARTESIAN_POINT('',(9.00015212036645,5.80696330520001,0.641254355234187));
#431=CARTESIAN_POINT('',(9.00015212036645,6.02224001851469,0.59956355761654));
#432=CARTESIAN_POINT('',(9.00015212036645,6.23721988378252,0.556053542173119));
#433=CARTESIAN_POINT('',(9.00015212036645,6.451889984068,0.510706012202003));
#434=CARTESIAN_POINT('',(9.00015212036646,6.6662358062458,0.463488356167148));
#435=CARTESIAN_POINT('',(9.00015212036645,6.95163041382887,0.397962986863843));
#436=CARTESIAN_POINT('',(9.00015212036646,7.16503311526756,0.34587757313489));
#437=CARTESIAN_POINT('',(9.00015212036645,7.30697674726826,0.309750480360596));
#438=CARTESIAN_POINT('',(10.0000074683491,0.902502650176799,0.628576572723488));
#439=CARTESIAN_POINT('',(10.0000074683491,0.984496814775369,0.798937750956848));
#440=CARTESIAN_POINT('',(10.0000074683491,1.21781578358086,0.878459665967787));
#441=CARTESIAN_POINT('',(10.0000074683491,1.51810589360739,0.950418255493377));
#442=CARTESIAN_POINT('',(10.0000074683491,1.73000962403168,0.985150792485342));
#443=CARTESIAN_POINT('',(10.0000074683491,1.94141590168914,1.01015406124173));
#444=CARTESIAN_POINT('',(10.0000074683491,2.15305570604221,1.02685903626489));
#445=CARTESIAN_POINT('',(10.0000074683491,2.36473264470247,1.03668055949557));
#446=CARTESIAN_POINT('',(10.0000074683491,2.5764092383029,1.04044666898361));
#447=CARTESIAN_POINT('',(10.0000074683491,2.78799935872352,1.03881629378281));
#448=CARTESIAN_POINT('',(10.0000074683491,2.99943754857809,1.03227928990875));
#449=CARTESIAN_POINT('',(10.0000074683491,3.21048255155523,1.02128179099937));
#450=CARTESIAN_POINT('',(10.0000074683491,3.42089551059904,1.00605972607013));
#451=CARTESIAN_POINT('',(10.0000074683491,3.6304916307985,0.987378318677266));
#452=CARTESIAN_POINT('',(10.0000074683491,3.83951976904137,0.966203845499351));
#453=CARTESIAN_POINT('',(10.0000074683491,4.04814667852989,0.942529915298248));
#454=CARTESIAN_POINT('',(10.0000074683491,4.25655561792931,0.91655568868949));
#455=CARTESIAN_POINT('',(10.0000074683491,4.46473758957721,0.888407445099614));
#456=CARTESIAN_POINT('',(10.0000074683491,4.67268548064822,0.858206005557493));
#457=CARTESIAN_POINT('',(10.0000074683491,4.8803919405321,0.826046591063471));
#458=CARTESIAN_POINT('',(10.0000074683491,5.08784965913008,0.792006535156816));
#459=CARTESIAN_POINT('',(10.0000074683491,5.29505100131237,0.756145012934408));
#460=CARTESIAN_POINT('',(10.0000074683491,5.50198781559664,0.718504530882938));
#461=CARTESIAN_POINT('',(10.0000074683491,5.70865119872035,0.679111660940709));
#462=CARTESIAN_POINT('',(10.0000074683491,5.91503127395896,0.637977759955015));
#463=CARTESIAN_POINT('',(10.0000074683491,6.12111697119292,0.595099533530563));
#464=CARTESIAN_POINT('',(10.0000074683491,6.32689579871821,0.550459490040792));
#465=CARTESIAN_POINT('',(10.0000074683491,6.53235365825921,0.50402640846762));
#466=CARTESIAN_POINT('',(10.0000074683491,6.8059003587552,0.439652775879612));
#467=CARTESIAN_POINT('',(10.0000074683491,7.01042770698376,0.388553106325833));
#468=CARTESIAN_POINT('',(10.0000074683491,7.1464602056289,0.353141454311263));
#469=CARTESIAN_POINT('',(10.9998709016586,1.00723574266324,0.695901749063492));
#470=CARTESIAN_POINT('',(10.9998709016586,1.0866954767909,0.858668227167175));
#471=CARTESIAN_POINT('',(10.9998709016586,1.31063776303115,0.933603136758157));
#472=CARTESIAN_POINT('',(10.9998709016586,1.59869740090421,1.00093469294622));
#473=CARTESIAN_POINT('',(10.9998709016586,1.80188481850995,1.03307617765488));
#474=CARTESIAN_POINT('',(10.9998709016586,2.00454370773281,1.05589976775682));
#475=CARTESIAN_POINT('',(10.9998709016586,2.20738198452821,1.07077241918674));
#476=CARTESIAN_POINT('',(10.9998709016586,2.41021906473248,1.07905058698622));
#477=CARTESIAN_POINT('',(10.9998709016586,2.6130234667694,1.08152772441441));
#478=CARTESIAN_POINT('',(10.9998709016586,2.81571620062385,1.07883553970283));
#479=CARTESIAN_POINT('',(10.9998709016586,3.01823717548227,1.07144366020267));
#480=CARTESIAN_POINT('',(10.9998709016586,3.22035765317097,1.05978076672414));
#481=CARTESIAN_POINT('',(10.9998709016586,3.42185007108294,1.04407415311214));
#482=CARTESIAN_POINT('',(10.9998709016586,3.62254148511749,1.0250578838522));
#483=CARTESIAN_POINT('',(10.9998709016586,3.82267545973113,1.00365631398505));
#484=CARTESIAN_POINT('',(10.9998709016586,4.02241170885887,0.979862429977596));
#485=CARTESIAN_POINT('',(10.9998709016586,4.22192685656549,0.953866046963333));
#486=CARTESIAN_POINT('',(10.9998709016586,4.42121295774685,0.925788187568526));
#487=CARTESIAN_POINT('',(10.9998709016586,4.62026384379749,0.895744635254603));
#488=CARTESIAN_POINT('',(10.9998709016586,4.81907298156253,0.863826650154833));
#489=CARTESIAN_POINT('',(10.9998709016586,5.01763378114319,0.830108356158317));
#490=CARTESIAN_POINT('',(10.9998709016586,5.21593924426267,0.794646483265027));
#491=CARTESIAN_POINT('',(10.9998709016586,5.41398178894053,0.757481795853752));
#492=CARTESIAN_POINT('',(10.9998709016586,5.61175302787635,0.718639797164385));
#493=CARTESIAN_POINT('',(10.9998709016586,5.80924355992382,0.678131419715854));
#494=CARTESIAN_POINT('',(10.9998709016586,6.00644276240899,0.635953566642743));
#495=CARTESIAN_POINT('',(10.9998709016586,6.20333857495204,0.592089547853051));
#496=CARTESIAN_POINT('',(10.9998709016586,6.39991732475047,0.546509529202668));
#497=CARTESIAN_POINT('',(10.9998709016586,6.66162873810775,0.483378897216036));
#498=CARTESIAN_POINT('',(10.9998709016586,6.85729113779846,0.433333299738792));
#499=CARTESIAN_POINT('',(10.9998709016586,6.98741988841638,0.398682577541681));
#500=CARTESIAN_POINT('',(11.9997641079988,1.11342597741417,0.763313302380258));
#501=CARTESIAN_POINT('',(11.9997641079988,1.19035922984655,0.918651187494575));
#502=CARTESIAN_POINT('',(11.9997641079988,1.40508650730528,0.989143554534718));
#503=CARTESIAN_POINT('',(11.9997641079988,1.68113418065159,1.05200939493079));
#504=CARTESIAN_POINT('',(11.9997641079988,1.87576498419349,1.08166066789591));
#505=CARTESIAN_POINT('',(11.9997641079988,2.06983911930042,1.10239736964727));
#506=CARTESIAN_POINT('',(11.9997641079988,2.26404153941091,1.11552384729387));
#507=CARTESIAN_POINT('',(11.9997641079988,2.45820682405155,1.12233924744187));
#508=CARTESIAN_POINT('',(11.9997641079988,2.65230917495525,1.12360309631103));
#509=CARTESIAN_POINT('',(11.9997641079988,2.84627644435742,1.1199203854108));
#510=CARTESIAN_POINT('',(11.9997641079988,3.04005368691836,1.11174088769213));
#511=CARTESIAN_POINT('',(11.9997641079988,3.23342433412976,1.09947610966907));
#512=CARTESIAN_POINT('',(11.9997641079988,3.42617184343265,1.08334481913036));
#513=CARTESIAN_POINT('',(11.9997641079988,3.6181347093008,1.06405047782092));
#514=CARTESIAN_POINT('',(11.9997641079988,3.80955107374155,1.04247638710334));
#515=CARTESIAN_POINT('',(11.9997641079988,4.00057374866586,1.01861496319207));
#516=CARTESIAN_POINT('',(11.9997641079988,4.19137280361688,0.992646899917116));
#517=CARTESIAN_POINT('',(11.9997641079988,4.38194129543102,0.964688062288277));
#518=CARTESIAN_POINT('',(11.9997641079988,4.57227395250432,0.93484929160947));
#519=CARTESIAN_POINT('',(11.9997641079988,4.76236502051069,0.903217961742252));
#520=CARTESIAN_POINT('',(11.9997641079988,4.9522085972952,0.869865047048131));
#521=CARTESIAN_POINT('',(11.9997641079988,5.14179829494558,0.834844877735045));
#522=CARTESIAN_POINT('',(11.9997641079988,5.33112707979612,0.798196507702004));
#523=CARTESIAN_POINT('',(11.9997641079988,5.5201870641802,0.759944389955562));
#524=CARTESIAN_POINT('',(11.9997641079988,5.70896931063387,0.720099038494934));
#525=CARTESIAN_POINT('',(11.9997641079988,5.89746363609372,0.678657547517986));
#526=CARTESIAN_POINT('',(11.9997641079988,6.08565840738933,0.635604010014821));
#527=CARTESIAN_POINT('',(11.9997641079988,6.27354037648638,0.59090994859242));
#528=CARTESIAN_POINT('',(11.9997641079988,6.52366013156945,0.529064045398538));
#529=CARTESIAN_POINT('',(11.9997641079988,6.71064075942494,0.480101315635279));
#530=CARTESIAN_POINT('',(11.9997641079988,6.83498808299702,0.446229521409032));
#531=CARTESIAN_POINT('',(12.9997093656665,1.22097255876682,0.830836942219924));
#532=CARTESIAN_POINT('',(12.9997093656665,1.29545718949551,0.979055151432103));
#533=CARTESIAN_POINT('',(12.9997093656665,1.50132779431408,1.04531500580226));
#534=CARTESIAN_POINT('',(12.9997093656665,1.7658349519447,1.1039352785894));
#535=CARTESIAN_POINT('',(12.9997093656665,1.95224724146949,1.13122520063833));
#536=CARTESIAN_POINT('',(12.9997093656665,2.13807718513227,1.14998764532002));
#537=CARTESIAN_POINT('',(12.9997093656665,2.32398749761184,1.16146695997631));
#538=CARTESIAN_POINT('',(12.9997093656665,2.50982712036775,1.16690725219485));
#539=CARTESIAN_POINT('',(12.9997093656665,2.69557559708724,1.1670354754795));
#540=CARTESIAN_POINT('',(12.9997093656665,2.88116725766738,1.16243096334605));
#541=CARTESIAN_POINT('',(12.9997093656665,3.06655202884389,1.15352442093476));
#542=CARTESIAN_POINT('',(12.9997093656665,3.25152496291361,1.1407108355376));
#543=CARTESIAN_POINT('',(12.9997093656665,3.43588006341499,1.12420075775284));
#544=CARTESIAN_POINT('',(12.9997093656665,3.6194667000457,1.10466824748808));
#545=CARTESIAN_POINT('',(12.9997093656665,3.80251767705106,1.08295723160866));
#546=CARTESIAN_POINT('',(12.9997093656665,3.98517918176108,1.05905960180859));
#547=CARTESIAN_POINT('',(12.9997093656665,4.16761496451021,1.03314732125429));
#548=CARTESIAN_POINT('',(12.9997093656665,4.34981902659931,1.00533130277165));
#549=CARTESIAN_POINT('',(12.9997093656665,4.53178694090388,0.97571764256476));
#550=CARTESIAN_POINT('',(12.9997093656665,4.71351368765247,0.944389982938856));
#551=CARTESIAN_POINT('',(12.9997093656665,4.89499401426431,0.911416273927255));
#552=CARTESIAN_POINT('',(12.9997093656665,5.07622211061417,0.876848541058549));
#553=CARTESIAN_POINT('',(12.9997093656665,5.25719146354721,0.840724195172843));
#554=CARTESIAN_POINT('',(12.9997093656665,5.43789466136395,0.803066679904814));
#555=CARTESIAN_POINT('',(12.9997093656665,5.61832321014457,0.763886106148891));
#556=CARTESIAN_POINT('',(12.9997093656665,5.79846734927289,0.72317974999122));
#557=CARTESIAN_POINT('',(12.9997093656665,5.97831585806968,0.680932454411583));
#558=CARTESIAN_POINT('',(12.9997093656665,6.15785590053237,0.637117042468073));
#559=CARTESIAN_POINT('',(12.9997093656665,6.39685731179142,0.576541924538502));
#560=CARTESIAN_POINT('',(12.9997093656665,6.57551106081573,0.528646736795148));
#561=CARTESIAN_POINT('',(12.9997093656665,6.69431347998128,0.495541324973942));
#562=CARTESIAN_POINT('',(13.9997294996223,1.32979117046472,0.898540201841455));
#563=CARTESIAN_POINT('',(13.9997294996223,1.40197884848088,1.04008863862237));
#564=CARTESIAN_POINT('',(13.9997294996223,1.59954964731445,1.10238628691241));
#565=CARTESIAN_POINT('',(13.9997294996223,1.85324239197775,1.15703315450397));
#566=CARTESIAN_POINT('',(13.9997294996223,2.03195351225582,1.18211379265369));
#567=CARTESIAN_POINT('',(13.9997294996223,2.21005837737547,1.19902964731647));
#568=CARTESIAN_POINT('',(13.9997294996223,2.38819884253074,1.20896885816318));
#569=CARTESIAN_POINT('',(13.9997294996223,2.56623728428558,1.2131239589562));
#570=CARTESIAN_POINT('',(13.9997294996223,2.74415823888987,1.21219138243908));
#571=CARTESIAN_POINT('',(13.9997294996223,2.92190209555418,1.20672641961539));
#572=CARTESIAN_POINT('',(13.9997294996223,3.09942333852405,1.19714190834196));
#573=CARTESIAN_POINT('',(13.9997294996223,3.27652790174663,1.18381735390729));
#574=CARTESIAN_POINT('',(13.9997294996223,3.45301966666736,1.16695560383148));
#575=CARTESIAN_POINT('',(13.9997294996223,3.62875818111223,1.1472031660583));
#576=CARTESIAN_POINT('',(13.9997294996223,3.80397123301078,1.12536707793555));
#577=CARTESIAN_POINT('',(13.9997294996223,3.97879880265132,1.10143874226137));
#578=CARTESIAN_POINT('',(13.9997294996223,4.15339871628505,1.07558194451897));
#579=CARTESIAN_POINT('',(13.9997294996223,4.32776585821476,1.04790295726791));
#580=CARTESIAN_POINT('',(13.9997294996223,4.50189659071753,1.01850343050993));
#581=CARTESIAN_POINT('',(13.9997294996223,4.67578658082042,0.987463510020486));
#582=CARTESIAN_POINT('',(13.9997294996223,4.84943118339154,0.954848311966625));
#583=CARTESIAN_POINT('',(13.9997294996223,5.02282512877119,0.920707702306623));
#584=CARTESIAN_POINT('',(13.9997294996223,5.19596239086023,0.885077552231478));
#585=CARTESIAN_POINT('',(13.9997294996223,5.36883600352387,0.847980359471091));
#586=CARTESIAN_POINT('',(13.9997294996223,5.5414378882617,0.809425857063936));
#587=CARTESIAN_POINT('',(13.9997294996223,5.71375868033561,0.769411491352174));
#588=CARTESIAN_POINT('',(13.9997294996223,5.8857875458347,0.727922807852771));
#589=CARTESIAN_POINT('',(13.9997294996223,6.0575120353061,0.684933847910952));
#590=CARTESIAN_POINT('',(13.9997294996223,6.28609670602528,0.625553658188302));
#591=CARTESIAN_POINT('',(13.9997294996223,6.45694907363339,0.578661897777239));
#592=CARTESIAN_POINT('',(13.9997294996223,6.57055654073369,0.546276674226981));
#593=CARTESIAN_POINT('',(14.9998478803391,1.43981160205777,0.966531833061593));
#594=CARTESIAN_POINT('',(14.9998478803391,1.50993176707537,1.10199950048687));
#595=CARTESIAN_POINT('',(14.9998478803391,1.69996002493821,1.16066011846664));
#596=CARTESIAN_POINT('',(14.9998478803391,1.94382081200606,1.21165079492293));
#597=CARTESIAN_POINT('',(14.9998478803391,2.11552817882015,1.23469250761191));
#598=CARTESIAN_POINT('',(14.9998478803391,2.28660622896164,1.24989957092708));
#599=CARTESIAN_POINT('',(14.9998478803391,2.45767802621349,1.25840887517309));
#600=CARTESIAN_POINT('',(14.9998478803391,2.62861836316286,1.26136604594951));
#601=CARTESIAN_POINT('',(14.9998478803391,2.79941643040794,1.25943974577593));
#602=CARTESIAN_POINT('',(14.9998478803391,2.97001821965023,1.25316339743992));
#603=CARTESIAN_POINT('',(14.9998478803391,3.14038242827516,1.24293358754561));
#604=CARTESIAN_POINT('',(14.9998478803391,3.3103249527621,1.22911576438312));
#605=CARTESIAN_POINT('',(14.9998478803391,3.47965869548615,1.21190579731932));
#606=CARTESIAN_POINT('',(14.9998478803391,3.64825256930364,1.19192514553959));
#607=CARTESIAN_POINT('',(14.9998478803391,3.81632992648351,1.169947241969));
#608=CARTESIAN_POINT('',(14.9998478803391,3.98402509777536,1.14596302215636));
#609=CARTESIAN_POINT('',(14.9998478803391,4.15149054492496,1.120128804988));
#610=CARTESIAN_POINT('',(14.9998478803391,4.31872197271795,1.09254664138069));
#611=CARTESIAN_POINT('',(14.9998478803391,4.48571647800284,1.06331413604776));
#612=CARTESIAN_POINT('',(14.9998478803391,4.65247036557622,1.03250825375212));
#613=CARTESIAN_POINT('',(14.9998478803391,4.81897955346852,1.00019153269605));
#614=CARTESIAN_POINT('',(14.9998478803391,4.98523927179263,0.966411874555756));
#615=CARTESIAN_POINT('',(14.9998478803391,5.15124394338441,0.931203750465057));
#616=CARTESIAN_POINT('',(14.9998478803391,5.31698701115125,0.894588798530992));
#617=CARTESIAN_POINT('',(14.9998478803391,5.48246077616384,0.856576409249133));
#618=CARTESIAN_POINT('',(14.9998478803391,5.64765623350939,0.817164185384717));
#619=CARTESIAN_POINT('',(14.9998478803391,5.81256289891078,0.776338313467618));
#620=CARTESIAN_POINT('',(14.9998478803391,5.97716867051113,0.73407394542641));
#621=CARTESIAN_POINT('',(14.9998478803391,6.1962650248117,0.67574455844536));
#622=CARTESIAN_POINT('',(14.9998478803391,6.36001094633519,0.629738569941492));
#623=CARTESIAN_POINT('',(14.9998478803391,6.46888603449937,0.597990531407633));
#624=CARTESIAN_POINT('',(16.0000877374967,1.55097613056606,1.03496160021961));
#625=CARTESIAN_POINT('',(16.0000877374967,1.61934002174294,1.16507462782564));
#626=CARTESIAN_POINT('',(16.0000877374967,1.80278525082007,1.22047271168384));
#627=CARTESIAN_POINT('',(16.0000877374967,2.0380545467532,1.26816232619619));
#628=CARTESIAN_POINT('',(16.0000877374967,2.20363643650248,1.28934872991701));
#629=CARTESIAN_POINT('',(16.0000877374967,2.36856564473901,1.30298991219465));
#630=CARTESIAN_POINT('',(16.0000877374967,2.53344923454018,1.31017762090455));
#631=CARTESIAN_POINT('',(16.0000877374967,2.69817333678337,1.3120164440446));
#632=CARTESIAN_POINT('',(16.0000877374967,2.86273148903079,1.30915072378216));
#633=CARTESIAN_POINT('',(16.0000877374967,3.02707480582585,1.30209474973605));
#634=CARTESIAN_POINT('',(16.0000877374967,3.19116583515282,1.2912308902653));
#635=CARTESIAN_POINT('',(16.0000877374967,3.35482934756638,1.27691235510475));
#636=CARTESIAN_POINT('',(16.0000877374967,3.51788622624365,1.25932897683449));
#637=CARTESIAN_POINT('',(16.0000877374967,3.68021383815687,1.23908032667895));
#638=CARTESIAN_POINT('',(16.0000877374967,3.84203196266451,1.21691031228871));
#639=CARTESIAN_POINT('',(16.0000877374967,4.0034699782653,1.19280940567618));
#640=CARTESIAN_POINT('',(16.0000877374967,4.16467571092531,1.16692732394284));
#641=CARTESIAN_POINT('',(16.0000877374967,4.32564562533511,1.13936242188499));
#642=CARTESIAN_POINT('',(16.0000877374967,4.48637750119989,1.11020876200699));
#643=CARTESIAN_POINT('',(16.0000877374967,4.64686823304452,1.07954052422619));
#644=CARTESIAN_POINT('',(16.0000877374967,4.80711425744987,1.04741799028202));
#645=CARTESIAN_POINT('',(16.0000877374967,4.96711126164237,1.01388734320754));
#646=CARTESIAN_POINT('',(16.0000877374967,5.12685407561634,0.978981830039976));
#647=CARTESIAN_POINT('',(16.0000877374967,5.28633650931095,0.942722338567153));
#648=CARTESIAN_POINT('',(16.0000877374967,5.4455512000669,0.90511796235149));
#649=CARTESIAN_POINT('',(16.0000877374967,5.60448945718418,0.866166444810905));
#650=CARTESIAN_POINT('',(16.0000877374967,5.7631410970601,0.825854538191324));
#651=CARTESIAN_POINT('',(16.0000877374967,5.92149431227013,0.78415837210069));
#652=CARTESIAN_POINT('',(16.0000877374967,6.13225602325134,0.726660914177269));
#653=CARTESIAN_POINT('',(16.0000877374967,6.28975862625159,0.681364657029846));
#654=CARTESIAN_POINT('',(16.0000877374967,6.39447566707371,0.650130769334433));
#655=CARTESIAN_POINT('',(17.0004730985426,1.6632385921928,1.10402016925234));
#656=CARTESIAN_POINT('',(17.0004730985426,1.73024334190446,1.2296398218449));
#657=CARTESIAN_POINT('',(17.0004730985426,1.90826919305692,1.28219356245888));
#658=CARTESIAN_POINT('',(17.0004730985426,2.13644717813909,1.32696792185072));
#659=CARTESIAN_POINT('',(17.0004730985426,2.29696354304302,1.34649078550855));
#660=CARTESIAN_POINT('',(17.0004730985426,2.45680217294949,1.35870901600149));
#661=CARTESIAN_POINT('',(17.0004730985426,2.61655767794971,1.36467645660228));
#662=CARTESIAN_POINT('',(17.0004730985426,2.77612642491253,1.36546373775491));
#663=CARTESIAN_POINT('',(17.0004730985426,2.93550604175083,1.36169503130157));
#664=CARTESIAN_POINT('',(17.0004730985426,3.09465227924878,1.35386879149893));
#665=CARTESIAN_POINT('',(17.0004730985426,3.25353116707839,1.3423556199727));
#666=CARTESIAN_POINT('',(17.0004730985426,3.41197510283993,1.3274987055481));
#667=CARTESIAN_POINT('',(17.0004730985426,3.56981173293897,1.30948300755412));
#668=CARTESIAN_POINT('',(17.0004730985426,3.72692588817621,1.28889003201694));
#669=CARTESIAN_POINT('',(17.0004730985426,3.88353494308569,1.26643902842629));
#670=CARTESIAN_POINT('',(17.0004730985426,4.03976416081758,1.24211998702314));
#671=CARTESIAN_POINT('',(17.0004730985426,4.19575763420902,1.21607703722946));
#672=CARTESIAN_POINT('',(17.0004730985426,4.35151253226009,1.18840547034636));
#673=CARTESIAN_POINT('',(17.0004730985426,4.50702727184329,1.15919641207339));
#674=CARTESIAN_POINT('',(17.0004730985426,4.66229929245156,1.12852173446656));
#675=CARTESIAN_POINT('',(17.0004730985426,4.81732550614178,1.09643985007304));
#676=CARTESIAN_POINT('',(17.0004730985426,4.9721020140543,1.06299551945042));
#677=CARTESIAN_POINT('',(17.0004730985426,5.12662400893401,1.02822097806055));
#678=CARTESIAN_POINT('',(17.0004730985426,5.28088562089398,0.992136495909161));
#679=CARTESIAN_POINT('',(17.0004730985426,5.43487977306558,0.954750925768659));
#680=CARTESIAN_POINT('',(17.0004730985426,5.58859803371107,0.916062134268636));
#681=CARTESIAN_POINT('',(17.0004730985426,5.74203045869813,0.876057350604175));
#682=CARTESIAN_POINT('',(17.0004730985426,5.89516546691054,0.834713524300956));
#683=CARTESIAN_POINT('',(17.0004730985426,6.09896987945755,0.777747793520287));
#684=CARTESIAN_POINT('',(17.0004730985426,6.25125923300846,0.732921922557703));
#685=CARTESIAN_POINT('',(17.0004730985426,6.35250345037808,0.702035848752177));
#686=CARTESIAN_POINT('',(18.3352585046025,1.81441963103943,1.19729638684461));
#687=CARTESIAN_POINT('',(18.3352585046025,1.88026114819212,1.31824784309855));
#688=CARTESIAN_POINT('',(18.3352585046025,2.05288420978447,1.36761531255931));
#689=CARTESIAN_POINT('',(18.3352585046025,2.27395167406185,1.40904600639193));
#690=CARTESIAN_POINT('',(18.3352585046025,2.42936754200596,1.42660917492357));
#691=CARTESIAN_POINT('',(18.3352585046025,2.58406782688698,1.4371126966247));
#692=CARTESIAN_POINT('',(18.3352585046025,2.73863631515809,1.44157098532733));
#693=CARTESIAN_POINT('',(18.3352585046025,2.89298157342313,1.44102043302413));
#694=CARTESIAN_POINT('',(18.3352585046025,3.04710643949997,1.43606477345255));
#695=CARTESIAN_POINT('',(18.3352585046025,3.20097221293213,1.42718648756257));
#696=CARTESIAN_POINT('',(18.3352585046025,3.35454908400532,1.41474430960382));
#697=CARTESIAN_POINT('',(18.3352585046025,3.50767776540773,1.39907155826595));
#698=CARTESIAN_POINT('',(18.3352585046025,3.66019307333809,1.38034854787562));
#699=CARTESIAN_POINT('',(18.3352585046025,3.81198839468229,1.35913867220928));
#700=CARTESIAN_POINT('',(18.3352585046025,3.96327989331276,1.33613581959133));
#701=CARTESIAN_POINT('',(18.3352585046025,4.11418864450057,1.31132927838138));
#702=CARTESIAN_POINT('',(18.3352585046025,4.26485520343549,1.28485726929106));
#703=CARTESIAN_POINT('',(18.3352585046025,4.41527761542358,1.25681198366905));
#704=CARTESIAN_POINT('',(18.3352585046025,4.56545509849261,1.22728157353212));
#705=CARTESIAN_POINT('',(18.3352585046025,4.71538576701474,1.19633557633963));
#706=CARTESIAN_POINT('',(18.3352585046025,4.86506711454438,1.16403051552241));
#707=CARTESIAN_POINT('',(18.3352585046025,5.01449573804623,1.13040971664154));
#708=CARTESIAN_POINT('',(18.3352585046025,5.16366725287712,1.09550439814908));
#709=CARTESIAN_POINT('',(18.3352585046025,5.3125761482062,1.05933421395335));
#710=CARTESIAN_POINT('',(18.3352585046025,5.46121565190412,1.02190778486026));
#711=CARTESIAN_POINT('',(18.3352585046025,5.60957759104707,0.983223116750598));
#712=CARTESIAN_POINT('',(18.3352585046025,5.75765224242168,0.943267939154412));
#713=CARTESIAN_POINT('',(18.3352585046025,5.90542821496078,0.902020052314562));
#714=CARTESIAN_POINT('',(18.3352585046025,6.10208442278102,0.845245656847227));
#715=CARTESIAN_POINT('',(18.3352585046025,6.24901382691604,0.800636804730794));
#716=CARTESIAN_POINT('',(18.3352585046025,6.34668574788876,0.769930575402377));
#717=CARTESIAN_POINT('',(19.3350645049022,1.92918436363773,1.26884343806961));
#718=CARTESIAN_POINT('',(19.3350645049022,1.99502719071076,1.38798771712489));
#719=CARTESIAN_POINT('',(19.3350645049022,2.16597156340551,1.43570188436287));
#720=CARTESIAN_POINT('',(19.3350645049022,2.38475233162191,1.47526636069882));
#721=CARTESIAN_POINT('',(19.3350645049022,2.53848794615998,1.49165076067335));
#722=CARTESIAN_POINT('',(19.3350645049022,2.69147186907148,1.50106134600046));
#723=CARTESIAN_POINT('',(19.3350645049022,2.84428753398789,1.5044971754215));
#724=CARTESIAN_POINT('',(19.3350645049022,2.99685107219573,1.50298327476564));
#725=CARTESIAN_POINT('',(19.3350645049022,3.14916908184257,1.49711640413173));
#726=CARTESIAN_POINT('',(19.3350645049022,3.30120633959308,1.48737372879215));
#727=CARTESIAN_POINT('',(19.3350645049022,3.45293563296853,1.47411003718724));
#728=CARTESIAN_POINT('',(19.3350645049022,3.60420160396938,1.45765580847573));
#729=CARTESIAN_POINT('',(19.3350645049022,3.75484210477487,1.43819031731097));
#730=CARTESIAN_POINT('',(19.3350645049022,3.90475529017948,1.41627113623819));
#731=CARTESIAN_POINT('',(19.3350645049022,4.05415919299386,1.39258280099832));
#732=CARTESIAN_POINT('',(19.3350645049022,4.20317342624504,1.36711396269421));
#733=CARTESIAN_POINT('',(19.3350645049022,4.35193779412858,1.34000036649862));
#734=CARTESIAN_POINT('',(19.3350645049022,4.50045094367375,1.31133315387477));
#735=CARTESIAN_POINT('',(19.3350645049022,4.64871265574256,1.28119946612462));
#736=CARTESIAN_POINT('',(19.3350645049022,4.79672150330907,1.24966805139088));
#737=CARTESIAN_POINT('',(19.3350645049022,4.94447536392001,1.21679479762685));
#738=CARTESIAN_POINT('',(19.3350645049022,5.0919711459453,1.18262255260591));
#739=CARTESIAN_POINT('',(19.3350645049022,5.23920471139203,1.14718220264933));
#740=CARTESIAN_POINT('',(19.3350645049022,5.38617073639934,1.11049320984887));
#741=CARTESIAN_POINT('',(19.3350645049022,5.53286258102289,1.07256413823406));
#742=CARTESIAN_POINT('',(19.3350645049022,5.6792721539735,1.03339306800789));
#743=CARTESIAN_POINT('',(19.3350645049022,5.82538976697142,0.992967931159574));
#744=CARTESIAN_POINT('',(19.3350645049022,5.97120402071714,0.951266855268161));
#745=CARTESIAN_POINT('',(19.3350645049022,6.16523779786267,0.893911061052607));
#746=CARTESIAN_POINT('',(19.3350645049022,6.31019412114771,0.848893061303135));
#747=CARTESIAN_POINT('',(19.3350645049022,6.40654781730005,0.817926973449388));
#748=CARTESIAN_POINT('',(20.,2.00616286771069,1.31759452117611));
#749=CARTESIAN_POINT('',(20.,2.07252292155488,1.43645107537734));
#750=CARTESIAN_POINT('',(20.,2.24367267383161,1.48342141516392));
#751=CARTESIAN_POINT('',(20.,2.46262280656178,1.52203417551301));
#752=CARTESIAN_POINT('',(20.,2.61642779124421,1.53774995044887));
#753=CARTESIAN_POINT('',(20.,2.76945077203078,1.54649526372524));
#754=CARTESIAN_POINT('',(20.,2.92227951926637,1.54926662524053));
#755=CARTESIAN_POINT('',(20.,3.07483462195897,1.54708941302483));
#756=CARTESIAN_POINT('',(20.,3.22712527282511,1.54056035123987));
#757=CARTESIAN_POINT('',(20.,3.37911832362091,1.53015675250909));
#758=CARTESIAN_POINT('',(20.,3.53078810478038,1.51623351928004));
#759=CARTESIAN_POINT('',(20.,3.68198069707921,1.49912180217698));
#760=CARTESIAN_POINT('',(20.,3.83253473413334,1.47900157867695));
#761=CARTESIAN_POINT('',(20.,3.98235079624018,1.45643085736421));
#762=CARTESIAN_POINT('',(20.,4.13164988985007,1.4320932176811));
#763=CARTESIAN_POINT('',(20.,4.28055157719327,1.40597679080367));
#764=CARTESIAN_POINT('',(20.,4.4291962509726,1.37821671240205));
#765=CARTESIAN_POINT('',(20.,4.57758295450708,1.3489041287149));
#766=CARTESIAN_POINT('',(20.,4.72571184754248,1.31812618093845));
#767=CARTESIAN_POINT('',(20.,4.87358180197973,1.28595162258485));
#768=CARTESIAN_POINT('',(20.,5.02119093838622,1.25243635015672));
#769=CARTESIAN_POINT('',(20.,5.16853635146693,1.21762322434901));
#770=CARTESIAN_POINT('',(20.,5.31561403756966,1.18154314909939));
#771=CARTESIAN_POINT('',(20.,5.4624187575173,1.14421560941076));
#772=CARTESIAN_POINT('',(20.,5.60894390868166,1.10564919807839));
#773=CARTESIAN_POINT('',(20.,5.75518139152477,1.06584203050865));
#774=CARTESIAN_POINT('',(20.,5.90112146541415,1.02478208096097));
#775=CARTESIAN_POINT('',(20.,6.04675263608981,0.98244752684301));
#776=CARTESIAN_POINT('',(20.,6.24053467938642,0.924248791232304));
#777=CARTESIAN_POINT('',(20.,6.38529350839271,0.878601083737896));
#778=CARTESIAN_POINT('',(20.,6.48151139686792,0.847216436471669));
#779=CARTESIAN_POINT('',(0.,0.,0.));
#780=CARTESIAN_POINT('',(20.,2.00616286771069,1.31759452117611));
#781=CARTESIAN_POINT('',(20.,6.48151139686792,0.847216436471669));
#782=CARTESIAN_POINT('',(0.,8.,-1.32931686705798E-16));
#783=CARTESIAN_POINT('',(0.,0.,0.));
#784=CARTESIAN_POINT('',(0.666587298407969,0.0358418720349119,0.0289721679161491));
#785=CARTESIAN_POINT('',(1.6664479419608,0.112716377092123,0.0861758139025329));
#786=CARTESIAN_POINT('',(3.0001103532003,0.225039398116462,0.16755758601364));
#787=CARTESIAN_POINT('',(4.00029478449155,0.313866192164525,0.230846347531537));
#788=CARTESIAN_POINT('',(5.00040299145543,0.406008664730324,0.295515073375938));
#789=CARTESIAN_POINT('',(6.00042726300299,0.500990328976729,0.361183185006472));
#790=CARTESIAN_POINT('',(7.00038194561533,0.598388129488414,0.427519944744346));
#791=CARTESIAN_POINT('',(8.00028373945514,0.697916298154317,0.494299318114023));
#792=CARTESIAN_POINT('',(9.00015212036645,0.799347440549587,0.561354992988808));
#793=CARTESIAN_POINT('',(10.0000074683491,0.902502650176799,0.628576572723488));
#794=CARTESIAN_POINT('',(10.9998709016586,1.00723574266324,0.695901749063492));
#795=CARTESIAN_POINT('',(11.9997641079988,1.11342597741417,0.763313302380258));
#796=CARTESIAN_POINT('',(12.9997093656665,1.22097255876682,0.830836942219924));
#797=CARTESIAN_POINT('',(13.9997294996223,1.32979117046472,0.898540201841455));
#798=CARTESIAN_POINT('',(14.9998478803391,1.43981160205777,0.966531833061593));
#799=CARTESIAN_POINT('',(16.0000877374967,1.55097613056606,1.03496160021961));
#800=CARTESIAN_POINT('',(17.0004730985426,1.6632385921928,1.10402016925234));
#801=CARTESIAN_POINT('',(18.3352585046025,1.81441963103943,1.19729638684461));
#802=CARTESIAN_POINT('',(19.3350645049022,1.92918436363773,1.26884343806961));
#803=CARTESIAN_POINT('',(20.,2.00616286771069,1.31759452117611));
#804=CARTESIAN_POINT('',(20.,2.00616286771069,1.31759452117611));
#805=CARTESIAN_POINT('',(20.,2.07252292155488,1.43645107537734));
#806=CARTESIAN_POINT('',(20.,2.24367267383161,1.48342141516392));
#807=CARTESIAN_POINT('',(20.,2.46262280656178,1.52203417551301));
#808=CARTESIAN_POINT('',(20.,2.61642779124421,1.53774995044887));
#809=CARTESIAN_POINT('',(20.,2.76945077203078,1.54649526372524));
#810=CARTESIAN_POINT('',(20.,2.92227951926637,1.54926662524053));
#811=CARTESIAN_POINT('',(20.,3.07483462195897,1.54708941302483));
#812=CARTESIAN_POINT('',(20.,3.22712527282511,1.54056035123987));
#813=CARTESIAN_POINT('',(20.,3.37911832362091,1.53015675250909));
#814=CARTESIAN_POINT('',(20.,3.53078810478038,1.51623351928004));
#815=CARTESIAN_POINT('',(20.,3.68198069707921,1.49912180217698));
#816=CARTESIAN_POINT('',(20.,3.83253473413334,1.47900157867695));
#817=CARTESIAN_POINT('',(20.,3.98235079624018,1.45643085736421));
#818=CARTESIAN_POINT('',(20.,4.13164988985007,1.4320932176811));
#819=CARTESIAN_POINT('',(20.,4.28055157719327,1.40597679080367));
#820=CARTESIAN_POINT('',(20.,4.4291962509726,1.37821671240205));
#821=CARTESIAN_POINT('',(20.,4.57758295450708,1.3489041287149));
#822=CARTESIAN_POINT('',(20.,4.72571184754248,1.31812618093845));
#823=CARTESIAN_POINT('',(20.,4.87358180197973,1.28595162258485));
#824=CARTESIAN_POINT('',(20.,5.02119093838622,1.25243635015672));
#825=CARTESIAN_POINT('',(20.,5.16853635146693,1.21762322434901));
#826=CARTESIAN_POINT('',(20.,5.31561403756966,1.18154314909939));
#827=CARTESIAN_POINT('',(20.,5.4624187575173,1.14421560941076));
#828=CARTESIAN_POINT('',(20.,5.60894390868166,1.10564919807839));
#829=CARTESIAN_POINT('',(20.,5.75518139152477,1.06584203050865));
#830=CARTESIAN_POINT('',(20.,5.90112146541415,1.02478208096097));
#831=CARTESIAN_POINT('',(20.,6.04675263608981,0.98244752684301));
#832=CARTESIAN_POINT('',(20.,6.24053467938642,0.924248791232304));
#833=CARTESIAN_POINT('',(20.,6.38529350839271,0.878601083737896));
#834=CARTESIAN_POINT('',(20.,6.48151139686792,0.847216436471669));
#835=CARTESIAN_POINT('',(20.,6.48151139686792,0.847216436471669));
#836=CARTESIAN_POINT('',(19.3350645049022,6.40654781730005,0.817926973449388));
#837=CARTESIAN_POINT('',(18.3352585046025,6.34668574788876,0.769930575402377));
#838=CARTESIAN_POINT('',(17.0004730985426,6.35250345037808,0.702035848752177));
#839=CARTESIAN_POINT('',(16.0000877374967,6.39447566707371,0.650130769334433));
#840=CARTESIAN_POINT('',(14.9998478803391,6.46888603449937,0.597990531407633));
#841=CARTESIAN_POINT('',(13.9997294996223,6.57055654073369,0.546276674226981));
#842=CARTESIAN_POINT('',(12.9997093656665,6.69431347998128,0.495541324973942));
#843=CARTESIAN_POINT('',(11.9997641079988,6.83498808299702,0.446229521409032));
#844=CARTESIAN_POINT('',(10.9998709016586,6.98741988841638,0.398682577541681));
#845=CARTESIAN_POINT('',(10.0000074683491,7.1464602056289,0.353141454311263));
#846=CARTESIAN_POINT('',(9.00015212036645,7.30697674726826,0.309750480360596));
#847=CARTESIAN_POINT('',(8.00028373945514,7.46386015581132,0.268561494561194));
#848=CARTESIAN_POINT('',(7.00038194561533,7.61203218934489,0.229538363845457));
#849=CARTESIAN_POINT('',(6.00042726300299,7.74646224725215,0.192562864970429));
#850=CARTESIAN_POINT('',(5.00040299145543,7.86217780164426,0.157439451383137));
#851=CARTESIAN_POINT('',(4.00029478449155,7.95434386124785,0.123910424081241));
#852=CARTESIAN_POINT('',(3.0001103532003,8.01817885941467,0.091643442015979));
#853=CARTESIAN_POINT('',(1.6664479419608,8.06020149102787,0.0499133963705793));
#854=CARTESIAN_POINT('',(0.666587298407969,8.03584355138595,0.0192517713195741));
#855=CARTESIAN_POINT('',(0.,8.,-1.32931686705798E-16));
#856=CARTESIAN_POINT('',(0.,8.,-1.32931686705798E-16));
#857=CARTESIAN_POINT('',(0.,7.82405086975354,0.0376092637573339));
#858=CARTESIAN_POINT('',(0.,7.55962898582337,0.0914158888881831));
#859=CARTESIAN_POINT('',(0.,7.20619981358306,0.158303315826734));
#860=CARTESIAN_POINT('',(0.,6.94085127354726,0.206090050984722));
#861=CARTESIAN_POINT('',(0.,6.67519343830687,0.251565832664829));
#862=CARTESIAN_POINT('',(0.,6.409242574904,0.294771380019464));
#863=CARTESIAN_POINT('',(0.,6.14301367043213,0.335729765111988));
#864=CARTESIAN_POINT('',(0.,5.87652069497871,0.374445825101331));
#865=CARTESIAN_POINT('',(0.,5.60977691903259,0.410905594546678));
#866=CARTESIAN_POINT('',(0.,5.34279522652935,0.4450755967922));
#867=CARTESIAN_POINT('',(0.,5.07558843891057,0.476901936465408));
#868=CARTESIAN_POINT('',(0.,4.8081696575844,0.506309374075488));
#869=CARTESIAN_POINT('',(0.,4.54055259261733,0.533199431681986));
#870=CARTESIAN_POINT('',(0.,4.27275201488616,0.55745076003199));
#871=CARTESIAN_POINT('',(0.,4.0047838352614,0.578909260413277));
#872=CARTESIAN_POINT('',(0.,3.73666668275005,0.597413960506509));
#873=CARTESIAN_POINT('',(0.,3.46817744963127,0.612699846238308));
#874=CARTESIAN_POINT('',(0.,3.19910253966368,0.624765684095968));
#875=CARTESIAN_POINT('',(0.,2.92917823330018,0.632361809746593));
#876=CARTESIAN_POINT('',(0.,2.65868400227559,0.634520117294849));
#877=CARTESIAN_POINT('',(0.,2.38793859356099,0.630952386009282));
#878=CARTESIAN_POINT('',(0.,2.11727567952006,0.621101731256104));
#879=CARTESIAN_POINT('',(0.,1.84680659589123,0.604345441827276));
#880=CARTESIAN_POINT('',(0.,1.57667864829111,0.579845770309557));
#881=CARTESIAN_POINT('',(0.,1.30698647192285,0.546545976889831));
#882=CARTESIAN_POINT('',(0.,1.03806101284874,0.502647910113907));
#883=CARTESIAN_POINT('',(0.,0.769048250039225,0.446280477281627));
#884=CARTESIAN_POINT('',(0.,0.38911123938654,0.337324465700639));
#885=CARTESIAN_POINT('',(0.,0.0952402374505188,0.222474595576602));
#886=CARTESIAN_POINT('',(0.,0.,0.));
#887=CARTESIAN_POINT('',(0.,0.,0.));
ENDSEC;
END-ISO-10303-21;
